<svg xmlns="http://www.w3.org/2000/svg" xmlns:xlink="http://www.w3.org/1999/xlink" width="63" height="63" viewBox="0 0 63 63">
  <defs>
    <clipPath id="clip-path">
      <rect id="Ret창ngulo_811" data-name="Ret창ngulo 811" width="21" height="29.695" fill="#fff"/>
    </clipPath>
  </defs>
  <g id="Grupo_4585" data-name="Grupo 4585" transform="translate(0 -108)">
    <g id="Grupo_4584" data-name="Grupo 4584" transform="translate(-4055.018 -4486)">
      <g id="Grupo_4582" data-name="Grupo 4582" transform="translate(1536.018 5885)">
        <g id="Grupo_526" data-name="Grupo 526" transform="translate(2519 -1291)">
          <rect id="Ret창ngulo_151" data-name="Ret창ngulo 151" width="63" height="63" rx="15" fill="#e53537"/>
        </g>
      </g>
    </g>
    <g id="Grupo_4369" data-name="Grupo 4369" transform="translate(21 124.652)">
      <g id="Grupo_4368" data-name="Grupo 4368" transform="translate(0 0)" clip-path="url(#clip-path)">
        <path id="Caminho_4252" data-name="Caminho 4252" d="M20.183,7.084H8.609a.817.817,0,0,0-.817.816V18.006H.81V.81H12.4V5.153a.4.4,0,0,0,.81,0V.4a.4.4,0,0,0-.4-.4H.4A.4.4,0,0,0,0,.4v21.8a.405.405,0,0,0,.4.406H7.618c.063,0,.174-.007.174-.007v6.275a.817.817,0,0,0,.817.816H20.183A.817.817,0,0,0,21,28.879V7.9a.817.817,0,0,0-.817-.816M20.19,25.09H8.6V7.894H20.19ZM.81,21.8V18.814H7.792V19.9H5.721a.4.4,0,0,0,0,.81H7.792v1.106ZM8.6,25.9H20.19v2.986H8.6Z" transform="translate(0 0)" fill="#fff"/>
        <path id="Caminho_4253" data-name="Caminho 4253" d="M11.347,18.888H9.583a.4.4,0,1,0,0,.81h1.764a.4.4,0,0,0,0-.81" transform="translate(3.932 8.093)" fill="#fff"/>
      </g>
    </g>
  </g>
</svg>
