<svg xmlns="http://www.w3.org/2000/svg" xmlns:xlink="http://www.w3.org/1999/xlink" width="63" height="63" viewBox="0 0 63 63">
  <defs>
    <clipPath id="clip-path">
      <rect id="Ret창ngulo_655" data-name="Ret창ngulo 655" width="25.083" height="24.826" fill="#fff"/>
    </clipPath>
  </defs>
  <g id="Grupo_4583" data-name="Grupo 4583" transform="translate(-4055.018 -4594)">
    <g id="Grupo_4582" data-name="Grupo 4582" transform="translate(1536.018 5885)">
      <g id="Grupo_526" data-name="Grupo 526" transform="translate(2519 -1291)">
        <rect id="Ret창ngulo_151" data-name="Ret창ngulo 151" width="63" height="63" rx="15" fill="#e53537"/>
      </g>
    </g>
    <g id="Grupo_3157" data-name="Grupo 3157" transform="translate(4074.018 4613)">
      <g id="Grupo_3157-2" data-name="Grupo 3157" transform="translate(0 0)" clip-path="url(#clip-path)">
        <path id="Caminho_3710" data-name="Caminho 3710" d="M24.747,8.566H8.267L7.062,2.609a.337.337,0,0,0-.329-.271H.336a.337.337,0,0,0,0,.673H6.457L9.425,17.688v6.363a.337.337,0,0,0,.336.336H18.6a.337.337,0,1,0,0-.673H10.1V17.991h9.183a.337.337,0,0,0,.285-.158l5.465-8.752a.336.336,0,0,0-.285-.516M8.4,9.239h5.229v2.1h-4.8ZM9.52,14.762l-.556-2.746h4.667v2.693H9.691a.327.327,0,0,0-.171.053m.517,2.556-.393-1.946a.306.306,0,0,0,.048.01h3.94v1.872a.293.293,0,0,0,.013.064Zm8.814,0H14.292a.293.293,0,0,0,.013-.064V15.382H18.85Zm0-2.61H14.3V12.016H18.85Zm0-3.366H14.3v-2.1H18.85Zm.673,5.288V15.382H20.3Zm1.2-1.922h-1.2V12.016h2.882Zm2.1-3.357a.291.291,0,0,0-.046-.01h-3.25v-2.1H24.14Z" transform="translate(0 0.44)" fill="#fff"/>
        <path id="Caminho_3711" data-name="Caminho 3711" d="M13.443,0a.337.337,0,0,0-.336.336V5.782L10.56,3.375a.336.336,0,1,0-.462.488l3.113,2.946a.333.333,0,0,0,.051.032.264.264,0,0,0,.055.034.332.332,0,0,0,.126.026.339.339,0,0,0,.128-.026A.331.331,0,0,0,13.68,6.8h0l2.945-2.946a.337.337,0,1,0-.476-.476L13.779,5.751V.336A.336.336,0,0,0,13.443,0" transform="translate(1.877 0)" fill="#fff"/>
      </g>
    </g>
  </g>
</svg>
