<svg xmlns="http://www.w3.org/2000/svg" xmlns:xlink="http://www.w3.org/1999/xlink" width="63" height="63" viewBox="0 0 63 63">
  <defs>
    <clipPath id="clip-path">
      <rect id="Ret창ngulo_811" data-name="Ret창ngulo 811" width="23" height="16.057" fill="#fff"/>
    </clipPath>
  </defs>
  <g id="Grupo_4585" data-name="Grupo 4585" transform="translate(0 -108)">
    <g id="Grupo_4584" data-name="Grupo 4584" transform="translate(-4055.018 -4486)">
      <g id="Grupo_4582" data-name="Grupo 4582" transform="translate(1536.018 5885)">
        <g id="Grupo_526" data-name="Grupo 526" transform="translate(2519 -1291)">
          <rect id="Ret창ngulo_151" data-name="Ret창ngulo 151" width="63" height="63" rx="15" fill="#e53537"/>
        </g>
      </g>
    </g>
    <g id="Grupo_4370" data-name="Grupo 4370" transform="translate(20 131.472)">
      <g id="Grupo_4369" data-name="Grupo 4369" transform="translate(0 0)" clip-path="url(#clip-path)">
        <path id="Caminho_4252" data-name="Caminho 4252" d="M15.156,3.76H.328a.327.327,0,1,1,0-.654H15.156a.327.327,0,0,1,0,.654" transform="translate(0 0.477)" fill="#fff"/>
        <path id="Caminho_4253" data-name="Caminho 4253" d="M15.156,8.884H.328a.327.327,0,1,1,0-.654H15.156a.327.327,0,0,1,0,.654" transform="translate(0 1.263)" fill="#fff"/>
        <path id="Caminho_4254" data-name="Caminho 4254" d="M15.156,14.008H.328a.327.327,0,1,1,0-.654H15.156a.327.327,0,0,1,0,.654" transform="translate(0 2.05)" fill="#fff"/>
        <path id="Caminho_4255" data-name="Caminho 4255" d="M16.752,8.884h-.858a.327.327,0,0,1,0-.654h.858a.327.327,0,0,1,0,.654" transform="translate(2.389 1.263)" fill="#fff"/>
        <path id="Caminho_4256" data-name="Caminho 4256" d="M16.752,14.008h-.858a.327.327,0,0,1,0-.654h.858a.327.327,0,0,1,0,.654" transform="translate(2.389 2.05)" fill="#fff"/>
        <path id="Caminho_4257" data-name="Caminho 4257" d="M16.5,4.457a.33.33,0,0,1-.224-.089l-.865-.809a.327.327,0,1,1,.448-.478l.634.594,3.6-3.581a.327.327,0,1,1,.46.464l-3.827,3.8a.331.331,0,0,1-.231.095" transform="translate(2.349 0)" fill="#fff"/>
      </g>
    </g>
  </g>
</svg>
