<svg xmlns="http://www.w3.org/2000/svg" xmlns:xlink="http://www.w3.org/1999/xlink" width="63" height="63" viewBox="0 0 63 63">
  <defs>
    <clipPath id="clip-path">
      <rect id="Ret창ngulo_811" data-name="Ret창ngulo 811" width="23" height="22.72" fill="#fff"/>
    </clipPath>
  </defs>
  <g id="Grupo_4585" data-name="Grupo 4585" transform="translate(0 -161)">
    <g id="Grupo_4584" data-name="Grupo 4584" transform="translate(-4055.018 -4433)">
      <g id="Grupo_4582" data-name="Grupo 4582" transform="translate(1536.018 5885)">
        <g id="Grupo_526" data-name="Grupo 526" transform="translate(2519 -1291)">
          <rect id="Ret창ngulo_151" data-name="Ret창ngulo 151" width="63" height="63" rx="15" fill="#e53537"/>
        </g>
      </g>
    </g>
    <g id="Grupo_4370" data-name="Grupo 4370" transform="translate(20 181.14)">
      <g id="Grupo_4369" data-name="Grupo 4369" transform="translate(0 0)" clip-path="url(#clip-path)">
        <path id="Caminho_4252" data-name="Caminho 4252" d="M22.687,22.72H.313A.313.313,0,0,1,0,22.407V.313A.313.313,0,0,1,.313,0H22.687A.313.313,0,0,1,23,.313V22.407a.313.313,0,0,1-.313.313M.627,22.093H22.374V.626H.627Z" transform="translate(0 0)" fill="#fff"/>
        <path id="Caminho_4253" data-name="Caminho 4253" d="M6.068,9.515A.313.313,0,0,1,5.755,9.2V4.187a.313.313,0,1,1,.626,0V9.2a.313.313,0,0,1-.313.313" transform="translate(0.61 0.41)" fill="#fff"/>
        <path id="Caminho_4254" data-name="Caminho 4254" d="M8.816,6.767H3.8a.314.314,0,1,1,0-.627H8.816a.314.314,0,0,1,0,.627" transform="translate(0.369 0.65)" fill="#fff"/>
        <path id="Caminho_4255" data-name="Caminho 4255" d="M17.536,6.767H12.522a.314.314,0,1,1,0-.627h5.014a.314.314,0,0,1,0,.627" transform="translate(1.293 0.65)" fill="#fff"/>
        <path id="Caminho_4256" data-name="Caminho 4256" d="M17.536,15.125H12.522a.314.314,0,1,1,0-.627h5.014a.314.314,0,0,1,0,.627" transform="translate(1.293 1.536)" fill="#fff"/>
        <path id="Caminho_4257" data-name="Caminho 4257" d="M4.465,16.832a.314.314,0,0,1-.221-.535l3.546-3.546a.313.313,0,1,1,.442.443L4.686,16.74a.313.313,0,0,1-.221.092" transform="translate(0.44 1.341)" fill="#fff"/>
        <path id="Caminho_4258" data-name="Caminho 4258" d="M8.011,16.832a.313.313,0,0,1-.221-.092L4.243,13.194a.314.314,0,1,1,.443-.443L8.232,16.3a.314.314,0,0,1-.221.535" transform="translate(0.44 1.341)" fill="#fff"/>
        <path id="Caminho_4259" data-name="Caminho 4259" d="M15.389,13.519H14.4a.314.314,0,1,1,0-.627h.992a.314.314,0,0,1,0,.627" transform="translate(1.492 1.365)" fill="#fff"/>
        <path id="Caminho_4260" data-name="Caminho 4260" d="M15.389,16.731H14.4a.314.314,0,1,1,0-.627h.992a.314.314,0,0,1,0,.627" transform="translate(1.492 1.706)" fill="#fff"/>
      </g>
    </g>
  </g>
</svg>
