<svg xmlns="http://www.w3.org/2000/svg" xmlns:xlink="http://www.w3.org/1999/xlink" width="63" height="63" viewBox="0 0 63 63">
  <defs>
    <clipPath id="clip-path">
      <rect id="Ret창ngulo_811" data-name="Ret창ngulo 811" width="23" height="23" fill="#fff"/>
    </clipPath>
  </defs>
  <g id="Grupo_4585" data-name="Grupo 4585" transform="translate(-670 -2352.482)">
    <g id="Grupo_4584" data-name="Grupo 4584" transform="translate(-3385.018 -2241.518)">
      <g id="Grupo_4582" data-name="Grupo 4582" transform="translate(1536.018 5885)">
        <g id="Grupo_526" data-name="Grupo 526" transform="translate(2519 -1291)">
          <rect id="Ret창ngulo_151" data-name="Ret창ngulo 151" width="63" height="63" rx="15" fill="#e53537"/>
        </g>
      </g>
    </g>
    <g id="Grupo_4369" data-name="Grupo 4369" transform="translate(690 2372.482)">
      <g id="Grupo_4368" data-name="Grupo 4368" transform="translate(0 0)" clip-path="url(#clip-path)">
        <path id="Caminho_4252" data-name="Caminho 4252" d="M23,22.689V.31A.311.311,0,0,0,22.689,0H.31A.31.31,0,0,0,0,.31V22.689A.31.31,0,0,0,.31,23H22.689A.311.311,0,0,0,23,22.689M.621,6.724a.282.282,0,0,0,.042.009H15.385v6.951H.621Zm0,15.654V14.306H15.385v7.923a.3.3,0,0,0,.043.149Zm21.757,0H15.963a.3.3,0,0,0,.043-.149V6.733h6.372Zm0-16.267H.662a.282.282,0,0,0-.042.009V.621H22.378Z" transform="translate(0 0)" fill="#fff"/>
      </g>
    </g>
  </g>
</svg>
