<svg xmlns="http://www.w3.org/2000/svg" xmlns:xlink="http://www.w3.org/1999/xlink" width="90" height="90" viewBox="0 0 90 90">
  <defs>
    <clipPath id="clip-path">
      <rect id="Ret창ngulo_521" data-name="Ret창ngulo 521" width="30.07" height="29.704" fill="#fff"/>
    </clipPath>
  </defs>
  <g id="Grupo_3852" data-name="Grupo 3852" transform="translate(-2519 1291)">
    <g id="Grupo_526" data-name="Grupo 526" transform="translate(1977 -2360)">
      <rect id="Ret창ngulo_151" data-name="Ret창ngulo 151" width="90" height="90" rx="15" transform="translate(542 1069)" fill="#1c1c3a"/>
    </g>
    <g id="Grupo_1021" data-name="Grupo 1021" transform="translate(2548 -1261)">
      <g id="Grupo_1020" data-name="Grupo 1020" transform="translate(0 0)" clip-path="url(#clip-path)">
        <path id="Caminho_1148" data-name="Caminho 1148" d="M29.661,0H.409A.41.41,0,0,0,0,.409V29.3a.41.41,0,0,0,.409.409H29.661a.41.41,0,0,0,.409-.409V.409A.41.41,0,0,0,29.661,0M29.25,28.884H.818V6.791H29.25Zm0-22.911H.818V.82H29.25Z" transform="translate(0 0)" fill="#fff"/>
        <path id="Caminho_1149" data-name="Caminho 1149" d="M2.679,4.139A1.348,1.348,0,1,0,1.331,2.792,1.349,1.349,0,0,0,2.679,4.139m0-1.875a.528.528,0,1,1-.528.528.528.528,0,0,1,.528-.528" transform="translate(0.593 0.643)" fill="#fff"/>
        <path id="Caminho_1150" data-name="Caminho 1150" d="M5.035,4.139A1.348,1.348,0,1,0,3.687,2.792,1.349,1.349,0,0,0,5.035,4.139m0-1.875a.528.528,0,1,1-.528.528.527.527,0,0,1,.528-.528" transform="translate(1.644 0.643)" fill="#fff"/>
        <path id="Caminho_1151" data-name="Caminho 1151" d="M7.391,4.139A1.348,1.348,0,1,0,6.043,2.792,1.349,1.349,0,0,0,7.391,4.139m0-1.875a.528.528,0,1,1-.528.528.528.528,0,0,1,.528-.528" transform="translate(2.694 0.643)" fill="#fff"/>
        <path id="Caminho_1152" data-name="Caminho 1152" d="M9.879,19.843l-.594.119a.41.41,0,0,0,.081.811.37.37,0,0,0,.08-.007l2.075-.415a.406.406,0,0,0,.291-.228.411.411,0,0,0-.013-.372L10.774,17.9a.41.41,0,1,0-.717.4l.523.947a5.244,5.244,0,0,1,.859-10.094.41.41,0,1,0-.145-.807,6.062,6.062,0,0,0-1.416,11.5" transform="translate(2.81 3.717)" fill="#fff"/>
        <path id="Caminho_1153" data-name="Caminho 1153" d="M11.241,19.624a.409.409,0,0,0,.072.813.417.417,0,0,0,.072-.006A6.063,6.063,0,0,0,12.829,8.944l.639-.127a.41.41,0,0,0-.16-.8l-2.075.415a.412.412,0,0,0-.291.23.361.361,0,0,0-.03.16v0a.263.263,0,0,0,0,.048.4.4,0,0,0,.137.328l.93,1.68a.41.41,0,0,0,.717-.4l-.508-.917a5.244,5.244,0,0,1-.947,10.06" transform="translate(4.862 3.569)" fill="#fff"/>
      </g>
    </g>
  </g>
</svg>
