<svg xmlns="http://www.w3.org/2000/svg" xmlns:xlink="http://www.w3.org/1999/xlink" width="63" height="63" viewBox="0 0 63 63">
  <defs>
    <clipPath id="clip-path">
      <rect id="Ret창ngulo_811" data-name="Ret창ngulo 811" width="23" height="23" transform="translate(0 -0.374)" fill="#fff"/>
    </clipPath>
  </defs>
  <g id="Grupo_4585" data-name="Grupo 4585" transform="translate(0 -161)">
    <g id="Grupo_4584" data-name="Grupo 4584" transform="translate(-4055.018 -4433)">
      <g id="Grupo_4582" data-name="Grupo 4582" transform="translate(1536.018 5885)">
        <g id="Grupo_526" data-name="Grupo 526" transform="translate(2519 -1291)">
          <rect id="Ret창ngulo_151" data-name="Ret창ngulo 151" width="63" height="63" rx="15" fill="#e53537"/>
        </g>
      </g>
    </g>
    <g id="Grupo_4368" data-name="Grupo 4368" transform="translate(20 181.374)" clip-path="url(#clip-path)">
      <path id="Caminho_4252" data-name="Caminho 4252" d="M4.723,14.886l2.815,3.14a.711.711,0,0,0,1.2-.231l3.45-9.4,2.84,5.793a.566.566,0,0,0,1.017,0L22.558.8a.408.408,0,1,0-.734-.356L15.543,13.39,12.738,7.669a.641.641,0,0,0-1.177.061L8.028,17.35,5.359,14.373a.846.846,0,0,0-1.379.17L.818,20.56V.408A.409.409,0,0,0,0,.408V21.7a.922.922,0,0,0,.922.922h21.3a.409.409,0,0,0,0-.818H1.085Z" transform="translate(0 0)" fill="#fff"/>
    </g>
  </g>
</svg>
