<svg xmlns="http://www.w3.org/2000/svg" width="256.028" height="59" viewBox="0 0 256.028 59">
  <g id="Grupo_4471" data-name="Grupo 4471" transform="translate(-1143.972 -5480)">
    <g id="Retângulo_606" data-name="Retângulo 606" transform="translate(1177.972 5485.503)" fill="none" stroke="#fff" stroke-width="1">
      <rect width="222.028" height="45.999" rx="7" stroke="none"/>
      <rect x="0.5" y="0.5" width="221.028" height="44.999" rx="6.5" fill="none"/>
    </g>
    <circle id="Elipse_72" data-name="Elipse 72" cx="29.5" cy="29.5" r="29.5" transform="translate(1143.972 5480)" fill="#1c1c3a"/>
    <g id="Grupo_2945" data-name="Grupo 2945" transform="translate(322.955 3191.003)">
      <path id="Caminho_763" data-name="Caminho 763" d="M21,15.7c-.855-.513-1.965-1.082-2.971-.668-.772.314-1.265,1.523-1.766,2.14a.74.74,0,0,1-.958.207,13.454,13.454,0,0,1-6.717-5.755A.825.825,0,0,1,8.7,10.5,4.524,4.524,0,0,0,9.917,8.522a4.357,4.357,0,0,0-.545-2.346C8.966,5.3,8.513,4.06,7.638,3.567a2.364,2.364,0,0,0-2.573.386,5.237,5.237,0,0,0-1.814,4.14,5.851,5.851,0,0,0,.167,1.316,10.644,10.644,0,0,0,1.257,2.907,22.877,22.877,0,0,0,1.316,2,20.39,20.39,0,0,0,5.711,5.3,17.214,17.214,0,0,0,3.563,1.694,7.9,7.9,0,0,0,4.144.656,5.034,5.034,0,0,0,3.762-2.8,2.46,2.46,0,0,0,.175-1.428C23.133,16.767,21.8,16.178,21,15.7" transform="translate(837.695 2305.925)" fill="#fff"/>
      <path id="Caminho_765" data-name="Caminho 765" d="M23,46A23,23,0,1,1,46,23,23.024,23.024,0,0,1,23,46M23,3.977A19.022,19.022,0,1,0,42.022,23,19.043,19.043,0,0,0,23,3.977" transform="translate(828.017 2295.998)" fill="#fff"/>
    </g>
  </g>
</svg>
