<svg xmlns="http://www.w3.org/2000/svg" xmlns:xlink="http://www.w3.org/1999/xlink" width="63" height="63" viewBox="0 0 63 63">
  <defs>
    <clipPath id="clip-path">
      <rect id="Ret창ngulo_811" data-name="Ret창ngulo 811" width="23" height="22.72" fill="#fff"/>
    </clipPath>
  </defs>
  <g id="Grupo_4585" data-name="Grupo 4585" transform="translate(-464 -108)">
    <g id="Grupo_4584" data-name="Grupo 4584" transform="translate(-3591.018 -4486)">
      <g id="Grupo_4582" data-name="Grupo 4582" transform="translate(1536.018 5885)">
        <g id="Grupo_526" data-name="Grupo 526" transform="translate(2519 -1291)">
          <rect id="Ret창ngulo_151" data-name="Ret창ngulo 151" width="63" height="63" rx="15" fill="#e53537"/>
        </g>
      </g>
    </g>
    <g id="Grupo_4368" data-name="Grupo 4368" transform="translate(484 128.139)">
      <g id="Grupo_4368-2" data-name="Grupo 4368" transform="translate(0 0)" clip-path="url(#clip-path)">
        <path id="Caminho_4252" data-name="Caminho 4252" d="M22.687,0H.313A.313.313,0,0,0,0,.313V22.407a.313.313,0,0,0,.313.313H22.687A.313.313,0,0,0,23,22.407V.313A.312.312,0,0,0,22.687,0m-.314,4.569H.626V.627H22.373ZM.627,5.195H22.374v16.9H.627Z" transform="translate(0 -0.001)" fill="#fff"/>
        <path id="Caminho_4253" data-name="Caminho 4253" d="M2.362,3.505A1.031,1.031,0,1,0,1.331,2.475,1.032,1.032,0,0,0,2.362,3.505m0-1.434a.4.4,0,1,1-.4.4.4.4,0,0,1,.4-.4" transform="translate(0.141 0.152)" fill="#fff"/>
        <path id="Caminho_4254" data-name="Caminho 4254" d="M4.718,3.505A1.031,1.031,0,1,0,3.687,2.475,1.032,1.032,0,0,0,4.718,3.505m0-1.434a.4.4,0,1,1-.4.4.4.4,0,0,1,.4-.4" transform="translate(0.391 0.152)" fill="#fff"/>
        <path id="Caminho_4255" data-name="Caminho 4255" d="M7.074,3.505A1.031,1.031,0,1,0,6.043,2.475,1.032,1.032,0,0,0,7.074,3.505m0-1.434a.4.4,0,1,1-.4.4.4.4,0,0,1,.4-.4" transform="translate(0.64 0.152)" fill="#fff"/>
        <path id="Caminho_4256" data-name="Caminho 4256" d="M7.443,8.847a.313.313,0,0,0-.434.091L5.016,11.979a.313.313,0,0,0,0,.344L7.01,15.364a.314.314,0,0,0,.434.091.314.314,0,0,0,.091-.434l-1.881-2.87L7.534,9.28a.314.314,0,0,0-.091-.434" transform="translate(0.526 0.931)" fill="#fff"/>
        <path id="Caminho_4257" data-name="Caminho 4257" d="M14.085,8.937a.313.313,0,1,0-.524.343l1.881,2.871-1.881,2.87a.313.313,0,0,0,.091.434.305.305,0,0,0,.171.052.312.312,0,0,0,.262-.142l1.994-3.042a.311.311,0,0,0,0-.343Z" transform="translate(1.431 0.931)" fill="#fff"/>
        <path id="Caminho_4258" data-name="Caminho 4258" d="M12.732,6.531a.315.315,0,0,0-.4.186L8.367,17.463a.313.313,0,0,0,.186.4.307.307,0,0,0,.108.019.314.314,0,0,0,.294-.2L12.918,6.933a.313.313,0,0,0-.186-.4" transform="translate(0.884 0.689)" fill="#fff"/>
      </g>
    </g>
  </g>
</svg>
