<svg xmlns="http://www.w3.org/2000/svg" xmlns:xlink="http://www.w3.org/1999/xlink" width="63" height="63" viewBox="0 0 63 63">
  <defs>
    <clipPath id="clip-path">
      <rect id="Ret창ngulo_811" data-name="Ret창ngulo 811" width="23" height="22.845" fill="#fff"/>
    </clipPath>
  </defs>
  <g id="Grupo_4585" data-name="Grupo 4585" transform="translate(-2.25 -108)">
    <g id="Grupo_4584" data-name="Grupo 4584" transform="translate(-4052.768 -4486)">
      <g id="Grupo_4582" data-name="Grupo 4582" transform="translate(1536.018 5885)">
        <g id="Grupo_526" data-name="Grupo 526" transform="translate(2519 -1291)">
          <rect id="Ret창ngulo_151" data-name="Ret창ngulo 151" width="63" height="63" rx="15" fill="#e53537"/>
        </g>
      </g>
    </g>
    <g id="Grupo_4369" data-name="Grupo 4369" transform="translate(22.25 128.077)">
      <g id="Grupo_4368" data-name="Grupo 4368" transform="translate(0 0)" clip-path="url(#clip-path)">
        <path id="Caminho_4252" data-name="Caminho 4252" d="M3.075,7a.309.309,0,0,0,0,.617h4.2A.321.321,0,0,0,7.4,7.591a.3.3,0,0,0,.086-.058L7.5,7.525h0a.314.314,0,0,0,.09-.218h0V3.229a.309.309,0,0,0-.617,0v3.33L.527.091A.308.308,0,0,0,.089.526L6.537,7Z" transform="translate(0 0)" fill="#fff"/>
        <path id="Caminho_4253" data-name="Caminho 4253" d="M10.948,6.993A3.947,3.947,0,1,0,14.9,10.94a3.952,3.952,0,0,0-3.947-3.947m0,7.278a3.331,3.331,0,1,1,3.33-3.33,3.334,3.334,0,0,1-3.33,3.33" transform="translate(0.623 0.622)" fill="#fff"/>
        <path id="Caminho_4254" data-name="Caminho 4254" d="M14.04,7.41A.289.289,0,0,0,14.1,7.5l0,.009,0,0a.3.3,0,0,0,.218.09H18.4a.308.308,0,0,0,0-.616H15.071L21.54.539A.308.308,0,1,0,21.1.1L14.633,6.549V3.088a.309.309,0,1,0-.617,0v4.2l0,.008a.324.324,0,0,0,.022.11" transform="translate(1.247 0.001)" fill="#fff"/>
        <path id="Caminho_4255" data-name="Caminho 4255" d="M21.652,21.075,15.2,14.6h3.462a.308.308,0,1,0,0-.616h-4.2l-.013,0a.29.29,0,0,0-.1.022.308.308,0,0,0-.087.057l-.013.009a.309.309,0,0,0-.091.219v4.077a.309.309,0,1,0,.617,0v-3.33l6.444,6.468a.309.309,0,0,0,.438-.436" transform="translate(1.259 1.244)" fill="#fff"/>
        <path id="Caminho_4256" data-name="Caminho 4256" d="M7.727,14.307h0l0-.008a.315.315,0,0,0-.022-.111.289.289,0,0,0-.058-.087l0-.009,0,0A.314.314,0,0,0,7.419,14H3.341a.309.309,0,0,0,0,.617H6.672L.2,21.06a.308.308,0,0,0,0,.437.3.3,0,0,0,.219.09A.309.309,0,0,0,.639,21.5L7.11,15.05v3.462a.309.309,0,0,0,.617,0Z" transform="translate(0.01 1.245)" fill="#fff"/>
      </g>
    </g>
  </g>
</svg>
