<svg xmlns="http://www.w3.org/2000/svg" xmlns:xlink="http://www.w3.org/1999/xlink" width="63" height="63" viewBox="0 0 63 63">
  <defs>
    <clipPath id="clip-path">
      <rect id="Ret창ngulo_811" data-name="Ret창ngulo 811" width="23" height="22.344" fill="#fff"/>
    </clipPath>
  </defs>
  <g id="Grupo_4585" data-name="Grupo 4585" transform="translate(0 -161)">
    <g id="Grupo_4584" data-name="Grupo 4584" transform="translate(-4055.018 -4433)">
      <g id="Grupo_4582" data-name="Grupo 4582" transform="translate(1536.018 5885)">
        <g id="Grupo_526" data-name="Grupo 526" transform="translate(2519 -1291)">
          <rect id="Ret창ngulo_151" data-name="Ret창ngulo 151" width="63" height="63" rx="15" fill="#e53537"/>
        </g>
      </g>
    </g>
    <g id="Grupo_4370" data-name="Grupo 4370" transform="translate(20 181.328)">
      <g id="Grupo_4369" data-name="Grupo 4369" transform="translate(0 0)" clip-path="url(#clip-path)">
        <path id="Caminho_4252" data-name="Caminho 4252" d="M22.687,22.344H.314A.314.314,0,0,1,0,22.03L0,.313A.314.314,0,0,1,.317,0H7.866A.315.315,0,0,1,8.1.1L11.058,3.37H22.687A.312.312,0,0,1,23,3.683V22.03a.313.313,0,0,1-.313.314M.627,21.717H22.374V4H10.919a.311.311,0,0,1-.232-.1L7.727.627H.63Z" transform="translate(0 0)" fill="#fff"/>
        <path id="Caminho_4253" data-name="Caminho 4253" d="M22.506,7.555H.463a.314.314,0,1,1,0-.627H22.506a.314.314,0,0,1,0,.627" transform="translate(0.016 0.734)" fill="#fff"/>
      </g>
    </g>
  </g>
</svg>
