<svg xmlns="http://www.w3.org/2000/svg" xmlns:xlink="http://www.w3.org/1999/xlink" width="63" height="63" viewBox="0 0 63 63">
  <defs>
    <clipPath id="clip-path">
      <rect id="Ret창ngulo_811" data-name="Ret창ngulo 811" width="23" height="23.073" fill="#fff"/>
    </clipPath>
  </defs>
  <g id="Grupo_4585" data-name="Grupo 4585" transform="translate(0 -161)">
    <g id="Grupo_4584" data-name="Grupo 4584" transform="translate(-4055.018 -4433)">
      <g id="Grupo_4582" data-name="Grupo 4582" transform="translate(1536.018 5885)">
        <g id="Grupo_526" data-name="Grupo 526" transform="translate(2519 -1291)">
          <rect id="Ret창ngulo_151" data-name="Ret창ngulo 151" width="63" height="63" rx="15" fill="#e53537"/>
        </g>
      </g>
    </g>
    <g id="Grupo_4371" data-name="Grupo 4371" transform="translate(20 180.964)">
      <g id="Grupo_4370" data-name="Grupo 4370" transform="translate(0 0)" clip-path="url(#clip-path)">
        <path id="Caminho_4252" data-name="Caminho 4252" d="M8.858,22.181H7.049a.626.626,0,0,1-.625-.625v-.781a.682.682,0,0,0-.457-.651,6.244,6.244,0,0,1-.793-.331.651.651,0,0,0-.753.129l-.569.569a.64.64,0,0,1-.884,0L1.689,19.211a.625.625,0,0,1,0-.883l.576-.577A.65.65,0,0,0,2.4,17a6.5,6.5,0,0,1-.328-.793.672.672,0,0,0-.642-.453h-.8A.625.625,0,0,1,0,15.132v-1.81A.626.626,0,0,1,.625,12.7h.814a.7.7,0,0,0,.654-.488,6.211,6.211,0,0,1,.3-.709.678.678,0,0,0-.111-.781l-.592-.593a.625.625,0,0,1,0-.883L2.969,7.964a.64.64,0,0,1,.884,0l.6.6a.668.668,0,0,0,.779.111,6.511,6.511,0,0,1,.71-.295.685.685,0,0,0,.483-.645V6.9a.626.626,0,0,1,.625-.625H8.858a.626.626,0,0,1,.625.625v.835a.685.685,0,0,0,.483.645,6.329,6.329,0,0,1,.71.295.669.669,0,0,0,.779-.111l.6-.6a.64.64,0,0,1,.884,0l1.279,1.279a.625.625,0,0,1,0,.883l-.593.593a.677.677,0,0,0-.11.781,6.036,6.036,0,0,1,.3.709.7.7,0,0,0,.656.488h.814a.626.626,0,0,1,.625.625v1.81a.625.625,0,0,1-.625.624h-.8a.672.672,0,0,0-.642.452A6.15,6.15,0,0,1,13.51,17a.649.649,0,0,0,.131.749l.576.577a.625.625,0,0,1,0,.883L12.938,20.49a.64.64,0,0,1-.884,0l-.569-.569a.651.651,0,0,0-.753-.129,6.175,6.175,0,0,1-.793.331.682.682,0,0,0-.457.651v.781a.626.626,0,0,1-.625.625m-3.968-3.1a1.279,1.279,0,0,1,.575.136,5.427,5.427,0,0,0,.71.3,1.33,1.33,0,0,1,.9,1.264v.781l1.786-.023-.023-.758a1.33,1.33,0,0,1,.9-1.264,5.5,5.5,0,0,0,.709-.3,1.3,1.3,0,0,1,1.5.25l.57.57,1.247-1.28-.576-.544a1.3,1.3,0,0,1-.252-1.5A5.459,5.459,0,0,0,13.225,16a1.317,1.317,0,0,1,1.256-.894h.778V13.322l-.792.023a1.353,1.353,0,0,1-1.267-.922,5.28,5.28,0,0,0-.266-.635,1.325,1.325,0,0,1,.233-1.527l.592-.592L12.48,8.42l-.567.6a1.325,1.325,0,0,1-1.523.235,5.5,5.5,0,0,0-.635-.263,1.344,1.344,0,0,1-.921-1.259V6.9l-1.786.023.023.812a1.344,1.344,0,0,1-.921,1.259,5.386,5.386,0,0,0-.635.263,1.324,1.324,0,0,1-1.523-.235l-.6-.6L2.147,9.7l.592.56a1.324,1.324,0,0,1,.233,1.526,5.8,5.8,0,0,0-.267.635,1.351,1.351,0,0,1-1.266.923H.625l.022,1.788.779-.023A1.317,1.317,0,0,1,2.682,16a5.421,5.421,0,0,0,.294.709,1.3,1.3,0,0,1-.252,1.5l-.576.576,1.279,1.248.537-.57a1.314,1.314,0,0,1,.926-.386" transform="translate(0 0.893)" fill="#fff"/>
        <path id="Caminho_4253" data-name="Caminho 4253" d="M7.522,18.28a4.486,4.486,0,1,1,4.486-4.486A4.49,4.49,0,0,1,7.522,18.28m0-8.323a3.838,3.838,0,1,0,3.839,3.838A3.842,3.842,0,0,0,7.522,9.957" transform="translate(0.432 1.324)" fill="#fff"/>
        <path id="Caminho_4254" data-name="Caminho 4254" d="M17.448,10.169a.54.54,0,0,1-.506-.348l-.174-.457a.292.292,0,0,0-.3-.2,3.907,3.907,0,0,1-.53-.015.338.338,0,0,0-.336.19l-.194.431a.541.541,0,0,1-.715.271L13.681,9.59a.541.541,0,0,1-.271-.715l.194-.432a.329.329,0,0,0-.081-.376,3.98,3.98,0,0,1-.361-.387.312.312,0,0,0-.35-.1l-.457.172a.54.54,0,0,1-.7-.314l-.392-1.033a.542.542,0,0,1,.314-.7l.463-.175a.312.312,0,0,0,.2-.3,4.271,4.271,0,0,1,.016-.529.324.324,0,0,0-.184-.33l-.443-.2a.543.543,0,0,1-.271-.716l.453-1.006a.541.541,0,0,1,.715-.271l.451.2a.325.325,0,0,0,.369-.079,4.155,4.155,0,0,1,.382-.355.313.313,0,0,0,.1-.351l-.179-.473a.54.54,0,0,1,.314-.7L15,.036a.53.53,0,0,1,.413.013.535.535,0,0,1,.284.3l.18.479a.313.313,0,0,0,.3.2,3.956,3.956,0,0,1,.521.016A.317.317,0,0,0,17.023.86L17.231.4a.542.542,0,0,1,.715-.271L18.953.58a.542.542,0,0,1,.271.716l-.209.463a.319.319,0,0,0,.079.362,3.993,3.993,0,0,1,.356.378.314.314,0,0,0,.35.1l.479-.182a.542.542,0,0,1,.7.314l.391,1.033a.541.541,0,0,1-.315.7l-.473.178a.314.314,0,0,0-.2.307,3.957,3.957,0,0,1-.014.521.327.327,0,0,0,.185.329L21,6a.543.543,0,0,1,.271.716l-.453,1.006a.541.541,0,0,1-.715.271l-.443-.2a.326.326,0,0,0-.37.081,4.141,4.141,0,0,1-.385.362.312.312,0,0,0-.1.348l.175.463a.542.542,0,0,1-.314.7l-1.033.391a.53.53,0,0,1-.191.034M16.476,8.52a.956.956,0,0,1,.9.615l.136.358.833-.315-.137-.363A.957.957,0,0,1,18.5,7.736a3.423,3.423,0,0,0,.324-.3A.973.973,0,0,1,19.93,7.2l.346.156.366-.812-.354-.16a.972.972,0,0,1-.563-.977,3.3,3.3,0,0,0,.011-.439.959.959,0,0,1,.613-.937l.374-.14-.314-.834-.38.144a.958.958,0,0,1-1.077-.292,3.586,3.586,0,0,0-.3-.318.968.968,0,0,1-.227-1.1l.166-.367L17.778.761l-.164.366a.965.965,0,0,1-.975.56,3.481,3.481,0,0,0-.436-.014.953.953,0,0,1-.933-.613L15.125.68l-.833.315.142.374a.958.958,0,0,1-.295,1.079,3.456,3.456,0,0,0-.321.3.972.972,0,0,1-1.106.225l-.354-.16-.366.812.346.156a.973.973,0,0,1,.563.982,3.4,3.4,0,0,0-.015.445.955.955,0,0,1-.613.931l-.362.138.315.833.356-.135a.958.958,0,0,1,1.079.295,3.558,3.558,0,0,0,.3.326.978.978,0,0,1,.228,1.114l-.151.335.812.366.151-.334a.977.977,0,0,1,.986-.568,3.409,3.409,0,0,0,.445.013h.038M20.76,3.993h0ZM14.254.894Z" transform="translate(1.598 0)" fill="#fff"/>
        <path id="Caminho_4255" data-name="Caminho 4255" d="M16,7.327A2.557,2.557,0,1,1,18.333,5.82,2.55,2.55,0,0,1,16,7.327m0-4.466a1.91,1.91,0,1,0,.784.169A1.91,1.91,0,0,0,16,2.861" transform="translate(1.912 0.315)" fill="#fff"/>
      </g>
    </g>
  </g>
</svg>
