<svg xmlns="http://www.w3.org/2000/svg" xmlns:xlink="http://www.w3.org/1999/xlink" width="879.96" height="879.314" viewBox="0 0 879.96 879.314">
  <defs>
    <clipPath id="clip-path">
      <path id="Caminho_3899" data-name="Caminho 3899" d="M879.96,437.182c0,82.465-21.387,159.044-59.534,224.478-39.047,66.969-79.694,112.308-148.87,150.214a8.8,8.8,0,0,1-10.431-1.472q-22.71-22.483-44.412-47.005-20.008-22.621-38.892-46.712c-4.835-8.666-4.117-11.675,4.049-17.924a33.836,33.836,0,0,1,5.777-3.48c5.781-2.843,14.1-7.257,24.164-13.524C662.789,650.039,737.9,582.905,737.9,437.182c0-206.272-152.526-309.014-349.838-288.95-9.9,1.254-15.538,1.054-15.976-9.017-.925-21.227-1.271-39.659-1.7-60.9l-.051-1.116h.033l-.2-12.477c-.032-2.509.077-4.994.184-7.477.093-2.242.194-4.5.194-6.231,0-8.056-.962-16.075.083-23.284,1.253-8.583.418-14.93,12.412-19.891C391.993,4.131,431.887,0,439.757,0,581.182,0,690.266,47.139,780.839,158.712,842.725,234.942,879.96,331.962,879.96,437.182ZM623.9,826.677q-23.209-22.881-45.1-47.6-20.328-22.945-39.6-47.664l-.034-.152c-6.073-6.667-10.463-6.366-12.561-6.467l-.328.087c-11.023,2.366-57.728,12.359-85,12.359-80.227,0-153.151-35.771-206.937-89.551-56.867-56.867-92.262-133.73-92.262-209.649,0-70.734,19.621-129.425,52.8-175.816,4.974-6.955,9.827-13.431,14.658-19.612,49.951,149.062,123.709,309.1,232.019,352.552,6.892-2.392,9.031-6.105,4.781-13.264C356.3,392.181,328.2,204.12,326.8,26.1c-1.1-5.042-3.963-8.785-11.239-9.242l-2.426.025c-16.962.007-88.057,29.18-138.282,63.464a1.124,1.124,0,0,0-.106.059,109.25,109.25,0,0,0-11.191,8.789c.009.045.023.086.032.119,0,.009.008.021.009.03-27.588,21.065-52.518,46.087-75.6,75.93-55.4,71.647-88,163.84-88,272.773C0,552.868,51.346,665.356,133.956,747.974c79.426,79.414,187.795,131.34,307.314,131.34a439.9,439.9,0,0,0,180.052-38.342,8.791,8.791,0,0,0,4.441-11.61A8.586,8.586,0,0,0,623.9,826.677Z" fill="none"/>
    </clipPath>
  </defs>
  <g id="Arte_7" data-name="Arte 7" transform="translate(439.98 439.657)" opacity="0.28">
    <g id="Grupo_3343" data-name="Grupo 3343" transform="translate(-439.98 -439.657)">
      <g id="Grupo_3342" data-name="Grupo 3342" clip-path="url(#clip-path)">
        <g id="Grupo_3341" data-name="Grupo 3341" transform="translate(-3.133 -3.456)">
          <g id="Grupo_3340" data-name="Grupo 3340">
            <g id="Grupo_3254" data-name="Grupo 3254">
              <path id="Caminho_3806" data-name="Caminho 3806" d="M-3.133,25.2A163.407,163.407,0,0,1,13.236-3.456h-1.09A163.508,163.508,0,0,0-3.133,23.066Z" transform="translate(3.133 3.456)" fill="#ddd"/>
            </g>
            <g id="Grupo_3255" data-name="Grupo 3255">
              <path id="Caminho_3807" data-name="Caminho 3807" d="M30.732-3.456c-.5.657-1,1.313-1.487,1.979C12.871,20.889,3.267,47.042-3.133,73.289v3.8C3.239,49.741,12.919,22.319,29.955-.95q.925-1.264,1.882-2.506Z" transform="translate(3.133 3.456)" fill="#ddd"/>
            </g>
            <g id="Grupo_3256" data-name="Grupo 3256">
              <path id="Caminho_3808" data-name="Caminho 3808" d="M47.725-3.456q-.981,1.235-1.938,2.489C18.062,35.563,8.534,81.153.477,128.573c-.952,5.6-1.884,11.3-2.786,16.818q-.41,2.508-.824,5.032v5.419q.859-5.176,1.694-10.306c.9-5.514,1.834-11.216,2.785-16.813C9.383,81.416,18.884,35.942,46.488-.427q1.163-1.532,2.369-3.029Z" transform="translate(3.133 3.456)" fill="#ddd"/>
            </g>
            <g id="Grupo_3257" data-name="Grupo 3257">
              <path id="Caminho_3809" data-name="Caminho 3809" d="M63.135-3.456Q60.622-.414,58.288,2.749C31.982,38.488,21.871,82.911,13.033,129.1c-1.081,5.655-2.148,11.415-3.179,16.985C6.12,166.264,2.267,187.082-3.133,207.248v3.342c5.859-21.166,9.924-43.107,13.854-64.337,1.031-5.569,2.1-11.328,3.178-16.979,8.818-46.09,18.9-90.407,45.1-126q2.536-3.447,5.3-6.734Z" transform="translate(3.133 3.456)" fill="#ddd"/>
            </g>
            <g id="Grupo_3258" data-name="Grupo 3258">
              <path id="Caminho_3810" data-name="Caminho 3810" d="M76.9-3.456q-2.169,2.577-4.212,5.25C60.108,18.282,49.971,38.133,41.7,62.483c-7.413,21.823-12.5,44.742-17.084,66.346-1.2,5.656-2.387,11.417-3.535,16.989-4.569,22.162-9.294,45.078-15.894,67.1-2.417,8.064-5.333,16.075-8.32,23.928v2.47c3.276-8.555,6.517-17.31,9.164-26.141,6.611-22.06,11.34-45,15.913-67.177,1.148-5.57,2.336-11.33,3.534-16.984C35.361,82.392,46.462,37.62,73.391,2.335q2.256-2.957,4.676-5.791Z" transform="translate(3.133 3.456)" fill="#ddd"/>
            </g>
            <g id="Grupo_3259" data-name="Grupo 3259">
              <path id="Caminho_3811" data-name="Caminho 3811" d="M89.175-3.456q-3.2,3.746-6.139,7.7c-28.186,38-39.387,86.893-49.269,130.033-1.245,5.436-2.473,11-3.66,16.375-4.616,20.909-9.389,42.529-16.511,62.92-5.285,15.133-11.681,34.353-16.729,54.95v3.767c5.157-21.9,11.98-42.442,17.561-58.422,7.139-20.441,11.918-42.088,16.539-63.022,1.187-5.376,2.414-10.936,3.659-16.368,9.863-43.055,21.041-91.854,49.116-129.7Q86.889.537,90.331-3.456Z" transform="translate(3.133 3.456)" fill="#ddd"/>
            </g>
            <g id="Grupo_3260" data-name="Grupo 3260">
              <path id="Caminho_3812" data-name="Caminho 3812" d="M99.976-3.456Q97.621-.7,95.407,2.177C66.437,39.823,54.7,87.072,43.348,132.766c-4.018,16.175-8.684,32.524-13.2,48.334C20.7,214.217,10.926,248.461,6.49,283.214c-3.311,25.939-2.83,50.658-2.32,76.828.114,5.872.232,11.943.3,17.963a81.285,81.285,0,0,1-7.6,34.547v2.112a82.9,82.9,0,0,0,8.486-36.669c-.069-6.023-.188-12.1-.3-17.97-.509-26.136-.989-50.823,2.313-76.7C11.792,248.641,21.556,214.43,31,181.346c4.515-15.818,9.183-32.174,13.2-48.365C55.532,87.377,67.247,40.22,96.1,2.721q2.438-3.167,5.04-6.177Z" transform="translate(3.133 3.456)" fill="#ddd"/>
            </g>
            <g id="Grupo_3261" data-name="Grupo 3261">
              <path id="Caminho_3813" data-name="Caminho 3813" d="M109.556-3.456q-3,3.519-5.793,7.225C75.862,41.01,63.6,87.289,51.734,132.044l-1.433,5.4c-2.053,7.729-4.192,15.543-6.26,23.1C33.13,200.42,21.848,241.65,19.348,284.415c-2.039,34.866,1.47,68.688,5.566,100.043,3.744,28.665-12.139,52.826-28.047,70.474v1.317c16.251-17.847,32.762-42.5,28.921-71.907-4.09-31.312-7.594-65.082-5.561-99.874,2.5-42.673,13.264-82.024,24.664-123.685,2.068-7.559,4.207-15.374,6.262-23.106l1.433-5.4C64.426,87.6,76.669,41.406,104.467,4.3q3-4,6.237-7.76Z" transform="translate(3.133 3.456)" fill="#ddd"/>
            </g>
            <g id="Grupo_3262" data-name="Grupo 3262">
              <path id="Caminho_3814" data-name="Caminho 3814" d="M117.995-3.456c-1.245,1.475-2.469,2.971-3.657,4.5C85.631,37.965,72.5,84.357,59.8,129.222q-.841,2.972-1.68,5.929C42.194,191.249,31.742,239.22,32.5,290.995c.5,34.444,6.384,68.3,12.666,99.76,6.947,34.786-13.376,60.639-31.856,79.276q-7.971,8.039-16.44,15.58V486.8q8.779-7.82,17.063-16.143c12.911-13.02,21.435-24.532,26.826-36.228a69.076,69.076,0,0,0,5.271-43.851c-6.274-31.417-12.148-65.226-12.649-99.6-.753-51.666,9.685-99.564,25.589-155.587q.84-2.957,1.68-5.929C73.324,84.683,86.432,38.376,115.032,1.591q2-2.574,4.116-5.047Z" transform="translate(3.133 3.456)" fill="#ddd"/>
            </g>
            <g id="Grupo_3263" data-name="Grupo 3263">
              <path id="Caminho_3815" data-name="Caminho 3815" d="M67.964,126.715C80.949,83.53,94.376,38.875,121.71,2.828q2.443-3.224,5.052-6.284h-1.17q-2.355,2.808-4.583,5.745C93.578,38.464,80.128,83.2,67.12,126.457q-.929,3.092-1.856,6.169c-16.143,53.53-22.583,107.111-19.141,159.256,2.439,36.949,10.957,72.7,19.472,106.147,3.4,13.343,4.781,24.794.5,37.308-5.617,16.424-17.614,30.135-27.438,40.245A346.389,346.389,0,0,1-3.133,511.547v1.107C11.646,501.679,26.174,489.7,39.288,476.2c9.889-10.176,21.968-23.985,27.642-40.577,4.351-12.723,2.954-24.32-.481-37.817C57.944,364.4,49.437,328.7,47,291.823c-3.435-52.037,2.993-105.512,19.105-158.939Q67.035,129.806,67.964,126.715Z" transform="translate(3.133 3.456)" fill="#ddd"/>
            </g>
            <g id="Grupo_3264" data-name="Grupo 3264">
              <path id="Caminho_3816" data-name="Caminho 3816" d="M129.306,2.03q2.145-2.805,4.4-5.486h-1.145q-2.019,2.424-3.954,4.945C98.693,40.646,82.262,92.3,71.289,132.925a412.911,412.911,0,0,0-13.195,80.228,454.79,454.79,0,0,0,2.015,81.324c4.38,38.41,14.924,75.235,25.348,109.662,3.588,11.849,7.3,24.1,3.5,37.612-4.54,16.165-16.181,29.81-25.815,39.891C43.386,502.32,19.728,519.523-3.133,535.024v1.07c23.054-15.615,46.955-32.951,66.914-53.836,9.705-10.156,21.434-23.911,26.028-40.266,3.865-13.761.116-26.14-3.509-38.112-10.412-34.388-20.944-71.169-25.315-109.505-6.29-55.161-2.433-110.909,11.155-161.217C83.091,92.611,99.485,41.064,129.306,2.03Z" transform="translate(3.133 3.456)" fill="#ddd"/>
            </g>
            <g id="Grupo_3265" data-name="Grupo 3265">
              <path id="Caminho_3817" data-name="Caminho 3817" d="M105.351,408.746c-12.26-36.227-23.766-71.891-29.817-109.884-8.927-56.047-7.938-110.61,2.939-162.173,8.488-40.24,26.343-98.427,62.692-140.145h-1.054a206.091,206.091,0,0,0-14.824,19.405C98.562,55.478,84.609,103.326,77.611,136.5a424.117,424.117,0,0,0-8.892,81.1A474.712,474.712,0,0,0,74.663,299c6.063,38.062,17.581,73.765,29.854,110.03q.545,1.608,1.1,3.226c4.055,11.8,8.247,24.012,5.4,36.522-3.614,15.887-14.95,29.442-24.422,39.475-20.189,21.386-45.076,39.134-68.964,55.127q-10.2,6.83-20.766,13.517v1.048Q7.694,551.1,18.121,544.123c23.93-16.023,48.866-33.806,69.114-55.254,9.55-10.116,20.981-23.792,24.644-39.889,2.9-12.759-1.332-25.088-5.426-37.011Q105.9,410.354,105.351,408.746Z" transform="translate(3.133 3.456)" fill="#ddd"/>
            </g>
            <g id="Grupo_3266" data-name="Grupo 3266">
              <path id="Caminho_3818" data-name="Caminho 3818" d="M124.734,415.98c-13.5-37.479-27.454-76.233-35.1-116.622C78.96,243.021,77.988,188.235,86.74,136.521,91.153,110.45,102.869,60.175,131.753,16.4a205.647,205.647,0,0,1,14.82-19.853h-1.106a203.7,203.7,0,0,0-14.448,19.361C102.045,59.82,90.3,110.231,85.871,136.372c-8.77,51.819-7.8,106.711,2.894,163.152,7.663,40.459,21.632,79.247,35.141,116.758.514,1.428,1.054,2.887,1.6,4.369,3.807,10.275,8.121,21.921,7.1,32.737-1.563,16.489-13.526,31.148-23.774,42.076-20.9,22.286-46.531,40.019-68.918,54.892-13.547,9-27.7,17.731-43.046,26.521V577.9c15.532-8.883,29.839-17.7,43.532-26.8,22.427-14.9,48.11-32.669,69.073-55.024,10.345-11.032,22.422-25.844,24.011-42.6,1.044-11.018-3.308-22.766-7.148-33.131C125.787,418.861,125.248,417.405,124.734,415.98Z" transform="translate(3.133 3.456)" fill="#ddd"/>
            </g>
            <g id="Grupo_3267" data-name="Grupo 3267">
              <path id="Caminho_3819" data-name="Caminho 3819" d="M144.5,425.587q-.567-1.5-1.12-2.98-2.007-5.374-4.021-10.733c-12.975-34.587-26.392-70.351-34.647-107.369-12.568-56.356-15.754-111.258-9.469-163.183,5.472-45.2,20.87-90.259,42.248-123.631A188.491,188.491,0,0,1,153.147-3.456h-1.192a192.2,192.2,0,0,0-15.2,20.666c-21.447,33.481-36.895,78.679-42.382,124-6.3,52.025-3.106,107.029,9.484,163.485,8.269,37.079,21.7,72.872,34.683,107.488q2.01,5.359,4.02,10.731.552,1.479,1.121,2.983c4.122,10.938,8.794,23.336,8.687,35.224-.143,15.787-11.827,30.418-21.99,41.4-20.518,22.172-46.294,39.913-68.843,54.8A627.954,627.954,0,0,1-3.133,594.191v.992a630.082,630.082,0,0,0,65.15-37.112c22.593-14.917,48.42-32.694,69-54.938,10.273-11.1,22.082-25.906,22.227-42C153.357,449.079,148.654,436.6,144.5,425.587Z" transform="translate(3.133 3.456)" fill="#ddd"/>
              <path id="Caminho_3820" data-name="Caminho 3820" d="M552.17-3.456a320.835,320.835,0,0,1-44.162,0h-11.4q4.732.435,9.476.769,12.723.889,24.683.89a283.065,283.065,0,0,0,31.242-1.659Z" transform="translate(3.133 3.456)" fill="#ddd"/>
            </g>
            <g id="Grupo_3268" data-name="Grupo 3268">
              <path id="Caminho_3821" data-name="Caminho 3821" d="M160.907,427.911l-.61-1.582q-2.369-6.144-4.746-12.271c-13.519-34.9-27.5-70.984-36.566-108.289C105.249,249.255,100.61,194.355,105.2,142.594c5.1-57.561,21.716-103.338,50.793-139.945q2.51-3.159,5.1-6.105h-1.176q-2.336,2.693-4.609,5.55c-29.189,36.748-45.866,82.68-50.984,140.421-4.6,51.859.051,106.857,13.81,163.465,9.081,37.362,23.071,73.476,36.6,108.4q2.375,6.129,4.745,12.269l.611,1.583c5.164,13.376,10.5,27.207,10.632,41.46.133,14.756-9,27.351-16.964,36.675-19.947,23.341-46.629,41.695-72.25,58.494-26.39,17.3-55.477,31.113-84.637,43.847v.968c29.312-12.792,58.567-26.661,85.118-44.071,25.674-16.833,52.415-35.229,72.437-58.659,8.069-9.442,17.313-22.21,17.177-37.262C171.469,455.269,166.1,441.361,160.907,427.911Z" transform="translate(3.133 3.456)" fill="#ddd"/>
              <path id="Caminho_3822" data-name="Caminho 3822" d="M628.894-3.456C596.964,8.509,558.185,12.005,511.462,7.215a579.117,579.117,0,0,1-64.5-10.671h-4.118A589.66,589.66,0,0,0,511.372,8.1c29.594,3.035,55.227,2.825,78.367-.641A191.942,191.942,0,0,0,631.39-3.456Z" transform="translate(3.133 3.456)" fill="#ddd"/>
            </g>
            <g id="Grupo_3269" data-name="Grupo 3269">
              <path id="Caminho_3823" data-name="Caminho 3823" d="M178.037,434.03c-3.343-8.748-6.81-17.593-10.164-26.146-11.925-30.417-24.257-61.87-32.977-94.191-15.844-58.725-22.246-115.577-19.028-168.975,3.584-59.485,18.85-105.238,46.671-139.873q3.488-4.342,7.105-8.3h-1.187q-3.355,3.711-6.6,7.742c-15.256,18.993-26.5,40.668-34.373,66.267-6.718,21.84-10.8,46.082-12.493,74.111-3.224,53.495,3.188,110.443,19.058,169.262,8.733,32.369,21.073,63.845,33.007,94.284,3.353,8.552,6.82,17.394,10.161,26.139,5.41,14.157,11,28.8,10.8,43.966-.205,15.588-8.632,27.536-15.95,36.2-17.854,21.144-43.885,41.8-73.3,58.168-32.651,18.168-67.489,33.215-101.9,47.4v.96C31.415,606.811,66.4,591.713,99.2,573.463c29.5-16.416,55.621-37.146,73.542-58.369,7.415-8.781,15.952-20.9,16.161-36.767C189.1,462.986,183.223,447.6,178.037,434.03Z" transform="translate(3.133 3.456)" fill="#ddd"/>
              <path id="Caminho_3824" data-name="Caminho 3824" d="M669.664-3.456C633.81,18.455,585.55,25.577,522.428,18.291,487.267,14.233,453.312,6.313,417.775-3.456h-3.339c36.7,10.173,71.651,18.447,107.891,22.629,30.123,3.477,56.1,3.728,79.4.767,26.833-3.41,50.226-11.276,69.633-23.4Z" transform="translate(3.133 3.456)" fill="#ddd"/>
            </g>
            <g id="Grupo_3270" data-name="Grupo 3270">
              <path id="Caminho_3825" data-name="Caminho 3825" d="M194.367,440.047c-4.215-11.169-8.646-22.435-12.93-33.33-11.525-29.306-23.443-59.61-32.169-90.662-16.51-58.754-23.921-115.376-22.028-168.291C129.476,85.3,142.88,41,169.425,8.332q5.232-6.44,10.366-11.788h-1.219q-4.878,5.133-9.83,11.225C154.2,25.661,143.3,47.937,136.332,73.979c-5.7,21.3-8.959,45.422-9.973,73.753-1.9,53.008,5.526,109.721,22.061,168.565,8.738,31.1,20.664,61.42,32.2,90.747,4.284,10.892,8.714,22.155,12.926,33.319,11.984,31.758,15.729,57.982-4.942,82.734-18.207,21.8-43.175,40.571-76.333,57.39C74.986,599.4,35.439,615.051-3.133,630.04v.951c38.692-15.033,78.375-30.729,115.8-49.71,33.267-16.875,58.326-35.72,76.611-57.613,10.16-12.165,15.059-25.433,14.978-40.562C204.172,468.035,199.21,452.882,194.367,440.047Z" transform="translate(3.133 3.456)" fill="#ddd"/>
              <path id="Caminho_3826" data-name="Caminho 3826" d="M700.09-3.456q-5.636,4.67-11.911,8.918c-36.142,24.372-86.924,32.123-155.244,23.7C486.552,23.435,442.5,11.135,394.712-3.456h-3.036c48.9,14.975,93.8,27.653,141.152,33.494C601.368,38.493,652.344,30.7,688.67,6.2a149.307,149.307,0,0,0,12.786-9.656Z" transform="translate(3.133 3.456)" fill="#ddd"/>
            </g>
            <g id="Grupo_3271" data-name="Grupo 3271">
              <path id="Caminho_3827" data-name="Caminho 3827" d="M724.917-3.456A128.548,128.548,0,0,1,699.984,17.05c-39.256,24.635-92.668,31.8-163.294,21.892C486.492,31.9,437.406,16.959,387.352.959c-4.524-1.445-9.13-2.946-13.635-4.415h-2.862l.782.255c5.072,1.655,10.317,3.367,15.448,5.007C437.177,17.817,486.3,32.773,536.568,39.821,607.4,49.754,661.011,42.553,700.449,17.8a130.551,130.551,0,0,0,25.787-21.26Z" transform="translate(3.133 3.456)" fill="#ddd"/>
              <path id="Caminho_3828" data-name="Caminho 3828" d="M210.02,446.373c-5.139-14.079-10.669-28.235-16.017-41.924-10.8-27.64-21.964-56.222-30.379-85.4-16.159-56.032-24.36-110.013-24.375-160.444-.013-42.7,3.874-104.215,37.626-145.239A128.4,128.4,0,0,1,193.4-3.456h-1.31A128.876,128.876,0,0,0,176.2,12.8c-14.463,17.578-24.874,40.9-30.946,69.326-4.64,21.724-6.891,46.74-6.882,76.48.014,50.515,8.227,104.579,24.409,160.69,8.427,29.219,19.6,57.82,30.406,85.479,5.346,13.685,10.874,27.835,16.01,41.905,10.261,28.11,16.622,57.922-6.11,85.489-22.243,26.975-52.957,43.47-80.069,56.048C82.822,606.862,40.493,622.486-.443,637.6q-1.345.5-2.69,1v.946l2.994-1.108c40.951-15.116,83.3-30.746,123.522-49.408,27.2-12.619,58.022-29.175,80.378-56.287C226.778,504.822,220.372,474.732,210.02,446.373Z" transform="translate(3.133 3.456)" fill="#ddd"/>
            </g>
            <g id="Grupo_3272" data-name="Grupo 3272">
              <path id="Caminho_3829" data-name="Caminho 3829" d="M745.158-3.456A127.66,127.66,0,0,1,710.864,27.5C670.75,51.992,616.9,59.121,546.239,49.3c-51.89-7.214-102.2-22.8-149.286-38.151-6.142-2-12.434-4.115-18.518-6.158-8.468-2.844-17.01-5.712-25.617-8.446h-2.946c9.509,2.983,18.942,6.151,28.284,9.288,6.086,2.044,12.379,4.158,18.526,6.161C443.8,27.354,494.158,42.955,546.119,50.179a416.549,416.549,0,0,0,57.192,4.267c43.7,0,79.339-8.68,108.01-26.185A127.978,127.978,0,0,0,746.246-3.456Z" transform="translate(3.133 3.456)" fill="#ddd"/>
              <path id="Caminho_3830" data-name="Caminho 3830" d="M225.641,455.026c-6.086-17.839-12.986-35.677-19.659-52.928-9.2-23.772-18.7-48.354-26.206-73.268C162.268,270.7,152.954,215.092,152.09,163.563c-.7-41.572,1.985-101.648,33.169-143.22a98.215,98.215,0,0,1,25.409-23.8h-1.6a99.249,99.249,0,0,0-24.513,23.264C153.207,61.6,150.51,121.874,151.209,163.577c.865,51.612,10.192,107.3,27.724,165.511,7.513,24.947,17.027,49.544,26.228,73.332,6.67,17.243,13.566,35.073,19.646,52.895,8.929,26.175,14.765,56.93-9.652,86.584-21.31,25.88-51.959,40.309-84.137,54-39.732,16.9-81.2,31.457-121.294,45.535-4.233,1.487-8.537,3-12.857,4.518v.94c4.418-1.554,8.819-3.1,13.147-4.619,40.111-14.084,81.589-28.646,121.347-45.556,32.283-13.731,63.035-28.212,84.473-54.246,10.656-12.942,16.352-26.686,17.411-42.017C234.152,487.325,231.736,472.892,225.641,455.026Z" transform="translate(3.133 3.456)" fill="#ddd"/>
            </g>
            <g id="Grupo_3273" data-name="Grupo 3273">
              <path id="Caminho_3831" data-name="Caminho 3831" d="M761.934-3.456C750.9,13.151,736.861,27.657,718.461,38.251c-42,24.182-97.423,30.805-169.432,20.245C497.373,50.921,447.55,35.33,400.945,20.009c-6.015-1.977-12.18-4.066-18.141-6.086C364.34,7.667,345.518,1.292,326.426-3.456h-3.764c20.279,4.813,40.272,11.583,59.861,18.221,5.963,2.021,12.129,4.11,18.149,6.089,46.641,15.332,96.5,30.936,148.23,38.521,72.209,10.59,127.816,3.932,170-20.353,17.349-9.989,31.9-24,44.056-42.478Z" transform="translate(3.133 3.456)" fill="#ddd"/>
              <path id="Caminho_3832" data-name="Caminho 3832" d="M239.771,462.039c-6.4-20.1-13.989-40.145-21.325-59.528-8.155-21.551-16.588-43.835-23.431-66.286-17.863-58.61-27.458-112.035-29.332-163.33-1.489-40.741-.192-99.744,28.136-141.594A91.979,91.979,0,0,1,237.694-3.456h-2.43A92.8,92.8,0,0,0,193.091,30.8c-12.43,18.362-20.6,40.793-24.98,68.574-3.321,21.069-4.373,44.441-3.309,73.553,1.877,51.373,11.484,104.873,29.37,163.557,6.851,22.48,15.29,44.778,23.451,66.342,7.331,19.372,14.912,39.4,21.309,59.483,4.779,15,8.962,31.081,7.22,46.981-1.558,14.219-8.423,28.2-20.987,42.728-21.39,24.742-52.582,37.127-82.746,49.1l-.954.379c-40.095,15.924-81.74,29.811-122.013,43.241-7.418,2.474-15.006,5.005-22.585,7.548v.937c7.671-2.575,15.354-5.138,22.862-7.641,40.285-13.435,81.941-27.326,122.059-43.258l.954-.379C173,589.933,204.3,577.507,225.83,552.6c12.686-14.673,19.62-28.809,21.2-43.214C248.789,493.322,244.581,477.136,239.771,462.039Z" transform="translate(3.133 3.456)" fill="#ddd"/>
            </g>
            <g id="Grupo_3274" data-name="Grupo 3274">
              <path id="Caminho_3833" data-name="Caminho 3833" d="M776.378-3.456C764.2,17.214,747.935,35.357,725.185,47.9,682.07,71.669,626.249,78.2,554.528,67.874c-52.252-7.525-103.27-23.389-146.988-37.669-6.376-2.082-12.916-4.3-19.24-6.438C356.266,12.919,323.142,1.7,289.426-.241c-17.55-1.011-33.752,1.98-48.151,8.891C226.6,15.692,214.2,26.621,204.406,41.135c-26.406,39.14-27.492,94.75-25.488,138.824,2.325,51.143,12.276,104.995,30.42,164.636,6.01,19.751,13.272,39.467,20.3,58.534,8.212,22.293,16.7,45.345,23.227,68.559,10.307,36.672,4.65,64.834-17.8,88.627-22.964,24.337-55.49,36.145-86.945,47.564l-3.868,1.405c-38.323,13.947-77.874,26.467-116.122,38.575-10.26,3.248-20.781,6.579-31.258,9.93v.932c10.563-3.38,21.175-6.739,31.522-10.015,38.257-12.11,77.817-24.633,116.158-38.586l3.867-1.4c31.552-11.455,64.177-23.3,87.285-47.788,11.936-12.651,19.058-26.394,21.773-42.017,2.461-14.169,1.23-29.695-3.764-47.464-6.534-23.248-15.031-46.317-23.249-68.626-7.018-19.055-14.276-38.758-20.278-58.486C192.059,284.767,182.12,230.986,179.8,179.919c-2-43.937-.923-99.362,25.337-138.285,19.2-28.456,49.116-43.012,84.241-40.989,33.6,1.936,66.665,13.134,98.643,23.963,6.327,2.143,12.869,4.358,19.249,6.442,43.753,14.291,94.814,30.168,147.135,37.7,32.53,4.685,61.142,5.875,87.47,3.64,31.941-2.713,60.113-10.691,83.735-23.714,21.053-11.607,38.074-28.74,51.724-52.135Z" transform="translate(3.133 3.456)" fill="#ddd"/>
            </g>
            <g id="Grupo_3275" data-name="Grupo 3275">
              <path id="Caminho_3834" data-name="Caminho 3834" d="M788.953-3.456C776.114,20.584,758.882,40.678,733.583,55c-43.062,24.381-98.948,31.714-170.849,22.419-47.947-6.2-94.132-19.112-148.728-36.594-6.637-2.125-13.462-4.406-20.062-6.612C362.3,23.636,329.572,12.7,296.43,11.341,262.418,9.95,235.659,24.163,216.9,53.582c-11.4,17.873-18.57,39.712-21.923,66.766-3.178,25.647-2.3,51.38-1.182,70.933,2.847,49.754,12.863,102.779,30.62,162.106,5.228,17.466,11.439,35,17.445,51.965,8.528,24.081,17.345,48.981,23.5,74.1,9.414,38.406.959,69.038-25.13,91.045-25.964,21.9-57.561,33.689-90.366,44.8C112.6,627.924,74.252,639.394,37.17,650.486c-13.229,3.957-26.8,8.018-40.3,12.123v.928c13.583-4.131,27.243-8.218,40.554-12.2,37.089-11.094,75.441-22.566,112.724-35.194,32.888-11.14,64.569-22.961,90.651-44.962,13.69-11.548,22.665-25.654,26.676-41.926,3.661-14.851,3.238-31.677-1.257-50.013-6.169-25.165-14.994-50.087-23.528-74.188-6-16.951-12.21-34.479-17.432-51.923-17.737-59.26-27.741-112.218-30.584-161.9-2.473-43.22-2.1-97.87,22.966-137.168,18.582-29.135,45.078-43.211,78.758-41.834,33.017,1.351,65.682,12.27,97.272,22.83,6.6,2.208,13.43,4.49,20.072,6.617C468.38,59.172,514.609,72.1,562.622,78.3c32.589,4.213,61.289,4.98,87.74,2.347,31.983-3.185,60.128-11.553,83.653-24.873,23.278-13.181,41.6-32.6,55.864-59.233Z" transform="translate(3.133 3.456)" fill="#ddd"/>
            </g>
            <g id="Grupo_3276" data-name="Grupo 3276">
              <path id="Caminho_3835" data-name="Caminho 3835" d="M801.3-3.456q-2.271,4.683-4.775,9.236c-15.505,28.035-40.158,46.194-58.11,56.492-42.933,24.629-98.872,32.48-171.009,24-53.451-6.283-105.243-21.464-149.592-35.2-6.171-1.911-12.508-3.956-18.636-5.933-30.388-9.8-61.811-19.942-93.6-21-24.558-.816-44.883,6.908-60.413,22.961s-26.335,40.384-32.084,72.287c-5.443,30.211-5.172,60.733-3.987,81.016,2.867,49.032,12.764,102.181,30.258,162.485,4.443,15.313,9.64,30.778,14.667,45.734,8.621,25.654,17.537,52.181,23,78.961,7.953,39.006-2.849,69.63-32.106,91.023-30.807,22.526-68.137,35.732-97.218,44.721C113.9,633.768,79.3,643.538,45.832,652.988c-16.074,4.538-32.56,9.193-48.965,13.926v.923c16.483-4.755,33.051-9.434,49.2-13.994,33.47-9.451,68.08-19.223,101.873-29.668,29.146-9.009,66.566-22.248,97.478-44.851,29.562-21.616,40.481-52.543,32.452-91.921-5.471-26.834-14.395-53.387-23.025-79.067-5.024-14.947-10.218-30.4-14.656-45.7C222.718,302.4,212.831,249.314,209.968,200.35c-1.916-32.778-2.262-113.266,35.822-152.632,15.35-15.866,35.451-23.5,59.753-22.692,31.671,1.053,63.034,11.172,93.365,20.958,6.131,1.978,12.471,4.024,18.646,5.936C461.941,65.668,513.778,80.863,567.3,87.154c32.193,3.784,61.775,4.258,87.922,1.411,32.056-3.492,60.192-12.079,83.625-25.521C756.9,52.69,781.69,34.426,797.294,6.212q2.631-4.758,4.986-9.668Z" transform="translate(3.133 3.456)" fill="#ddd"/>
            </g>
            <g id="Grupo_3277" data-name="Grupo 3277">
              <path id="Caminho_3836" data-name="Caminho 3836" d="M811.467-3.456a160.147,160.147,0,0,1-8.077,14.843c-13.809,22.358-34.076,41.663-58.611,55.828C700.632,92.7,642.408,101.994,571.721,94.83c-47.765-4.84-93.525-16.4-147.538-32.266-6.234-1.831-12.657-3.811-18.868-5.726-30.017-9.253-61.055-18.821-92.193-18.87h-.15c-21.939,0-40.169,7.609-54.18,22.614-15.073,16.143-25.367,40.806-30.6,73.3-4.783,29.733-4.3,59.8-3.053,79.792,2.954,47.338,11.912,97.073,28.191,156.52,3.806,13.9,8.248,28.013,12.543,41.661,8.617,27.382,17.527,55.7,21.963,84.23,2.92,18.78,2.185,33.7-2.313,46.967-7.56,22.291-25.764,35.878-40.779,45.224-33.355,20.763-71.923,33.979-101.8,43.174-33.43,10.288-67.937,19.186-101.307,27.791-14.718,3.8-29.772,7.681-44.778,11.694v.918c15.077-4.033,30.206-7.938,45-11.751,33.38-8.608,67.9-17.508,101.346-27.8,29.925-9.21,68.563-22.451,102-43.267,15.14-9.425,33.5-23.135,41.15-45.693,4.546-13.4,5.293-28.464,2.35-47.391-4.447-28.6-13.367-56.948-21.994-84.361-4.293-13.64-8.731-27.745-12.533-41.629-16.262-59.386-25.211-109.065-28.161-156.339-1.245-19.945-1.728-49.944,3.043-79.6,5.2-32.32,15.417-56.826,30.367-72.838,13.839-14.82,31.85-22.334,53.539-22.334h.148c31.006.049,61.981,9.6,91.936,18.831,6.214,1.916,12.64,3.9,18.879,5.729C478,79.3,523.8,90.867,571.633,95.714,604.07,99,634.069,98.875,660.8,95.338c31.886-4.219,60.288-13.422,84.418-27.353,24.661-14.238,45.036-33.647,58.921-56.129a161.368,161.368,0,0,0,8.306-15.312Z" transform="translate(3.133 3.456)" fill="#ddd"/>
            </g>
            <g id="Grupo_3278" data-name="Grupo 3278">
              <path id="Caminho_3837" data-name="Caminho 3837" d="M820.217-3.456a164.15,164.15,0,0,1-10.922,19.723c-14.837,22.757-36.117,42.349-61.537,56.657-45.472,25.593-103.359,35.755-172.051,30.2-49.993-4.039-99.331-16.176-145.2-28.69-6.131-1.672-12.457-3.494-18.574-5.257-29.123-8.388-59.233-17.065-89.22-16.306-19.809.5-36.329,7.821-49.1,21.762-14.506,15.834-24.343,40.26-29.235,72.6-3.45,22.8-4.4,48.907-2.831,77.594,2.51,45.843,10.911,95.483,26.44,156.221C271.04,393,274.564,405.2,277.974,417c8.271,28.624,16.825,58.222,19.821,87.923,1.911,18.946-.069,34.743-6.053,48.293-9.069,20.538-30.053,34.018-49.384,44.5-34.817,18.872-74.13,31.372-108.245,41.606C100.263,649.472,65.308,658,31.5,666.246c-11.4,2.781-23.009,5.616-34.636,8.525v.915c11.7-2.927,23.377-5.779,34.843-8.577,33.816-8.249,68.783-16.779,102.654-26.94,34.158-10.248,73.521-22.764,108.412-41.676,19.462-10.549,40.595-24.135,49.771-44.917,6.048-13.7,8.051-29.64,6.125-48.743-3-29.782-11.569-59.42-19.852-88.083-3.407-11.79-6.93-23.981-9.982-35.917-15.513-60.68-23.906-110.266-26.413-156.049-1.568-28.625-.618-54.671,2.822-77.411,4.866-32.163,14.627-56.432,29.011-72.132,12.606-13.759,28.916-20.985,48.477-21.478,29.845-.753,59.9,7.9,88.956,16.273,6.12,1.763,12.449,3.586,18.586,5.261,45.91,12.524,95.3,24.672,145.36,28.717,31.928,2.58,61.764,1.793,88.681-2.34,31.174-4.786,59.392-14.2,83.87-27.975,25.544-14.377,46.929-34.069,61.844-56.945a165.585,165.585,0,0,0,11.16-20.21Z" transform="translate(3.133 3.456)" fill="#ddd"/>
            </g>
            <g id="Grupo_3279" data-name="Grupo 3279">
              <path id="Caminho_3838" data-name="Caminho 3838" d="M828-3.456a173.243,173.243,0,0,1-13.67,24.045c-15.375,22.4-36.792,41.792-61.936,56.066-46.917,26.637-105.11,38.233-172.976,34.466-46.59-2.586-91.649-11.878-144.97-25.033-5.6-1.382-11.394-2.9-17-4.36-28.369-7.414-57.706-15.081-86.506-12.819C304.852,70.959,283.8,88.06,273.2,115.828,261,147.768,256.325,186.27,258.493,237c2.441,57.126,14.073,113.129,23.934,155.536,2.365,10.171,5.086,20.624,7.716,30.732,7.882,30.286,16.031,61.6,16.814,92.719.468,18.623-2.827,34.054-9.794,45.864-11.615,19.688-33.692,32.534-55.82,43.483-38.194,18.9-80.579,31.46-117.308,41.75C90.058,656.6,55.146,664.805,21.383,672.741c-8.086,1.9-16.282,3.828-24.516,5.785v.912c8.3-1.973,16.565-3.916,24.717-5.832,33.771-7.938,68.693-16.146,102.687-25.671,36.768-10.3,79.2-22.876,117.461-41.808,22.249-11.009,44.456-23.939,56.189-43.827,7.053-11.955,10.39-27.547,9.917-46.34-.785-31.219-8.948-62.586-16.842-92.921-2.629-10.1-5.348-20.55-7.711-30.71-9.852-42.369-21.474-98.319-23.912-155.371-2.162-50.6,2.492-88.989,14.648-120.811,10.479-27.436,31.252-44.331,56.993-46.353,28.655-2.25,57.917,5.4,86.215,12.793,5.606,1.465,11.4,2.98,17.009,4.363,53.369,13.168,98.473,22.467,145.132,25.058,68.03,3.776,126.39-7.859,173.457-34.579,25.259-14.34,46.777-33.821,62.228-56.336a174.54,174.54,0,0,0,13.92-24.549Z" transform="translate(3.133 3.456)" fill="#ddd"/>
            </g>
            <g id="Grupo_3280" data-name="Grupo 3280">
              <path id="Caminho_3839" data-name="Caminho 3839" d="M835.009-3.456a187.623,187.623,0,0,1-18.151,30.227,196.34,196.34,0,0,1-60.6,53.21c-47.3,27.1-107.251,40.537-173.369,38.848-45.373-1.155-89.576-8.86-141.988-20.075-5.721-1.224-11.473-2.569-17.562-3.993-27.862-6.517-56.672-13.256-83.718-8.692a60.694,60.694,0,0,0-32.5,16.039c-8.361,8-14.706,18.516-18.861,31.266-13.121,40.271-13.24,87.542-12.188,119.6,1.746,53.205,11.382,106.483,20.578,151.584,1.73,8.486,3.7,17.243,5.61,25.711,7.03,31.21,14.3,63.483,12.809,95.1-.887,18.809-5.777,34.073-14.533,45.369-15.552,20.063-40.294,32.857-64.714,43.694C165.85,645.479,89.16,662.3,14.995,678.559Q6,680.532-3.133,682.544v.909q9.211-2.033,18.315-4.026c74.208-16.273,150.942-33.1,220.988-64.184,24.526-10.883,49.382-23.742,65.053-43.96,8.871-11.443,13.824-26.877,14.72-45.872,1.5-31.741-5.787-64.074-12.83-95.342-1.907-8.465-3.878-17.217-5.607-25.694-9.188-45.064-18.816-98.3-20.56-151.434-1.05-31.986-.933-79.153,12.145-119.29,8.483-26.036,26.479-42.623,50.671-46.706,26.871-4.535,55.6,2.184,83.372,8.681,6.094,1.425,11.849,2.772,17.579,4,52.459,11.225,96.709,18.937,142.148,20.094a389.459,389.459,0,0,0,89.623-7.628c30.88-6.475,59.211-17.019,84.2-31.336A197.235,197.235,0,0,0,817.564,27.3,188.789,188.789,0,0,0,835.992-3.456Z" transform="translate(3.133 3.456)" fill="#ddd"/>
            </g>
            <g id="Grupo_3281" data-name="Grupo 3281">
              <path id="Caminho_3840" data-name="Caminho 3840" d="M840.555-3.456C820.17,35.4,792.546,64.366,756.961,84.392,709.4,111.156,650.343,125.614,586.167,126.2c-44.044.4-87.323-5.491-138.75-14.466-5.051-.881-10.1-1.844-15.441-2.863-27.237-5.194-55.4-10.565-81.631-4.672-12.328,2.769-22.557,8.285-30.4,16.393-7.493,7.746-13.031,18.086-16.459,30.734-9.537,35.194-9.907,74.762-9.44,115.6.595,51.887,8.509,102.632,16.564,150.16,1.151,6.794,2.447,13.816,3.7,20.606,5.92,32.105,12.042,65.3,7.942,97.255-5.955,46.4-46.516,69.208-89.46,86.945-74.337,30.7-155.03,47.726-233.066,64.19l-2.856.6v.907l3.037-.641c78.075-16.472,158.808-33.505,233.219-64.238,18.967-7.834,40.679-17.765,57.911-32.037,18.787-15.561,29.283-33.753,32.089-55.616,4.118-32.09-2.017-65.358-7.95-97.53-1.252-6.787-2.545-13.806-3.7-20.593-8.049-47.494-15.957-98.2-16.551-150.021-.467-40.769-.1-80.269,9.409-115.352,6.916-25.519,22.46-41.161,46.2-46.494,26.053-5.852,54.126-.5,81.275,4.678,5.347,1.019,10.4,1.982,15.455,2.865,49.811,8.694,91.982,14.5,134.632,14.5,1.423,0,2.852-.006,4.276-.02C650.5,126.5,709.7,112,757.391,85.167c35.868-20.185,63.678-49.4,84.162-88.623Z" transform="translate(3.133 3.456)" fill="#ddd"/>
            </g>
            <g id="Grupo_3282" data-name="Grupo 3282">
              <path id="Caminho_3841" data-name="Caminho 3841" d="M846.909-3.456C825.632,35.587,795.966,66.5,759.5,87.252c-59.58,33.909-125.437,43.732-170.193,46-46.651,2.365-92.378-2.78-135.217-8.253-3.673-.47-7.452-.98-11.107-1.473-27.489-3.712-55.914-7.551-82.779-.683-11.438,2.923-20.761,8.581-27.709,16.816-6.4,7.583-11.007,17.627-13.7,29.853-6.486,29.48-6.362,61.077-6.242,91.635.03,7.664.061,15.59-.019,23.246-.484,46.263,4.9,92.176,11.444,143.1.709,5.517,1.5,11.221,2.268,16.738,4.645,33.428,9.448,67.994,2.32,100.44-10.4,47.321-58.731,69.258-103.22,86.105-73.43,27.8-151.879,44.711-228.479,60.356v.906c76.69-15.662,155.24-32.581,228.789-60.431,44.706-16.929,93.28-38.989,103.77-86.744,7.163-32.6,2.349-67.249-2.307-100.755-.766-5.515-1.558-11.217-2.267-16.73-6.544-50.885-11.92-96.766-11.437-142.972.081-7.662.049-15.591.02-23.259-.12-30.509-.244-62.055,6.221-91.439,5.581-25.369,18.915-40.416,40.762-46,26.7-6.826,55.039-3,82.445.7,3.656.494,7.437,1,11.113,1.474,42.878,5.478,88.649,10.629,135.372,8.259a439.329,439.329,0,0,0,87.959-13.262c30.384-7.889,58.182-18.942,82.624-32.853A222.035,222.035,0,0,0,826.364,29.97,249.033,249.033,0,0,0,847.955-3.456Z" transform="translate(3.133 3.456)" fill="#ddd"/>
            </g>
            <g id="Grupo_3283" data-name="Grupo 3283">
              <path id="Caminho_3842" data-name="Caminho 3842" d="M852.464-3.456c-23.241,41.034-55.177,73.51-93.931,95.169-56.745,31.713-120.833,43.643-164.6,48.067-44.343,4.481-88.845,1.91-134.335-1.368q-3.24-.232-6.513-.479c-27.489-2.045-55.913-4.158-82.328,3.492-20.309,5.881-32.3,21.051-36.668,46.376-4.5,26.125-3.853,53.482-3.226,79.938.255,10.731.519,21.829.424,32.589-.441,50.256,2.945,99.755,6.316,141.547.291,3.609.6,7.254.916,10.928,2.954,34.579,6.009,70.336-4.892,102.7-16.469,48.886-76.109,69.891-115.575,83.79-71.542,25.2-147.085,41.514-221.181,56.37v.906c74.181-14.872,149.82-31.2,221.472-56.438,22.991-8.1,47.188-17.068,68.1-29.813,25.1-15.294,40.8-33.13,48.014-54.529,10.962-32.539,7.9-68.39,4.937-103.061q-.471-5.506-.916-10.923c-3.369-41.772-6.754-91.246-6.314-141.468.1-10.774-.168-21.879-.423-32.618-.627-26.412-1.275-53.725,3.213-79.765,4.3-24.956,16.09-39.9,36.042-45.674,26.264-7.606,54.608-5.5,82.02-3.459q3.273.243,6.515.479c45.529,3.281,90.075,5.854,134.485,1.366,43.855-4.432,108.069-16.388,164.945-48.175a238.827,238.827,0,0,0,68.665-57.857A268.191,268.191,0,0,0,853.494-3.456Z" transform="translate(3.133 3.456)" fill="#ddd"/>
            </g>
            <g id="Grupo_3284" data-name="Grupo 3284">
              <path id="Caminho_3843" data-name="Caminho 3843" d="M857.558-3.456c-25.069,42.364-58.471,75.946-98.073,98.277-42.263,23.83-94.932,40.492-161.018,50.935-44.292,7-89.389,6.721-133,6.453q-2.261-.013-4.548-.031c-25.506-.185-54.417-.4-79.208,7.692a42.137,42.137,0,0,0-23.214,17.766c-4.667,7.367-7.673,16.658-9.191,28.4-3.238,25.063-2.05,51.042-.9,76.164.514,11.236,1.045,22.854,1.163,34.152.176,16.782.226,33.827.275,50.31.084,28.622.172,58.218.917,87.381l.105,4.06c.962,36.741,1.957,74.732-13.167,108.07-21.1,46.511-82.241,66.712-126.884,81.462l-.369.122C141.016,670.7,68.344,686.333-3.133,700.478v.9c71.558-14.159,144.321-29.806,213.846-52.777l.369-.122c44.8-14.8,106.152-35.072,127.411-81.936,15.21-33.526,14.212-71.621,13.247-108.463l-.1-4.059c-.745-29.153-.832-58.744-.917-87.361-.048-16.486-.1-33.532-.274-50.318-.118-11.313-.65-22.939-1.164-34.182-1.147-25.085-2.333-51.024.895-76.009s13.333-39.415,31.8-45.441c24.655-8.043,53.489-7.833,78.93-7.649q2.288.017,4.549.031c43.648.268,88.784.547,133.147-6.464,66.191-10.46,118.956-27.154,161.311-51.037A256.019,256.019,0,0,0,829.207,38.11,293.343,293.343,0,0,0,858.619-3.456Z" transform="translate(3.133 3.456)" fill="#ddd"/>
            </g>
            <g id="Grupo_3285" data-name="Grupo 3285">
              <path id="Caminho_3844" data-name="Caminho 3844" d="M862.532-3.456C835.47,40.573,801.093,74.633,760,98.036c-49.973,28.463-108.648,42.631-159.722,53.677-38.824,8.4-78.925,11.191-117.707,13.893q-4.458.311-8.918.624c-13.816.974-27.677,2.785-41.083,4.537l-4.922.642c-1.686.219-3.381.427-5.079.636-9.9,1.218-20.144,2.477-29.631,5.977-17.252,6.366-26.34,20.993-28.6,46.032-2.165,24.011-.552,48.7,1.008,72.58.766,11.715,1.557,23.828,1.883,35.641.983,35.625-.672,72.08-2.272,107.334-.434,9.57-.884,19.467-1.271,29.17-1.315,32.881-2.95,73.8-21.8,106.143-8.928,15.322-23.522,28.975-44.613,41.74-30.057,18.19-63.194,29.757-94.527,39.547C135.581,677.2,65.717,692.136-3.133,705.634v.9c68.929-13.511,138.878-28.462,206.147-49.481,31.385-9.806,64.583-21.4,94.72-39.634,21.221-12.844,35.914-26.6,44.919-42.052,18.959-32.533,20.6-73.577,21.919-106.556.387-9.7.836-19.6,1.271-29.166,1.6-35.27,3.256-71.741,2.272-107.4-.326-11.83-1.118-23.952-1.884-35.674-1.558-23.844-3.17-48.5-1.01-72.442,2.225-24.657,11.129-39.044,28.024-45.278,9.391-3.465,19.581-4.718,29.435-5.929,1.7-.21,3.4-.418,5.085-.637l4.923-.642c13.392-1.751,27.241-3.56,41.03-4.532q4.46-.315,8.918-.624c38.812-2.7,78.945-5.5,117.831-13.911,51.138-11.06,109.89-25.248,159.971-53.772a275.3,275.3,0,0,0,69.9-57.182A323.3,323.3,0,0,0,863.546-3.456Z" transform="translate(3.133 3.456)" fill="#ddd"/>
            </g>
            <g id="Grupo_3286" data-name="Grupo 3286">
              <path id="Caminho_3845" data-name="Caminho 3845" d="M867.356-3.456c-29.444,45.717-65.583,81.03-107.724,105.193-42.045,24.109-89.194,36.968-134.79,49.4-6.927,1.888-14.089,3.842-21.117,5.8-34.039,9.5-69.286,15.056-103.371,20.431-6.346,1-12.909,2.036-19.37,3.081-6.859,1.109-13.775,2.473-20.464,3.791-7.613,1.5-15.484,3.052-23.293,4.233q-1.858.282-3.734.555c-9.715,1.43-19.76,2.909-28.92,6.685a35.9,35.9,0,0,0-19.563,18.815c-3.305,7.059-5.218,15.975-5.849,27.256-1.282,22.946.646,46.4,2.51,69.074,1.016,12.363,2.067,25.146,2.578,37.648,1.806,44.207-2.715,88.446-7.917,133.654-3.936,34.205-9.931,73.144-31.386,102.352-33.316,45.359-97.236,64.452-148.6,79.794l-.282.084c-65.162,19.466-132.625,33.8-199.2,46.763v.9c66.651-12.979,134.2-27.323,199.451-46.815l.283-.085c51.485-15.379,115.562-34.52,149.054-80.117,21.583-29.384,27.6-68.458,31.552-102.777,5.207-45.245,9.731-89.522,7.923-133.793-.512-12.521-1.563-25.314-2.581-37.685-1.861-22.648-3.786-46.067-2.508-68.951.934-16.7,4.6-36.946,24.866-45.3,9.06-3.736,19.051-5.206,28.713-6.628q1.877-.276,3.738-.555c7.828-1.185,15.709-2.738,23.331-4.24,6.682-1.317,13.591-2.679,20.435-3.786,6.459-1.045,13.021-2.08,19.366-3.081,34.11-5.378,69.383-10.94,103.47-20.452,7.025-1.961,14.187-3.914,21.113-5.8,45.649-12.449,92.853-25.324,134.995-49.488C802.481,78.19,838.825,42.613,868.4-3.456Z" transform="translate(3.133 3.456)" fill="#ddd"/>
            </g>
            <g id="Grupo_3287" data-name="Grupo 3287">
              <path id="Caminho_3846" data-name="Caminho 3846" d="M872.26-3.456C840.295,43.9,802.439,80.45,759.482,105.4c-41.152,23.9-87.214,37.532-131.759,50.718-6.294,1.864-12.8,3.79-19.191,5.714-29.319,8.831-59.268,16.829-88.23,24.564-10.537,2.814-21.432,5.723-32.16,8.637l-1.743.473c-13.414,3.644-26.083,7.087-39.579,9.562q-1.725.316-3.466.626c-8.85,1.585-18,3.224-26.289,6.9-19.838,8.8-22.908,29.463-23.367,46.484-.594,22.06,1.562,44.5,3.648,66.207,1.292,13.45,2.628,27.358,3.29,41,1.887,38.9-1.734,78.472-11.742,128.321-6.385,31.8-16.926,71.9-41.983,99.988-38.748,43.438-102.4,62.029-153.538,76.968C129.023,690.352,62.53,704.4-3.133,717.114v.905C62.6,705.29,129.179,691.231,193.619,672.408c24.32-7.1,54.589-15.945,82.454-28.3,30.988-13.733,54.374-29.739,71.494-48.931,25.2-28.249,35.784-68.5,42.191-100.406,10.023-49.924,13.649-89.567,11.759-128.54-.663-13.661-2-27.58-3.294-41.041-2.083-21.677-4.236-44.092-3.644-66.1.452-16.759,3.456-37.1,22.841-45.7,8.192-3.632,17.29-5.262,26.088-6.838q1.741-.312,3.47-.626c13.532-2.482,26.219-5.929,39.651-9.579l1.743-.473c10.726-2.913,21.62-5.822,32.156-8.636,28.969-7.736,58.924-15.736,88.256-24.571,6.386-1.923,12.894-3.85,19.187-5.713,44.595-13.2,90.709-26.85,131.951-50.8,43.224-25.1,81.289-61.919,113.4-109.622Z" transform="translate(3.133 3.456)" fill="#ddd"/>
            </g>
            <g id="Grupo_3288" data-name="Grupo 3288">
              <path id="Caminho_3847" data-name="Caminho 3847" d="M877.4-3.456c-35.285,50-74.457,87.209-119.34,113.433-38.5,22.493-81.247,36.378-122.589,49.806-8.016,2.6-16.3,5.3-24.437,8.009-39.186,13.078-77.5,27.073-113.887,41.6-9.775,3.9-20.492,6.2-30.857,8.423-12.956,2.778-26.354,5.651-38.083,11.686-17.832,9.177-20.283,28.6-20.329,46.384-.053,20.9,2.218,42.1,4.414,62.608,1.453,13.562,2.955,27.586,3.765,41.366,1.6,27.142,1.252,48.968-1.089,68.69-2.428,20.449-8.318,40.881-14.141,60.057-12.93,42.571-29.7,73.555-51.264,94.725-44.683,43.86-111.71,62.534-165.567,77.539C122.559,697.984,59.338,711.275-3.133,723.4v.9c62.542-12.133,125.842-25.436,187.366-42.577,30.38-8.464,59.969-17.032,87.967-28.747,32.9-13.764,58.4-29.8,77.98-49.013,21.675-21.275,38.518-52.383,51.492-95.1,5.835-19.214,11.736-39.69,14.173-60.211,2.347-19.776,2.695-41.653,1.1-68.848-.813-13.8-2.316-27.837-3.77-41.409-2.193-20.48-4.461-41.658-4.408-62.51.045-17.519,2.438-36.637,19.848-45.6,11.626-5.982,24.965-8.842,37.866-11.608,10.4-2.23,21.154-4.536,31-8.466,36.367-14.519,74.669-28.508,113.839-41.58,8.129-2.712,16.416-5.4,24.431-8.007,41.386-13.442,84.181-27.342,122.76-49.883a350.484,350.484,0,0,0,72.488-56.911,457.033,457.033,0,0,0,47.481-57.29Z" transform="translate(3.133 3.456)" fill="#ddd"/>
            </g>
            <g id="Grupo_3289" data-name="Grupo 3289">
              <path id="Caminho_3848" data-name="Caminho 3848" d="M882.893-3.456c-38.732,52.244-80,90.945-125.9,118.09-35.716,21.123-75.089,35.14-113.166,48.695-9.58,3.411-19.486,6.937-29.2,10.527-25.067,9.268-49.288,21.2-72.712,32.731-11.673,5.749-23.743,11.692-35.783,17.242-9.5,4.379-20.038,6.914-30.23,9.365-12.214,2.938-24.843,5.976-35.786,12.211-16.752,9.546-18.72,28.943-18.436,46.659.321,19.947,2.638,40.145,4.878,59.677,1.618,14.1,3.292,28.688,4.2,43.046,3.179,50.429-2.394,89.469-18.068,126.583-16.788,39.752-37.393,70.435-61.242,91.2-46.128,40.152-107.925,59.151-172.516,76.613C119.054,705.365,57.6,718.26-3.133,730.1v.9c60.8-11.851,122.334-24.759,182.291-40.968,64.693-17.49,126.594-36.524,172.863-76.8,23.952-20.849,44.636-51.641,61.478-91.519,15.73-37.249,21.324-76.413,18.136-126.987-.906-14.381-2.581-28.977-4.2-43.092-2.238-19.511-4.553-39.686-4.872-59.59-.28-17.455,1.638-36.555,17.988-45.87,10.834-6.174,23.4-9.2,35.557-12.121,10.232-2.462,20.813-5.007,30.392-9.422,12.05-5.554,24.125-11.5,35.8-17.251,23.4-11.526,47.605-23.443,72.629-32.7,9.7-3.588,19.608-7.114,29.185-10.523,38.117-13.57,77.53-27.6,113.319-48.767,45.8-27.088,87-65.659,125.657-117.657v-1.2Z" transform="translate(3.133 3.456)" fill="#ddd"/>
            </g>
            <g id="Grupo_3290" data-name="Grupo 3290" transform="translate(0 7.371)">
              <path id="Caminho_3849" data-name="Caminho 3849" d="M755.3,120.02c-32.565,19.467-68.182,33.332-102.625,46.741-10.9,4.245-22.178,8.634-33.212,13.143a403.58,403.58,0,0,0-58.756,29.453c-4.959,3.038-9.942,6.306-14.76,9.466-10.074,6.607-20.492,13.439-31.413,18.652-8.616,4.113-18.207,6.854-27.482,9.505-11.983,3.425-24.374,6.966-34.889,13.513-15.943,9.927-17.641,28.516-17.1,47.127.554,19.082,2.845,38.383,5.061,57.047,1.747,14.727,3.555,29.956,4.5,44.973,2.439,38.906,2,83.934-19.715,122.9-21.846,39.194-46.351,69.5-72.834,90.082-49.947,38.813-114.56,58.179-176.459,74.688C116.783,713,56.454,725.653-3.133,737.327v.905c59.657-11.686,120.061-24.353,178.968-40.064,61.987-16.533,126.7-35.93,176.772-74.844,26.578-20.653,51.161-51.052,73.065-90.351C447.5,493.807,447.945,448.62,445.5,409.584c-.943-15.042-2.752-30.283-4.5-45.022-2.213-18.646-4.5-37.926-5.055-56.968-.532-18.345,1.12-36.656,16.683-46.345,10.411-6.482,22.742-10.007,34.667-13.415,9.31-2.661,18.936-5.412,27.619-9.556,10.975-5.239,21.417-12.088,31.516-18.711,4.813-3.157,9.79-6.421,14.737-9.451a402.7,402.7,0,0,1,58.63-29.389c11.027-4.506,22.3-8.894,33.2-13.138,34.477-13.421,70.128-27.3,102.757-46.8C800.542,94.007,842.307,56.146,883.093,5.329V3.915C842.156,55.079,800.252,93.148,755.3,120.02Z" transform="translate(3.133 -3.915)" fill="#ddd"/>
            </g>
            <g id="Grupo_3291" data-name="Grupo 3291" transform="translate(0 14.998)">
              <path id="Caminho_3850" data-name="Caminho 3850" d="M753.568,125.874c-28.984,17.556-60.42,30.91-90.821,43.824-13.337,5.665-27.126,11.523-40.56,17.669-21.829,9.99-38.658,19.518-52.957,29.988-4.8,3.511-9.5,7.265-14.048,10.9-9.488,7.573-19.3,15.4-30.3,21.277-8.427,4.5-17.9,7.622-27.056,10.64-11.607,3.824-23.61,7.78-33.675,14.593-15.373,10.406-16.863,29.062-16.183,47.671.669,18.3,2.872,36.809,5,54.7,1.819,15.285,3.7,31.09,4.618,46.694,2.4,40.84,1.692,87.167-21.731,121.11-17.227,24.965-45.316,60.177-81.3,86.148C301.184,669.609,235.72,688.98,173.242,705.52,115.16,720.9,55.621,733.414-3.133,745.025v.9c58.822-11.622,118.437-24.153,176.6-39.551,62.558-16.56,128.109-35.959,181.606-74.568,36.09-26.045,64.248-61.341,81.514-86.363,23.576-34.166,24.294-80.678,21.887-121.67-.918-15.631-2.8-31.449-4.623-46.747-2.128-17.877-4.329-36.362-5-54.63-.671-18.353.778-36.738,15.794-46.9,9.964-6.745,21.907-10.681,33.457-14.487,9.194-3.029,18.7-6.162,27.2-10.7,11.068-5.911,20.911-13.767,30.43-21.365,4.541-3.625,9.237-7.374,14.018-10.873,14.251-10.434,31.03-19.934,52.8-29.9,13.423-6.142,27.207-12,40.537-17.66,30.43-12.926,61.895-26.293,90.933-43.881C798.471,99.711,839.784,63.34,883.093,12.9V11.542C839.6,62.314,798.163,98.861,753.568,125.874Z" transform="translate(3.133 -11.542)" fill="#ddd"/>
            </g>
            <g id="Grupo_3292" data-name="Grupo 3292" transform="translate(0 22.736)">
              <path id="Caminho_3851" data-name="Caminho 3851" d="M754.117,130.82c-25.9,16.125-53.83,29.041-80.845,41.533-15.858,7.332-32.255,14.914-48.1,23.077-19.26,9.923-34.224,19.528-47.091,30.23-4.607,3.831-9.05,7.891-13.347,11.817-8.959,8.186-18.223,16.65-29.114,23.1-8.345,4.944-17.772,8.5-26.888,11.93-11.255,4.241-22.893,8.627-32.622,15.675-15,10.866-16.41,29.643-15.7,48.315.67,17.666,2.728,35.525,4.717,52.8,1.812,15.722,3.685,31.98,4.5,48.042,2.017,39.5.928,84.284-22.443,116.953-8.766,12.255-20.161,23.4-31.18,34.171-3.255,3.183-6.622,6.474-9.812,9.694-16.5,16.65-32.509,30.169-48.944,41.328-56.572,38.413-125.333,58.51-185.343,74.332-57.681,15.208-116.8,27.709-175.041,39.377v.906c58.314-11.681,117.5-24.2,175.264-39.424,60.08-15.84,128.926-35.963,185.613-74.454,16.482-11.192,32.535-24.746,49.075-41.438,3.186-3.215,6.549-6.5,9.8-9.684,11.046-10.8,22.47-21.97,31.282-34.288,23.529-32.893,24.632-77.865,22.608-117.519-.822-16.09-2.7-32.362-4.51-48.1-1.987-17.254-4.043-35.1-4.712-52.726-.7-18.426.676-36.94,15.336-47.561,9.633-6.979,21.215-11.343,32.416-15.564,9.151-3.448,18.614-7.014,27.026-12,10.969-6.5,20.267-14.993,29.259-23.21,4.29-3.919,8.725-7.971,13.316-11.789,12.817-10.66,27.73-20.232,46.932-30.125,15.827-8.154,32.216-15.732,48.066-23.06,27.039-12.5,55-25.431,80.94-41.585,42.562-26.5,83.715-62.012,128.513-110.983V19.28C838.1,68.556,796.814,104.231,754.117,130.82Z" transform="translate(3.133 -19.28)" fill="#ddd"/>
            </g>
            <g id="Grupo_3293" data-name="Grupo 3293" transform="translate(0 30.775)">
              <path id="Caminho_3852" data-name="Caminho 3852" d="M751.971,138c-22.035,13.922-45.629,25.717-68.447,37.124-17.892,8.945-36.393,18.194-54.04,28.416-17.478,10.124-31.626,20.523-43.254,31.79-2.721,2.638-5.43,5.341-8.05,7.955-10.368,10.344-20.161,20.115-32.387,27.959-8.13,5.216-17.34,9.112-26.246,12.88-10.849,4.589-22.067,9.334-31.439,16.508-14.929,11.427-16.4,30.385-15.769,49.168.574,17.063,2.43,34.32,4.225,51.01,1.674,15.568,3.4,31.666,4.092,47.567,1.739,40.293.077,85.713-25.443,117.069-9.981,12.263-22.249,23.161-34.112,33.7-3.052,2.711-6.206,5.513-9.246,8.273-18.439,16.742-35.8,30.248-53.075,41.29-58.665,37.5-126.849,57.467-186.155,73.238C114.694,737.353,55.279,750.028-3.133,761.923v.906c58.481-11.908,117.971-24.6,175.983-40.023,59.369-15.789,127.631-35.779,186.4-73.347,17.316-11.069,34.716-24.605,53.193-41.38,3.035-2.757,6.188-5.558,9.238-8.267,11.89-10.562,24.185-21.484,34.211-33.8,25.708-31.588,27.388-77.209,25.641-117.671-.687-15.929-2.42-32.042-4.1-47.624-1.793-16.673-3.647-33.914-4.22-50.944-.625-18.545.811-37.248,15.421-48.431,9.284-7.106,20.449-11.829,31.247-16.4,8.94-3.781,18.185-7.692,26.379-12.949,12.306-7.9,22.589-18.155,32.533-28.077,2.618-2.612,5.325-5.313,8.042-7.946,11.575-11.217,25.667-21.573,43.081-31.66,17.624-10.208,36.112-19.451,53.993-28.39,22.837-11.417,46.451-23.222,68.523-37.168,52.05-32.886,96.21-74.529,130.654-110.158V27.319C848.593,63.055,804.265,104.959,751.971,138Z" transform="translate(3.133 -27.319)" fill="#ddd"/>
            </g>
            <g id="Grupo_3294" data-name="Grupo 3294" transform="translate(0 39.158)">
              <path id="Caminho_3853" data-name="Caminho 3853" d="M752.2,144.3c-18.815,12.209-38.881,23-58.286,33.442-19.96,10.737-40.6,21.839-59.889,34.488-15.166,9.946-27.953,22.88-40.319,35.388-11.566,11.7-23.526,23.8-37.344,33.328-7.935,5.473-16.985,9.706-25.736,13.8-10.846,5.074-22.062,10.321-31.287,17.983-14.433,11.989-16.018,30.91-15.58,49.57.391,16.643,1.994,33.487,3.546,49.776,1.523,15.993,3.1,32.53,3.522,48.863.99,38.02-1.542,81.187-27.824,113.073-12.011,14.572-26.773,26.812-41.049,38.65q-2.338,1.939-4.672,3.88c-20.614,17.168-38.654,30.3-56.772,41.336-59.015,35.937-126.651,56.61-190.949,73.6-57,15.058-115.427,27.677-172.69,39.638v.907C54.2,760.04,112.7,747.407,169.78,732.327c64.363-17,132.071-37.7,191.182-73.7,18.156-11.056,36.229-24.215,56.877-41.412q2.333-1.941,4.671-3.879c14.308-11.864,29.1-24.131,41.167-38.768,11.9-14.44,19.8-32.082,24.138-53.934,4.314-21.721,4.286-44.491,3.889-59.73-.426-16.363-2-32.916-3.526-48.924-1.549-16.274-3.152-33.1-3.542-49.712-.433-18.436,1.117-37.116,15.26-48.864,9.137-7.589,20.3-12.812,31.1-17.863,8.784-4.108,17.867-8.358,25.862-13.873,13.887-9.577,25.876-21.705,37.471-33.433,12.334-12.476,25.088-25.376,40.176-35.271,19.258-12.628,39.88-23.721,59.823-34.449,19.421-10.447,39.5-21.25,58.348-33.478,49.581-32.174,93.24-71.663,130.42-108.1V35.7C845.811,72.274,801.988,111.984,752.2,144.3Z" transform="translate(3.133 -35.702)" fill="#ddd"/>
            </g>
            <g id="Grupo_3295" data-name="Grupo 3295" transform="translate(0 47.983)">
              <path id="Caminho_3854" data-name="Caminho 3854" d="M749.887,152.887c-15.178,10.027-31.274,19.284-46.839,28.237-21.289,12.244-43.3,24.906-63.328,39.737-13.9,10.3-25.916,23.08-37.535,35.443-10.739,11.426-21.843,23.242-34.393,33.036-8.229,6.424-17.754,11.254-26.964,15.926-10.184,5.166-20.715,10.508-29.52,18.018-14.886,12.7-16.8,31.883-16.659,50.724.125,16.274,1.421,32.763,2.673,48.71,1.242,15.818,2.527,32.174,2.668,48.31.316,36.13-3.115,77.676-30.962,111.876-13.427,16.489-29.483,29.417-47.561,43.415-21.531,16.671-39.984,29.4-58.071,40.068-62.009,36.562-133.25,58.162-194.76,74.469-56.771,15.05-114.983,27.829-171.769,40.055v.909c56.854-12.241,115.142-25.034,171.993-40.106,40.733-10.8,71.593-20.246,100.061-30.631,36.037-13.148,67.086-27.518,94.921-43.93,18.119-10.683,36.6-23.435,58.163-40.13,18.121-14.032,34.219-26.994,47.7-43.557,12.279-15.079,20.651-32.456,25.594-53.122,4.007-16.752,5.776-35.6,5.569-59.324-.142-16.166-1.428-32.539-2.671-48.372-1.252-15.931-2.546-32.405-2.67-48.647-.143-18.625,1.738-37.578,16.347-50.039,8.724-7.443,19.208-12.76,29.346-17.9,9.248-4.69,18.811-9.541,27.108-16.017,12.6-9.836,23.731-21.677,34.493-33.128,11.592-12.334,23.579-25.088,37.418-35.337,19.984-14.8,41.975-27.45,63.242-39.682,15.577-8.959,31.684-18.224,46.885-28.266,48.1-31.778,92.079-70.052,132.723-107.892v-1.21C842.31,82.522,798.175,120.987,749.887,152.887Z" transform="translate(3.133 -44.527)" fill="#ddd"/>
            </g>
            <g id="Grupo_3296" data-name="Grupo 3296" transform="translate(0 57.325)">
              <path id="Caminho_3855" data-name="Caminho 3855" d="M750.544,160.213c-12.392,8.429-25.541,16.455-38.257,24.216C688.746,198.8,664.4,213.654,643.423,231.9c-12.144,10.563-23.426,22.534-34.337,34.11-9.764,10.36-19.861,21.073-30.554,30.757-8.4,7.6-18.434,13.143-28.14,18.5-9.659,5.331-19.647,10.843-28.019,18.39-14.829,13.367-17.088,33.4-17.342,51.241-.229,16.084.7,32.4,1.6,48.187.916,16.067,1.863,32.68,1.587,49.049-.39,23.129-2.546,41.546-6.782,57.96C497.072,557,488.3,573.564,474.622,590.727c-28.71,36.025-71.228,63.033-109.033,84.7-62.638,35.9-132.569,57.479-192.715,73.851C114.662,765.124,54.845,778.515-3.133,791.432v.909C54.915,779.409,114.809,766,173.1,750.135c60.2-16.386,130.2-37.985,192.922-73.936,37.877-21.709,80.482-48.775,109.285-84.916,13.758-17.263,22.583-33.934,26.979-50.964,4.255-16.484,6.419-34.968,6.81-58.169.277-16.4-.671-33.032-1.587-49.115-.9-15.767-1.828-32.071-1.6-48.124.251-17.644,2.473-37.453,17.048-50.591,8.3-7.479,18.239-12.967,27.854-18.273,9.751-5.38,19.833-10.944,28.307-18.618,10.718-9.707,20.827-20.433,30.6-30.8,10.9-11.561,22.164-23.515,34.274-34.05,20.924-18.2,45.235-33.037,68.745-47.386,12.725-7.766,25.883-15.8,38.293-24.239,47.031-31.994,89.645-68.2,132.056-105.9V53.869C840.512,91.726,797.749,128.1,750.544,160.213Z" transform="translate(3.133 -53.869)" fill="#ddd"/>
            </g>
            <g id="Grupo_3297" data-name="Grupo 3297" transform="translate(0 67.198)">
              <path id="Caminho_3856" data-name="Caminho 3856" d="M750.507,168.725c-9.823,6.868-20.231,13.592-30.3,20.1-24.712,15.964-50.266,32.472-70.987,53.4-7.4,7.473-14.635,15.267-21.634,22.806-11.921,12.839-24.247,26.114-37.653,38.094-8.521,7.614-18.3,13.687-27.755,19.56-9.5,5.9-19.324,12-27.836,19.65-15.787,14.185-18.686,34.632-19.44,52.762-.662,15.915-.165,32.094.316,47.741.489,15.892.994,32.325.283,48.483-.729,16.606-2.375,38.193-8.68,57.891-4.92,15.37-14.107,31.761-27.306,48.717C451.226,634.271,410.2,660.4,370.09,683.214c-64.3,36.572-134.58,58.642-194.85,75.408C120.18,773.939,63.6,787.1,8.877,799.829l-12.01,2.8v.911l12.209-2.841c54.728-12.73,111.32-25.894,166.4-41.216,60.323-16.78,130.668-38.872,195.049-75.491,40.194-22.863,81.3-49.046,109.689-85.513,13.263-17.039,22.5-33.523,27.451-48.993,6.337-19.8,7.99-41.462,8.722-58.124.712-16.191.206-32.641-.283-48.55-.48-15.63-.977-31.793-.316-47.676.746-17.944,3.6-38.171,19.146-52.136,8.454-7.6,18.244-13.677,27.712-19.557,9.488-5.893,19.3-11.987,27.876-19.652,13.438-12.007,25.778-25.3,37.712-38.152,6.995-7.533,14.227-15.322,21.615-22.785,20.654-20.862,46.166-37.343,70.839-53.282,10.072-6.506,20.487-13.235,30.324-20.113,46-32.169,89.733-68.556,132.083-104.55V63.742C840.581,99.88,796.685,136.435,750.507,168.725Z" transform="translate(3.133 -63.742)" fill="#ddd"/>
            </g>
            <g id="Grupo_3298" data-name="Grupo 3298" transform="translate(0 77.631)">
              <path id="Caminho_3857" data-name="Caminho 3857" d="M882.763,74.444c-43.1,35.142-87.668,71.48-133.627,104.5-7.093,5.1-14.51,10.195-21.682,15.125-25.7,17.668-52.286,35.938-72.645,59.781-20.293,23.767-36.978,41.072-54.1,56.112-7.94,6.974-18.628,15.975-30.908,23.732q-1.311.828-2.629,1.654c-7.463,4.688-15.181,9.535-21.769,15.617-16.285,15.034-19.837,36.52-21.111,53.56-1.183,15.811-1.185,31.923-1.187,47.505,0,15.524,0,31.577-1.175,47.323-3.092,41.6-15.909,76.468-39.182,106.6-29.591,38.316-71.169,64.512-111.694,87.113-64.312,35.869-134.413,58.32-188.3,73.871C131.049,781.868,77.9,794.836,26.511,807.378q-14.723,3.593-29.644,7.251v.914q15.009-3.689,29.851-7.3C78.121,795.7,131.274,782.727,183,767.8c53.931-15.564,124.093-38.035,188.483-73.948,40.606-22.646,82.275-48.9,111.963-87.344,23.383-30.279,36.26-65.306,39.365-107.084,1.173-15.778,1.175-31.848,1.177-47.389,0-15.565.005-31.661,1.185-47.439,1.262-16.876,4.771-38.148,20.828-52.971,6.528-6.026,14.21-10.852,21.64-15.519q1.317-.826,2.63-1.655c12.332-7.789,23.056-16.819,31.019-23.815,17.155-15.069,33.867-32.4,54.188-56.2,20.284-23.754,46.816-41.991,72.474-59.627,7.176-4.932,14.6-10.033,21.7-15.135,45.9-32.983,90.4-69.261,133.445-104.354V74.175Z" transform="translate(3.133 -74.175)" fill="#ddd"/>
            </g>
            <g id="Grupo_3299" data-name="Grupo 3299" transform="translate(0 88.631)">
              <path id="Caminho_3858" data-name="Caminho 3858" d="M854.909,107.344c-34.008,26.79-69.174,54.493-104.536,80.747q-4.317,3.205-8.635,6.389c-28.027,20.7-57.009,42.111-79.95,69.878-17.794,21.538-33.823,38.241-50.444,52.566-9.028,7.781-18.364,15.828-28.331,22.563-1.783,1.2-3.611,2.414-5.379,3.583-6.936,4.586-14.108,9.327-20.39,15.052-13.725,12.508-21.139,29.514-24.039,55.14-1.787,15.792-2.365,31.932-2.924,47.54-.567,15.828-1.154,32.194-3,48.2-4.513,39.085-18.649,74.349-42.015,104.814-30.561,39.845-72.906,66.6-110.3,87.513C272.451,758.67,156.18,787.836,43.737,816.043c-15.485,3.884-31.155,7.817-46.87,11.843v.916c15.786-4.044,31.527-7.995,47.083-11.9,112.5-28.22,228.828-57.4,331.445-114.8,37.47-20.959,79.909-47.774,110.567-87.746,23.466-30.594,37.662-66.007,42.193-105.255,1.852-16.038,2.439-32.423,3.007-48.268.558-15.591,1.136-31.713,2.919-47.471,2.874-25.4,10.2-42.23,23.755-54.582,6.231-5.679,13.374-10.4,20.282-14.969,1.77-1.169,3.6-2.38,5.387-3.587,10.009-6.765,19.365-14.828,28.413-22.626,16.659-14.358,32.721-31.1,50.548-52.673,22.871-27.683,51.809-49.058,79.793-69.73q4.317-3.187,8.638-6.39c35.371-26.262,70.542-53.969,104.555-80.763,9.086-7.158,18.341-14.447,27.641-21.743V85.175C873.61,92.613,864.172,100.047,854.909,107.344Z" transform="translate(3.133 -85.175)" fill="#ddd"/>
            </g>
            <g id="Grupo_3300" data-name="Grupo 3300" transform="translate(0 100.19)">
              <path id="Caminho_3859" data-name="Caminho 3859" d="M801.684,159.321c-16.406,12.714-33.371,25.861-50.108,38.715l-3.931,3.016c-15.745,12.078-32.027,24.566-46.924,38.163-11.6,10.587-21.049,22.243-31.052,34.583l-2.205,2.719c-15.832,19.5-30.2,34.5-45.235,47.215-7.762,6.568-16.211,12.635-24.382,18.5-9.977,7.164-20.293,14.573-29.448,22.954-13.839,12.672-22.172,29.576-26.224,53.2-2.883,16.8-4.178,34.092-5.431,50.811-1.109,14.783-2.255,30.071-4.494,44.962-11.8,78.468-62.024,143.428-149.282,193.078-99.349,56.529-211.124,86.8-319.219,116.077C41.7,829.289,19.281,835.362-3.133,841.685v.922c22.489-6.346,44.984-12.44,67.111-18.433,54.032-14.634,109.9-29.766,163.6-48.013,60.246-20.475,111.218-42.767,155.827-68.149,40.478-23.032,73.442-49.789,97.974-79.528,28.058-34.014,45.468-72.433,51.747-114.19,2.244-14.924,3.391-30.228,4.5-45.029,1.251-16.7,2.545-33.963,5.42-50.725,4.017-23.419,12.263-40.162,25.949-52.693,9.116-8.347,19.411-15.74,29.367-22.889,8.184-5.878,16.648-11.956,24.437-18.546,15.072-12.753,29.483-27.793,45.35-47.333l2.2-2.719c9.983-12.314,19.411-23.945,30.962-34.487,14.869-13.572,31.135-26.048,46.866-38.115l3.932-3.016c16.738-12.855,33.7-26,50.111-38.717,26.457-20.5,53.6-41.536,80.871-62.181v-1.11C855.638,117.51,828.315,138.683,801.684,159.321Z" transform="translate(3.133 -96.734)" fill="#ddd"/>
            </g>
            <g id="Grupo_3301" data-name="Grupo 3301" transform="translate(0 112.279)">
              <path id="Caminho_3860" data-name="Caminho 3860" d="M751.194,210.054c-13.772,11-30.912,24.684-45.694,39.572-8.725,8.787-16.388,18.7-23.8,28.286-2.372,3.069-4.824,6.241-7.277,9.332-14.7,18.519-28.162,32.6-42.383,44.306-7.4,6.092-15.348,11.795-23.034,17.311-9.588,6.879-19.5,13.992-28.46,21.937-30.5,27.046-34.875,69.345-39.109,110.251-1.546,14.933-3.006,29.038-5.693,42.252-16.068,79.032-66.638,143.94-150.3,192.92-92.922,54.4-197.581,84.744-298.8,114.091-29.58,8.576-59.8,17.34-89.778,26.721v.93c30.059-9.409,60.361-18.2,90.022-26.8,101.266-29.362,205.98-59.723,298.995-114.176,39.291-23,71.8-50.085,96.62-80.5,27.508-33.705,45.711-71.728,54.105-113.012,2.7-13.257,4.157-27.383,5.706-42.338,4.217-40.737,8.577-82.86,38.815-109.677,8.924-7.915,18.819-15.014,28.388-21.88,7.7-5.524,15.659-11.235,23.081-17.346,14.27-11.75,27.779-25.871,42.514-44.44,2.456-3.1,4.91-6.27,7.284-9.34,7.394-9.565,15.04-19.456,23.726-28.2,14.747-14.851,31.864-28.52,45.618-39.5,47.075-37.59,90.331-70.8,131.352-100.827v-1.1C841.909,138.96,798.476,172.3,751.194,210.054Z" transform="translate(3.133 -108.823)" fill="#ddd"/>
            </g>
            <g id="Grupo_3302" data-name="Grupo 3302" transform="translate(0 124.956)">
              <path id="Caminho_3861" data-name="Caminho 3861" d="M755.619,219.041c-17.069,14.107-33.54,28.107-47.421,44.259-6.144,7.151-11.86,14.87-17.387,22.336-2.986,4.033-6.073,8.2-9.187,12.227-13.675,17.673-26.315,30.908-39.78,41.65-6.976,5.566-14.439,10.773-21.656,15.808-9.932,6.93-20.2,14.1-29.383,22.319-30.92,27.693-37.576,69.554-44.012,110.038-2.225,14-4.327,27.218-7.384,39.927-9.723,40.421-25.6,75.9-47.189,105.46-24.9,34.092-59.157,64.2-104.727,92.031-86.419,52.786-184.3,83.3-278.953,112.81C71.7,849.39,33.895,861.185-3.133,874.257v.941C33.974,862.09,71.878,850.265,108.8,838.755c94.707-29.526,192.639-60.057,279.15-112.9,45.67-27.9,80.01-58.077,104.98-92.265,21.659-29.652,37.585-65.241,47.335-105.777,3.066-12.744,5.17-25.981,7.4-40,6.412-40.329,13.042-82.032,43.727-109.514,9.142-8.188,19.39-15.338,29.3-22.253,7.229-5.043,14.7-10.258,21.7-15.842,13.521-10.788,26.208-24.07,39.928-41.8,3.119-4.032,6.209-8.206,9.2-12.242,5.517-7.453,11.223-15.16,17.346-22.286,13.835-16.1,30.275-30.072,47.314-44.154,39.514-32.658,81.287-64.638,126.915-97.141V121.5C837.25,154.139,795.3,186.248,755.619,219.041Z" transform="translate(3.133 -121.5)" fill="#ddd"/>
            </g>
            <g id="Grupo_3303" data-name="Grupo 3303" transform="translate(27.735 138.129)">
              <path id="Caminho_3862" data-name="Caminho 3862" d="M27.121,882.77c33.4-12.554,67.372-24.052,100.539-35.269,89.617-30.31,182.286-61.653,263.719-113.952,43.995-28.257,77.435-58.512,102.228-92.495,21.979-30.125,38.682-66.2,49.645-107.215,3.024-11.318,5.613-23.306,8.116-34.9,9.293-43.043,18.9-87.551,53.422-116.848,8.338-7.077,17.626-13.246,26.607-19.212,7.115-4.727,14.472-9.614,21.329-14.931,12.847-9.964,24.388-22.143,37.422-39.49,3.409-4.538,6.8-9.212,10.074-13.732,4.872-6.721,9.91-13.671,15.115-20.306,12.587-16.047,27.709-29.84,42.176-42.355,40.7-35.211,83.655-66.977,125.58-96.311v-1.081c-42.105,29.445-85.263,61.343-126.155,96.718-14.5,12.545-29.659,26.373-42.293,42.479-5.215,6.648-10.258,13.605-15.135,20.333-3.274,4.516-6.66,9.187-10.065,13.719-12.984,17.282-24.475,29.409-37.257,39.322-6.831,5.3-14.174,10.176-21.277,14.894-9,5.98-18.311,12.164-26.689,19.274-34.748,29.492-44.39,74.15-53.715,117.338-2.5,11.584-5.087,23.561-8.107,34.858-10.933,40.911-27.589,76.884-49.5,106.92C468.169,674.421,434.807,704.6,390.9,732.8c-81.342,52.241-173.959,83.565-263.526,113.859C93.473,858.127,58.725,869.885,24.6,882.77Z" transform="translate(-24.602 -134.673)" fill="#ddd"/>
            </g>
            <g id="Grupo_3304" data-name="Grupo 3304" transform="translate(76.946 151.564)">
              <path id="Caminho_3863" data-name="Caminho 3863" d="M76.249,882.77c22.694-8.819,45.465-17.241,67.855-25.52,85.175-31.5,173.25-64.069,250.43-116.114,42.306-28.528,74.855-58.822,99.505-92.616C515.354,619.3,532.4,584.314,544.7,544.533c3.454-11.169,6.444-22.655,9.611-34.816,11.938-45.854,24.284-93.27,61.947-122.113,7.655-5.862,15.928-11.136,23.929-16.236,7.613-4.853,15.484-9.871,22.827-15.4,11.632-8.754,22.329-20,33.662-35.395q3.237-4.4,6.43-8.77c17.663-24.143,34.347-46.947,56.49-67.122,37.624-34.28,78.663-64.54,123.5-95.5v-1.077c-45.054,31.1-86.286,61.477-124.087,95.919C736.8,264.262,720.088,287.1,702.4,311.28q-3.2,4.371-6.428,8.768c-11.281,15.323-21.92,26.512-33.482,35.212-7.315,5.5-15.172,10.514-22.77,15.357-8.017,5.111-16.306,10.395-23.992,16.28-37.905,29.028-50.289,76.6-62.266,122.6-3.164,12.151-6.152,23.627-9.6,34.777C531.587,583.956,514.585,618.854,493.329,648c-24.589,33.708-57.066,63.933-99.285,92.4C316.951,792.384,228.927,824.936,143.8,856.416c-23.091,8.539-46.586,17.232-69.987,26.354Z" transform="translate(-73.813 -148.108)" fill="#ddd"/>
            </g>
            <g id="Grupo_3305" data-name="Grupo 3305" transform="translate(123.192 165.245)">
              <path id="Caminho_3864" data-name="Caminho 3864" d="M122.385,882.77q18.024-7.434,35.859-14.658c80.969-32.937,164.695-66.995,238.14-118.727,42.425-29.881,75.188-61.437,100.162-96.469,21.083-29.573,38.011-63.925,51.754-105.02,2.995-8.956,5.769-18.015,8.707-27.6,14.782-48.271,30.067-98.185,71.781-127.175,6.6-4.589,13.575-8.883,20.317-13.035,8.228-5.068,16.737-10.308,24.657-16.134,10.962-8.063,20.72-18.506,31.639-33.86q3.312-4.656,6.581-9.3c17.142-24.277,33.332-47.208,54.877-67.42,35.719-33.513,75.785-62.807,116.234-90.505v-1.074c-40.646,27.817-80.926,57.239-116.835,90.929-21.611,20.274-37.826,43.24-54.994,67.555q-3.275,4.639-6.579,9.3c-10.863,15.274-20.56,25.655-31.443,33.66-7.891,5.805-16.384,11.035-24.6,16.093-6.752,4.159-13.735,8.459-20.358,13.062-18.783,13.054-33.942,31.675-46.343,56.925-10.952,22.3-18.49,46.915-25.78,70.719-2.935,9.585-5.708,18.638-8.7,27.583-13.715,41.01-30.6,75.286-51.635,104.786-24.915,34.95-57.609,66.436-99.951,96.26-73.362,51.674-157.041,85.712-237.965,118.631-12.521,5.093-25.169,10.24-37.855,15.481Z" transform="translate(-120.059 -161.789)" fill="#ddd"/>
            </g>
            <g id="Grupo_3306" data-name="Grupo 3306" transform="translate(165.492 179.194)">
              <path id="Caminho_3865" data-name="Caminho 3865" d="M164.522,882.77l5.559-2.5c77.465-34.811,157.567-70.808,228.077-122.647,40.8-30,72.747-61.36,97.666-95.887,21.25-29.442,39.1-64.027,54.568-105.731,2.928-7.892,5.809-16.064,8.6-23.968C576.678,481.874,594.971,430,640.981,399.3c6.3-4.2,12.952-8.106,19.384-11.881,7.537-4.423,15.331-9,22.62-14.088,10.673-7.456,19.931-17.245,30.018-31.741,3.217-4.623,6.438-9.338,9.553-13.9,14.516-21.252,29.526-43.227,48.343-61.882,33.774-33.484,72.7-62.108,112.194-89v-1.073c-39.7,27.012-78.846,55.765-112.812,89.439-18.877,18.714-33.912,40.725-48.452,62.011-3.113,4.559-6.333,9.272-9.548,13.893-10.024,14.406-19.214,24.127-29.8,31.52-7.26,5.072-15.039,9.637-22.561,14.051-6.443,3.781-13.105,7.69-19.426,11.908-46.256,30.864-64.6,82.879-82.337,133.182-2.786,7.9-5.667,16.069-8.592,23.955-15.441,41.627-33.253,76.143-54.455,105.519-24.864,34.451-56.748,65.752-97.473,95.692-70.434,51.783-150.493,87.76-227.916,122.553l-7.363,3.309Z" transform="translate(-162.359 -175.738)" fill="#ddd"/>
            </g>
            <g id="Grupo_3307" data-name="Grupo 3307" transform="translate(205.434 193.448)">
              <path id="Caminho_3866" data-name="Caminho 3866" d="M204.313,882.77C224.163,873.015,244.164,863,263.7,852.6c51.49-27.4,98.18-57.251,138.772-88.72,38.011-29.468,68.295-59.958,92.582-93.212,21.359-29.247,40.132-64.049,57.393-106.4,2.806-6.882,5.592-13.934,8.286-20.753,20.2-51.114,41.079-103.969,89.7-135.783,6.568-4.3,13.542-8.2,20.287-11.973,7.667-4.29,15.6-8.726,22.975-13.769,12.822-8.761,21.649-20.523,28.593-30.874,2.715-4.045,5.445-8.172,8.085-12.162,13.729-20.751,27.926-42.208,45.463-60.69,31.554-33.255,68.972-61.171,107.259-87.2v-1.072c-38.5,26.155-76.149,54.2-107.9,87.662-17.591,18.538-31.809,40.027-45.559,60.81-2.64,3.99-5.369,8.115-8.081,12.158-6.9,10.281-15.661,21.96-28.359,30.637-7.348,5.02-15.258,9.446-22.908,13.726-6.758,3.782-13.746,7.692-20.339,12.006-21.918,14.342-40.122,34.17-55.652,60.619-13.827,23.547-24.278,50-34.385,75.58-2.693,6.817-5.478,13.866-8.282,20.744-17.233,42.28-35.973,77.021-57.289,106.209-24.236,33.186-54.463,63.617-92.408,93.034-40.553,31.439-87.2,61.262-138.647,88.64-20.058,10.674-40.611,20.95-60.987,30.953Z" transform="translate(-202.301 -189.992)" fill="#ddd"/>
            </g>
            <g id="Grupo_3308" data-name="Grupo 3308" transform="translate(239.714 208.018)">
              <path id="Caminho_3867" data-name="Caminho 3867" d="M238.4,882.77c12.452-6.95,24.841-14.059,37.02-21.374a1149.369,1149.369,0,0,0,126.239-87.247c39.307-31.476,70.69-63.844,95.94-98.951,20.277-28.192,38.366-60.759,56.931-102.489,3.473-7.807,6.865-15.807,10.146-23.544,10.955-25.836,22.283-52.55,38.393-76.231,16.749-24.619,35.475-42.957,58.933-57.71,6.267-3.941,12.929-7.487,19.372-10.916a259.733,259.733,0,0,0,22.993-13.266c11.909-8,19.95-18.885,26.245-28.473,2.653-4.04,5.318-8.15,7.9-12.125,13.14-20.263,26.728-41.216,43.208-59.8,29.074-32.79,64.607-59.921,101.374-85.006v-1.073c-36.989,25.21-72.764,52.479-102.031,85.487-16.525,18.637-30.131,39.619-43.289,59.909-2.577,3.975-5.242,8.084-7.893,12.121-6.247,9.514-14.22,20.308-26,28.224a259.168,259.168,0,0,1-22.916,13.22c-6.456,3.436-13.133,6.99-19.427,10.948-23.564,14.82-42.373,33.237-59.193,57.961-16.159,23.753-27.5,50.509-38.477,76.384-3.279,7.733-6.67,15.73-10.14,23.529-18.538,41.674-36.6,74.191-56.839,102.332-25.2,35.041-56.532,67.351-95.776,98.777a1148.569,1148.569,0,0,1-126.141,87.179c-12.625,7.583-25.476,14.943-38.391,22.137Z" transform="translate(-236.581 -204.562)" fill="#ddd"/>
            </g>
            <g id="Grupo_3309" data-name="Grupo 3309" transform="translate(269.073 223.314)">
              <path id="Caminho_3868" data-name="Caminho 3868" d="M267.559,882.77q9.249-6.035,18.337-12.274c48.576-33.439,86.435-61.809,119.144-89.282,37.388-31.4,67.69-63.393,92.635-97.8,20.461-28.219,39.091-60.583,60.407-104.937,3.334-6.938,6.645-14.108,9.847-21.041,11.905-25.779,24.215-52.434,41.271-75.224,18.642-24.907,39.92-44.333,65.05-59.388,5.816-3.484,11.985-6.617,17.951-9.647a239.968,239.968,0,0,0,21.921-12.115c11.792-7.642,19.495-18.18,25.474-27.481,2.716-4.224,5.439-8.519,8.072-12.672C760.233,341.1,773.226,320.6,789,302.257c26.974-31.377,59.79-57.427,94.1-81.321v-1.078c-34.535,24.023-67.594,50.215-94.762,81.818-15.814,18.4-28.824,38.914-41.406,58.758-2.632,4.152-5.355,8.445-8.069,12.667-5.928,9.222-13.559,19.667-25.211,27.217A239.379,239.379,0,0,1,691.8,412.387c-5.979,3.036-12.162,6.177-18,9.677-25.23,15.114-46.59,34.615-65.3,59.616-17.112,22.865-29.442,49.564-41.366,75.384-3.2,6.931-6.51,14.1-9.842,21.029-21.291,44.305-39.9,76.626-60.325,104.8-24.9,34.344-55.155,66.282-92.488,97.638-32.686,27.455-70.523,55.808-119.076,89.23q-9.627,6.627-19.459,13.008Z" transform="translate(-265.94 -219.858)" fill="#ddd"/>
            </g>
            <g id="Grupo_3310" data-name="Grupo 3310" transform="translate(293.168 239.127)">
              <path id="Caminho_3869" data-name="Caminho 3869" d="M291.455,882.77q2.032-1.629,4.053-3.276c14.026-11.459,28.525-22.819,42.547-33.8,23.442-18.365,47.681-37.356,70.438-57.384,35.6-31.333,64.858-62.906,89.438-96.525,25.224-34.5,45.925-72.429,62.847-104.982,2.816-5.415,5.656-10.985,8.4-16.371,14.366-28.173,29.221-57.306,49.225-81.884A241.357,241.357,0,0,1,683.8,432.566c5.982-3.508,12.333-6.617,18.475-9.624A238.415,238.415,0,0,0,723.9,411.418c12.06-7.538,19.716-18.233,26.193-28.668q2.551-4.111,5.082-8.216c13.8-22.354,26.838-43.468,43.645-63.167,24.381-28.579,53.555-52.629,84.276-74.609v-1.087c-30.955,22.112-60.37,46.311-84.945,75.117-16.851,19.751-29.9,40.893-43.725,63.277q-2.532,4.1-5.08,8.214c-6.421,10.344-14,20.942-25.911,28.384a238.05,238.05,0,0,1-21.542,11.481c-6.157,3.014-12.523,6.13-18.533,9.654a242.206,242.206,0,0,0-65.632,56.182c-20.065,24.651-34.941,53.827-49.329,82.041-2.745,5.385-5.585,10.954-8.4,16.365C543.09,618.91,522.41,656.8,497.222,691.254c-24.542,33.565-53.755,65.092-89.309,96.383-22.738,20.01-46.967,38.993-70.4,57.352-14.025,10.988-28.527,22.351-42.56,33.816q-2.447,2-4.918,3.965Z" transform="translate(-290.035 -235.671)" fill="#ddd"/>
            </g>
            <g id="Grupo_3311" data-name="Grupo 3311" transform="translate(312.462 255.435)">
              <path id="Caminho_3870" data-name="Caminho 3870" d="M310.65,882.77c15.124-13.524,30.819-26.676,46.059-39.445,18.389-15.408,37.4-31.341,55.367-47.887,34.613-31.885,63.4-63.758,88.009-97.443,24.308-33.275,44.765-68.963,63.634-102.665,34.115-60.931,69.768-118.485,130.509-153.039,5.822-3.312,12.016-6.237,18-9.066,7.642-3.61,15.544-7.342,22.786-11.927,11.373-7.2,18.613-17.475,24.742-27.507q2.862-4.685,5.692-9.359c13.83-22.793,26.892-44.322,43.892-64.387,21.509-25.388,46.872-47.113,73.748-66.967v-1.1c-27.114,19.99-52.716,41.873-74.419,67.49-17.044,20.118-30.125,41.676-43.973,64.5q-2.835,4.672-5.69,9.357c-6.074,9.941-13.241,20.118-24.461,27.222-7.2,4.555-15.073,8.276-22.691,11.874-6,2.836-12.213,5.768-18.064,9.1-60.939,34.666-96.665,92.331-130.844,153.376-18.856,33.678-39.3,69.339-63.577,102.575-24.572,33.637-53.322,65.468-87.893,97.313-17.947,16.533-36.954,32.458-55.335,47.86C340.651,855.624,324.691,869,309.329,882.77Z" transform="translate(-309.329 -251.979)" fill="#ddd"/>
            </g>
            <g id="Grupo_3312" data-name="Grupo 3312" transform="translate(330.114 272.344)">
              <path id="Caminho_3871" data-name="Caminho 3871" d="M328.262,882.77c13.779-13.13,27.995-25.839,41.88-38.249,14.392-12.864,29.274-26.165,43.447-39.74,34.744-33.277,63.838-66.125,88.944-100.423,22.876-31.251,43.161-64.959,62.779-97.556l3.021-5.018c34.6-57.462,75.026-115.295,136.033-149.1,5.759-3.191,11.87-6.01,17.779-8.736,7.6-3.506,15.457-7.131,22.68-11.6,11.671-7.212,19.167-17.958,24.961-27.518,2.459-4.059,4.928-8.183,7.316-12.171,12.612-21.067,25.653-42.851,41.827-62.353,18.768-22.633,40.73-42.3,64.164-60.311v-1.116c-23.678,18.152-45.879,37.992-64.841,60.857-16.217,19.556-29.276,41.369-41.905,62.464-2.387,3.987-4.855,8.11-7.314,12.167-5.739,9.47-13.158,20.11-24.669,27.224-7.177,4.436-15.01,8.049-22.585,11.544-5.925,2.733-12.051,5.559-17.837,8.766-61.19,33.9-101.7,91.847-136.363,149.414l-3.02,5.017c-19.608,32.581-39.883,66.271-62.735,97.49-25.075,34.255-54.136,67.066-88.842,100.307C398.819,817.7,383.943,831,369.557,843.856c-14.118,12.619-28.577,25.546-42.576,38.914Z" transform="translate(-326.981 -268.888)" fill="#ddd"/>
            </g>
            <g id="Grupo_3313" data-name="Grupo 3313" transform="translate(346.814 289.898)">
              <path id="Caminho_3872" data-name="Caminho 3872" d="M344.927,882.77c12.356-12.452,25.01-24.557,37.417-36.419,11.373-10.874,23.133-22.118,34.449-33.429,33.857-33.841,62.487-66.772,87.526-100.673,19.693-26.665,37.866-55.016,55.439-82.435,4.1-6.4,8.345-13.018,12.541-19.513,32.164-49.786,77.336-111.421,141.681-146.412,5.743-3.123,11.83-5.89,17.717-8.565,7.835-3.562,15.937-7.243,23.365-11.825,11.893-7.333,19.485-18.282,25.342-28.025,2.743-4.563,5.489-9.2,8.145-13.687,12.4-20.948,25.225-42.61,41.094-62.075,15.715-19.277,33.916-36.381,53.45-52.135v-1.135c-19.784,15.909-38.223,33.192-54.131,52.706s-28.752,41.208-41.17,62.184c-2.655,4.484-5.4,9.122-8.142,13.682-5.8,9.652-13.316,20.494-25.048,27.728-7.381,4.552-15.457,8.223-23.267,11.772-5.9,2.682-12,5.455-17.773,8.593-64.521,35.087-109.78,96.835-142,146.709-4.2,6.5-8.44,13.116-12.542,19.517-17.566,27.406-35.73,55.745-55.407,82.386C478.6,745.584,450,778.482,416.172,812.291c-11.309,11.3-23.065,22.545-34.435,33.415-12.62,12.067-25.5,24.383-38.056,37.064Z" transform="translate(-343.681 -286.442)" fill="#ddd"/>
            </g>
            <g id="Grupo_3314" data-name="Grupo 3314" transform="translate(362.839 309.55)">
              <path id="Caminho_3873" data-name="Caminho 3873" d="M360.918,882.77c12-12.8,24.184-25.314,36.155-37.614,7.633-7.842,15.525-15.951,23.24-24,33.1-34.519,61.28-67.505,86.155-100.841,16.646-22.308,32.491-45.736,47.815-68.392,7.3-10.795,14.851-21.957,22.391-32.856,48.521-70.135,95.1-115.674,146.6-143.314,5.758-3.09,11.85-5.847,17.742-8.513,8.146-3.686,16.569-7.5,24.281-12.265,12.24-7.565,20.04-18.844,26.057-28.879,3.623-6.043,7.206-12.246,10.671-18.245,11.651-20.173,23.7-41.033,39.211-59.116a388.088,388.088,0,0,1,41.853-41.482v-1.162a389.942,389.942,0,0,0-42.52,42.063c-15.566,18.146-27.635,39.042-39.306,59.25-3.463,6-7.044,12.2-10.664,18.233-5.962,9.944-13.685,21.116-25.763,28.581-7.664,4.737-16.061,8.537-24.181,12.212-5.9,2.672-12.011,5.435-17.8,8.539-27.946,15-55.435,36.213-81.7,63.051-21.79,22.263-43.12,48.607-65.211,80.539-7.543,10.9-15.094,22.067-22.4,32.864-15.318,22.648-31.158,46.067-47.792,68.358-24.853,33.307-53.011,66.265-86.084,100.759-7.712,8.042-15.6,16.151-23.236,23.991-12.164,12.5-24.545,25.224-36.737,38.236Z" transform="translate(-359.706 -306.094)" fill="#ddd"/>
            </g>
            <g id="Grupo_3315" data-name="Grupo 3315" transform="translate(377.874 330.271)">
              <path id="Caminho_3874" data-name="Caminho 3874" d="M375.922,882.77c15-16.987,30.847-34.324,48.26-53.271,32.568-35.438,60.317-68.452,84.834-100.93,13.655-18.089,26.971-36.889,39.849-55.071,10.593-14.955,21.547-30.419,32.628-45.4,48.191-65.159,98.913-112.2,150.758-139.82,5.781-3.08,11.885-5.854,17.787-8.537,8.56-3.891,17.411-7.914,25.5-12.962,12.736-7.95,20.849-19.666,27.105-30.078,3.824-6.363,7.582-12.9,11.216-19.217,11.8-20.523,24.009-41.746,40.123-59.929a407.243,407.243,0,0,1,29.114-29.53v-1.208a408.889,408.889,0,0,0-29.771,30.147c-16.174,18.251-28.4,39.513-40.229,60.075-3.632,6.316-7.388,12.846-11.207,19.2-6.2,10.322-14.238,21.932-26.815,29.783-8.038,5.017-16.862,9.028-25.395,12.907-5.915,2.689-12.032,5.469-17.838,8.562-28.094,14.966-56.04,35.717-83.063,61.678-22.937,22.034-45.812,48.411-67.989,78.4-11.087,14.989-22.043,30.458-32.638,45.416-12.874,18.176-26.187,36.971-39.834,55.05-24.5,32.454-52.23,65.447-84.779,100.864-17.617,19.169-33.638,36.693-48.794,53.874Z" transform="translate(-374.741 -326.815)" fill="#ddd"/>
            </g>
            <g id="Grupo_3316" data-name="Grupo 3316" transform="translate(392.037 352.222)">
              <path id="Caminho_3875" data-name="Caminho 3875" d="M390.054,882.77c12.575-15.11,25.71-30.44,39.556-46.164,31.474-35.741,58.085-67.882,81.358-98.26,10.978-14.33,21.87-29.107,32.4-43.4,13.6-18.448,27.661-37.525,42.057-55.844C634.611,576.52,686.837,530.243,740.654,501.56c5.849-3.117,12.022-5.954,17.991-8.7,9.286-4.269,18.888-8.683,27.59-14.287,13.206-8.506,21.71-20.842,28.287-31.787,3.6-6,7.153-12.12,10.584-18.04C837.621,407.154,850.562,384.824,868,365.7q7.341-8.05,15.094-15.688v-1.245q-8.076,7.958-15.743,16.333c-17.5,19.2-30.467,41.567-43.006,63.2-3.429,5.917-6.975,12.035-10.576,18.028-6.525,10.858-14.955,23.091-28.008,31.5-8.649,5.571-18.223,9.972-27.481,14.228-5.981,2.749-12.165,5.592-18.037,8.722-28.5,15.19-56.994,35.677-84.685,60.892a633.57,633.57,0,0,0-70.82,76.885c-14.405,18.331-28.471,37.413-42.073,55.867-10.532,14.286-21.421,29.06-32.395,43.384-23.259,30.361-49.859,62.487-81.318,98.213-14.027,15.929-27.322,31.452-40.047,46.753Z" transform="translate(-388.904 -348.766)" fill="#ddd"/>
            </g>
            <g id="Grupo_3317" data-name="Grupo 3317" transform="translate(405.552 375.53)">
              <path id="Caminho_3876" data-name="Caminho 3876" d="M403.546,882.77c9.68-12.274,19.652-24.572,29.94-36.751,24.2-28.655,52.621-62.675,79.876-97.736,8.081-10.4,16.2-21.049,24.053-31.35,17.4-22.826,35.388-46.428,54.133-68.775,48.385-57.681,102.731-103.571,157.164-132.708,5.964-3.192,12.228-6.134,18.285-8.977,9.523-4.472,19.371-9.095,28.366-14.835,14.794-9.442,24.163-22.924,31.377-34.868,3.391-5.613,6.732-11.314,9.964-16.827,13.448-22.944,26.15-44.615,44.156-64.182.738-.8,1.489-1.6,2.233-2.392v-1.295c-.962,1.025-1.927,2.048-2.88,3.083-18.07,19.637-30.795,41.348-44.268,64.334-3.23,5.511-6.57,11.209-9.958,16.818-7.161,11.855-16.455,25.235-31.1,34.578-8.947,5.71-18.768,10.321-28.266,14.781-6.068,2.849-12.342,5.794-18.326,9-54.532,29.189-108.968,75.152-157.424,132.919-18.758,22.362-36.755,45.973-54.159,68.807-7.851,10.3-15.969,20.951-24.048,31.344-27.245,35.048-55.655,69.059-79.854,97.707-10.449,12.371-20.573,24.863-30.4,37.327Z" transform="translate(-402.419 -372.074)" fill="#ddd"/>
            </g>
            <g id="Grupo_3318" data-name="Grupo 3318" transform="translate(418.493 400.768)">
              <path id="Caminho_3877" data-name="Caminho 3877" d="M416.472,882.77Q427,868.991,437.849,855.533c7.116-8.792,14.368-17.718,21.381-26.35,19.369-23.837,39.4-48.487,58.742-73.03,4.538-5.758,9.138-11.628,13.586-17.305,21.282-27.158,43.287-55.242,66.655-81.366,48.168-53.853,103.348-98.215,159.574-128.288,5.726-3.063,11.719-5.94,17.514-8.723,10.336-4.963,21.024-10.094,30.714-16.513,11.843-7.843,21.665-18.644,31.847-35.022,4.024-6.473,7.951-13.043,11.749-19.4,10.653-17.822,20.845-34.87,33.482-50.813v-1.415c-12.99,16.232-23.375,33.6-34.237,51.769-3.8,6.35-7.721,12.917-11.741,19.384-10.112,16.264-19.852,26.981-31.583,34.751-9.641,6.385-20.3,11.5-30.61,16.453-5.8,2.787-11.8,5.669-17.548,8.741-56.316,30.121-111.58,74.548-159.816,128.477-23.387,26.146-45.4,54.241-66.692,81.411-4.448,5.677-9.047,11.546-13.585,17.3-19.34,24.538-39.366,49.184-58.733,73.02-7.014,8.632-14.266,17.558-21.383,26.351q-11.084,13.7-21.805,27.8Z" transform="translate(-415.36 -397.312)" fill="#ddd"/>
            </g>
            <g id="Grupo_3319" data-name="Grupo 3319" transform="translate(431.48 429.172)">
              <path id="Caminho_3878" data-name="Caminho 3878" d="M429.444,882.77q6.54-8.907,13.27-17.626c19.871-25.661,40.554-51.383,60.557-76.258,6.5-8.081,13.215-16.435,19.806-24.665l1.718-2.145c24.977-31.188,50.8-63.438,78.684-92.921a659.924,659.924,0,0,1,160.188-124.1c6.34-3.508,12.985-6.792,19.411-9.967,11.321-5.594,23.027-11.378,33.588-18.64,12.5-8.593,22.974-20.225,33.969-37.716,3.523-5.6,7-11.27,10.354-16.748,7.307-11.919,14.419-23.516,22.1-34.706v-1.561c-7.975,11.532-15.31,23.494-22.853,35.8-3.358,5.476-6.829,11.139-10.35,16.739-10.927,17.385-21.327,28.938-33.721,37.459-10.51,7.226-22.187,12.995-33.48,18.576-6.434,3.179-13.089,6.468-19.446,9.986a665.326,665.326,0,0,0-160.4,124.267c-27.905,29.509-53.744,61.773-78.732,92.975l-1.718,2.146c-6.59,8.228-13.309,16.583-19.806,24.663-20,24.878-40.69,50.6-60.567,76.271q-6.945,8.968-13.671,18.172Z" transform="translate(-428.347 -425.716)" fill="#ddd"/>
            </g>
            <g id="Grupo_3320" data-name="Grupo 3320" transform="translate(444.379 457.67)">
              <path id="Caminho_3879" data-name="Caminho 3879" d="M442.333,882.77q4.143-5.763,8.366-11.439c46.072-61.766,100.306-132.7,160.963-192.8C657.432,633.174,710.9,593.5,770.59,560.62c6.022-3.318,12.292-6.513,18.356-9.6,12.492-6.364,25.41-12.946,37.073-21.053,13.96-9.7,25.7-22.723,38.051-42.214,3.851-6.076,7.539-12.389,11.106-18.494,2.571-4.4,5.207-8.9,7.917-13.348v-1.694c-2.98,4.849-5.867,9.782-8.676,14.591-3.563,6.1-7.247,12.4-11.09,18.468-12.29,19.386-23.95,32.327-37.809,41.96-11.614,8.073-24.5,14.641-36.969,20.992-6.071,3.093-12.347,6.291-18.382,9.616C710.408,592.764,656.872,632.484,611.043,677.9c-60.7,60.149-114.957,131.11-161.049,192.9q-4.425,5.931-8.748,11.973Z" transform="translate(-441.246 -454.214)" fill="#ddd"/>
            </g>
            <g id="Grupo_3321" data-name="Grupo 3321" transform="translate(457.343 489.726)">
              <path id="Caminho_3880" data-name="Caminho 3880" d="M455.292,882.77c.191-.269.38-.54.571-.809C513.365,801.173,567.2,737.794,620.435,688.2c45.183-42.089,99-80.259,159.945-113.449,4.853-2.643,9.858-5.259,14.7-7.788,13.505-7.06,27.47-14.36,40.106-23.245,14.935-10.5,27.936-24.66,40.912-44.558,2.395-3.672,4.72-7.434,7-11.188v-1.7c-2.513,4.158-5.083,8.338-7.734,12.405-12.913,19.8-25.84,33.883-40.68,44.317-12.589,8.851-26.528,16.138-40.008,23.184-4.843,2.532-9.85,5.149-14.71,7.8C718.948,607.2,665.074,645.411,619.836,687.55c-53.282,49.633-107.153,113.056-164.689,193.894-.314.44-.624.885-.937,1.326Z" transform="translate(-454.21 -486.27)" fill="#ddd"/>
            </g>
            <g id="Grupo_3322" data-name="Grupo 3322" transform="translate(470.451 519.733)">
              <path id="Caminho_3881" data-name="Caminho 3881" d="M468.394,882.77c48.984-70.625,102.251-131.86,158.446-182.115,43.392-38.806,95.521-74.62,159.366-109.488,4.294-2.345,8.7-4.692,12.961-6.962,15.667-8.345,31.867-16.975,46.431-27.576,13.449-9.79,25.533-22.28,37.5-38.835v-1.517c-12.14,16.972-24.373,29.705-38.012,39.632-14.514,10.565-30.686,19.18-46.326,27.511-4.264,2.271-8.672,4.62-12.969,6.967-63.905,34.9-116.088,70.752-159.532,109.6C569.873,750.413,516.439,811.873,467.318,882.77Z" transform="translate(-467.318 -516.277)" fill="#ddd"/>
            </g>
            <g id="Grupo_3323" data-name="Grupo 3323" transform="translate(483.814 546.068)">
              <path id="Caminho_3882" data-name="Caminho 3882" d="M481.761,882.77C526.95,817.811,579.93,758.8,635.816,711.305c52.569-44.675,111.783-79.22,157.5-104.323q4.95-2.719,9.936-5.414c17.669-9.589,35.94-19.5,52.282-31.736a177.044,177.044,0,0,0,27.563-25.868v-1.352A176.987,176.987,0,0,1,855,569.12c-16.291,12.193-34.533,22.093-52.174,31.666q-4.982,2.7-9.94,5.416c-45.75,25.124-105.013,59.7-157.642,104.424a853.482,853.482,0,0,0-88.8,87.842,953.964,953.964,0,0,0-65.763,84.3Z" transform="translate(-480.681 -542.612)" fill="#ddd"/>
            </g>
            <g id="Grupo_3324" data-name="Grupo 3324" transform="translate(497.433 569.774)">
              <path id="Caminho_3883" data-name="Caminho 3883" d="M495.382,882.77A794.4,794.4,0,0,1,644.838,722.5c48.327-39.023,101.888-69.79,157.1-100.466q2.586-1.439,5.179-2.873c19.7-10.916,40.07-22.205,58.22-36.131a194.046,194.046,0,0,0,17.755-15.47v-1.24a193.727,193.727,0,0,1-18.29,16c-18.1,13.886-38.438,25.158-58.11,36.059q-2.592,1.437-5.179,2.873c-55.249,30.7-108.846,61.484-157.227,100.551A795.319,795.319,0,0,0,494.3,882.77Z" transform="translate(-494.3 -566.318)" fill="#ddd"/>
            </g>
            <g id="Grupo_3325" data-name="Grupo 3325" transform="translate(511.644 591.734)">
              <path id="Caminho_3884" data-name="Caminho 3884" d="M509.6,882.77A717.1,717.1,0,0,1,653.936,734.189c43.471-33.358,91.674-60.489,138.291-86.727q9.24-5.2,18.481-10.422c20.033-11.338,42.739-24.19,62.965-39.868q4.79-3.712,9.42-7.722v-1.172q-4.893,4.263-9.957,8.19c-20.176,15.64-42.853,28.474-62.86,39.8q-9.236,5.227-18.479,10.421c-46.644,26.252-94.875,53.4-138.4,86.8A717.98,717.98,0,0,0,508.511,882.77Z" transform="translate(-508.511 -588.278)" fill="#ddd"/>
            </g>
            <g id="Grupo_3326" data-name="Grupo 3326" transform="translate(526.481 612.546)">
              <path id="Caminho_3885" data-name="Caminho 3885" d="M524.485,882.77A657.827,657.827,0,0,1,660.738,748.087c37.9-27.9,79.343-51.189,119.422-73.714,12.141-6.823,24.695-13.878,36.982-20.966,21.919-12.644,45.066-26.627,65.951-43.191V609.09l-.078.063c-20.962,16.69-44.258,30.762-66.311,43.483-12.282,7.085-24.834,14.14-36.973,20.961-40.1,22.538-81.571,45.843-119.513,73.773a668.12,668.12,0,0,0-92.343,82.1,631.768,631.768,0,0,0-44.527,53.3Z" transform="translate(-523.348 -609.09)" fill="#ddd"/>
            </g>
            <g id="Grupo_3327" data-name="Grupo 3327" transform="translate(542.287 632.617)">
              <path id="Caminho_3886" data-name="Caminho 3886" d="M540.219,882.77c36-46.01,79.474-86.965,129.876-122.245,32.776-22.942,68.141-42.629,102.342-61.669,17.28-9.62,35.148-19.567,52.487-29.824a598.083,598.083,0,0,0,58.169-38.761v-1.11a595.841,595.841,0,0,1-58.615,39.105c-17.329,10.251-35.193,20.2-52.468,29.813-34.22,19.05-69.605,38.749-102.418,61.717a620.053,620.053,0,0,0-94.606,81.362Q556.011,861.2,539.154,882.77Z" transform="translate(-539.154 -629.161)" fill="#ddd"/>
            </g>
            <g id="Grupo_3328" data-name="Grupo 3328" transform="translate(559.109 652.412)">
              <path id="Caminho_3887" data-name="Caminho 3887" d="M557.128,882.77c33.826-40.778,74-76.886,120.109-107.859,29.179-19.6,60.4-36.747,90.587-53.329,22.048-12.109,44.846-24.631,66.692-38.02a562.08,562.08,0,0,0,48.577-33.491v-1.115A561.716,561.716,0,0,1,834.058,682.8c-21.828,13.378-44.617,25.9-66.656,38-30.207,16.591-61.443,33.747-90.654,53.369-46.4,31.165-86.794,67.521-120.772,108.6Z" transform="translate(-555.976 -648.956)" fill="#ddd"/>
            </g>
            <g id="Grupo_3329" data-name="Grupo 3329" transform="translate(575.418 672.672)">
              <path id="Caminho_3888" data-name="Caminho 3888" d="M573.455,882.77c6.594-7.549,13.363-14.734,20.364-21.63,26.55-26.151,57-50.09,93.1-73.185,25.616-16.389,52.785-31.071,79.06-45.27,25.49-13.775,51.848-28.019,76.766-43.808,13.447-8.521,26.8-17.965,40.344-28.54v-1.121c-13.707,10.729-27.212,20.29-40.814,28.909-24.892,15.773-51.236,30.01-76.713,43.778-26.289,14.206-53.472,28.9-79.116,45.3C650.3,810.334,619.8,834.31,593.2,860.505c-7.2,7.089-14.149,14.486-20.918,22.265Z" transform="translate(-572.285 -669.216)" fill="#ddd"/>
            </g>
            <g id="Grupo_3330" data-name="Grupo 3330" transform="translate(593.503 693.345)">
              <path id="Caminho_3889" data-name="Caminho 3889" d="M591.587,882.77q5.2-5.478,10.545-10.618c24.639-23.678,54.838-46.391,92.325-69.437,23.046-14.167,47.354-27.085,70.863-39.578,29.213-15.525,59.42-31.578,87.483-50.175q15.69-10.4,30.29-21.942v-1.131q-14.867,11.723-30.775,22.331c-28.027,18.574-58.215,34.617-87.41,50.132-23.52,12.5-47.841,25.424-70.91,39.606-37.541,23.078-67.79,45.829-92.475,69.552q-5.667,5.446-11.153,11.26Z" transform="translate(-590.37 -689.889)" fill="#ddd"/>
            </g>
            <g id="Grupo_3331" data-name="Grupo 3331" transform="translate(613.134 714.283)">
              <path id="Caminho_3890" data-name="Caminho 3890" d="M611.312,882.77c24.717-22.667,54.829-44.1,94.679-67.4,19.714-11.526,40.339-22.3,60.286-32.726,31.574-16.5,64.224-33.56,94.132-54.04q11.595-7.941,22.684-16.652v-1.121q-11.339,8.9-23.18,17.038c-29.865,20.451-62.491,37.5-94.042,53.986-19.956,10.428-40.591,21.21-60.323,32.747-40.271,23.546-70.622,45.2-95.513,68.14l-.034.032Z" transform="translate(-610.001 -710.827)" fill="#ddd"/>
            </g>
            <g id="Grupo_3332" data-name="Grupo 3332" transform="translate(635.493 735.329)">
              <path id="Caminho_3891" data-name="Caminho 3891" d="M633.76,882.77c25.078-20.354,53.193-37.139,80.166-52.334,17.506-9.863,35.74-19.239,53.374-28.305,34.994-17.994,71.178-36.6,103.66-60.007q6.07-4.374,12.133-9.123v-1.128q-6.332,4.979-12.646,9.529c-32.428,23.369-68.583,41.959-103.548,59.937-17.641,9.071-35.882,18.451-53.4,28.321-27.312,15.387-55.794,32.4-81.136,53.11Z" transform="translate(-632.36 -731.873)" fill="#ddd"/>
            </g>
            <g id="Grupo_3333" data-name="Grupo 3333" transform="translate(661.256 756.587)">
              <path id="Caminho_3892" data-name="Caminho 3892" d="M659.663,882.77c22.179-15.528,45.89-28.306,66.151-39.22,14.256-7.679,29-15.148,43.262-22.37,38.293-19.4,77.889-39.449,112.683-65.912q.668-.507,1.334-1.022v-1.115q-.932.719-1.865,1.429c-34.73,26.414-74.29,46.45-112.548,65.826-14.265,7.225-29.016,14.7-43.282,22.381-20.6,11.1-44.761,24.117-67.275,40Z" transform="translate(-658.123 -753.131)" fill="#ddd"/>
            </g>
            <g id="Grupo_3334" data-name="Grupo 3334" transform="translate(691.599 777.873)">
              <path id="Caminho_3893" data-name="Caminho 3893" d="M690.205,882.77c14.442-8.567,29.3-16.321,43.941-23.954,12.048-6.283,24.456-12.474,36.456-18.461,38.22-19.07,77.658-38.749,112.491-64.828v-1.11c-34.9,26.229-74.505,45.994-112.882,65.142-12,5.989-24.416,12.182-36.47,18.468-15.086,7.867-30.412,15.86-45.275,24.743Z" transform="translate(-688.466 -774.417)" fill="#ddd"/>
            </g>
            <g id="Grupo_3335" data-name="Grupo 3335" transform="translate(726.883 799.114)">
              <path id="Caminho_3894" data-name="Caminho 3894" d="M725.673,882.77c5.677-2.937,11.356-5.809,17-8.662,9.617-4.862,19.479-9.713,29.016-14.4,37.8-18.594,76.7-37.727,111.4-62.947v-1.1c-34.78,25.364-73.834,44.579-111.791,63.248-9.539,4.692-19.4,9.544-29.024,14.408-6.15,3.11-12.342,6.242-18.528,9.456Z" transform="translate(-723.75 -795.658)" fill="#ddd"/>
            </g>
            <g id="Grupo_3336" data-name="Grupo 3336" transform="translate(766.092 820.274)">
              <path id="Caminho_3895" data-name="Caminho 3895" d="M764.99,882.77c2.472-1.2,4.935-2.394,7.364-3.571,37.531-18.187,76.055-36.858,110.739-61.3v-1.081C848.333,841.4,809.651,860.14,771.972,878.4c-2.969,1.438-5.986,2.9-9.013,4.371Z" transform="translate(-762.959 -816.818)" fill="#ddd"/>
            </g>
            <g id="Grupo_3337" data-name="Grupo 3337" transform="translate(807 841.325)">
              <path id="Caminho_3896" data-name="Caminho 3896" d="M805.871,882.77c26.468-13.059,52.731-27.08,77.222-43.825v-1.076c-25.088,17.207-52.065,31.542-79.226,44.9Z" transform="translate(-803.867 -837.869)" fill="#ddd"/>
            </g>
            <g id="Grupo_3338" data-name="Grupo 3338" transform="translate(846.202 862.246)">
              <path id="Caminho_3897" data-name="Caminho 3897" d="M844.917,882.77c12.888-7.046,25.7-14.619,38.176-22.916V858.79c-13.067,8.715-26.508,16.634-40.024,23.98Z" transform="translate(-843.069 -858.79)" fill="#ddd"/>
            </g>
            <g id="Grupo_3339" data-name="Grupo 3339" transform="translate(881.112 882.969)">
              <path id="Caminho_3898" data-name="Caminho 3898" d="M879.634,882.77c1.154-.731,2.311-1.456,3.459-2.2v-1.06q-2.546,1.65-5.114,3.257Z" transform="translate(-877.979 -879.513)" fill="#ddd"/>
            </g>
          </g>
        </g>
      </g>
    </g>
  </g>
</svg>
