<svg xmlns="http://www.w3.org/2000/svg" xmlns:xlink="http://www.w3.org/1999/xlink" width="63" height="63" viewBox="0 0 63 63">
  <defs>
    <clipPath id="clip-path">
      <rect id="Ret창ngulo_811" data-name="Ret창ngulo 811" width="23" height="22.803" fill="#fff"/>
    </clipPath>
  </defs>
  <g id="Grupo_4584" data-name="Grupo 4584" transform="translate(-4055.018 -4594)">
    <g id="Grupo_4582" data-name="Grupo 4582" transform="translate(1536.018 5885)">
      <g id="Grupo_526" data-name="Grupo 526" transform="translate(2519 -1291)">
        <rect id="Ret창ngulo_151" data-name="Ret창ngulo 151" width="63" height="63" rx="15" fill="#e53537"/>
      </g>
    </g>
    <g id="Grupo_4585" data-name="Grupo 4585" transform="translate(4075.018 4614)">
      <g id="Grupo_4368" data-name="Grupo 4368" transform="translate(0 0)" clip-path="url(#clip-path)">
        <path id="Caminho_4252" data-name="Caminho 4252" d="M11.5,22.533a.3.3,0,0,1-.09-.013L.223,19.178a.313.313,0,0,1-.223-.3V2.864a.318.318,0,0,1,.123-.249A.314.314,0,0,1,.4,2.562L11.5,5.569l11.1-3.007a.311.311,0,0,1,.272.053A.314.314,0,0,1,23,2.864V19.4a.314.314,0,0,1-.237.3L11.577,22.524a.359.359,0,0,1-.076.009M.627,18.643l10.88,3.251,10.867-2.739V3.273L11.582,6.2a.316.316,0,0,1-.164,0L.627,3.273Z" transform="translate(0 0.27)" fill="#fff"/>
        <path id="Caminho_4253" data-name="Caminho 4253" d="M22.687,3.448a.3.3,0,0,1-.076-.01L11.5.637.39,3.438a.313.313,0,0,1-.154-.607L11.423.01a.328.328,0,0,1,.154,0L22.763,2.831a.313.313,0,0,1-.076.617" transform="translate(0 0)" fill="#fff"/>
        <path id="Caminho_4254" data-name="Caminho 4254" d="M10.429,22.243a.312.312,0,0,1-.313-.313V5.6a.313.313,0,1,1,.626,0V21.93a.313.313,0,0,1-.313.313" transform="translate(1.072 0.56)" fill="#fff"/>
        <path id="Caminho_4255" data-name="Caminho 4255" d="M15.917,4.971a.292.292,0,0,1-.1-.015l-9.5-3.068a.314.314,0,0,1,.192-.6l9.5,3.069a.313.313,0,0,1-.1.612" transform="translate(0.646 0.135)" fill="#fff"/>
      </g>
    </g>
  </g>
</svg>
