<svg xmlns="http://www.w3.org/2000/svg" width="32.363" height="32.509" viewBox="0 0 32.363 32.509">
  <path id="_359de351d95fad8e27d4552078092a3b" data-name="359de351d95fad8e27d4552078092a3b" d="M27.648,4.724A16.115,16.115,0,0,0,2.286,24.161L0,32.509l8.542-2.24a16.107,16.107,0,0,0,7.7,1.961h.007a16.115,16.115,0,0,0,11.4-27.505m-11.4,24.784h-.005a13.376,13.376,0,0,1-6.817-1.866l-.489-.29L3.869,28.682l1.353-4.941L4.9,23.234a13.394,13.394,0,1,1,11.346,6.274M23.6,19.481c-.4-.2-2.382-1.175-2.751-1.31s-.637-.2-.906.2-1.04,1.31-1.275,1.578-.47.3-.872.1a11,11,0,0,1-3.238-2,12.132,12.132,0,0,1-2.24-2.788c-.235-.4-.025-.621.177-.821.181-.18.4-.47.6-.705a2.745,2.745,0,0,0,.4-.672.741.741,0,0,0-.034-.705c-.1-.2-.906-2.183-1.241-2.989-.327-.785-.659-.679-.906-.691s-.5-.014-.772-.014a1.479,1.479,0,0,0-1.074.5A4.514,4.514,0,0,0,8.061,12.53a7.828,7.828,0,0,0,1.644,4.164c.2.269,2.839,4.334,6.878,6.078a23.189,23.189,0,0,0,2.3.848,5.523,5.523,0,0,0,2.536.159,4.147,4.147,0,0,0,2.718-1.914,3.364,3.364,0,0,0,.235-1.914c-.1-.168-.369-.269-.772-.47" fill="#fff" fill-rule="evenodd"/>
</svg>
