<svg xmlns="http://www.w3.org/2000/svg" xmlns:xlink="http://www.w3.org/1999/xlink" width="1920" height="396" viewBox="0 0 1920 396">
  <defs>
    <clipPath id="clip-path">
      <rect id="Retângulo_577" data-name="Retângulo 577" width="1920" height="392" transform="translate(0 1902)" fill="#1c1c3a"/>
    </clipPath>
    <linearGradient id="linear-gradient" x1="0.5" x2="0.5" y2="1" gradientUnits="objectBoundingBox">
      <stop offset="0" stop-color="#1a1a3a"/>
      <stop offset="1" stop-color="#3a3a63"/>
    </linearGradient>
  </defs>
  <g id="Grupo_4480" data-name="Grupo 4480" transform="translate(0 -1902)">
    <rect id="Retângulo_575" data-name="Retângulo 575" width="1920" height="396" transform="translate(0 1902)" fill="#1c1c3a"/>
    <g id="Grupo_de_máscara_35" data-name="Grupo de máscara 35" transform="translate(0 4)" clip-path="url(#clip-path)">
      <path id="União_6" data-name="União 6" d="M309.074,1710.491C118.469,1521.583,0,1264.328,0,1001.746,0,752.629,75.216,541.827,203.019,377.962c53.67-68.787,111.419-126.694,175.671-175.1,10.616-9.082,11.91-10.092,24.513-18.947l.293-.194C519.375,105.3,683.394,38.654,722.541,38.605l5.572-.048c16.812,1.066,23.41,9.591,25.952,21.119,3.275,407.121,68.08,837.2,275.791,1271.061,9.823,16.372,4.838,24.849-11,30.322-249.885-99.4-420.3-465.355-535.581-806.179-11.083,14.063-22.229,28.969-33.645,44.782-76.584,106.079-121.841,240.3-121.841,402.084,0,173.65,81.716,349.383,212.892,479.439,124.089,122.984,292.408,204.8,477.491,204.8,62.9,0,170.714-22.911,196.128-28.288l.733-.194c4.887.194,15-.436,28.982,14.774l.1.339q44.425,56.527,91.393,109.034,50.437,56.454,104.1,108.84a20.69,20.69,0,0,1,4.252,6.151,19.961,19.961,0,0,1-10.263,26.5,1018.629,1018.629,0,0,1-202.677,65.634,1031.018,1031.018,0,0,1-212.745,22.039C742.432,2010.807,492.348,1892.085,309.074,1710.491Zm1216.356,142.747q-52.343-51.369-102.39-107.484-46.258-51.732-89.78-106.806c-11.143-19.811-9.481-26.738,9.335-40.979a76.034,76.034,0,0,1,13.342-7.944c13.342-6.539,32.5-16.663,55.715-30.952,117.638-72.512,290.942-226.06,290.942-559.313,0-471.689-351.887-706.662-807.189-660.791-22.873,2.906-35.824,2.47-36.85-20.586-2.151-48.535-2.932-90.676-3.91-139.259l-.146-2.616h.1l-.44-28.482c-.147-5.764.147-11.431.342-17.147.293-5.086.489-10.269.44-14.192,0-18.455-2.15-36.813.244-53.233,2.932-19.666.978-34.2,28.591-45.532C904.5,9.494,996.524,0,1014.7,0c326.326,0,578.023,107.823,786.956,362.946,142.807,174.328,228.726,396.174,228.726,636.814,0,188.569-49.362,363.721-137.383,513.346-90.073,153.161-183.861,256.818-343.432,343.523a20.5,20.5,0,0,1-24.143-3.391Z" transform="translate(-55.193 1092.597)" fill="url(#linear-gradient)"/>
    </g>
  </g>
</svg>
