<svg xmlns="http://www.w3.org/2000/svg" xmlns:xlink="http://www.w3.org/1999/xlink" width="1200" height="545" viewBox="0 0 1200 545">
  <defs>
    <clipPath id="clip-path">
      <rect id="Retângulo_364" data-name="Retângulo 364" width="1200" height="545" rx="33" transform="translate(0 0)" fill="#1c1c3a"/>
    </clipPath>
    <linearGradient id="linear-gradient" x1="0.5" x2="0.5" y2="1" gradientUnits="objectBoundingBox">
      <stop offset="0" stop-color="#1a1a3a"/>
      <stop offset="1" stop-color="#3a3a63"/>
    </linearGradient>
  </defs>
  <g id="Grupo_899" data-name="Grupo 899" transform="translate(-394 -751)">
    <rect id="Retângulo_7" data-name="Retângulo 7" width="1200" height="545" rx="33" transform="translate(394 751)" fill="#e53537"/>
    <g id="Grupo_de_máscara_24" data-name="Grupo de máscara 24" transform="translate(394 751)" clip-path="url(#clip-path)">
      <path id="União_1" data-name="União 1" d="M106.576,595.529C40.851,529.759,0,440.192,0,348.771c0-86.733,25.936-160.127,70.006-217.179,18.507-23.949,38.42-44.11,60.576-60.962a79.209,79.209,0,0,1,8.453-6.6l.1-.067c39.958-27.3,96.515-50.509,110.014-50.525l1.921-.017c5.8.371,8.072,3.339,8.949,7.353,1.129,141.745,23.476,291.483,95.1,442.536,3.387,5.7,1.668,8.651-3.792,10.557C265.16,439.264,206.4,311.851,166.646,193.189c-3.822,4.9-7.665,10.086-11.6,15.591-26.408,36.933-42.014,83.664-42.014,139.991,0,60.459,28.178,121.642,73.41,166.923C229.229,558.512,287.27,587,351.091,587c21.689,0,58.866-7.977,67.63-9.849l.253-.068c1.685.068,5.174-.152,9.994,5.144l.034.118q15.319,19.681,31.514,37.962,17.392,19.655,35.9,37.894a7.206,7.206,0,0,1,1.466,2.142,6.976,6.976,0,0,1-3.539,9.225,348.366,348.366,0,0,1-143.247,30.524C256.008,700.088,169.773,658.754,106.576,595.529ZM526,645.229q-18.049-17.885-35.306-37.422-15.951-18.011-30.958-37.186c-3.842-6.9-3.269-9.309,3.219-14.267a26.169,26.169,0,0,1,4.6-2.766c4.6-2.277,11.207-5.8,19.212-10.776,40.564-25.246,100.324-78.706,100.324-194.732,0-164.225-121.339-246.033-278.338-230.063-7.887,1.012-12.353.86-12.707-7.167-.742-16.9-1.011-31.57-1.348-48.485l-.051-.911h.034l-.152-9.916c-.051-2.007.051-3.98.118-5.97.1-1.771.168-3.575.152-4.941,0-6.425-.741-12.817.084-18.534,1.011-6.847.337-11.906,9.859-15.852C311.891,3.305,343.625,0,349.894,0,462.419,0,549.21,37.54,621.255,126.364a351.061,351.061,0,0,1,78.87,221.715c0,65.653-17.021,126.634-47.373,178.728-31.059,53.325-63.4,89.415-118.423,119.6a6.969,6.969,0,0,1-3.366.864A7.047,7.047,0,0,1,526,645.229Z" transform="translate(614.262 -76.787)" fill="url(#linear-gradient)"/>
    </g>
  </g>
</svg>
