<svg xmlns="http://www.w3.org/2000/svg" xmlns:xlink="http://www.w3.org/1999/xlink" width="1920" height="1009" viewBox="0 0 1920 1009">
  <defs>
    <clipPath id="clip-path">
      <rect id="Retângulo_574" data-name="Retângulo 574" width="1920" height="1006" transform="translate(0 896)" fill="#eee"/>
    </clipPath>
    <clipPath id="clip-path-2">
      <path id="Caminho_1771" data-name="Caminho 1771" d="M441.748,27c-23.759.01-123.343,40.711-193.693,88.543-.045.025-.1.05-.15.082a152.885,152.885,0,0,0-15.674,12.262c.013.063.032.12.045.165l.013.043c-38.641,29.389-73.561,64.3-105.894,105.934C48.788,333.994,3.133,462.619,3.133,614.6c0,160.2,71.921,317.141,187.635,432.405,111.252,110.8,263.046,183.242,430.457,183.242a622.037,622.037,0,0,0,129.144-13.5,615.447,615.447,0,0,0,123.057-39.99,12.247,12.247,0,0,0,6.221-16.2,11.963,11.963,0,0,0-2.614-3.746q-32.51-31.923-63.179-66.407-28.474-32.013-55.474-66.5l-.048-.211c-8.505-9.3-14.657-8.882-17.594-9.021l-.459.12c-15.44,3.3-80.86,17.243-119.054,17.243-112.375,0-214.519-49.907-289.858-124.938-79.656-79.34-129.234-186.576-129.234-292.5,0-98.684,27.483-180.569,73.959-245.294,6.967-9.7,13.766-18.737,20.532-27.361,69.968,207.966,173.281,431.24,324.992,491.867,9.654-3.336,12.65-8.518,6.7-18.5C502.208,550.614,462.847,288.238,460.889,39.864c-1.546-7.036-5.551-12.257-15.743-12.894ZM539.666,14.39c-16.8,6.921-15.631,15.777-17.386,27.751-1.462,10.058-.116,21.246-.116,32.485,0,2.414-.141,5.564-.273,8.692-.148,3.466-.3,6.933-.256,10.433l.28,17.406h-.046l.071,1.558c.6,29.639,1.08,55.355,2.376,84.97.613,14.049,8.507,14.33,22.378,12.58,276.378-27.991,490.023,115.35,490.023,403.133,0,203.308-105.2,296.971-176.61,341.223-14.1,8.744-25.752,14.9-33.848,18.868a47.346,47.346,0,0,0-8.092,4.855c-11.438,8.718-12.444,12.916-5.672,25.007q26.413,33.591,54.477,65.171,30.384,34.2,62.208,65.58a12.362,12.362,0,0,0,14.612,2.052c96.894-52.884,153.829-116.139,208.523-209.572,53.433-91.291,83.391-198.133,83.391-313.184,0-146.8-52.157-282.158-138.841-388.512C970,69.224,817.2,3.457,619.106,3.457c-11.024,0-66.9,5.765-79.44,10.933" transform="translate(-3.133 -3.457)" fill="#b8b8b8"/>
    </clipPath>
  </defs>
  <g id="Grupo_4479" data-name="Grupo 4479" transform="translate(0 -896)">
    <rect id="Retângulo_338" data-name="Retângulo 338" width="1920" height="1009" transform="translate(0 896)" fill="#eee"/>
    <g id="Grupo_de_máscara_34" data-name="Grupo de máscara 34" clip-path="url(#clip-path)">
      <g id="Grupo_1282" data-name="Grupo 1282" transform="translate(1077 1332.265)">
        <g id="Grupo_1281" data-name="Grupo 1281" transform="translate(0 0)" clip-path="url(#clip-path-2)">
          <path id="Caminho_1680" data-name="Caminho 1680" d="M0,39.981A227.8,227.8,0,0,1,22.928,0H21.4A227.9,227.9,0,0,0,0,37Z" transform="translate(-4.388 -4.823)" fill="#b8b8b8"/>
          <path id="Caminho_1681" data-name="Caminho 1681" d="M47.435,0c-.7.918-1.4,1.833-2.081,2.761C22.418,33.967,8.965,70.454,0,107.073v5.309C8.925,74.22,22.486,35.962,46.347,3.5q1.3-1.764,2.636-3.5Z" transform="translate(-4.388 -4.823)" fill="#b8b8b8"/>
          <path id="Caminho_1682" data-name="Caminho 1682" d="M71.237,0q-1.374,1.724-2.715,3.475C29.688,54.439,16.342,118.044,5.057,184.2c-1.333,7.813-2.639,15.77-3.9,23.464q-.574,3.5-1.154,7.02v7.56q1.2-7.222,2.373-14.38c1.263-7.692,2.569-15.645,3.9-23.456C17.531,118.413,30.839,54.967,69.5,4.227Q71.133,2.091,72.823,0Z" transform="translate(-4.388 -4.823)" fill="#b8b8b8"/>
          <path id="Caminho_1683" data-name="Caminho 1683" d="M92.823,0Q89.3,4.246,86.031,8.658C49.187,58.52,35.024,120.5,22.645,184.947c-1.516,7.887-3.009,15.924-4.453,23.7C12.962,236.789,7.563,265.833,0,293.97v4.661c8.207-29.531,13.9-60.141,19.4-89.761,1.444-7.77,2.937-15.8,4.453-23.689C36.208,120.88,50.333,59.049,87.023,9.4q3.553-4.8,7.42-9.4Z" transform="translate(-4.388 -4.823)" fill="#b8b8b8"/>
          <path id="Caminho_1684" data-name="Caminho 1684" d="M112.109,0q-3.038,3.6-5.9,7.325C88.582,30.33,74.383,58.026,62.8,92c-10.383,30.447-17.516,62.422-23.93,92.564-1.679,7.891-3.344,15.929-4.952,23.7-6.4,30.92-13.018,62.891-22.264,93.616C8.268,313.13,4.183,324.308,0,335.261v3.447c4.589-11.934,9.128-24.149,12.836-36.471,9.26-30.777,15.884-62.778,22.29-93.722,1.608-7.772,3.272-15.809,4.95-23.7C53.919,119.774,69.467,57.311,107.187,8.082Q110.349,3.953,113.738,0Z" transform="translate(-4.388 -4.823)" fill="#b8b8b8"/>
          <path id="Caminho_1685" data-name="Caminho 1685" d="M129.3,0q-4.473,5.226-8.6,10.75C81.218,63.762,65.53,131.98,51.686,192.166c-1.744,7.585-3.463,15.343-5.127,22.849C40.1,244.183,33.408,274.35,23.434,302.8,16.03,323.91,7.072,350.724,0,379.463v5.254c7.223-30.551,16.781-59.212,24.6-81.508,10-28.517,16.694-58.718,23.168-87.928,1.663-7.5,3.381-15.256,5.124-22.835C66.7,132.378,82.363,64.293,121.687,11.492Q126.095,5.572,130.918,0Z" transform="translate(-4.388 -4.823)" fill="#b8b8b8"/>
          <path id="Caminho_1686" data-name="Caminho 1686" d="M144.428,0q-3.3,3.853-6.4,7.86C97.448,60.384,81.007,126.3,65.108,190.054c-5.629,22.567-12.165,45.376-18.485,67.434-13.24,46.2-26.929,93.98-33.142,142.467-4.639,36.188-3.964,70.676-3.251,107.188.16,8.19.326,16.661.423,25.059.2,17.377-4,33.5-10.652,48.2v2.947c7.371-15.489,12.1-32.611,11.886-51.159-.1-8.4-.262-16.875-.423-25.07-.712-36.464-1.385-70.907,3.241-107.006,6.2-48.391,19.878-96.121,33.1-142.282,6.323-22.069,12.863-44.887,18.5-67.474C82.174,126.727,98.584,60.937,139,8.618Q142.415,4.2,146.062,0Z" transform="translate(-4.388 -4.823)" fill="#b8b8b8"/>
          <path id="Caminho_1687" data-name="Caminho 1687" d="M157.845,0q-4.2,4.914-8.114,10.083C110.649,62.037,93.468,126.606,76.854,189.048l-2.009,7.538c-2.876,10.782-5.87,21.685-8.767,32.227C50.794,284.442,34.991,341.965,31.489,401.629c-2.855,48.645,2.06,95.831,7.8,139.575,5.246,39.994-17,73.7-39.286,98.323v1.839c22.763-24.9,45.892-59.293,40.51-100.324-5.729-43.684-10.637-90.8-7.788-139.341C36.215,342.169,51.3,287.266,67.269,229.143c2.9-10.546,5.893-21.451,8.77-32.239l2.007-7.539C94.631,127.04,111.78,62.593,150.717,10.829q4.2-5.583,8.736-10.829Z" transform="translate(-4.388 -4.823)" fill="#b8b8b8"/>
          <path id="Caminho_1688" data-name="Caminho 1688" d="M169.667,0q-2.618,3.091-5.122,6.278c-40.21,51.514-58.6,116.238-76.393,178.832q-1.179,4.146-2.353,8.269c-22.306,78.267-36.947,145.195-35.89,217.428.7,48.056,8.942,95.293,17.741,139.182,9.731,48.534-18.735,84.6-44.621,110.6Q11.863,671.808,0,682.331v1.662q12.3-10.91,23.9-22.524c18.085-18.165,30.024-34.223,37.574-50.544,9.225-19.937,11.641-39.949,7.385-61.179-8.788-43.831-17.017-91-17.718-138.956-1.055-72.081,13.566-138.907,35.843-217.068q1.177-4.127,2.353-8.273c17.755-62.477,36.116-127.084,76.178-178.405q2.8-3.591,5.764-7.043Z" transform="translate(-4.388 -4.823)" fill="#b8b8b8"/>
          <path id="Caminho_1689" data-name="Caminho 1689" d="M99.586,181.611c18.188-60.25,37-122.55,75.283-172.843q3.425-4.5,7.078-8.767h-1.64q-3.3,3.918-6.419,8.015C135.466,58.486,116.625,120.9,98.4,181.251q-1.3,4.313-2.6,8.607C73.193,264.541,64.172,339.3,68.994,412.046c3.418,51.55,15.348,101.426,27.275,148.093,4.758,18.616,6.7,34.592.7,52.051C89.1,635.1,72.3,654.233,58.539,668.338,40.44,686.888,20.4,703.385,0,718.516v1.544c20.7-15.312,41.051-32.026,59.421-50.855,13.852-14.2,30.771-33.463,38.719-56.612,6.094-17.751,4.138-33.93-.675-52.761-11.913-46.611-23.829-96.424-27.238-147.868-4.811-72.6,4.191-147.207,26.759-221.746q1.3-4.294,2.6-8.607" transform="translate(-4.388 -4.823)" fill="#b8b8b8"/>
          <path id="Caminho_1690" data-name="Caminho 1690" d="M185.51,7.655q3-3.913,6.165-7.655h-1.6q-2.83,3.384-5.54,6.9c-41.9,54.632-64.917,126.7-80.286,183.376A573.973,573.973,0,0,0,85.763,302.207a631.994,631.994,0,0,0,2.821,113.459c6.137,53.588,20.9,104.967,35.507,153,5.024,16.53,10.222,33.625,4.907,52.474-6.361,22.554-22.665,41.59-36.159,55.656C65.16,705.641,32.023,729.644,0,751.27v1.493c32.293-21.786,65.772-45.972,93.727-75.11,13.594-14.169,30.023-33.36,36.458-56.178,5.414-19.2.164-36.471-4.914-53.173-14.586-47.977-29.337-99.293-35.46-152.778C81,338.565,86.4,260.787,105.436,190.6c15.339-56.57,38.3-128.486,80.075-182.945" transform="translate(-4.388 -4.823)" fill="#b8b8b8"/>
          <path id="Caminho_1691" data-name="Caminho 1691" d="M151.955,575.091c-17.173-50.543-33.289-100.3-41.765-153.306-12.5-78.195-11.119-154.319,4.117-226.258C126.2,139.385,151.206,58.2,202.12,0h-1.476A287.418,287.418,0,0,0,179.88,27.074C142.446,82.224,122.9,148.98,113.1,195.268a589.464,589.464,0,0,0-12.455,113.148A659.706,659.706,0,0,0,108.97,421.98c8.493,53.1,24.626,102.916,41.817,153.511q.763,2.243,1.544,4.5c5.68,16.47,11.552,33.5,7.564,50.954-5.062,22.165-20.941,41.076-34.208,55.074-28.279,29.837-63.14,54.6-96.6,76.911Q14.8,772.46,0,781.79v1.462q15.166-9.549,29.771-19.288C63.29,741.61,98.218,716.8,126.58,686.875c13.377-14.112,29.388-33.192,34.518-55.652,4.066-17.8-1.864-35-7.6-51.635q-.777-2.254-1.544-4.5" transform="translate(-4.388 -4.823)" fill="#b8b8b8"/>
          <path id="Caminho_1692" data-name="Caminho 1692" d="M179.1,585.183C160.2,532.895,140.65,478.826,129.934,422.476c-14.946-78.6-16.309-155.034-4.048-227.183,6.181-36.375,22.592-106.515,63.05-167.593A287.038,287.038,0,0,1,209.7,0h-1.549a284.318,284.318,0,0,0-20.238,27.013c-40.584,61.269-57.041,131.6-63.239,168.071-12.284,72.295-10.921,148.88,4.052,227.624,10.734,56.447,30.3,110.563,49.222,162.9.721,1.992,1.478,4.026,2.247,6.1,5.333,14.335,11.375,30.583,9.939,45.672-2.189,23-18.946,43.457-33.3,58.7-29.272,31.091-65.177,55.833-96.534,76.583C41.32,785.217,21.5,797.4,0,809.661v1.426c21.756-12.395,41.8-24.7,60.974-37.392,31.415-20.788,67.39-45.579,96.753-76.766,14.489-15.392,31.407-36.057,33.631-59.438,1.462-15.372-4.634-31.762-10.011-46.222-.768-2.066-1.523-4.1-2.243-6.086" transform="translate(-4.388 -4.823)" fill="#b8b8b8"/>
          <path id="Caminho_1693" data-name="Caminho 1693" d="M206.8,598.587q-.792-2.1-1.569-4.158-2.811-7.5-5.632-14.974c-18.174-48.255-36.968-98.15-48.531-149.8C133.461,351.032,129,274.434,137.8,201.99c7.663-63.057,29.231-125.926,59.176-172.486A263.053,263.053,0,0,1,218.9,0h-1.671a268.345,268.345,0,0,0-21.292,28.832C165.9,75.545,144.262,138.6,136.578,201.841c-8.822,72.583-4.352,149.323,13.283,228.089,11.583,51.731,30.391,101.668,48.581,149.964q2.815,7.477,5.631,14.973.773,2.061,1.57,4.16c5.774,15.26,12.319,32.558,12.168,49.143-.2,22.025-16.566,42.438-30.8,57.761-28.74,30.934-64.845,55.685-96.429,76.458C61.721,801.367,31.66,817.975,0,833.818V835.2c31.9-15.945,62.183-32.657,91.256-51.777,31.646-20.812,67.823-45.614,96.656-76.648,14.388-15.488,30.929-36.143,31.134-58.6.151-16.819-6.436-34.232-12.249-49.594" transform="translate(-4.388 -4.823)" fill="#b8b8b8"/>
          <path id="Caminho_1694" data-name="Caminho 1694" d="M229.773,601.829l-.854-2.207q-3.318-8.57-6.648-17.12c-18.936-48.688-38.518-99.034-51.218-151.081-19.24-78.846-25.738-155.441-19.313-227.656,7.146-80.307,30.419-144.174,71.148-195.246Q226.4,4.113,230.026,0h-1.647q-3.271,3.756-6.456,7.743c-40.887,51.27-64.245,115.352-71.414,195.911-6.436,72.352.071,149.083,19.344,228.061,12.72,52.126,32.316,102.511,51.268,151.237q3.326,8.551,6.646,17.119l.856,2.207c7.232,18.662,14.712,37.958,14.891,57.844.186,20.587-12.6,38.159-23.76,51.168-27.94,32.565-65.315,58.171-101.2,81.609C81.587,817.039,40.845,836.307,0,854.073v1.35c41.058-17.847,82.036-37.2,119.226-61.486,35.962-23.485,73.418-49.15,101.463-81.839,11.3-13.173,24.251-30.987,24.06-51.985-.182-20.114-7.7-39.518-14.976-58.283" transform="translate(-4.388 -4.823)" fill="#b8b8b8"/>
          <path id="Caminho_1695" data-name="Caminho 1695" d="M706.582,0c-44.726,16.695-99.044,21.573-164.491,14.891A813.825,813.825,0,0,1,451.743,0h-5.768C477.5,7.025,509.5,12.806,541.966,16.123c41.453,4.233,77.357,3.94,109.77-.9A269.43,269.43,0,0,0,710.077,0Z" transform="translate(174.319 -4.823)" fill="#b8b8b8"/>
          <path id="Caminho_1696" data-name="Caminho 1696" d="M253.767,610.366c-4.681-12.2-9.539-24.544-14.237-36.478-16.7-42.437-33.977-86.319-46.191-131.412-22.193-81.931-31.16-161.249-26.653-235.748,5.02-82.991,26.4-146.824,65.373-195.146Q236.944,5.526,242.011,0h-1.663q-4.7,5.177-9.249,10.8c-21.369,26.5-37.117,56.74-48.147,92.455-9.41,30.469-15.133,64.291-17.5,103.4-4.516,74.633,4.465,154.085,26.695,236.147,12.232,45.16,29.517,89.074,46.233,131.543,4.7,11.93,9.553,24.268,14.233,36.467,7.578,19.751,15.413,40.177,15.133,61.34-.287,21.748-12.091,38.417-22.341,50.509-25.008,29.5-61.47,58.321-102.668,81.154C97,829.163,48.206,850.155,0,869.948v1.339c48.392-19.863,97.394-40.926,143.335-66.389,41.325-22.9,77.909-51.825,103.011-81.434,10.386-12.251,22.344-29.153,22.637-51.3.283-21.4-7.95-42.865-15.216-61.8" transform="translate(-4.388 -4.823)" fill="#b8b8b8"/>
          <path id="Caminho_1697" data-name="Caminho 1697" d="M775.071,0C724.85,30.569,657.252,40.507,568.834,30.343,519.585,24.68,472.024,13.632,422.246,0H417.57c51.412,14.194,100.361,25.738,151.124,31.573,42.194,4.852,78.573,5.2,111.219,1.07C717.5,27.885,750.266,16.912,777.451,0Z" transform="translate(162.937 -4.823)" fill="#b8b8b8"/>
          <path id="Caminho_1698" data-name="Caminho 1698" d="M276.641,618.761c-5.9-15.583-12.109-31.3-18.111-46.5-16.143-40.887-32.837-83.166-45.06-126.488C190.344,363.8,179.964,284.8,182.617,210.978,185.747,123.833,204.522,62.02,241.7,16.447Q249.033,7.463,256.225,0h-1.709q-6.833,7.161-13.768,15.662c-20.366,24.961-35.64,56.04-45.4,92.373-7.98,29.713-12.549,63.371-13.969,102.9-2.657,73.955,7.739,153.079,30.9,235.176,12.239,43.384,28.944,85.692,45.1,126.607,6,15.2,12.2,30.91,18.1,46.485,16.786,44.309,22.032,80.894-6.922,115.428-25.5,30.413-60.476,56.6-106.921,80.068C109.422,841.082,54.028,862.921,0,883.833v1.327c54.2-20.974,109.782-42.872,162.2-69.354,46.6-23.543,81.7-49.835,107.31-80.38,14.231-16.972,21.095-35.483,20.98-56.591-.113-21.026-7.064-42.167-13.847-60.074" transform="translate(-4.388 -4.823)" fill="#b8b8b8"/>
          <path id="Caminho_1699" data-name="Caminho 1699" d="M826.808,0q-7.894,6.519-16.682,12.443C759.5,46.448,688.369,57.26,592.673,45.5,527.7,37.519,466,20.36,399.063,0H394.81c68.5,20.894,131.388,38.582,197.712,46.732,96,11.795,167.408.917,218.291-33.258A209.062,209.062,0,0,0,828.723,0Z" transform="translate(153.817 -4.823)" fill="#b8b8b8"/>
          <path id="Caminho_1700" data-name="Caminho 1700" d="M869.927,0A179.721,179.721,0,0,1,835,28.611C780.017,62.982,705.2,72.97,606.275,59.152,535.962,49.332,467.207,28.484,397.1,6.162,390.76,4.145,384.307,2.052,378,0h-4.009c.366.12.73.239,1.1.356,7.1,2.31,14.451,4.7,21.638,6.987,70.165,22.337,138.976,43.2,209.384,53.039,99.218,13.857,174.307,3.81,229.549-30.72A182.615,182.615,0,0,0,871.775,0Z" transform="translate(145.473 -4.823)" fill="#b8b8b8"/>
          <path id="Caminho_1701" data-name="Caminho 1701" d="M298.566,627.587c-7.2-19.643-14.944-39.393-22.435-58.491-15.125-38.562-30.765-78.438-42.552-119.148-22.636-78.173-34.121-153.485-34.142-223.845-.018-59.576,5.426-145.4,52.7-202.632A179.489,179.489,0,0,1,275.284,0h-1.835a180.139,180.139,0,0,0-22.26,22.678C230.93,47.205,216.346,79.746,207.842,119.4c-6.5,30.309-9.654,65.211-9.641,106.7.021,70.477,11.525,145.905,34.191,224.189,11.8,40.767,27.454,80.668,42.59,119.257,7.488,19.093,15.231,38.836,22.425,58.464,14.371,39.218,23.283,80.811-8.558,119.271-31.157,37.635-74.179,60.648-112.154,78.2C120.4,851.5,61.106,873.3,3.768,894.376q-1.885.693-3.768,1.388v1.32q2.1-.77,4.192-1.546c57.362-21.089,116.677-42.9,173.02-68.932,38.1-17.606,81.272-40.7,112.587-78.528,32.24-38.945,23.266-80.925,8.767-120.491" transform="translate(-4.388 -4.823)" fill="#b8b8b8"/>
          <path id="Caminho_1702" data-name="Caminho 1702" d="M906.687,0a178.6,178.6,0,0,1-48.036,43.194C802.463,77.362,727.033,87.307,628.059,73.6,555.376,63.54,484.9,41.789,418.952,20.378c-8.6-2.795-17.416-5.741-25.938-8.593C381.152,7.817,369.187,3.814,357.132,0h-4.126c13.321,4.163,26.532,8.582,39.618,12.96,8.525,2.852,17.339,5.8,25.95,8.6,66,21.43,136.536,43.2,209.318,53.273A585.313,585.313,0,0,0,708,80.784c61.211,0,111.131-12.11,151.291-36.531A179.025,179.025,0,0,0,908.211,0Z" transform="translate(137.065 -4.823)" fill="#b8b8b8"/>
          <path id="Caminho_1703" data-name="Caminho 1703" d="M320.447,639.659c-8.525-24.888-18.19-49.775-27.535-73.843-12.88-33.166-26.2-67.462-36.707-102.221-24.524-81.107-37.571-158.685-38.78-230.575-.976-58,2.779-141.816,46.459-199.816A137.353,137.353,0,0,1,299.474,0h-2.241A138.784,138.784,0,0,0,262.9,32.458c-43.911,58.3-47.687,142.4-46.71,200.582,1.212,72.007,14.276,149.7,38.833,230.915,10.524,34.805,23.851,69.122,36.738,102.31,9.343,24.057,19,48.931,27.518,73.8,12.508,36.518,20.683,79.427-13.518,120.8-29.851,36.108-72.78,56.239-117.853,75.333-55.653,23.576-113.732,43.888-169.9,63.529C12.08,901.8,6.051,903.9,0,906.026v1.311c6.188-2.168,12.353-4.325,18.415-6.444C74.6,881.243,132.7,860.927,188.387,837.335c45.219-19.157,88.3-39.36,118.322-75.682,14.927-18.056,22.9-37.231,24.388-58.621,1.27-18.31-2.114-38.447-10.651-63.373" transform="translate(-4.388 -4.823)" fill="#b8b8b8"/>
          <path id="Caminho_1704" data-name="Caminho 1704" d="M941.089,0c-15.453,23.171-35.12,43.409-60.893,58.19C821.363,91.929,743.734,101.168,642.87,86.435c-72.354-10.568-142.143-32.322-207.422-53.7-8.427-2.758-17.061-5.673-25.41-8.491C384.175,15.52,357.809,6.627,331.068,0H325.8c28.4,6.716,56.408,16.163,83.848,25.421,8.352,2.82,16.989,5.736,25.42,8.5,65.331,21.391,135.177,43.161,207.629,53.743,101.143,14.775,179.034,5.484,238.116-28.4C905.109,45.33,925.493,25.788,942.517,0Z" transform="translate(126.162 -4.823)" fill="#b8b8b8"/>
          <path id="Caminho_1705" data-name="Caminho 1705" d="M340.239,649.443c-8.97-28.046-19.595-56.009-29.869-83.051-11.424-30.066-23.236-61.156-32.822-92.479C252.528,392.143,239.088,317.6,236.463,246.04c-2.086-56.842-.268-139.161,39.41-197.547A128.761,128.761,0,0,1,337.331,0h-3.405a129.9,129.9,0,0,0-59.072,47.8C257.443,73.414,246,104.71,239.864,143.466c-4.652,29.4-6.125,62-4.635,102.62,2.629,71.674,16.086,146.315,41.139,228.191,9.6,31.362,21.417,62.47,32.848,92.557,10.269,27.026,20.887,54.975,29.848,82.989,6.7,20.933,12.555,43.363,10.113,65.548-2.182,19.836-11.8,39.335-29.4,59.61-29.961,34.519-73.651,51.8-115.9,68.511l-1.336.529c-56.162,22.214-114.493,41.59-170.905,60.327C21.245,907.8,10.616,911.328,0,914.877v1.306c10.745-3.593,21.507-7.167,32.023-10.66C88.451,886.78,146.8,867.4,202.993,845.17l1.338-.529c42.388-16.766,86.221-34.1,116.381-68.847,17.769-20.473,27.482-40.193,29.694-60.291,2.465-22.413-3.429-45-10.166-66.061" transform="translate(-4.388 -4.823)" fill="#b8b8b8"/>
          <path id="Caminho_1706" data-name="Caminho 1706" d="M1091.873,0c-17.055,28.841-39.84,54.153-71.708,71.652-60.39,33.163-138.581,42.276-239.041,27.868-73.19-10.5-144.65-32.633-205.887-52.554-8.931-2.906-18.092-6-26.95-8.983C503.416,22.846,457.019,7.2,409.793,4.487c-24.584-1.411-47.277,2.761-67.447,12.4C321.794,26.715,304.42,41.964,290.7,62.212,253.715,116.82,252.194,194.4,255,255.9c3.258,71.352,17.2,146.484,42.611,229.693,8.417,27.557,18.589,55.064,28.426,81.663,11.5,31.1,23.4,63.264,32.534,95.653,14.437,51.162,6.515,90.454-24.933,123.649-32.165,33.954-77.724,50.428-121.784,66.36l-5.418,1.962C152.759,874.334,97.359,891.8,43.783,908.694,29.412,913.227,14.675,917.871,0,922.548v1.3c14.8-4.716,29.661-9.4,44.153-13.97,53.588-16.9,109-34.37,162.7-53.837l5.418-1.959c44.194-15.982,89.894-32.506,122.26-66.672,16.72-17.65,26.7-36.824,30.5-58.621,3.449-19.769,1.724-41.429-5.271-66.219-9.152-32.438-21.054-64.621-32.565-95.746-9.832-26.585-20-54.075-28.4-81.6-25.385-83.107-39.305-158.141-42.558-229.386-2.8-61.3-1.294-138.629,35.49-192.932,26.891-39.7,68.8-60.01,118-57.185,47.061,2.7,93.379,18.324,138.172,33.431,8.861,2.99,18.024,6.08,26.962,8.988,61.285,19.938,132.806,42.091,206.093,52.6,45.567,6.535,85.644,8.2,122.522,5.076,44.74-3.784,84.2-14.914,117.289-33.085,29.489-16.191,53.331-40.1,72.449-72.737Z" transform="translate(-4.388 -4.823)" fill="#b8b8b8"/>
          <path id="Caminho_1707" data-name="Caminho 1707" d="M1109.485,0c-17.984,33.541-42.121,61.576-77.557,81.561-60.317,34.016-138.6,44.246-239.31,31.28-67.16-8.649-131.852-26.664-208.325-51.055-9.3-2.966-18.856-6.148-28.1-9.226C511.863,37.8,466.024,22.538,419.6,20.647,371.959,18.706,334.478,38.534,308.2,79.579c-15.967,24.934-26.01,55.406-30.706,93.151-4.451,35.78-3.223,71.682-1.656,98.963,3.988,69.414,18.017,143.394,42.89,226.163,7.323,24.367,16.021,48.836,24.435,72.5,11.944,33.6,24.3,68.337,32.921,103.386,13.188,53.583,1.345,96.318-35.2,127.023-36.37,30.556-80.626,47-126.577,62.5-52.2,17.61-105.911,33.612-157.852,49.089C37.923,917.878,18.91,923.545,0,929.272v1.3C19.026,924.8,38.16,919.1,56.8,913.546c51.951-15.479,105.671-31.485,157.894-49.1,46.067-15.542,90.443-32.034,126.976-62.728,19.174-16.113,31.747-35.793,37.365-58.5,5.128-20.717,4.535-44.195-1.761-69.775-8.641-35.111-21-69.88-32.957-103.506-8.407-23.649-17.1-48.1-24.416-72.44-24.844-82.678-38.859-156.563-42.839-225.877-3.464-60.3-2.937-136.546,32.169-191.375,26.028-40.647,63.14-60.284,110.316-58.363C465.8,23.768,511.554,39,555.8,53.736c9.247,3.079,18.81,6.263,28.115,9.23,76.536,24.411,141.29,42.444,208.542,51.1,45.648,5.878,85.848,6.949,122.9,3.274,44.8-4.444,84.222-16.118,117.174-34.7C1065.139,64.253,1090.8,37.16,1110.782,0Z" transform="translate(-4.388 -4.823)" fill="#b8b8b8"/>
          <path id="Caminho_1708" data-name="Caminho 1708" d="M1126.778,0q-3.179,6.534-6.688,12.887c-21.718,39.113-56.25,64.45-81.4,78.816-60.137,34.363-138.49,45.314-239.534,33.484-74.87-8.764-147.415-29.946-209.536-49.11-8.642-2.668-17.52-5.519-26.1-8.278-42.565-13.68-86.579-27.824-131.114-29.3-34.4-1.138-62.868,9.638-84.621,32.034-21.768,22.412-36.888,56.342-44.939,100.854-7.625,42.149-7.246,84.731-5.585,113.029,4.014,68.409,17.879,142.561,42.381,226.693,6.223,21.366,13.5,42.94,20.544,63.805,12.076,35.792,24.564,72.8,32.211,110.165,11.141,54.418-3.991,97.145-44.97,126.991-43.152,31.43-95.442,49.853-136.176,62.393-47.32,14.568-95.792,28.2-142.667,41.383C46.071,922.181,22.979,928.675,0,935.277v1.289c23.088-6.634,46.295-13.162,68.919-19.525,46.882-13.184,95.362-26.819,142.7-41.392,40.825-12.568,93.238-31.04,136.537-62.573,41.408-30.159,56.7-73.306,45.456-128.245-7.663-37.438-20.163-74.485-32.251-110.313-7.037-20.852-14.312-42.414-20.529-63.756-24.476-84.041-38.324-158.1-42.335-226.417C295.81,238.615,295.325,126.321,348.67,71.4c21.5-22.137,49.657-32.789,83.7-31.66,44.362,1.469,88.293,15.588,130.778,29.241,8.588,2.758,17.468,5.613,26.118,8.282,62.173,19.179,134.782,40.379,209.755,49.156,45.095,5.279,86.529,5.942,123.153,1.969,44.9-4.872,84.312-16.851,117.136-35.607,25.28-14.444,60.005-39.925,81.862-79.289q3.685-6.638,6.984-13.49Z" transform="translate(-4.388 -4.823)" fill="#b8b8b8"/>
          <path id="Caminho_1709" data-name="Caminho 1709" d="M1141.022,0a223.38,223.38,0,0,1-11.315,20.71c-19.343,31.193-47.732,58.127-82.1,77.889-61.836,35.559-143.391,48.522-242.4,38.526-66.9-6.751-131-22.878-206.657-45.015-8.732-2.555-17.729-5.317-26.429-7.99C530.074,71.213,486.6,57.863,442.983,57.793h-.21c-30.73,0-56.267,10.617-75.893,31.552-21.11,22.522-35.529,56.931-42.852,102.271-6.7,41.482-6.024,83.435-4.276,111.323,4.138,66.043,16.685,135.433,39.487,218.373,5.331,19.391,11.552,39.081,17.569,58.123,12.069,38.2,24.55,77.705,30.764,117.515,4.09,26.2,3.061,47.023-3.241,65.527-10.588,31.1-36.087,50.056-57.12,63.095-46.719,28.968-100.742,47.406-142.587,60.234-46.826,14.355-95.162,26.769-141.9,38.776C42.105,929.874,21.019,935.3,0,940.894v1.282c21.119-5.628,42.31-11.076,63.026-16.4,46.756-12.008,95.1-24.427,141.957-38.791,41.916-12.849,96.036-31.323,142.877-60.365,21.207-13.148,46.924-32.277,57.639-63.748,6.368-18.7,7.414-39.712,3.292-66.12-6.23-39.9-18.725-79.45-30.807-117.7-6.013-19.029-12.231-38.707-17.557-58.078-22.778-82.853-35.312-152.164-39.445-218.119-1.742-27.827-2.419-69.679,4.264-111.05,7.284-45.092,21.593-79.28,42.535-101.618,19.383-20.678,44.613-31.161,74.991-31.161h.209C486.413,59.1,529.8,72.424,571.758,85.3c8.7,2.675,17.705,5.438,26.444,7.993,75.721,22.158,139.881,38.3,206.88,45.062,45.435,4.586,87.456,4.41,124.9-.526,44.663-5.883,84.448-18.723,118.247-38.159,34.542-19.864,63.08-46.943,82.53-78.311A225.04,225.04,0,0,0,1142.39,0Z" transform="translate(-4.388 -4.823)" fill="#b8b8b8"/>
          <path id="Caminho_1710" data-name="Caminho 1710" d="M1153.277,0a228.563,228.563,0,0,1-15.3,27.518c-20.784,31.751-50.59,59.084-86.2,79.044-63.693,35.708-144.776,49.887-240.994,42.142-70.026-5.635-139.134-22.57-203.384-40.026-8.588-2.334-17.449-4.878-26.017-7.334-40.793-11.7-82.968-23.81-124.972-22.751-27.747.7-50.887,10.912-68.779,30.363-20.319,22.09-34.1,56.167-40.948,101.288-4.832,31.813-6.167,68.236-3.965,108.256,3.514,63.96,15.283,133.216,37.035,217.956,4.278,16.671,9.215,33.689,13.992,50.148,11.585,39.935,23.567,81.231,27.764,122.669,2.675,26.431-.1,48.471-8.479,67.377-12.7,28.653-42.1,47.461-69.173,62.078-48.77,26.33-103.835,43.769-151.62,58.049-47.414,14.169-96.377,26.065-143.727,37.57-15.967,3.879-32.229,7.835-48.515,11.9v1.275c16.383-4.084,32.743-8.064,48.805-11.966,47.367-11.51,96.345-23.411,143.789-37.587,47.846-14.3,102.982-31.758,151.854-58.145,27.261-14.716,56.862-33.671,69.715-62.667,8.471-19.107,11.277-41.351,8.579-68-4.208-41.551-16.2-82.9-27.807-122.889-4.772-16.449-9.707-33.459-13.982-50.112-21.729-84.659-33.485-153.838-37-217.713-2.2-39.937-.866-76.275,3.953-108C354.725,165.56,368.4,131.7,388.545,109.8c17.657-19.195,40.5-29.276,67.9-29.964,41.8-1.053,83.9,11.026,124.6,22.7,8.574,2.46,17.437,5,26.035,7.339C671.39,127.349,740.564,144.3,810.689,149.94c44.723,3.6,86.515,2.5,124.218-3.263,43.666-6.677,83.191-19.809,117.478-39.031,35.78-20.058,65.734-47.531,86.626-79.446A230.591,230.591,0,0,0,1154.643,0Z" transform="translate(-4.388 -4.823)" fill="#b8b8b8"/>
          <path id="Caminho_1711" data-name="Caminho 1711" d="M1164.179,0a241.24,241.24,0,0,1-19.148,33.548c-21.536,31.259-51.535,58.307-86.755,78.221-65.717,37.163-147.229,53.341-242.29,48.086-65.259-3.608-128.374-16.57-203.061-34.927-7.844-1.927-15.96-4.04-23.808-6.082-39.737-10.344-80.83-21.04-121.169-17.885-36.55,2.86-66.032,26.719-80.888,65.458-17.089,44.562-23.633,98.281-20.6,169.051,3.419,79.7,19.712,157.832,33.525,217,3.314,14.19,7.124,28.774,10.808,42.878,11.04,42.254,22.456,85.945,23.552,129.358.657,25.982-3.958,47.51-13.719,63.986-16.269,27.469-47.193,45.39-78.188,60.666-53.5,26.367-112.867,43.892-164.315,58.248-47.591,13.283-96.494,24.732-143.785,35.8C23.014,946.06,11.533,948.749,0,951.478v1.275c11.629-2.754,23.2-5.465,34.621-8.138,47.3-11.075,96.219-22.526,143.836-35.817,51.5-14.37,110.934-31.914,164.528-58.329,31.166-15.359,62.27-33.4,78.7-61.143,9.879-16.681,14.553-38.433,13.891-64.653-1.1-43.556-12.532-87.319-23.591-129.642-3.682-14.1-7.491-28.671-10.8-42.844-13.8-59.112-30.08-137.17-33.5-216.767-3.028-70.6,3.492-124.154,20.518-168.553,14.678-38.276,43.775-61.849,79.831-64.669,40.137-3.142,81.125,7.528,120.764,17.847,7.852,2.045,15.971,4.156,23.823,6.089,74.755,18.37,137.934,31.345,203.288,34.959,95.292,5.268,177.036-10.963,242.964-48.245,35.38-20.005,65.521-47.185,87.163-78.6A243.077,243.077,0,0,0,1165.544,0Z" transform="translate(-4.388 -4.823)" fill="#b8b8b8"/>
          <path id="Caminho_1712" data-name="Caminho 1712" d="M1174,0a261.723,261.723,0,0,1-25.424,42.173c-22.243,29.812-50.807,54.787-84.892,74.237-66.258,37.806-150.228,56.554-242.842,54.2C757.289,169,695.371,158.248,621.959,142.6c-8.015-1.708-16.07-3.583-24.6-5.57-39.025-9.092-79.381-18.5-117.263-12.128-17.757,2.986-33.074,10.515-45.527,22.377-11.71,11.157-20.6,25.833-26.417,43.621-18.38,56.185-18.545,122.137-17.072,166.856,2.444,74.23,15.943,148.563,28.822,211.483,2.425,11.839,5.187,24.057,7.859,35.872,9.847,43.543,20.03,88.569,17.94,132.686-1.241,26.239-8.091,47.535-20.358,63.294-21.784,27.991-56.438,45.841-90.644,60.962-98,43.316-205.42,66.78-309.305,89.469-8.4,1.835-16.879,3.687-25.392,5.56v1.268q12.9-2.836,25.654-5.618C129.6,930.034,237.082,906.556,335.2,863.19c34.354-15.186,69.169-33.125,91.121-61.333,12.426-15.965,19.362-37.5,20.617-64,2.1-44.284-8.106-89.394-17.971-133.018-2.67-11.809-5.433-24.019-7.852-35.846-12.871-62.872-26.357-137.139-28.8-211.275-1.471-44.627-1.307-110.432,17.01-166.431,11.884-36.323,37.09-59.466,70.977-65.163,37.639-6.326,77.873,3.048,116.78,12.113,8.535,1.99,16.6,3.866,24.623,5.578,73.48,15.659,135.46,26.42,199.109,28.033,44.129,1.122,86.369-2.462,125.535-10.641,43.254-9.036,82.938-23.744,117.946-43.72,34.236-19.532,62.923-44.622,85.271-74.572A263.421,263.421,0,0,0,1175.373,0Z" transform="translate(-4.388 -4.823)" fill="#b8b8b8"/>
          <path id="Caminho_1713" data-name="Caminho 1713" d="M1181.765,0c-28.553,54.213-67.245,94.624-117.09,122.564C998.06,159.9,915.334,180.074,825.44,180.9c-61.693.558-122.314-7.661-194.348-20.184-7.075-1.231-14.144-2.571-21.63-3.993-38.151-7.248-77.6-14.74-114.34-6.521-17.269,3.865-31.6,11.56-42.584,22.874-10.5,10.806-18.253,25.23-23.054,42.878-13.36,49.1-13.878,104.305-13.223,161.276.833,72.39,11.917,143.187,23.2,209.5,1.614,9.482,3.428,19.276,5.181,28.75,8.292,44.79,16.867,91.107,11.124,135.687-8.34,64.733-65.154,96.555-125.308,121.3C226.334,915.294,113.308,939.045,4,962.016l-4,.841v1.265l4.255-.894c109.359-22.981,222.443-46.745,326.673-89.621,26.566-10.93,56.978-24.786,81.115-44.7,26.315-21.71,41.018-47.09,44.948-77.594,5.768-44.772-2.824-91.185-11.136-136.07-1.752-9.469-3.565-19.262-5.177-28.731-11.274-66.263-22.351-137-23.183-209.3-.654-56.879-.139-111.987,13.179-160.935,9.687-35.6,31.461-57.426,64.717-64.868,36.491-8.163,75.814-.693,113.842,6.528,7.49,1.422,14.563,2.767,21.648,4,69.771,12.128,128.84,20.23,188.581,20.227,1.993,0,3.995-.007,5.989-.025,90.1-.822,173.03-21.047,239.826-58.49C1115.518,95.484,1154.47,54.718,1183.163,0Z" transform="translate(-4.388 -4.823)" fill="#b8b8b8"/>
          <path id="Caminho_1714" data-name="Caminho 1714" d="M1190.665,0c-29.8,54.473-71.356,97.6-122.439,126.553-83.454,47.311-175.7,61.013-238.391,64.182-65.345,3.3-129.4-3.88-189.4-11.517-5.146-.654-10.44-1.364-15.558-2.054-38.5-5.179-78.319-10.533-115.951-.951-16.021,4.077-29.079,11.972-38.812,23.46-8.962,10.58-15.418,24.594-19.184,41.651-9.085,41.129-8.911,85.211-8.745,127.843.042,10.7.087,21.752-.027,32.433-.678,64.545,6.858,128.6,16.03,199.643.993,7.7,2.1,15.654,3.177,23.351,6.506,46.638,13.234,94.863,3.25,140.132-14.562,66.021-82.265,96.626-144.582,120.129C217.181,923.647,107.295,947.235,0,969.063v1.264c107.421-21.85,217.447-45.456,320.468-84.311,62.62-23.617,130.659-54.4,145.353-121.024,10.032-45.485,3.289-93.823-3.233-140.57-1.073-7.693-2.182-15.65-3.175-23.34-9.165-70.993-16.7-135.006-16.018-199.47.112-10.69.069-21.753.027-32.45-.168-42.564-.34-86.577,8.714-127.571,7.817-35.4,26.495-56.39,57.1-64.18,37.4-9.522,77.1-4.183,115.482.981,5.122.688,10.417,1.4,15.568,2.056,60.06,7.641,124.172,14.828,189.616,11.524a617.677,617.677,0,0,0,123.207-18.5c42.558-11.008,81.5-26.427,115.731-45.834a310.649,310.649,0,0,0,93.055-81A347.12,347.12,0,0,0,1192.13,0Z" transform="translate(-4.388 -4.823)" fill="#b8b8b8"/>
          <path id="Caminho_1715" data-name="Caminho 1715" d="M1198.446,0c-32.555,57.251-77.287,102.559-131.572,132.777-79.482,44.248-169.252,60.892-230.563,67.063-62.11,6.253-124.446,2.663-188.163-1.907q-4.538-.326-9.123-.67c-38.5-2.852-78.318-5.8-115.319,4.872-28.447,8.2-45.247,29.368-51.36,64.7-6.307,36.449-5.4,74.616-4.519,111.525.357,14.973.726,30.455.594,45.467C467.8,493.947,472.546,563,477.266,621.31q.614,7.553,1.284,15.246c4.138,48.245,8.417,98.13-6.854,143.282-23.067,68.2-106.607,97.509-161.886,116.9C209.6,931.892,103.787,954.66,0,975.385v1.263c103.906-20.748,209.855-43.532,310.219-78.739,32.2-11.3,66.1-23.813,95.394-41.6,35.158-21.336,57.156-46.22,67.254-76.077,15.353-45.4,11.063-95.415,6.914-143.784q-.66-7.687-1.283-15.242c-4.719-58.279-9.46-127.3-8.843-197.37.133-15.031-.237-30.523-.592-45.508-.878-36.849-1.786-74.954,4.5-111.285,6.026-34.818,22.539-55.662,50.486-63.724,36.788-10.609,76.49-7.669,114.886-4.824q4.585.339,9.126.668c63.773,4.578,126.169,8.167,188.375,1.9,61.427-6.182,151.372-22.861,231.039-67.209a334.212,334.212,0,0,0,96.18-80.721A374.044,374.044,0,0,0,1199.889,0Z" transform="translate(-4.388 -4.823)" fill="#b8b8b8"/>
          <path id="Caminho_1716" data-name="Caminho 1716" d="M1205.581,0c-35.115,59.108-81.9,105.96-137.372,137.114-59.2,33.248-132.972,56.493-225.54,71.064-62.04,9.765-125.208,9.377-186.3,9q-3.166-.019-6.37-.045c-35.727-.258-76.223-.552-110.948,10.733-14.011,4.552-24.952,12.891-32.516,24.785C500,262.933,495.785,275.9,493.659,292.283c-4.535,34.97-2.871,71.212-1.263,106.263.72,15.676,1.464,31.885,1.629,47.646.247,23.415.317,47.2.385,70.194.118,39.93.241,81.222,1.284,121.91l.147,5.664c1.348,51.26,2.741,104.264-18.443,150.776-29.555,64.891-115.2,93.074-177.728,113.653l-.517.17C201.911,940.559,100.119,962.37,0,982.106v1.261c100.232-19.754,202.152-41.583,299.537-73.631l.517-.172c62.749-20.65,148.689-48.931,178.466-114.313,21.3-46.774,19.907-99.925,18.555-151.324l-.147-5.664c-1.044-40.673-1.165-81.958-1.284-121.882-.067-23-.139-46.784-.384-70.2-.165-15.786-.91-32.005-1.63-47.691-1.607-35-3.268-71.186,1.254-106.047,4.521-34.844,18.676-54.989,44.547-63.4,34.535-11.221,74.923-10.928,110.557-10.672q3.206.023,6.373.045c61.138.374,124.361.762,186.5-9.018,92.715-14.595,166.623-37.887,225.95-71.208a358.284,358.284,0,0,0,97.058-80.2A409.3,409.3,0,0,0,1207.067,0Z" transform="translate(-4.388 -4.823)" fill="#b8b8b8"/>
          <path id="Caminho_1717" data-name="Caminho 1717" d="M1212.55,0c-37.907,61.429-86.06,108.95-143.612,141.6-70,39.712-152.185,59.479-223.725,74.888C790.83,228.2,734.66,232.1,680.339,235.872q-6.247.433-12.493.871c-19.351,1.357-38.768,3.883-57.544,6.328l-6.9.9c-2.362.306-4.734.6-7.114.887-13.871,1.7-28.215,3.456-41.5,8.339-24.166,8.88-36.895,29.287-40.059,64.221-3.034,33.5-.775,67.95,1.412,101.263,1.072,16.343,2.181,33.244,2.638,49.725,1.377,49.7-.941,100.562-3.182,149.747-.609,13.353-1.238,27.161-1.782,40.7-1.841,45.873-4.132,102.965-30.531,148.086-12.507,21.378-32.948,40.426-62.491,58.234-42.1,25.381-88.517,41.517-132.405,55.177C194.3,949.625,96.44,970.466,0,989.3v1.261c96.55-18.852,194.53-39.711,288.754-69.034,43.961-13.682,90.462-29.851,132.674-55.3,29.725-17.92,50.307-37.11,62.92-58.669C510.9,762.172,513.2,704.909,515.049,658.9c.543-13.534,1.172-27.34,1.78-40.69,2.243-49.207,4.561-100.091,3.184-149.838-.457-16.506-1.567-33.418-2.639-49.771-2.184-33.266-4.44-67.666-1.415-101.07,3.115-34.4,15.589-54.473,39.254-63.17,13.154-4.834,27.426-6.584,41.229-8.273,2.383-.292,4.758-.582,7.123-.887l6.9-.9c18.76-2.442,38.157-4.967,57.473-6.322q6.247-.442,12.492-.872C734.789,233.334,791,229.432,845.472,217.7c71.63-15.429,153.924-35.227,224.072-75.019a385.377,385.377,0,0,0,97.91-79.778A451.267,451.267,0,0,0,1213.969,0Z" transform="translate(-4.388 -4.823)" fill="#b8b8b8"/>
          <path id="Caminho_1718" data-name="Caminho 1718" d="M1219.305,0c-41.243,63.784-91.863,113.052-150.891,146.764-58.893,33.633-124.934,51.574-188.8,68.925-9.7,2.635-19.735,5.36-29.579,8.1-47.679,13.253-97.048,21.007-144.793,28.506-8.889,1.4-18.082,2.838-27.132,4.3-9.607,1.549-19.295,3.449-28.664,5.29-10.662,2.093-21.689,4.255-32.627,5.906q-2.6.391-5.23.773c-13.607,2-27.678,4.059-40.509,9.327-12.56,5.158-21.523,13.744-27.4,26.25-4.629,9.85-7.309,22.286-8.193,38.025-1.8,32.013.9,64.73,3.516,96.371,1.423,17.248,2.9,35.084,3.611,52.527,2.53,61.673-3.8,123.4-11.089,186.468-5.513,47.722-13.91,102.048-43.961,142.8-46.668,63.281-136.2,89.92-208.142,111.326l-.395.116C187.75,958.924,93.254,978.919,0,997.009v1.261c93.359-18.108,187.973-38.12,279.374-65.315l.4-.119c72.116-21.456,161.869-48.16,208.783-111.775,30.23-41,38.664-95.513,44.2-143.392,7.292-63.124,13.629-124.9,11.1-186.663-.717-17.467-2.189-35.317-3.614-52.578-2.608-31.6-5.3-64.27-3.513-96.2,1.307-23.3,6.448-51.543,34.829-63.2,12.69-5.212,26.685-7.262,40.219-9.249q2.628-.383,5.236-.774c10.965-1.653,22-3.819,32.68-5.914,9.36-1.839,19.037-3.739,28.624-5.284,9.047-1.457,18.239-2.9,27.126-4.3,47.78-7.5,97.186-15.266,144.932-28.535,9.841-2.735,19.872-5.459,29.573-8.095,63.941-17.37,130.06-35.333,189.089-69.045C1128.434,113.911,1179.342,64.275,1220.77,0Z" transform="translate(-4.388 -4.823)" fill="#b8b8b8"/>
          <path id="Caminho_1719" data-name="Caminho 1719" d="M1226.174,0c-44.774,66.064-97.8,117.066-157.97,151.869-57.642,33.339-122.162,52.362-184.558,70.76-8.816,2.6-17.932,5.288-26.88,7.972-41.068,12.319-83.018,23.478-123.585,34.269-14.759,3.926-30.02,7.986-45.047,12.05l-2.441.659c-18.789,5.087-36.536,9.89-55.439,13.342q-2.416.442-4.855.872c-12.4,2.213-25.214,4.5-36.823,9.628-27.787,12.273-32.089,41.106-32.732,64.853-.832,30.777,2.189,62.089,5.11,92.368,1.811,18.766,3.682,38.17,4.61,57.2,2.643,54.265-2.429,109.48-16.449,179.028-8.942,44.362-23.708,100.311-58.8,139.5-54.275,60.6-143.427,86.539-215.063,107.383C185.111,967.977,91.975,987.574,0,1005.316v1.261c92.079-17.759,185.33-37.372,275.592-63.633,34.067-9.913,76.465-22.247,115.494-39.476,43.405-19.161,76.162-41.491,100.144-68.268,35.3-39.412,50.123-95.565,59.1-140.082,14.041-69.652,19.12-124.962,16.471-179.335-.929-19.061-2.8-38.48-4.613-57.26-2.918-30.243-5.935-61.514-5.1-92.215.632-23.382,4.841-51.759,31.994-63.754,11.473-5.067,24.217-7.343,36.542-9.54q2.439-.433,4.86-.873c18.953-3.461,36.724-8.272,55.54-13.363l2.44-.661c15.024-4.064,30.285-8.123,45.043-12.047,40.577-10.794,82.536-21.956,123.621-34.283,8.945-2.682,18.059-5.37,26.875-7.968,62.465-18.418,127.056-37.462,184.826-70.877C1129.364,117.924,1182.684,66.554,1227.66,0Z" transform="translate(-4.388 -4.823)" fill="#b8b8b8"/>
          <path id="Caminho_1720" data-name="Caminho 1720" d="M1233.377,0c-49.424,69.757-104.293,121.672-167.161,158.261-53.923,31.38-113.8,50.753-171.712,69.486-11.228,3.633-22.839,7.389-34.229,11.175-54.888,18.245-108.561,37.77-159.523,58.033-13.692,5.445-28.7,8.651-43.222,11.753-18.148,3.874-36.914,7.881-53.342,16.3-24.979,12.8-28.412,39.9-28.475,64.712-.074,29.16,3.105,58.742,6.181,87.35,2.035,18.921,4.139,38.486,5.275,57.711,2.237,37.866,1.752,68.318-1.527,95.834-3.4,28.528-11.65,57.034-19.807,83.789-18.11,59.392-41.6,102.621-71.806,132.156-62.587,61.192-156.474,87.245-231.912,108.18C176.058,978.626,87.5,997.17,0,1014.079v1.261c87.6-16.928,176.269-35.487,262.446-59.4,42.555-11.809,84-23.764,123.218-40.108,46.076-19.2,81.8-41.568,109.226-68.38,30.36-29.684,53.953-73.084,72.126-132.682,8.173-26.807,16.44-55.374,19.852-84,3.287-27.591,3.775-58.114,1.534-96.056-1.139-19.256-3.244-38.836-5.279-57.771-3.072-28.573-6.25-58.121-6.176-87.213.063-24.441,3.415-51.112,27.8-63.614,16.283-8.343,34.967-12.335,53.038-16.194,14.567-3.111,29.631-6.328,43.419-11.811,50.94-20.255,104.59-39.773,159.457-58.01,11.385-3.785,22.993-7.541,34.219-11.172,57.97-18.754,117.913-38.145,171.953-69.594,35.954-20.925,70.114-47.639,101.534-79.4A638.127,638.127,0,0,0,1234.877,0Z" transform="translate(-4.388 -4.823)" fill="#b8b8b8"/>
          <path id="Caminho_1721" data-name="Caminho 1721" d="M1241.068,0C1186.816,72.892,1129,126.886,1064.714,164.757c-50.028,29.47-105.178,49.026-158.513,67.938-13.419,4.759-27.294,9.68-40.9,14.688-35.112,12.929-69.038,29.569-101.849,45.664-16.351,8.021-33.257,16.314-50.122,24.055-13.307,6.108-28.067,9.646-42.342,13.066-17.108,4.1-34.8,8.337-50.127,17.036-23.465,13.318-26.221,40.38-25.822,65.1.448,27.831,3.694,56.009,6.833,83.259,2.266,19.677,4.61,40.023,5.876,60.056,4.453,70.357-3.353,124.823-25.307,176.6-23.517,55.462-52.378,98.268-85.784,127.232-64.612,56.02-151.172,82.527-241.645,106.889C171.149,988.923,85.067,1006.913,0,1023.434v1.261c85.165-16.535,171.355-34.544,255.337-57.159,90.616-24.4,177.322-50.956,242.131-107.147,33.55-29.088,62.524-72.048,86.113-127.684,22.035-51.967,29.869-106.607,25.4-177.167-1.269-20.065-3.615-40.428-5.882-60.12-3.136-27.22-6.379-55.37-6.826-83.137-.392-24.353,2.294-51,25.2-64,15.177-8.614,32.781-12.83,49.805-16.909,14.333-3.434,29.154-6.986,42.57-13.144,16.879-7.75,33.794-16.046,50.15-24.071,32.782-16.078,66.681-32.707,101.732-45.615,13.594-5,27.465-9.924,40.881-14.68,53.39-18.931,108.6-38.508,158.726-68.038,64.155-37.791,121.862-91.6,176.011-164.15V0Z" transform="translate(-4.388 -4.823)" fill="#b8b8b8"/>
          <path id="Caminho_1722" data-name="Caminho 1722" d="M1062.346,169.358c-45.614,27.16-95.5,46.5-143.748,65.211-15.272,5.922-31.065,12.044-46.521,18.337A566.184,566.184,0,0,0,789.777,294c-6.946,4.237-13.924,8.8-20.675,13.205-14.111,9.219-28.7,18.751-44,26.024-12.069,5.738-25.5,9.562-38.494,13.261-16.785,4.778-34.14,9.719-48.869,18.853-22.332,13.848-24.71,39.784-23.954,65.75.776,26.623,3.985,53.549,7.089,79.59,2.448,20.547,4.979,41.792,6.3,62.743,3.416,54.282,2.807,117.1-27.615,171.466-30.6,54.682-64.924,96.967-102.02,125.679-69.961,54.151-160.466,81.169-247.168,104.2-82.4,21.89-166.9,39.543-250.368,55.832v1.263c83.562-16.305,168.171-33.976,250.683-55.9C337.509,952.9,428.148,925.842,498.29,871.55c37.228-28.814,71.662-71.226,102.343-126.055,30.579-54.643,31.2-117.686,27.771-172.15-1.321-20.985-3.855-42.248-6.3-62.812-3.1-26.014-6.3-52.913-7.079-79.48-.747-25.594,1.569-51.141,23.367-64.66,14.583-9.042,31.855-13.96,48.559-18.715,13.041-3.713,26.524-7.551,38.686-13.332,15.373-7.309,30-16.865,44.145-26.1,6.742-4.4,13.713-8.958,20.642-13.186a564.952,564.952,0,0,1,82.124-41c15.446-6.288,31.233-12.41,46.5-18.33,48.292-18.726,98.229-38.088,143.933-65.3,62.742-37.36,121.243-90.182,178.372-161.079V7.372c-57.341,71.382-116.036,124.495-179,161.986" transform="translate(-4.388 -1.91)" fill="#b8b8b8"/>
          <path id="Caminho_1723" data-name="Caminho 1723" d="M1059.921,174.511c-40.6,24.494-84.631,43.125-127.214,61.142-18.68,7.9-38,16.076-56.812,24.653-30.578,13.936-54.149,27.231-74.179,41.838-6.718,4.9-13.305,10.136-19.676,15.2-13.29,10.566-27.032,21.491-42.436,29.685-11.805,6.28-25.07,10.634-37.9,14.845-16.258,5.336-33.069,10.854-47.169,20.36-21.533,14.52-23.62,40.546-22.668,66.51.938,25.537,4.024,51.353,7.008,76.32,2.549,21.325,5.185,43.376,6.469,65.146,3.359,56.979,2.37,121.612-30.437,168.97-24.13,34.83-63.476,83.955-113.884,120.189-74.763,53.743-166.459,80.77-253.973,103.845C165.7,1004.665,82.3,1022.13,0,1038.329v1.263c82.394-16.216,165.9-33.7,247.365-55.18,87.626-23.105,179.445-50.17,254.379-104.036,50.55-36.337,89.992-85.58,114.176-120.491,33.025-47.667,34.029-112.558,30.657-169.748-1.286-21.808-3.923-43.878-6.476-65.22-2.981-24.941-6.064-50.732-7-76.219-.938-25.605,1.091-51.256,22.123-65.436,13.957-9.409,30.685-14.9,46.864-20.21,12.878-4.227,26.195-8.6,38.094-14.927,15.5-8.247,29.29-19.209,42.624-29.809,6.362-5.057,12.94-10.287,19.635-15.17,19.962-14.557,43.464-27.811,73.963-41.713,18.8-8.568,38.109-16.738,56.781-24.637,42.624-18.035,86.7-36.683,127.372-61.223,62.26-37.563,120.127-88.306,180.791-158.679V15c-60.917,70.835-118.964,121.823-181.429,159.511" transform="translate(-4.388 1.104)" fill="#b8b8b8"/>
          <path id="Caminho_1724" data-name="Caminho 1724" d="M1060.69,178.354c-36.271,22.5-75.4,40.518-113.241,57.945-22.213,10.229-45.18,20.807-67.373,32.2-26.979,13.844-47.939,27.246-65.962,42.177-6.452,5.343-12.675,11.008-18.694,16.485-12.549,11.421-25.527,23.229-40.782,32.231-11.689,6.9-24.892,11.853-37.661,16.646-15.766,5.917-32.068,12.036-45.694,21.868-21.008,15.16-22.986,41.357-21.994,67.409.937,24.646,3.82,49.562,6.607,73.658,2.537,21.935,5.162,44.617,6.31,67.027,2.825,55.109,1.3,117.59-31.436,163.17-12.28,17.1-28.24,32.641-43.676,47.673-4.559,4.441-9.274,9.032-13.742,13.525-23.112,23.231-45.537,42.091-68.557,57.661-79.241,53.593-175.556,81.63-259.614,103.7-80.795,21.218-163.6,38.659-245.182,54.938v1.264c81.681-16.3,164.589-33.756,245.495-55,84.156-22.1,180.59-50.174,259.992-103.876,23.087-15.615,45.572-34.525,68.739-57.813,4.463-4.486,9.173-9.073,13.73-13.509,15.474-15.071,31.474-30.653,43.817-47.839,32.959-45.891,34.5-108.635,31.667-163.959-1.151-22.448-3.776-45.15-6.316-67.106-2.785-24.071-5.664-48.963-6.6-73.561-.978-25.706.948-51.537,21.483-66.355,13.492-9.735,29.715-15.825,45.4-21.714,12.819-4.811,26.074-9.784,37.856-16.736,15.366-9.066,28.39-20.919,40.985-32.382,6.008-5.468,12.221-11.122,18.651-16.449,17.953-14.872,38.842-28.227,65.738-42.029,22.17-11.376,45.127-21.949,67.327-32.173,37.874-17.444,77.038-35.479,113.375-58.018C1120.957,142.43,1178.6,92.89,1241.35,24.569V22.737c-63.024,68.75-120.853,118.521-180.66,155.617" transform="translate(-4.388 4.162)" fill="#b8b8b8"/>
          <path id="Caminho_1725" data-name="Caminho 1725" d="M1057.684,185.194c-30.865,19.423-63.913,35.879-95.875,51.794-25.062,12.48-50.976,25.384-75.694,39.645-24.48,14.125-44.3,28.633-60.585,44.352-3.813,3.68-7.607,7.452-11.277,11.1-14.523,14.432-28.238,28.064-45.363,39.007-11.389,7.277-24.29,12.713-36.765,17.97-15.195,6.4-30.909,13.023-44.037,23.031-20.911,15.943-22.974,42.392-22.088,68.6.8,23.806,3.4,47.882,5.918,71.167,2.345,21.72,4.769,44.179,5.732,66.364,2.436,56.215.108,119.582-35.638,163.331-13.979,17.109-31.164,32.313-47.781,47.017-4.274,3.781-8.693,7.692-12.95,11.542-25.829,23.358-50.147,42.2-74.344,57.606-82.173,52.319-177.679,80.176-260.75,102.179C165.042,1021.391,81.818,1039.075,0,1055.67v1.264c81.915-16.614,165.245-34.315,246.5-55.839,83.16-22.028,178.774-49.918,261.1-102.331,24.256-15.443,48.627-34.328,74.508-57.732,4.253-3.846,8.668-7.754,12.94-11.534,16.655-14.736,33.876-29.974,47.92-47.161,36.01-44.07,38.363-107.719,35.917-164.17-.964-22.224-3.391-44.7-5.737-66.443-2.513-23.262-5.11-47.316-5.912-71.075-.875-25.873,1.136-51.967,21.6-67.569,13-9.914,28.643-16.5,43.768-22.877,12.524-5.275,25.472-10.732,36.949-18.066,17.237-11.015,31.641-25.329,45.569-39.172,3.667-3.644,7.459-7.413,11.265-11.086,16.213-15.65,35.952-30.1,60.344-44.171,24.686-14.242,50.584-27.137,75.629-39.609,31.988-15.929,65.066-32.4,95.981-51.856,72.907-45.881,134.763-103.98,183.009-153.689V30.776c-48.325,49.858-110.415,108.321-183.664,154.418" transform="translate(-4.388 7.339)" fill="#b8b8b8"/>
          <path id="Caminho_1726" data-name="Caminho 1726" d="M1058,190.664c-26.354,17.034-54.46,32.093-81.642,46.657C948.4,252.3,919.49,267.79,892.47,285.438c-21.243,13.876-39.154,31.921-56.475,49.372-16.2,16.323-32.953,33.2-52.308,46.5-11.115,7.636-23.791,13.541-36.049,19.253-15.192,7.079-30.9,14.4-43.824,25.089-20.216,16.727-22.437,43.125-21.823,69.158.548,23.22,2.793,46.72,4.967,69.446,2.133,22.313,4.338,45.385,4.933,68.172,1.387,53.044-2.16,113.269-38.973,157.756-16.824,20.33-37.5,37.407-57.5,53.923q-3.276,2.706-6.544,5.413C560,873.472,534.732,891.8,509.354,907.189c-82.663,50.138-177.4,78.98-267.465,102.68-79.842,21.008-161.68,38.614-241.889,55.3v1.265c80.306-16.706,162.249-34.331,242.2-55.37,90.154-23.722,184.994-52.6,267.793-102.817,25.43-15.424,50.746-33.784,79.667-57.777q3.267-2.708,6.543-5.412c20.041-16.552,40.765-33.667,57.663-54.088,16.671-20.146,27.731-44.76,33.81-75.247,6.043-30.3,6-62.072,5.449-83.332-.6-22.831-2.8-45.925-4.94-68.258-2.17-22.7-4.415-46.181-4.961-69.356-.607-25.721,1.565-51.783,21.375-68.173,12.8-10.588,28.436-17.875,43.558-24.922,12.3-5.731,25.027-11.661,36.225-19.354,19.452-13.363,36.245-30.284,52.486-46.646,17.276-17.406,35.141-35.4,56.276-49.209,26.974-17.618,55.859-33.095,83.793-48.062,27.2-14.575,55.334-29.647,81.729-46.707,69.449-44.888,130.6-99.982,182.681-150.816V39.159c-52.22,51.024-113.6,106.426-183.349,151.505" transform="translate(-4.388 10.651)" fill="#b8b8b8"/>
          <path id="Caminho_1727" data-name="Caminho 1727" d="M1054.765,199.164c-21.26,13.989-43.8,26.906-65.608,39.4-29.82,17.084-60.654,34.748-88.7,55.441-19.473,14.365-36.3,32.2-52.576,49.447-15.042,15.943-30.6,32.426-48.173,46.092-11.528,8.961-24.868,15.7-37.77,22.219-14.265,7.206-29.016,14.659-41.349,25.137-20.85,17.714-23.536,44.482-23.334,70.768.175,22.705,1.99,45.711,3.744,67.959,1.741,22.069,3.54,44.889,3.739,67.4.443,50.406-4.365,108.37-43.37,156.084-18.807,23.006-41.3,41.043-66.618,60.571-30.16,23.26-56.006,41.023-81.342,55.9-86.855,51.01-186.645,81.146-272.8,103.9-79.52,21-161.058,38.827-240.6,55.885v1.267c79.638-17.077,161.281-34.927,240.913-55.953,57.055-15.066,100.281-28.247,140.157-42.737,50.478-18.344,93.968-38.391,132.957-61.288,25.379-14.906,51.267-32.7,81.47-55.989,25.384-19.577,47.931-37.661,66.821-60.768,17.2-21.039,28.925-45.283,35.848-74.115,5.613-23.372,8.092-49.672,7.8-82.766-.2-22.556-2-45.4-3.741-67.488-1.752-22.226-3.565-45.209-3.74-67.871-.2-25.985,2.434-52.428,22.9-69.813,12.221-10.383,26.9-17.8,41.107-24.976,12.954-6.545,26.348-13.313,37.969-22.346C818.113,376.8,833.7,360.276,848.775,344.3c16.237-17.208,33.026-35,52.41-49.3,27.993-20.65,58.8-38.3,88.585-55.363,21.817-12.5,44.38-25.426,65.672-39.434,67.378-44.336,128.975-97.734,185.907-150.529V47.984c-57.127,53.011-118.947,106.674-186.585,151.18" transform="translate(-4.388 14.139)" fill="#b8b8b8"/>
          <path id="Caminho_1728" data-name="Caminho 1728" d="M1055.685,205.693c-17.358,11.76-35.776,22.957-53.586,33.784-32.976,20.046-67.073,40.775-96.459,66.234-17.01,14.737-32.813,31.439-48.1,47.589-13.678,14.454-27.821,29.4-42.8,42.911-11.763,10.609-25.822,18.337-39.417,25.809-13.529,7.438-27.518,15.128-39.247,25.657-20.77,18.649-23.934,46.6-24.29,71.488-.321,22.441.982,45.21,2.241,67.23,1.282,22.416,2.608,45.594,2.221,68.432-.546,32.269-3.565,57.964-9.5,80.864-6.113,23.587-18.4,46.693-37.559,70.64-40.213,50.261-99.77,87.94-152.723,118.17-87.739,50.088-185.693,80.193-269.94,103.034C165,1049.645,81.212,1068.327,0,1086.348v1.268c81.309-18.042,165.2-36.745,246.857-58.884,84.323-22.861,182.369-53,270.227-103.153,53.056-30.288,112.732-68.049,153.077-118.472,19.272-24.085,31.634-47.344,37.79-71.1,5.961-23,8.991-48.786,9.54-81.155.387-22.883-.94-46.085-2.224-68.523-1.258-22-2.559-44.744-2.24-67.141.352-24.616,3.465-52.253,23.879-70.583,11.622-10.434,25.548-18.091,39.017-25.494,13.657-7.506,27.779-15.269,39.649-25.975,15.013-13.543,29.174-28.507,42.867-42.978,15.262-16.129,31.044-32.807,48.008-47.505,29.309-25.391,63.36-46.092,96.291-66.111,17.826-10.836,36.256-22.041,53.638-33.817,65.877-44.637,125.568-95.156,184.974-147.741V57.326c-59.644,52.817-119.544,103.566-185.664,148.367" transform="translate(-4.388 17.83)" fill="#b8b8b8"/>
          <path id="Caminho_1729" data-name="Caminho 1729" d="M1055.633,213.667c-13.759,9.583-28.338,18.964-42.437,28.036-34.614,22.274-70.408,45.3-99.432,74.5-10.362,10.426-20.5,21.3-30.3,31.818-16.7,17.913-33.963,36.433-52.741,53.149-11.935,10.621-25.632,19.094-38.877,27.288-13.307,8.231-27.066,16.743-38.99,27.416-22.113,19.79-26.174,48.316-27.23,73.61-.927,22.205-.231,44.778.443,66.608.685,22.172,1.392,45.1.4,67.642-1.021,23.168-3.327,53.284-12.158,80.766-6.89,21.444-19.76,44.312-38.248,67.97-39.629,50.707-97.088,87.156-153.277,118.99-90.063,51.023-188.508,81.817-272.929,105.208-77.123,21.368-156.38,39.73-233.027,57.489L0,1098.061v1.271l17.1-3.964c76.658-17.76,155.927-36.125,233.076-57.5,84.5-23.412,183.028-54.233,273.208-105.322,56.3-31.9,113.881-68.429,153.643-119.3,18.578-23.774,31.516-46.77,38.451-68.355,8.876-27.621,11.192-57.846,12.217-81.091,1-22.589.289-45.541-.4-67.735-.672-21.808-1.368-44.357-.443-66.516,1.045-25.036,5.05-53.256,26.818-72.74,11.842-10.6,25.555-19.082,38.817-27.285,13.29-8.222,27.032-16.722,39.048-27.416,18.821-16.753,36.106-35.3,52.822-53.228,9.8-10.51,19.929-21.378,30.276-31.79,28.93-29.1,64.665-52.1,99.225-74.336,14.108-9.078,28.7-18.466,42.475-28.062,64.438-44.88,125.69-95.647,185.01-145.863V67.2c-59.547,50.418-121.033,101.417-185.715,146.467" transform="translate(-4.388 21.732)" fill="#b8b8b8"/>
          <path id="Caminho_1730" data-name="Caminho 1730" d="M1240.886,78.007c-60.372,49.029-122.8,99.726-187.173,145.8-9.935,7.111-20.324,14.224-30.37,21.1-36.005,24.65-73.238,50.141-101.755,83.4-28.425,33.159-51.8,57.3-75.777,78.286-11.122,9.731-26.092,22.289-43.293,33.11q-1.836,1.155-3.682,2.308c-10.455,6.541-21.264,13.3-30.492,21.788-22.811,20.975-27.786,50.953-29.57,74.725-1.657,22.059-1.66,44.538-1.663,66.279,0,21.659-.007,44.055-1.646,66.022-4.331,58.036-22.284,106.687-54.883,148.732-41.448,53.457-99.689,90-156.451,121.537-90.084,50.042-188.274,81.365-263.753,103.061-72.427,20.82-146.866,38.913-218.856,56.411Q20.9,1105.584,0,1110.688v1.275q21.023-5.144,41.813-10.187c72-17.5,146.453-35.6,218.9-56.423,75.542-21.714,173.817-53.065,264.011-103.168,56.877-31.6,115.242-68.228,156.827-121.861,32.753-42.243,50.79-91.113,55.141-149.4,1.643-22.013,1.646-44.433,1.649-66.114,0-21.717.006-44.174,1.66-66.185,1.768-23.545,6.683-53.224,29.174-73.9,9.142-8.407,19.9-15.14,30.311-21.65q1.845-1.155,3.684-2.309c17.274-10.868,32.293-23.467,43.449-33.227,24.029-21.022,47.438-45.2,75.9-78.41,28.411-33.141,65.574-58.584,101.514-83.191,10.051-6.881,20.446-14,30.393-21.116,64.294-46.017,126.63-96.631,186.918-145.591V77.632l-.462.375" transform="translate(-4.388 25.854)" fill="#b8b8b8"/>
          <path id="Caminho_1731" data-name="Caminho 1731" d="M1201.871,119.56c-47.635,37.378-96.893,76.028-146.425,112.655q-6.047,4.474-12.1,8.917c-39.258,28.883-79.853,58.749-111.987,97.49-24.924,30.05-47.376,53.354-70.658,73.337-12.646,10.857-25.723,22.083-39.684,31.482-2.5,1.68-5.058,3.368-7.534,5-9.715,6.4-19.761,13.011-28.561,21-19.225,17.449-29.61,41.174-33.672,76.928-2.5,22.032-3.313,44.549-4.1,66.325-.794,22.083-1.616,44.916-4.2,67.244-6.321,54.53-26.122,103.731-58.851,146.234-42.807,55.589-102.12,92.914-154.5,122.1-143.6,80-306.458,120.695-463.958,160.047-21.69,5.42-43.641,10.909-65.651,16.523v1.279c22.11-5.643,44.16-11.156,65.95-16.6,157.579-39.372,320.522-80.085,464.259-160.167,52.485-29.243,111.93-66.653,154.873-122.422,32.868-42.684,52.754-92.091,59.1-146.848,2.594-22.376,3.416-45.235,4.212-67.342.782-21.752,1.591-44.245,4.089-66.23,4.026-35.43,14.287-58.916,33.274-76.151,8.728-7.923,18.733-14.511,28.408-20.883,2.479-1.632,5.044-3.319,7.547-5,14.02-9.438,27.125-20.688,39.8-31.568,23.334-20.03,45.833-43.381,70.8-73.486,32.036-38.622,72.57-68.444,111.767-97.284q6.047-4.449,12.1-8.917c49.545-36.638,98.809-75.3,146.452-112.678,12.727-9.985,25.69-20.157,38.717-30.335v-1.57c-13.283,10.377-26.5,20.748-39.478,30.928" transform="translate(-4.388 30.201)" fill="#b8b8b8"/>
          <path id="Caminho_1732" data-name="Caminho 1732" d="M1127.319,187.51c-22.98,17.738-46.743,36.08-70.187,54.014l-5.506,4.208c-22.056,16.851-44.862,34.274-65.727,53.244-16.248,14.771-29.484,31.033-43.5,48.249l-3.089,3.793c-22.175,27.2-42.308,48.132-63.361,65.873-10.872,9.163-22.707,17.628-34.151,25.815-13.975,9.995-28.426,20.332-41.25,32.026-19.384,17.678-31.057,41.262-36.732,74.221-4.037,23.444-5.852,47.564-7.607,70.888-1.552,20.626-3.157,41.954-6.293,62.729-16.527,109.476-86.879,200.107-209.1,269.376-139.158,78.867-295.724,121.1-447.134,161.948C62.8,1122.227,31.4,1130.7,0,1139.521v1.286c31.5-8.854,63.01-17.356,94-25.717,75.685-20.417,153.945-41.529,229.151-66.986,84.389-28.566,155.786-59.666,218.27-95.079,56.7-32.133,102.87-69.464,137.232-110.955,39.3-47.455,63.689-101.056,72.483-159.314,3.145-20.821,4.751-42.173,6.3-62.823,1.752-23.3,3.566-47.384,7.593-70.77,5.627-32.673,17.176-56.033,36.346-73.516,12.77-11.645,27.189-21.96,41.135-31.934,11.465-8.2,23.319-16.681,34.231-25.875,21.112-17.793,41.3-38.776,63.522-66.037l3.089-3.794c13.982-17.179,27.189-33.407,43.367-48.115,20.829-18.935,43.613-36.341,65.647-53.175l5.506-4.209c23.446-17.935,47.21-36.279,70.191-54.017,37.06-28.606,75.075-57.95,113.278-86.753v-1.549c-38.458,28.986-76.73,58.526-114.031,87.319" transform="translate(-4.388 34.769)" fill="#b8b8b8"/>
          <path id="Caminho_1733" data-name="Caminho 1733" d="M1056.6,253.513c-19.291,15.344-43.3,34.44-64,55.209-12.221,12.259-22.955,26.09-33.336,39.465-3.323,4.28-6.757,8.707-10.193,13.018-20.583,25.837-39.447,45.48-59.366,61.814-10.364,8.5-21.5,16.457-32.264,24.152-13.43,9.6-27.315,19.521-39.864,30.606-42.716,37.734-48.848,96.748-54.78,153.818-2.165,20.835-4.211,40.513-7.973,58.95C732.307,800.808,661.473,891.364,544.281,959.7c-130.156,75.893-276.754,118.231-418.526,159.174C84.32,1130.842,41.995,1143.069,0,1156.156v1.3c42.1-13.127,84.548-25.388,126.095-37.388C267.94,1079.1,414.614,1036.742,544.9,960.771c55.035-32.092,100.568-69.877,135.337-112.308,38.531-47.024,64.029-100.072,75.786-157.669,3.775-18.5,5.824-38.2,7.992-59.068,5.907-56.835,12.014-115.6,54.369-153.018,12.5-11.043,26.36-20.948,39.763-30.528,10.784-7.706,21.934-15.675,32.33-24.2,19.988-16.392,38.91-36.093,59.55-62,3.44-4.319,6.878-8.748,10.2-13.032C970.588,335.6,981.3,321.8,993.464,309.6c20.656-20.721,44.632-39.792,63.9-55.115,65.938-52.444,126.528-98.775,183.986-140.672V112.28c-57.687,42.045-118.524,88.557-184.753,141.233" transform="translate(-4.388 39.546)" fill="#b8b8b8"/>
          <path id="Caminho_1734" data-name="Caminho 1734" d="M1062.794,261.043c-23.91,19.682-46.981,39.214-66.423,61.75-8.607,9.975-16.612,20.746-24.354,31.161-4.182,5.627-8.507,11.445-12.868,17.059-19.155,24.657-36.86,43.122-55.72,58.109-9.771,7.766-20.225,15.03-30.334,22.056-13.912,9.669-28.3,19.665-41.159,31.139-43.31,38.635-52.632,97.039-61.647,153.521-3.118,19.527-6.061,37.972-10.343,55.7-13.619,56.394-35.858,105.9-66.1,147.134-34.879,47.565-82.862,89.564-146.694,128.4-121.047,73.645-258.146,116.219-390.732,157.389C104.827,1140.484,51.864,1156.94,0,1175.179v1.313c51.975-18.288,105.067-34.786,156.786-50.845,132.657-41.194,269.832-83.788,391.009-157.513,63.971-38.921,112.071-81.027,147.047-128.724,30.338-41.371,52.646-91.023,66.3-147.578,4.295-17.779,7.242-36.248,10.362-55.8,8.981-56.267,18.268-114.45,61.249-152.792,12.805-11.422,27.16-21.4,41.041-31.045,10.124-7.037,20.595-14.313,30.4-22.1,18.939-15.051,36.71-33.583,55.926-58.319,4.37-5.625,8.7-11.449,12.884-17.08,7.729-10.4,15.722-21.149,24.3-31.091,19.379-22.462,42.406-41.957,66.273-61.6,55.348-45.563,113.86-90.179,177.771-135.526v-1.517c-64.213,45.538-122.978,90.336-178.554,136.086" transform="translate(-4.388 44.556)" fill="#b8b8b8"/>
          <path id="Caminho_1735" data-name="Caminho 1735" d="M31.263,1181.849c46.784-17.516,94.369-33.557,140.826-49.206,125.529-42.289,255.33-86.016,369.395-158.982,61.624-39.423,108.464-81.634,143.192-129.046,30.786-42.031,54.182-92.357,69.538-149.583,4.237-15.79,7.862-32.516,11.37-48.691,13.017-60.052,26.476-122.148,74.827-163.022,11.679-9.874,24.689-18.48,37.269-26.8,9.966-6.595,20.271-13.413,29.876-20.831,17.995-13.9,34.162-30.893,52.417-55.1,4.776-6.33,9.521-12.851,14.111-19.157,6.824-9.377,13.883-19.073,21.172-28.33,17.631-22.388,38.812-41.632,59.076-59.092,57.009-49.125,117.177-93.444,175.9-134.37V138.13c-58.977,41.081-119.43,85.584-176.707,134.938-20.312,17.5-41.545,36.795-59.242,59.265-7.3,9.274-14.367,18.98-21.2,28.368-4.586,6.3-9.329,12.817-14.1,19.139C940.8,403.952,924.707,420.871,906.8,434.7c-9.568,7.392-19.854,14.2-29.8,20.78-12.611,8.343-25.65,16.971-37.385,26.89-48.672,41.146-62.178,103.452-75.239,163.706-3.5,16.162-7.125,32.872-11.354,48.633-15.315,57.078-38.646,107.264-69.341,149.171-34.637,47.286-81.367,89.4-142.862,128.733C426.884,1045.5,297.155,1089.2,171.7,1131.468c-47.493,16-96.165,32.4-143.961,50.381Z" transform="translate(6.725 49.761)" fill="#b8b8b8"/>
          <path id="Caminho_1736" data-name="Caminho 1736" d="M80.358,1176.541c31.788-12.3,63.683-24.054,95.047-35.606,119.3-43.945,242.672-89.385,350.779-162,59.259-39.8,104.849-82.068,139.378-129.215,29.855-40.765,53.731-89.578,70.964-145.079,4.837-15.583,9.026-31.607,13.461-48.574C766.71,592.1,784,525.943,836.759,485.7c10.722-8.178,22.311-15.537,33.518-22.652,10.662-6.771,21.689-13.772,31.974-21.48,16.293-12.213,31.275-27.9,47.151-49.382q4.534-6.134,9.007-12.236c24.741-33.683,48.109-65.5,79.125-93.646,52.7-47.826,110.186-90.044,172.983-133.238v-1.5c-63.109,43.391-120.862,85.772-173.81,133.823-31.108,28.231-54.513,60.1-79.292,93.83q-4.477,6.1-9,12.233c-15.8,21.378-30.7,36.989-46.9,49.127-10.248,7.68-21.253,14.669-31.9,21.426-11.228,7.131-22.84,14.5-33.6,22.713-53.094,40.5-70.442,106.861-87.217,171.04-4.432,16.953-8.617,32.964-13.447,48.518-17.192,55.371-41.006,104.06-70.779,144.716-34.444,47.028-79.933,89.2-139.07,128.917-107.985,72.529-231.282,117.944-350.519,161.864-32.345,11.913-65.255,24.042-98.033,36.768Z" transform="translate(26.445 55.07)" fill="#b8b8b8"/>
          <path id="Caminho_1737" data-name="Caminho 1737" d="M126.45,1171.134q25.246-10.372,50.228-20.45c113.416-45.953,230.69-93.469,333.567-165.644,59.424-41.689,105.315-85.715,140.3-134.59,29.531-41.259,53.244-89.186,72.492-146.52,4.2-12.5,8.081-25.134,12.2-38.514,20.705-67.346,42.117-136.984,100.545-177.43,9.249-6.4,19.015-12.393,28.458-18.186,11.526-7.071,23.444-14.381,34.537-22.51,15.355-11.249,29.023-25.819,44.317-47.24q4.639-6.5,9.218-12.974c24.011-33.87,46.689-65.863,76.867-94.063,50.033-46.755,106.153-87.625,162.81-126.268v-1.5c-56.933,38.809-113.354,79.858-163.652,126.86-30.269,28.287-52.983,60.328-77.031,94.252q-4.587,6.473-9.215,12.971c-15.216,21.31-28.8,35.793-44.043,46.961-11.053,8.1-22.949,15.4-34.453,22.452-9.458,5.8-19.239,11.8-28.516,18.224-26.31,18.212-47.543,44.19-64.913,79.42-15.341,31.111-25.9,65.453-36.11,98.665-4.111,13.373-8,26-12.185,38.483C702.654,760.749,679,808.569,649.539,849.727c-34.9,48.76-80.694,92.689-140,134.3-102.759,72.092-219.969,119.582-333.321,165.51-17.538,7.106-35.255,14.287-53.024,21.6Z" transform="translate(44.976 60.476)" fill="#b8b8b8"/>
          <path id="Caminho_1738" data-name="Caminho 1738" d="M168.522,1165.622l7.787-3.485c108.5-48.569,220.706-98.789,319.47-171.113,57.149-41.848,101.9-85.607,136.8-133.778,29.764-41.077,54.766-89.328,76.433-147.512,4.1-11.011,8.138-22.413,12.042-33.439,24.779-69.988,50.4-142.36,114.849-185.193,8.824-5.864,18.141-11.309,27.15-16.576,10.558-6.171,21.474-12.551,31.684-19.655,14.951-10.4,27.919-24.06,42.048-44.284,4.506-6.45,9.016-13.028,13.38-19.39,20.334-29.65,41.359-60.31,67.715-86.336,47.309-46.716,101.828-86.651,157.153-124.168v-1.5c-55.61,37.686-110.441,77.8-158.019,124.782-26.44,26.109-47.5,56.818-67.866,86.516-4.362,6.361-8.871,12.936-13.375,19.383-14.041,20.1-26.913,33.661-41.739,43.976-10.169,7.076-21.065,13.445-31.6,19.6-9.023,5.275-18.355,10.729-27.209,16.614-64.793,43.06-90.485,115.63-115.332,185.811-3.9,11.022-7.936,22.419-12.034,33.421-21.628,58.077-46.578,106.231-76.276,147.217-34.829,48.065-79.489,91.735-136.532,133.506-98.659,72.246-210.8,122.44-319.246,170.982q-5.146,2.3-10.312,4.617Z" transform="translate(61.926 65.989)" fill="#b8b8b8"/>
          <path id="Caminho_1739" data-name="Caminho 1739" d="M208.252,1159.989c27.8-13.61,55.82-27.585,83.184-42.091,72.123-38.229,137.522-79.875,194.38-123.78,53.242-41.113,95.662-83.651,129.681-130.045,29.916-40.8,56.213-89.36,80.391-148.443,3.93-9.6,7.833-19.44,11.606-28.954,28.289-71.313,57.538-145.054,125.641-189.44,9.2-6,18.968-11.439,28.416-16.7,10.739-5.985,21.844-12.174,32.181-19.21,17.958-12.223,30.324-28.633,40.051-43.074,3.8-5.643,7.627-11.4,11.325-16.969,19.23-28.95,39.116-58.886,63.679-84.671,44.2-46.4,96.61-85.344,150.24-121.663v-1.5c-53.927,36.491-106.663,75.622-151.133,122.3-24.638,25.862-44.554,55.844-63.814,84.84-3.7,5.565-7.52,11.322-11.321,16.962C923.1,431.9,910.826,448.192,893.04,460.3c-10.292,7.005-21.372,13.18-32.088,19.151-9.466,5.277-19.254,10.73-28.489,16.75-30.7,20.009-56.2,47.673-77.952,84.574-19.368,32.852-34.007,69.755-48.164,105.447-3.773,9.511-7.674,19.345-11.6,28.941-24.14,58.988-50.388,107.457-80.245,148.178-33.948,46.3-76.288,88.758-129.437,129.8-56.8,43.863-122.144,85.469-194.2,123.666-28.1,14.893-56.884,29.23-85.425,43.186Z" transform="translate(77.932 71.621)" fill="#b8b8b8"/>
          <path id="Caminho_1740" data-name="Caminho 1740" d="M242.266,1154.231c17.442-9.7,34.794-19.615,51.854-29.82C358.4,1085.958,417.887,1045,470.944,1002.687,526,958.772,569.96,913.614,605.331,864.634c28.4-39.332,53.74-84.769,79.744-142.991,4.862-10.891,9.615-22.052,14.209-32.846,15.346-36.046,31.213-73.316,53.78-106.355,23.458-34.348,49.689-59.932,82.547-80.515,8.778-5.5,18.111-10.446,27.135-15.23,10.773-5.71,21.913-11.616,32.207-18.508,16.681-11.167,27.944-26.348,36.762-39.724,3.716-5.637,7.449-11.371,11.059-16.916,18.407-28.27,37.44-57.5,60.523-83.435,40.723-45.747,90.5-83.6,142-118.6v-1.5c-51.812,35.172-101.921,73.217-142.917,119.269-23.147,26-42.2,55.275-60.635,83.583-3.61,5.544-7.343,11.279-11.056,16.911-8.75,13.274-19.92,28.333-36.417,39.377-10.243,6.859-21.354,12.748-32.1,18.444-9.044,4.794-18.4,9.752-27.212,15.274-33.008,20.676-59.354,46.371-82.914,80.865-22.636,33.139-38.525,70.468-53.9,106.568-4.594,10.789-9.343,21.946-14.2,32.827-25.968,58.142-51.268,103.509-79.618,142.769-35.3,48.889-79.184,93.967-134.153,137.812-53.014,42.282-112.46,83.2-176.689,121.629-17.684,10.579-35.685,20.848-53.773,30.885Z" transform="translate(91.668 77.379)" fill="#b8b8b8"/>
          <path id="Caminho_1741" data-name="Caminho 1741" d="M271.341,1148.187q12.955-8.419,25.685-17.124c68.041-46.653,121.071-86.234,166.885-124.563,52.371-43.814,94.816-88.444,129.756-136.443,28.66-39.37,54.755-84.523,84.613-146.4,4.67-9.68,9.308-19.683,13.793-29.357,16.675-35.965,33.918-73.153,57.809-104.949C775.994,554.6,805.8,527.495,841,506.49c8.146-4.861,16.788-9.233,25.144-13.461,10.269-5.193,20.886-10.564,30.705-16.9,16.517-10.662,27.307-25.364,35.682-38.341,3.8-5.893,7.619-11.885,11.307-17.68,17.6-27.648,35.8-56.238,57.89-81.833,37.783-43.776,83.749-80.12,131.8-113.456v-1.5c-48.374,33.516-94.68,70.058-132.734,114.15-22.151,25.664-40.374,54.292-58,81.977-3.687,5.793-7.5,11.782-11.3,17.673-8.3,12.866-18.994,27.439-35.313,37.972-9.766,6.3-20.352,11.658-30.593,16.838-8.375,4.236-17.035,8.618-25.22,13.5-35.34,21.087-65.259,48.294-91.471,83.174-23.97,31.9-41.24,69.15-57.942,105.173-4.484,9.668-9.119,19.668-13.786,29.339-29.823,61.813-55.883,106.906-84.5,146.215-34.881,47.916-77.256,92.473-129.549,136.221-45.784,38.3-98.784,77.862-166.791,124.491q-13.485,9.246-27.257,18.148Z" transform="translate(103.433 83.423)" fill="#b8b8b8"/>
          <path id="Caminho_1742" data-name="Caminho 1742" d="M295.157,1141.938q2.849-2.273,5.677-4.571c19.646-15.987,39.955-31.836,59.6-47.164,32.836-25.622,66.787-52.118,98.663-80.06,49.871-43.715,90.849-87.766,125.278-134.669C619.7,827.344,648.7,774.425,672.4,729.008c3.943-7.555,7.921-15.326,11.769-22.84,20.123-39.306,40.93-79.951,68.951-114.243a337.7,337.7,0,0,1,91.6-78.1c8.379-4.894,17.275-9.232,25.88-13.427,10.116-4.933,20.576-10.034,30.285-16.078,16.893-10.517,27.616-25.438,36.689-40q3.576-5.736,7.118-11.463c19.333-31.188,37.594-60.645,61.134-88.128,34.152-39.872,75.015-73.426,118.048-104.092v-1.517c-43.36,30.85-84.561,64.612-118.985,104.8-23.6,27.556-41.887,57.053-61.245,88.282q-3.549,5.722-7.117,11.46c-8.994,14.432-19.616,29.218-36.294,39.6-9.654,6.01-20.085,11.1-30.174,16.017-8.623,4.206-17.54,8.554-25.959,13.47a338.916,338.916,0,0,0-91.932,78.383c-28.1,34.392-48.942,75.1-69.094,114.461-3.846,7.513-7.824,15.281-11.765,22.832-23.683,45.376-52.65,98.242-87.931,146.308-34.375,46.829-75.294,90.814-125.1,134.47-31.848,27.917-65.787,54.4-98.609,80.016-19.645,15.33-39.96,31.183-59.616,47.179q-3.425,2.788-6.887,5.532Z" transform="translate(113.088 89.672)" fill="#b8b8b8"/>
          <path id="Caminho_1743" data-name="Caminho 1743" d="M314.312,1135.494c21.186-18.868,43.169-37.217,64.515-55.032,25.759-21.5,52.394-43.726,77.555-66.812C504.865,969.167,545.188,924.7,579.656,877.7c34.049-46.425,62.7-96.215,89.133-143.235,47.787-85.009,97.725-165.306,182.806-213.515,8.156-4.621,16.831-8.7,25.221-12.649,10.7-5.037,21.771-10.243,31.915-16.64,15.932-10.045,26.073-24.382,34.656-38.377q4.009-6.536,7.974-13.059c19.371-31.8,37.668-61.835,61.479-89.829,30.129-35.42,65.656-65.73,103.3-93.43v-1.533c-37.98,27.889-73.841,58.42-104.24,94.16-23.875,28.068-42.2,58.145-61.595,89.987q-3.971,6.519-7.97,13.055c-8.508,13.869-18.545,28.068-34.263,37.978-10.079,6.356-21.113,11.548-31.784,16.568-8.41,3.957-17.107,8.047-25.3,12.692-85.358,48.365-135.4,128.817-183.275,213.985C641.3,780.844,612.67,830.6,578.662,876.967c-34.42,46.931-74.69,91.34-123.113,135.769-25.14,23.066-51.763,45.284-77.51,66.773-21.7,18.112-44.058,36.779-65.577,55.985Z" transform="translate(120.819 96.116)" fill="#b8b8b8"/>
          <path id="Caminho_1744" data-name="Caminho 1744" d="M331.908,1128.812c19.3-18.318,39.212-36.05,58.662-53.365,20.159-17.946,41-36.5,60.857-55.442,48.666-46.427,89.419-92.255,124.585-140.107,32.043-43.6,60.456-90.629,87.935-136.107l4.23-7c48.463-80.169,105.09-160.856,190.545-208.014,8.067-4.452,16.626-8.385,24.9-12.19,10.645-4.89,21.651-9.948,31.768-16.176,16.346-10.062,26.848-25.054,34.962-38.392,3.446-5.663,6.9-11.417,10.249-16.981,17.666-29.392,35.932-59.784,58.588-86.994,26.289-31.575,57.051-59.021,89.875-84.142v-1.557c-33.166,25.325-64.263,53.005-90.824,84.906-22.715,27.284-41.007,57.717-58.7,87.148-3.344,5.563-6.8,11.315-10.245,16.975-8.039,13.212-18.431,28.057-34.554,37.982-10.053,6.189-21.025,11.23-31.637,16.106-8.3,3.813-16.879,7.756-24.985,12.23-85.708,47.3-142.452,128.14-191,208.456l-4.232,7c-27.464,45.456-55.865,92.459-87.872,136.015-35.123,47.791-75.829,93.568-124.442,139.945-19.838,18.924-40.675,37.474-60.826,55.413-19.775,17.6-40.028,35.641-59.637,54.292Z" transform="translate(127.893 102.798)" fill="#b8b8b8"/>
          <path id="Caminho_1745" data-name="Caminho 1745" d="M348.559,1121.875c17.307-17.373,35.033-34.261,52.41-50.811,15.93-15.172,32.4-30.858,48.253-46.639,47.424-47.214,87.526-93.158,122.6-140.456,27.586-37.2,53.039-76.756,77.656-115.01,5.746-8.929,11.688-18.164,17.565-27.224C712.1,672.275,775.368,586.285,865.5,537.467c8.044-4.357,16.572-8.218,24.818-11.951,10.973-4.968,22.322-10.1,32.726-16.5,16.659-10.232,27.293-25.506,35.5-39.1,3.842-6.366,7.689-12.838,11.409-19.1,17.372-29.226,35.334-59.448,57.561-86.6,22.012-26.895,47.507-50.758,74.87-72.737V289.9c-27.712,22.2-53.541,46.308-75.823,73.534s-40.272,57.491-57.667,86.757c-3.719,6.256-7.564,12.725-11.4,19.089-8.128,13.465-18.652,28.591-35.085,38.685-10.339,6.351-21.651,11.471-32.59,16.424-8.266,3.742-16.813,7.611-24.895,11.989-90.375,48.952-153.77,135.1-198.9,204.683-5.877,9.063-11.821,18.3-17.568,27.228-24.6,38.237-50.047,77.775-77.609,114.944-35.035,47.247-75.1,93.145-122.477,140.315-15.841,15.771-32.307,31.454-48.232,46.62-17.677,16.835-35.713,34.018-53.307,51.71Z" transform="translate(134.584 109.735)" fill="#b8b8b8"/>
          <path id="Caminho_1746" data-name="Caminho 1746" d="M364.537,1114.11c16.811-17.851,33.873-35.319,50.643-52.478,10.69-10.941,21.746-22.254,32.551-33.48,46.362-48.16,85.837-94.181,120.68-140.69,23.316-31.123,45.51-63.809,66.975-95.418,10.227-15.061,20.8-30.634,31.363-45.84,67.964-97.85,133.215-161.384,205.35-199.947,8.065-4.312,16.6-8.158,24.851-11.877,11.41-5.144,23.208-10.461,34.011-17.112,17.143-10.554,28.07-26.29,36.5-40.291,5.075-8.431,10.094-17.087,14.947-25.455,16.32-28.145,33.2-57.248,54.923-82.477a542.72,542.72,0,0,1,58.624-57.876V309.55a545.173,545.173,0,0,0-59.558,58.686c-21.8,25.317-38.709,54.47-55.056,82.664-4.851,8.365-9.867,17.015-14.937,25.438-8.351,13.874-19.169,29.46-36.087,39.875-10.735,6.609-22.5,11.911-33.871,17.038-8.273,3.728-16.824,7.583-24.927,11.913-39.144,20.928-77.649,50.523-114.44,87.967-30.522,31.061-60.4,67.815-91.342,112.365-10.565,15.211-21.142,30.787-31.37,45.849-21.456,31.6-43.643,64.272-66.943,95.372-34.812,46.469-74.253,92.451-120.58,140.576-10.8,11.22-21.855,22.533-32.546,33.471-17.04,17.437-34.382,35.192-51.458,53.346Z" transform="translate(141.006 117.5)" fill="#b8b8b8"/>
          <path id="Caminho_1747" data-name="Caminho 1747" d="M379.528,1105.921c21.006-23.7,43.209-47.888,67.6-74.322,45.62-49.442,84.488-95.5,118.828-140.814,19.127-25.237,37.78-51.468,55.818-76.833,14.838-20.865,30.18-42.44,45.7-63.343,67.5-90.908,138.55-156.54,211.169-195.072,8.1-4.3,16.647-8.167,24.915-11.911,11.99-5.429,24.388-11.041,35.715-18.084,17.839-11.092,29.2-27.437,37.965-41.964,5.356-8.877,10.62-17.995,15.712-26.811,16.533-28.633,33.63-58.243,56.2-83.611a568.437,568.437,0,0,1,40.78-41.2v-1.685a571.348,571.348,0,0,0-41.7,42.06c-22.655,25.463-39.785,55.127-56.349,83.815-5.087,8.812-10.348,17.922-15.7,26.79-8.687,14.4-19.943,30.6-37.559,41.552-11.259,7-23.62,12.6-35.573,18.007-8.285,3.752-16.852,7.63-24.985,11.945-39.352,20.88-78.5,49.831-116.349,86.05-32.127,30.742-64.168,67.541-95.233,109.378-15.53,20.912-30.875,42.493-45.716,63.363-18.033,25.359-36.679,51.581-55.795,76.8-34.316,45.279-73.161,91.308-118.751,140.72-24.678,26.745-47.119,51.194-68.346,75.165Z" transform="translate(147.031 125.689)" fill="#b8b8b8"/>
          <path id="Caminho_1748" data-name="Caminho 1748" d="M393.647,1097.247c17.614-21.081,36.012-42.469,55.408-64.406,44.085-49.865,81.361-94.707,113.958-137.089,15.377-19.993,30.634-40.609,45.389-60.546,19.047-25.738,38.744-52.354,58.91-77.912,68.891-87.316,142.043-151.88,217.427-191.9,8.193-4.349,16.838-8.307,25.2-12.137,13.007-5.955,26.457-12.113,38.644-19.931,18.5-11.867,30.41-29.078,39.622-44.348,5.049-8.37,10.019-16.909,14.825-25.169,17.53-30.127,35.658-61.281,60.082-87.964q10.281-11.232,21.142-21.887v-1.737q-11.314,11.1-22.051,22.787c-24.515,26.78-42.677,57.993-60.24,88.176-4.8,8.255-9.77,16.791-14.814,25.152-9.138,15.149-20.946,32.216-39.231,43.945-12.115,7.772-25.524,13.911-38.492,19.85-8.378,3.835-17.041,7.8-25.266,12.167-39.923,21.194-79.832,49.777-118.619,84.956-33.981,30.821-67.356,66.911-99.2,107.267-20.179,25.573-39.88,52.2-58.933,77.944-14.751,19.931-30,40.544-45.375,60.528-32.581,42.359-69.838,87.18-113.9,137.023-19.646,22.224-38.269,43.881-56.093,65.228Z" transform="translate(152.706 134.363)" fill="#b8b8b8"/>
          <path id="Caminho_1749" data-name="Caminho 1749" d="M407.13,1088.037c13.56-17.124,27.527-34.282,41.937-51.275,33.9-39.977,73.708-87.441,111.883-136.357,11.321-14.5,22.694-29.367,33.693-43.738,24.37-31.846,49.568-64.776,75.823-95.953,67.773-80.475,143.9-144.5,220.143-185.15,8.354-4.455,17.126-8.558,25.612-12.526,13.339-6.238,27.132-12.688,39.733-20.7C976.677,529.169,989.8,510.36,999.9,493.7c4.748-7.831,9.43-15.785,13.955-23.478,18.837-32.009,36.63-62.244,61.85-89.543,1.035-1.12,2.086-2.225,3.129-3.337v-1.807c-1.349,1.43-2.7,2.857-4.034,4.3-25.311,27.4-43.136,57.687-62.008,89.757-4.524,7.689-9.2,15.638-13.947,23.464-10.03,16.54-23.049,35.207-43.557,48.242-12.534,7.966-26.29,14.4-39.594,20.622-8.5,3.973-17.287,8.084-25.669,12.554C813.648,615.194,737.4,679.32,669.524,759.914c-26.275,31.2-51.482,64.14-75.86,96-11,14.37-22.368,29.23-33.686,43.73-38.161,48.9-77.957,96.349-111.851,136.318-14.637,17.26-28.817,34.687-42.575,52.077Z" transform="translate(158.122 143.574)" fill="#b8b8b8"/>
          <path id="Caminho_1750" data-name="Caminho 1750" d="M420.051,1078.064q14.745-19.224,29.943-38c9.967-12.268,20.125-24.719,29.949-36.762,27.13-33.257,55.184-67.647,82.281-101.889,6.356-8.033,12.8-16.223,19.03-24.143,29.81-37.891,60.634-77.072,93.365-113.519,67.469-75.134,144.761-137.026,223.517-178.983,8.022-4.273,16.415-8.287,24.532-12.17,14.478-6.924,29.448-14.083,43.023-23.038,16.589-10.942,30.345-26.013,44.607-48.862,5.638-9.031,11.137-18.2,16.458-27.061,14.92-24.865,29.2-48.649,46.9-70.894v-1.974c-18.2,22.646-32.743,46.878-47.958,72.228-5.316,8.859-10.815,18.021-16.446,27.044-14.164,22.69-27.807,37.643-44.239,48.483-13.5,8.908-28.436,16.049-42.876,22.955-8.13,3.888-16.535,7.909-24.58,12.2C818.674,625.7,741.265,687.68,673.7,762.92,640.943,799.4,610.106,838.595,580.284,876.5c-6.229,7.92-12.672,16.109-19.029,24.141-27.09,34.233-55.14,68.62-82.268,101.875-9.823,12.043-19.983,24.5-29.951,36.764q-15.525,19.109-30.543,38.783Z" transform="translate(163.307 153.547)" fill="#b8b8b8"/>
          <path id="Caminho_1751" data-name="Caminho 1751" d="M433.017,1066.839q9.161-12.429,18.586-24.591c27.835-35.8,56.806-71.688,84.823-106.394,9.1-11.273,18.512-22.929,27.744-34.41l2.406-2.993c34.986-43.512,71.162-88.507,110.212-129.64A923.913,923.913,0,0,1,901.167,595.669c8.881-4.894,18.188-9.476,27.189-13.906,15.856-7.8,32.253-15.874,47.047-26.006,17.506-11.989,32.18-28.217,47.581-52.62,4.935-7.82,9.8-15.723,14.5-23.366,10.235-16.63,20.2-32.809,30.961-48.421v-2.178c-11.171,16.089-21.445,32.778-32.012,49.947-4.7,7.64-9.564,15.541-14.5,23.354-15.306,24.255-29.873,40.373-47.233,52.262-14.722,10.08-31.078,18.13-46.9,25.917-9.014,4.435-18.334,9.024-27.238,13.931A931.449,931.449,0,0,0,675.9,767.957c-39.087,41.17-75.28,86.184-110.281,129.716l-2.406,2.994c-9.232,11.479-18.642,23.136-27.743,34.409-28.02,34.709-56.995,70.6-84.837,106.411Q440.9,1054,431.48,1066.839Z" transform="translate(168.511 164.771)" fill="#b8b8b8"/>
          <path id="Caminho_1752" data-name="Caminho 1752" d="M445.9,1055.578q5.8-8.04,11.717-15.961c64.535-86.172,140.5-185.131,225.463-268.989C747.193,707.35,822.091,652,905.7,606.125c8.436-4.629,17.219-9.087,25.713-13.4,17.5-8.879,35.591-18.062,51.927-29.372,19.554-13.537,35.993-31.7,53.3-58.9,5.4-8.477,10.561-17.285,15.558-25.8,3.6-6.139,7.292-12.42,11.089-18.623v-2.363c-4.176,6.765-8.218,13.648-12.154,20.357-4.989,8.509-10.151,17.307-15.534,25.765-17.213,27.048-33.547,45.1-52.96,58.543-16.266,11.263-34.322,20.425-51.783,29.287-8.5,4.315-17.295,8.777-25.748,13.416-83.7,45.933-158.694,101.349-222.885,164.706-85.023,83.918-161.023,182.92-225.585,269.129q-6.2,8.275-12.252,16.7Z" transform="translate(173.68 176.033)" fill="#b8b8b8"/>
          <path id="Caminho_1753" data-name="Caminho 1753" d="M458.859,1042.91c.268-.375.532-.753.8-1.129C540.2,929.069,615.6,840.645,690.177,771.456c63.288-58.721,138.665-111.975,224.037-158.28,6.8-3.687,13.808-7.337,20.586-10.866,18.917-9.85,38.478-20.035,56.177-32.431,20.92-14.651,39.13-34.4,57.306-62.166,3.355-5.123,6.611-10.372,9.8-15.609v-2.377c-3.52,5.8-7.12,11.633-10.834,17.307-18.087,27.624-36.193,47.272-56.98,61.83-17.635,12.349-37.158,22.515-56.04,32.346-6.784,3.533-13.8,7.184-20.606,10.877-85.46,46.354-160.922,99.669-224.288,158.46C614.7,839.792,539.247,928.278,458.656,1041.06c-.44.614-.874,1.235-1.312,1.85Z" transform="translate(178.875 188.7)" fill="#b8b8b8"/>
          <path id="Caminho_1754" data-name="Caminho 1754" d="M471.958,1031.052C540.572,932.519,615.182,847.086,693.9,776.972c60.78-54.141,133.8-104.107,223.226-152.754,6.015-3.272,12.186-6.546,18.155-9.713,21.945-11.643,44.636-23.683,65.036-38.473,18.838-13.659,35.764-31.084,52.52-54.181v-2.116c-17,23.677-34.14,41.443-53.244,55.293-20.33,14.74-42.982,26.759-64.889,38.382-5.971,3.168-12.147,6.444-18.166,9.72-89.511,48.691-162.606,98.711-223.458,152.916C614.1,846.392,539.255,932.139,470.451,1031.052Z" transform="translate(184.127 200.558)" fill="#b8b8b8"/>
          <path id="Caminho_1755" data-name="Caminho 1755" d="M485.327,1020.646c63.3-90.629,137.507-172.96,215.787-239.223C774.748,719.1,857.688,670.9,921.72,635.875q6.933-3.792,13.917-7.552c24.749-13.378,50.342-27.211,73.232-44.277a247.544,247.544,0,0,0,38.608-36.092v-1.886a247.45,247.45,0,0,1-39.345,36.984c-22.819,17.011-48.371,30.823-73.081,44.179q-6.978,3.771-13.923,7.556c-64.083,35.052-147.093,83.289-220.811,145.687A1193.347,1193.347,0,0,0,575.929,903.031a1331.651,1331.651,0,0,0-92.115,117.615Z" transform="translate(189.482 210.964)" fill="#b8b8b8"/>
          <path id="Caminho_1756" data-name="Caminho 1756" d="M498.949,1011.278C557.9,927.648,629.61,850.96,708.294,787.672c67.692-54.444,142.716-97.369,220.053-140.167q3.622-2.007,7.254-4.008c27.594-15.23,56.127-30.98,81.55-50.409a271.463,271.463,0,0,0,24.87-21.583v-1.73A271.225,271.225,0,0,1,1016.4,592.1c-25.349,19.373-53.842,35.1-81.4,50.308q-3.631,2-7.256,4.008C850.364,689.246,775.29,732.2,707.522,786.705c-79,63.539-150.98,140.571-210.089,224.573Z" transform="translate(194.939 220.332)" fill="#b8b8b8"/>
          <path id="Caminho_1757" data-name="Caminho 1757" d="M513.168,1002.6a1002.3,1002.3,0,0,1,202.175-207.3c60.89-46.54,128.409-84.392,193.706-121q12.943-7.258,25.888-14.54c28.059-15.818,59.864-33.749,88.2-55.622q6.707-5.18,13.195-10.773v-1.635q-6.856,5.948-13.948,11.426c-28.261,21.819-60.025,39.726-88.049,55.525q-12.936,7.293-25.884,14.539c-65.335,36.626-132.893,74.5-193.852,121.093A1003.521,1003.521,0,0,0,511.644,1002.6Z" transform="translate(200.634 229.01)" fill="#b8b8b8"/>
          <path id="Caminho_1758" data-name="Caminho 1758" d="M528.074,994.376C580.746,924.242,645.7,860.161,718.925,806.471c53.086-38.922,111.137-71.417,167.276-102.843,17.006-9.519,34.592-19.364,51.8-29.251,30.7-17.642,63.125-37.15,92.378-60.259v-1.571l-.109.088c-29.36,23.284-61.993,42.918-92.883,60.666-17.2,9.885-34.785,19.728-51.789,29.244C829.427,733.989,771.342,766.5,718.2,805.471a934.8,934.8,0,0,0-129.346,114.54,882.278,882.278,0,0,0-62.37,74.365Z" transform="translate(206.579 237.234)" fill="#b8b8b8"/>
          <path id="Caminho_1759" data-name="Caminho 1759" d="M543.779,986.445C594.2,922.253,655.1,865.114,725.7,815.893c45.91-32.008,95.446-59.476,143.352-86.039,24.2-13.422,49.232-27.3,73.519-41.609a838.032,838.032,0,0,0,81.478-54.078v-1.549a834.7,834.7,0,0,1-82.1,54.558c-24.273,14.3-49.294,28.177-73.493,41.594-47.932,26.578-97.5,54.061-143.458,86.105A867.592,867.592,0,0,0,592.477,928.389q-26.579,27.963-50.19,58.056Z" transform="translate(212.913 245.166)" fill="#b8b8b8"/>
          <path id="Caminho_1760" data-name="Caminho 1760" d="M560.723,978.622C608.1,921.73,664.374,871.354,728.961,828.141c40.871-27.345,84.6-51.268,126.886-74.4,30.883-16.9,62.816-34.364,93.416-53.044a787.453,787.453,0,0,0,68.042-46.725v-1.556a787.3,787.3,0,0,1-68.684,47.222c-30.575,18.664-62.5,36.128-93.366,53.016-42.311,23.147-86.064,47.083-126.98,74.459-64.987,43.48-121.573,94.2-169.167,151.512Z" transform="translate(219.654 252.988)" fill="#b8b8b8"/>
          <path id="Caminho_1761" data-name="Caminho 1761" d="M577.057,970.616c9.236-10.532,18.718-20.556,28.524-30.177,37.189-36.485,79.846-69.884,130.411-102.107,35.882-22.864,73.938-43.348,110.742-63.158,35.7-19.219,72.624-39.091,107.526-61.12,18.837-11.888,37.539-25.064,56.512-39.818v-1.564c-19.2,14.969-38.116,28.308-57.169,40.333-34.867,22.006-71.767,41.869-107.453,61.078-36.823,19.82-74.9,40.315-110.819,63.2-50.639,32.269-93.362,65.719-130.612,102.266-10.081,9.89-19.819,20.21-29.3,31.063Z" transform="translate(226.189 260.994)" fill="#b8b8b8"/>
          <path id="Caminho_1762" data-name="Caminho 1762" d="M595.207,962.447q7.282-7.643,14.771-14.814C644.49,914.6,686.79,882.91,739.3,850.757c32.281-19.765,66.331-37.788,99.259-55.218,40.919-21.66,83.23-44.057,122.539-70q21.979-14.507,42.429-30.613v-1.578Q982.7,709.7,960.418,724.5c-39.259,25.914-81.544,48.3-122.436,69.942-32.945,17.438-67.013,35.469-99.326,55.255-52.584,32.2-94.954,63.94-129.53,97.038q-7.94,7.6-15.622,15.71Z" transform="translate(233.436 269.163)" fill="#b8b8b8"/>
          <path id="Caminho_1763" data-name="Caminho 1763" d="M614.97,954.173c34.621-31.624,76.8-61.534,132.618-94.04,27.614-16.081,56.5-31.118,84.443-45.66,44.226-23.019,89.959-46.82,131.852-75.393Q980.125,728,995.658,715.848v-1.564q-15.882,12.412-32.469,23.771c-41.832,28.533-87.532,52.317-131.726,75.319-27.953,14.549-56.856,29.591-84.5,45.688-56.408,32.851-98.921,63.059-133.786,95.067-.016.015-.031.031-.048.045Z" transform="translate(241.302 277.437)" fill="#b8b8b8"/>
          <path id="Caminho_1764" data-name="Caminho 1764" d="M637.454,945.856c35.127-28.4,74.508-51.815,112.29-73.014,24.521-13.761,50.061-26.842,74.762-39.492,49.016-25.1,99.7-51.06,145.2-83.718q8.5-6.1,16.995-12.73V735.33q-8.869,6.946-17.713,13.294c-45.422,32.6-96.065,58.54-145.04,83.622-24.711,12.656-50.262,25.742-74.8,39.512-38.256,21.468-78.151,45.21-113.648,74.1Z" transform="translate(250.262 285.754)" fill="#b8b8b8"/>
          <path id="Caminho_1765" data-name="Caminho 1765" d="M663.413,937.456c31.066-21.664,64.28-39.492,92.659-54.718,19.969-10.714,40.623-21.134,60.6-31.21,53.637-27.059,109.1-55.038,157.838-91.958.622-.471,1.245-.949,1.867-1.426v-1.556q-1.3,1-2.612,1.992c-48.647,36.853-104.059,64.807-157.647,91.84-19.981,10.08-40.643,20.5-60.626,31.225-28.853,15.482-62.7,33.647-94.233,55.811Z" transform="translate(260.585 294.154)" fill="#b8b8b8"/>
          <path id="Caminho_1766" data-name="Caminho 1766" d="M694.035,929.044c20.228-11.952,41.047-22.77,61.549-33.42,16.874-8.766,34.256-17.4,51.064-25.758,53.535-26.6,108.777-54.06,157.568-90.444v-1.549c-48.885,36.594-104.36,64.169-158.115,90.884-16.814,8.356-34.2,17-51.084,25.766-21.133,10.976-42.6,22.127-63.417,34.521Z" transform="translate(272.744 302.566)" fill="#b8b8b8"/>
          <path id="Caminho_1767" data-name="Caminho 1767" d="M729.577,920.651c7.952-4.1,15.906-8.1,23.812-12.085,13.471-6.783,27.284-13.551,40.643-20.1,52.953-25.942,107.429-52.635,156.045-87.823v-1.532c-48.717,35.386-103.42,62.2-156.587,88.241-13.361,6.546-27.179,13.315-40.654,20.1-8.614,4.339-17.288,8.709-25.952,13.193Z" transform="translate(286.883 310.96)" fill="#b8b8b8"/>
          <path id="Caminho_1768" data-name="Caminho 1768" d="M768.936,912.289c3.463-1.674,6.913-3.34,10.315-4.982,52.572-25.374,106.531-51.423,155.115-85.524v-1.508c-48.69,34.289-102.873,60.441-155.65,85.916-4.159,2.006-8.383,4.046-12.623,6.1Z" transform="translate(302.595 319.321)" fill="#b8b8b8"/>
          <path id="Caminho_1769" data-name="Caminho 1769" d="M809.807,903.97c37.074-18.219,73.861-37.781,108.167-61.143v-1.5C882.832,865.333,845.045,885.332,807,903.97Z" transform="translate(318.987 327.64)" fill="#b8b8b8"/>
          <path id="Caminho_1770" data-name="Caminho 1770" d="M848.792,895.7c18.051-9.83,36-20.4,53.474-31.972v-1.484c-18.3,12.159-37.131,23.207-56.063,33.456Z" transform="translate(334.696 335.907)" fill="#b8b8b8"/>
        </g>
      </g>
    </g>
  </g>
</svg>
