<svg id="ig_instagram_insta_photo" data-name="ig instagram insta photo" xmlns="http://www.w3.org/2000/svg" width="18.861" height="18.943" viewBox="0 0 18.861 18.943">
  <path id="Caminho_131" data-name="Caminho 131" d="M18.063,12.564a.768.768,0,0,0-.438,1A3.072,3.072,0,1,1,15.851,11.8.768.768,0,1,0,16.4,10.36,4.6,4.6,0,1,0,19.062,13a.768.768,0,0,0-1-.438Z" transform="translate(-5.22 -5.158)" fill="#e53537"/>
  <ellipse id="Elipse_35" data-name="Elipse 35" cx="0.768" cy="0.768" rx="0.768" ry="0.768" transform="translate(14.033 3.32)" fill="#e53537"/>
  <path id="Caminho_132" data-name="Caminho 132" d="M22.372,7.766a3.841,3.841,0,0,0-3.765-3.841h0a59.231,59.231,0,0,0-10.83,0A3.841,3.841,0,0,0,3.937,7.7a70.6,70.6,0,0,0,0,10.814A3.841,3.841,0,0,0,7.7,22.359h0c1.813.169,3.633.261,5.454.261s3.618-.084,5.415-.261a3.841,3.841,0,0,0,3.8-3.779,66.891,66.891,0,0,0,0-10.815ZM20.836,18.519a2.3,2.3,0,0,1-2.3,2.3h-.077a55.1,55.1,0,0,1-10.677,0,2.3,2.3,0,0,1-2.3-2.366,70.97,70.97,0,0,1,0-10.692,2.3,2.3,0,0,1,2.373-2.3q2.642-.238,5.3-.246t5.384.246a2.3,2.3,0,0,1,2.3,2.366A65.387,65.387,0,0,1,20.836,18.519Z" transform="translate(-3.73 -3.677)" fill="#e53537"/>
</svg>
