<svg xmlns="http://www.w3.org/2000/svg" xmlns:xlink="http://www.w3.org/1999/xlink" width="768" height="295" viewBox="0 0 768 295">
  <defs>
    <clipPath id="clip-path">
      <rect id="Retângulo_577" data-name="Retângulo 577" width="768" height="291" fill="#1c1c3a"/>
    </clipPath>
    <linearGradient id="linear-gradient" x1="0.5" x2="0.5" y2="1" gradientUnits="objectBoundingBox">
      <stop offset="0" stop-color="#1a1a3a"/>
      <stop offset="1" stop-color="#3a3a63"/>
    </linearGradient>
  </defs>
  <g id="Grupo_4480" data-name="Grupo 4480" transform="translate(0 -1902)">
    <rect id="Retângulo_575" data-name="Retângulo 575" width="768" height="295" transform="translate(0 1902)" fill="#1c1c3a"/>
    <g id="Grupo_de_máscara_35" data-name="Grupo de máscara 35" transform="translate(0 1906)" clip-path="url(#clip-path)">
      <path id="União_6" data-name="União 6" d="M192.47,1119.561C73.774,995.915,0,827.536,0,655.669,0,492.616,46.839,354.64,126.427,247.386c33.422-45.023,69.384-82.924,109.4-114.6a144.01,144.01,0,0,1,15.265-12.4l.183-.127c72.161-51.329,174.3-94.953,198.679-94.985l3.47-.032c10.47.7,14.578,6.277,16.161,13.823C471.619,305.531,511.976,587.03,641.324,871c6.117,10.716,3.013,16.264-6.848,19.847C478.865,825.791,372.741,586.262,300.953,363.184c-6.9,9.2-13.843,18.961-20.952,29.311-47.691,69.432-75.874,157.283-75.874,263.174,0,113.659,50.887,228.681,132.574,313.805,77.274,80.5,182.092,134.044,297.349,134.044,39.17,0,106.309-15,122.135-18.515l.457-.127c3.044.127,9.343-.285,18.048,9.67l.061.222q27.665,37,56.913,71.366,31.409,36.951,64.826,71.238a13.577,13.577,0,0,1,2.648,4.026,13.333,13.333,0,0,1-6.391,17.342,608.182,608.182,0,0,1-258.7,57.384C462.336,1316.125,306.6,1238.419,192.47,1119.561Zm757.464,93.432q-32.6-33.622-63.761-70.351-28.807-33.86-55.909-69.907c-6.939-12.967-5.9-17.5,5.813-26.822a46.942,46.942,0,0,1,8.309-5.2c8.309-4.28,20.239-10.906,34.7-20.259,73.257-47.461,181.179-147.962,181.179-366.085,0-308.733-219.131-462.529-502.662-432.5-14.244,1.9-22.309,1.617-22.948-13.474-1.339-31.767-1.826-59.35-2.435-91.149l-.091-1.712h.061l-.274-18.642c-.091-3.773.091-7.482.213-11.223.183-3.329.3-6.721.274-9.289,0-12.079-1.339-24.095.152-34.843,1.826-12.872.609-22.383,17.8-29.8C563.258,6.214,620.567,0,631.889,0,835.1,0,991.843,70.573,1121.952,237.558c88.931,114.1,142.435,259.306,142.435,416.812,0,123.423-30.739,238.065-85.552,336-56.091,100.248-114.5,168.094-213.866,224.844a12.2,12.2,0,0,1-6.079,1.625A12.473,12.473,0,0,1,949.934,1212.992Z" transform="translate(-120.193 -309.808)" fill="url(#linear-gradient)"/>
    </g>
  </g>
</svg>
