<svg xmlns="http://www.w3.org/2000/svg" xmlns:xlink="http://www.w3.org/1999/xlink" width="1920" height="736" viewBox="0 0 1920 736">
  <defs>
    <clipPath id="clip-path">
      <rect id="Retângulo_566" data-name="Retângulo 566" width="1920" height="736" transform="translate(0 448)" fill="#1c1c3a"/>
    </clipPath>
    <clipPath id="clip-path-2">
      <path id="Caminho_1658" data-name="Caminho 1658" d="M434.071,25.487c-23.343.009-121.184,38.087-190.3,82.837-.044.023-.1.047-.147.077a149.432,149.432,0,0,0-15.4,11.472c.012.059.032.112.044.154l.012.04c-37.965,27.5-72.274,60.155-104.04,99.107C47.989,312.694,3.133,433.03,3.133,575.215c0,149.878,70.662,296.7,184.351,404.54,109.3,103.657,258.442,171.434,422.923,171.434a640.667,640.667,0,0,0,126.884-12.634,626.4,626.4,0,0,0,120.9-37.413,11.174,11.174,0,0,0,3.544-18.659q-31.941-29.865-62.073-62.128-27.975-29.95-54.5-62.215l-.047-.2c-8.356-8.7-14.4-8.309-17.286-8.44l-.451.112c-15.17,3.088-79.445,16.132-116.97,16.132-110.408,0-210.765-46.69-284.785-116.887-78.262-74.228-126.972-174.552-126.972-273.646,0-92.325,27-168.933,72.665-229.487,6.845-9.078,13.525-17.53,20.172-25.6,68.744,194.565,170.248,403.45,319.3,460.17,9.485-3.121,12.428-7.969,6.581-17.312-123.9-247.635-162.571-493.1-164.5-725.472-1.519-6.582-5.454-11.467-15.467-12.063Zm96.2-11.8c-16.506,6.475-15.357,14.76-17.081,25.963-1.437,9.41-.114,19.876-.114,30.392,0,2.258-.139,5.205-.268,8.132-.146,3.242-.3,6.486-.252,9.761l.275,16.284h-.045l.07,1.458c.585,27.729,1.061,51.787,2.334,79.494.6,13.144,8.358,13.406,21.986,11.77,271.54-26.187,481.446,107.916,481.446,377.155,0,190.206-103.363,277.833-173.519,319.234-13.857,8.18-25.3,13.942-33.256,17.652a47.024,47.024,0,0,0-7.95,4.542c-11.238,8.156-12.226,12.084-5.572,23.4q25.95,31.426,53.523,60.971,29.852,32,61.12,61.354a12.608,12.608,0,0,0,14.357,1.92c95.2-49.476,151.137-108.655,204.873-196.067,52.5-85.408,81.932-185.365,81.932-293,0-137.339-51.244-263.976-136.411-363.475C953.075,64.986,802.954,3.457,608.325,3.457c-10.831,0-65.733,5.393-78.05,10.228" transform="translate(-3.133 -3.457)" fill="none"/>
    </clipPath>
  </defs>
  <g id="Grupo_4483" data-name="Grupo 4483" transform="translate(0 -448)">
    <rect id="Retângulo_338" data-name="Retângulo 338" width="1920" height="736" transform="translate(0 448)" fill="#00183b"/>
    <g id="Grupo_de_máscara_33" data-name="Grupo de máscara 33" clip-path="url(#clip-path)">
      <g id="Grupo_1276" data-name="Grupo 1276" transform="translate(893 307.629)">
        <g id="Grupo_1275" data-name="Grupo 1275" transform="translate(0 0)" clip-path="url(#clip-path-2)">
          <path id="Caminho_1567" data-name="Caminho 1567" d="M0,37.4A210.755,210.755,0,0,1,22.527,0h-1.5A210.944,210.944,0,0,0,0,34.619Z" transform="translate(-4.312 -4.512)" fill="#0b0b1e"/>
          <path id="Caminho_1568" data-name="Caminho 1568" d="M46.6,0c-.687.859-1.375,1.715-2.045,2.583C22.026,31.778,8.808,65.914,0,100.173v4.967c8.769-35.7,22.092-71.5,45.536-101.868Q46.809,1.622,48.126,0Z" transform="translate(-4.312 -4.512)" fill="#0b0b1e"/>
          <path id="Caminho_1569" data-name="Caminho 1569" d="M69.991,0q-1.35,1.613-2.667,3.251C29.168,50.931,16.056,110.437,4.968,172.333c-1.31,7.309-2.593,14.753-3.834,21.952Q.57,197.559,0,200.853v7.073q1.183-6.757,2.331-13.453c1.241-7.2,2.524-14.637,3.833-21.944C17.224,110.783,30.3,51.425,68.288,3.955q1.6-2,3.26-3.955Z" transform="translate(-4.312 -4.512)" fill="#0b0b1e"/>
          <path id="Caminho_1570" data-name="Caminho 1570" d="M91.2,0q-3.46,3.973-6.673,8.1c-36.2,46.649-50.114,104.633-62.277,164.929-1.489,7.379-2.956,14.9-4.375,22.169C12.735,221.53,7.431,248.7,0,275.026v4.361c8.063-27.628,13.656-56.266,19.064-83.976,1.419-7.269,2.886-14.786,4.375-22.162C35.574,113.09,49.452,55.244,85.5,8.79q3.491-4.5,7.29-8.79Z" transform="translate(-4.311 -4.512)" fill="#0b0b1e"/>
          <path id="Caminho_1571" data-name="Caminho 1571" d="M110.147,0q-2.985,3.366-5.8,6.853C87.032,28.375,73.082,54.287,61.7,86.069c-10.2,28.485-17.209,58.4-23.511,86.6-1.65,7.383-3.285,14.9-4.865,22.175-6.288,28.927-12.79,58.838-21.875,87.583C8.124,292.951,4.109,303.409,0,313.656v3.225c4.508-11.165,8.969-22.593,12.611-34.121,9.1-28.794,15.606-58.733,21.9-87.682,1.58-7.272,3.215-14.79,4.863-22.17,13.6-60.854,28.877-119.292,65.936-165.348Q108.417,3.7,111.747,0Z" transform="translate(-4.312 -4.512)" fill="#0b0b1e"/>
          <path id="Caminho_1572" data-name="Caminho 1572" d="M127.034,0q-4.395,4.889-8.448,10.057c-38.789,49.6-54.2,113.418-67.8,169.725-1.713,7.1-3.4,14.354-5.037,21.376-6.351,27.289-12.921,55.511-22.721,82.126C15.749,303.037,6.948,328.123,0,355.01v4.916c7.1-28.583,16.487-55.4,24.167-76.256,9.825-26.68,16.4-54.934,22.762-82.261,1.634-7.016,3.322-14.273,5.034-21.363,13.573-56.2,28.958-119.895,67.593-169.293Q123.888,5.213,128.626,0Z" transform="translate(-4.312 -4.512)" fill="#0b0b1e"/>
          <path id="Caminho_1573" data-name="Caminho 1573" d="M141.9,0q-3.241,3.6-6.289,7.354C95.742,56.493,79.59,118.165,63.968,177.806c-5.531,21.113-11.952,42.452-18.162,63.088C32.8,284.121,19.349,328.818,13.245,374.181,8.687,408.037,9.35,440.3,10.05,474.462c.157,7.662.321,15.587.416,23.444C10.663,514.162,6.538,529.247,0,543v2.757c7.242-14.491,11.889-30.509,11.678-47.863-.095-7.862-.257-15.787-.416-23.454-.7-34.114-1.361-66.337,3.185-100.111,6.092-45.273,19.53-89.927,32.525-133.113,6.212-20.647,12.638-41.994,18.173-63.126C80.736,118.561,96.858,57.01,136.57,8.063Q139.922,3.933,143.506,0Z" transform="translate(-4.312 -4.512)" fill="#0b0b1e"/>
          <path id="Caminho_1574" data-name="Caminho 1574" d="M155.082,0q-4.131,4.6-7.972,9.433c-38.4,48.607-55.278,109.014-71.6,167.432l-1.973,7.052c-2.825,10.087-5.768,20.288-8.614,30.15-15.017,52.045-30.543,105.86-33.984,161.68-2.8,45.51,2.024,89.656,7.66,130.581,5.154,37.417-16.706,68.953-38.6,91.987v1.72c22.365-23.3,45.088-55.472,39.8-93.859-5.629-40.869-10.451-84.949-7.652-130.361,3.432-55.7,18.253-107.061,33.943-161.438,2.846-9.866,5.79-20.068,8.616-30.162l1.972-7.054c16.294-58.309,33.143-118.6,71.4-167.03Q152.205,4.908,156.662,0Z" transform="translate(-4.312 -4.512)" fill="#0b0b1e"/>
          <path id="Caminho_1575" data-name="Caminho 1575" d="M166.7,0q-2.572,2.892-5.033,5.874c-39.506,48.194-57.579,108.748-75.056,167.308q-1.158,3.879-2.312,7.736C62.38,254.142,48,316.756,49.034,384.335c.691,44.96,8.786,89.152,17.431,130.213,9.56,45.406-18.407,79.152-43.84,103.476Q11.655,628.516,0,638.36v1.555q12.082-10.206,23.483-21.072c17.768-16.994,29.5-32.018,36.916-47.287,9.064-18.652,11.438-37.375,7.255-57.237-8.634-41.006-16.719-85.137-17.408-130-1.036-67.436,13.328-129.956,35.216-203.08q1.156-3.861,2.312-7.74C105.22,115.047,123.259,54.6,162.62,6.589q2.754-3.36,5.663-6.589Z" transform="translate(-4.312 -4.512)" fill="#0b0b1e"/>
          <path id="Caminho_1576" data-name="Caminho 1576" d="M97.843,169.908c17.87-56.368,36.348-114.653,73.965-161.7Q175.173,4,178.762,0h-1.612q-3.241,3.665-6.307,7.5c-37.749,47.218-56.26,105.606-74.162,162.071q-1.278,4.035-2.554,8.052c-22.216,69.871-31.079,139.809-26.342,207.87,3.358,48.228,15.079,94.89,26.8,138.549,4.675,17.416,6.581,32.363.691,48.7-7.729,21.438-24.24,39.334-37.76,52.53C39.732,642.624,20.047,658.058,0,672.213v1.445C20.34,659.333,40.332,643.7,58.381,626.08,71.99,612.8,88.613,594.774,96.422,573.117c5.988-16.607,4.065-31.744-.663-49.361C84.054,480.148,72.347,433.545,69,385.417,64.27,317.495,73.115,247.7,95.288,177.96q1.278-4.018,2.556-8.052" transform="translate(-4.312 -4.512)" fill="#0b0b1e"/>
          <path id="Caminho_1577" data-name="Caminho 1577" d="M182.264,7.162Q185.213,3.5,188.32,0h-1.576q-2.781,3.166-5.443,6.455c-41.169,51.111-63.781,118.532-78.881,171.559A513.556,513.556,0,0,0,84.262,282.732,563.19,563.19,0,0,0,87.033,388.88c6.029,50.135,20.538,98.2,34.885,143.139,4.936,15.465,10.043,31.458,4.821,49.092-6.249,21.1-22.268,38.91-35.527,52.069C64.019,660.169,31.463,682.624,0,702.857v1.4c31.728-20.382,64.621-43.01,92.087-70.27,13.356-13.256,29.5-31.21,35.82-52.558,5.319-17.963.161-34.121-4.828-49.746-14.33-44.885-28.823-92.894-34.84-142.932-8.656-72-3.347-144.766,15.351-210.43,15.071-52.924,37.633-120.207,78.673-171.156" transform="translate(-4.312 -4.512)" fill="#0b0b1e"/>
          <path id="Caminho_1578" data-name="Caminho 1578" d="M149.3,538.031C132.423,490.746,116.589,444.2,108.261,394.6c-12.285-73.156-10.924-144.375,4.045-211.678C123.987,130.4,148.559,54.454,198.582,0h-1.451a270.837,270.837,0,0,0-20.4,25.329c-36.779,51.6-55.981,114.05-65.612,157.356A526.232,526.232,0,0,0,98.883,288.542a588.3,588.3,0,0,0,8.18,106.246c8.344,49.682,24.195,96.284,41.085,143.619q.749,2.1,1.517,4.211c5.58,15.409,11.35,31.342,7.431,47.671-4.974,20.737-20.574,38.429-33.609,51.525-27.784,27.914-62.035,51.08-94.908,71.955Q14.543,722.682,0,731.411v1.368q14.9-8.934,29.25-18.045c32.932-20.914,67.249-44.126,95.114-72.122,13.143-13.2,28.874-31.053,33.914-52.065,4-16.652-1.832-32.745-7.466-48.308q-.764-2.109-1.517-4.207" transform="translate(-4.312 -4.512)" fill="#0b0b1e"/>
          <path id="Caminho_1579" data-name="Caminho 1579" d="M175.97,547.473c-18.575-48.919-37.782-99.5-48.31-152.222-14.684-73.533-16.023-145.043-3.977-212.543,6.073-34.031,22.2-99.651,61.947-156.793A270.053,270.053,0,0,1,206.025,0H204.5A267.483,267.483,0,0,0,184.62,25.272c-39.874,57.32-56.043,123.12-62.133,157.241-12.069,67.636-10.73,139.286,3.981,212.956,10.546,52.81,29.771,103.438,48.361,152.4.709,1.864,1.452,3.767,2.207,5.7,5.239,13.412,11.176,28.613,9.766,42.729-2.151,21.522-18.614,40.656-32.718,54.921-28.76,29.088-64.036,52.235-94.845,71.648C40.6,734.617,21.12,746.012,0,757.485v1.334c21.375-11.6,41.064-23.108,59.907-34.982,30.865-19.448,66.21-42.642,95.059-71.819,14.235-14.4,30.857-33.733,33.042-55.608,1.437-14.381-4.552-29.716-9.836-43.243-.754-1.933-1.5-3.834-2.2-5.694" transform="translate(-4.312 -4.512)" fill="#0b0b1e"/>
          <path id="Caminho_1580" data-name="Caminho 1580" d="M203.178,560.013q-.778-1.962-1.541-3.89-2.762-7.013-5.534-14.009c-17.856-45.145-36.321-91.825-47.681-140.144-17.3-73.559-21.679-145.221-13.03-213,7.529-58.994,28.72-117.811,58.14-161.37A247.347,247.347,0,0,1,215.073,0h-1.642a252.215,252.215,0,0,0-20.92,26.974c-29.515,43.7-50.775,102.7-58.325,161.859-8.667,67.906-4.276,139.7,13.05,213.39,11.38,48.4,29.859,95.117,47.731,140.3q2.766,7,5.532,14.008.76,1.929,1.543,3.892c5.673,14.277,12.1,30.459,11.955,45.976-.2,20.606-16.276,39.7-30.263,54.039-28.237,28.94-63.71,52.1-94.742,71.531C60.641,749.726,31.106,765.264,0,780.085v1.295c31.342-14.918,61.095-30.552,89.659-48.441,31.092-19.471,66.635-42.674,94.964-71.708,14.136-14.49,30.388-33.814,30.589-54.82.149-15.735-6.324-32.026-12.035-46.4" transform="translate(-4.312 -4.512)" fill="#0b0b1e"/>
          <path id="Caminho_1581" data-name="Caminho 1581" d="M225.751,563.047l-.839-2.065q-3.26-8.018-6.531-16.017c-18.6-45.551-37.844-92.652-50.322-141.345-18.9-73.765-25.288-145.424-18.975-212.986C156.1,115.5,178.97,55.751,218.986,7.97Q222.44,3.848,226,0h-1.618q-3.214,3.514-6.343,7.244c-40.171,47.966-63.121,107.919-70.164,183.286-6.324,67.689.07,139.476,19.005,213.364,12.5,48.767,31.75,95.905,50.37,141.491q3.268,8,6.53,16.016l.841,2.065c7.105,17.459,14.454,35.512,14.63,54.116.183,19.26-12.379,35.7-23.344,47.87-27.451,30.466-64.172,54.423-99.43,76.35C80.159,764.388,40.13,782.414,0,799.035V800.3c40.339-16.7,80.6-34.8,117.139-57.524,35.332-21.971,72.133-45.983,99.688-76.565,11.1-12.324,23.826-28.99,23.639-48.635-.179-18.818-7.568-36.972-14.714-54.527" transform="translate(-4.312 -4.512)" fill="#0b0b1e"/>
          <path id="Caminho_1582" data-name="Caminho 1582" d="M702.021,0C658.077,15.619,604.71,20.183,540.408,13.931A836.534,836.534,0,0,1,451.642,0h-5.667c30.973,6.572,62.413,11.981,94.311,15.084,40.727,3.96,76,3.686,107.848-.838A275.43,275.43,0,0,0,705.454,0Z" transform="translate(163.463 -4.512)" fill="#0b0b1e"/>
          <path id="Caminho_1583" data-name="Caminho 1583" d="M249.326,571.034c-4.6-11.418-9.372-22.962-13.988-34.127-16.411-39.7-33.382-80.756-45.383-122.944-21.8-76.651-30.615-150.858-26.186-220.556C168.7,115.763,189.71,56.044,228,10.836Q232.8,5.17,237.775,0h-1.634q-4.618,4.844-9.087,10.105c-21,24.791-36.468,53.084-47.3,86.5-9.245,28.506-14.868,60.148-17.193,96.734-4.437,69.824,4.387,144.155,26.228,220.929,12.018,42.25,29,83.334,45.424,123.066,4.614,11.161,9.386,22.7,13.984,34.117,7.445,18.479,15.144,37.588,14.868,57.387-.282,20.346-11.879,35.942-21.95,47.254-24.571,27.6-60.394,54.563-100.871,75.924C95.306,775.731,47.362,795.37,0,813.887v1.253c47.545-18.583,95.69-38.288,140.826-62.111,40.6-21.427,76.545-48.485,101.208-76.187,10.2-11.461,21.953-27.275,22.241-47.99.278-20.024-7.811-40.1-14.95-57.819" transform="translate(-4.312 -4.512)" fill="#0b0b1e"/>
          <path id="Caminho_1584" data-name="Caminho 1584" d="M768.814,0C719.472,28.6,653.057,37.9,566.187,28.388,517.8,23.09,471.071,12.754,422.164,0H417.57c50.512,13.28,98.6,24.079,148.479,29.538,41.455,4.54,77.2,4.866,109.273,1C712.251,26.088,744.443,15.822,771.152,0Z" transform="translate(152.777 -4.512)" fill="#0b0b1e"/>
          <path id="Caminho_1585" data-name="Caminho 1585" d="M271.8,578.887C266,564.309,259.9,549.6,254,535.383c-15.861-38.252-32.262-77.806-44.271-118.337-22.721-76.689-32.92-150.6-30.314-219.663,3.076-81.529,21.522-139.359,58.054-181.995Q244.674,6.982,251.741,0h-1.679q-6.713,6.7-13.527,14.653c-20.01,23.352-35.016,52.428-44.6,86.42-7.84,27.8-12.329,59.287-13.725,96.267-2.611,69.189,7.6,143.214,30.359,220.021C220.592,457.95,237,497.532,252.878,535.81c5.894,14.217,11.991,28.918,17.787,43.49,16.492,41.454,21.646,75.682-6.8,107.989-25.055,28.453-59.417,52.956-105.049,74.909C107.507,786.882,53.083,807.313,0,826.878v1.241c53.249-19.622,107.861-40.109,159.359-64.884,45.782-22.026,80.269-46.624,105.432-75.2,13.982-15.878,20.726-33.2,20.613-52.944-.111-19.672-6.94-39.45-13.605-56.2" transform="translate(-4.312 -4.512)" fill="#0b0b1e"/>
          <path id="Caminho_1586" data-name="Caminho 1586" d="M819.247,0q-7.756,6.1-16.391,11.642C753.117,43.455,683.231,53.57,589.21,42.57,525.377,35.1,464.752,19.048,398.988,0H394.81C462.11,19.548,523.9,36.1,589.062,43.721c94.325,11.035,164.478.858,214.471-31.115A204.867,204.867,0,0,0,821.128,0Z" transform="translate(144.215 -4.512)" fill="#0b0b1e"/>
          <path id="Caminho_1587" data-name="Caminho 1587" d="M861.247,0a175.088,175.088,0,0,1-34.313,26.767C772.91,58.923,699.4,68.268,602.21,55.34,533.127,46.153,465.575,26.648,396.691,5.765,390.467,3.878,384.126,1.92,377.927,0h-3.939c.359.112.717.223,1.076.333,6.98,2.162,14.2,4.395,21.259,6.537,68.937,20.9,136.544,40.419,205.72,49.621C699.525,69.454,773.3,60.055,827.574,27.75A177.892,177.892,0,0,0,863.062,0Z" transform="translate(136.382 -4.512)" fill="#0b0b1e"/>
          <path id="Caminho_1588" data-name="Caminho 1588" d="M293.341,587.144c-7.072-18.377-14.683-36.854-22.043-54.722-14.86-36.077-30.227-73.383-41.807-111.47-22.239-73.135-33.524-143.594-33.545-209.42C195.928,155.8,201.277,75.5,247.726,21.958A172.233,172.233,0,0,1,270.465,0h-1.8a172.794,172.794,0,0,0-21.871,21.217c-19.9,22.945-34.233,53.389-42.588,90.488-6.386,28.355-9.485,61.009-9.472,99.826.021,65.935,11.323,136.5,33.593,209.742,11.6,38.14,26.973,75.47,41.845,111.572,7.357,17.862,14.965,36.333,22.033,54.7,14.12,36.691,22.875,75.6-8.409,111.585-30.612,35.209-72.881,56.74-110.191,73.157C118.29,796.625,60.037,817.019,3.7,836.741q-1.852.648-3.7,1.3v1.235q2.06-.721,4.119-1.446c56.358-19.73,114.634-40.131,169.992-64.49,37.434-16.471,79.85-38.081,110.616-73.468,31.676-36.435,22.859-75.71,8.614-112.726" transform="translate(-4.312 -4.512)" fill="#0b0b1e"/>
          <path id="Caminho_1589" data-name="Caminho 1589" d="M897,0a172.83,172.83,0,0,1-47.2,40.411c-55.2,31.966-129.314,41.27-226.556,28.448C551.834,59.445,482.6,39.1,417.8,19.065c-8.453-2.614-17.112-5.371-25.484-8.039C380.66,7.313,368.9,3.569,357.059,0h-4.054c13.088,3.895,26.068,8.029,38.924,12.125,8.376,2.668,17.036,5.427,25.5,8.043,64.849,20.049,134.146,40.413,205.655,49.84a603.4,603.4,0,0,0,78.707,5.571c60.14,0,109.186-11.33,148.643-34.177A173.214,173.214,0,0,0,898.494,0Z" transform="translate(128.488 -4.512)" fill="#0b0b1e"/>
          <path id="Caminho_1590" data-name="Caminho 1590" d="M314.838,598.439c-8.376-23.284-17.871-46.568-27.053-69.085-12.654-31.029-25.739-63.115-36.065-95.634-24.094-75.88-36.914-148.459-38.1-215.716-.959-54.262,2.73-132.677,45.646-186.939A132.6,132.6,0,0,1,294.232,0h-2.2A133.849,133.849,0,0,0,258.3,30.367C215.155,84.913,211.444,163.589,212.4,218.022c1.19,67.367,14.026,140.05,38.154,216.035,10.339,32.562,23.434,64.668,36.095,95.717,9.179,22.507,18.669,45.778,27.037,69.042,12.289,34.165,20.321,74.308-13.282,113.013-29.328,33.781-71.506,52.615-115.79,70.479-54.679,22.056-111.742,41.059-166.924,59.435-5.825,1.94-11.749,3.912-17.694,5.9v1.227c6.08-2.028,12.137-4.046,18.093-6.029,55.2-18.383,112.283-37.391,167-59.462,44.428-17.923,86.75-36.824,116.251-70.805,14.666-16.893,22.5-34.832,23.961-54.843,1.248-17.13-2.077-35.969-10.465-59.289" transform="translate(-4.312 -4.512)" fill="#0b0b1e"/>
          <path id="Caminho_1591" data-name="Caminho 1591" d="M930.32,0c-15.182,21.678-34.505,40.612-59.828,54.44C812.689,86,736.419,94.648,637.32,80.865c-71.087-9.887-139.655-30.239-203.791-50.236-8.279-2.58-16.762-5.307-24.966-7.944C383.153,14.52,357.249,6.2,330.976,0H325.8c27.907,6.284,55.421,15.121,82.381,23.783,8.206,2.638,16.692,5.366,24.975,7.949,64.187,20.012,132.811,40.379,204,50.28,99.372,13.823,175.9,5.131,233.948-26.566C894.969,42.409,915,24.126,931.723,0Z" transform="translate(118.252 -4.512)" fill="#0b0b1e"/>
          <path id="Caminho_1592" data-name="Caminho 1592" d="M334.284,607.592c-8.813-26.238-19.252-52.4-29.346-77.7-11.224-28.128-22.83-57.215-32.247-86.519-24.583-76.5-37.788-146.236-40.367-213.188-2.049-53.179-.263-130.193,38.721-184.817A125.717,125.717,0,0,1,331.427,0h-3.346a126.624,126.624,0,0,0-58.038,44.716c-17.106,23.967-28.351,53.247-34.377,89.506-4.57,27.5-6.018,58.008-4.554,96.007,2.583,67.055,15.8,136.886,40.419,213.486,9.43,29.341,21.042,58.444,32.273,86.592,10.089,25.284,20.522,51.432,29.325,77.641,6.578,19.584,12.335,40.569,9.936,61.324-2.144,18.558-11.592,36.8-28.882,55.768-29.437,32.295-72.362,48.462-113.875,64.1L199,789.63c-55.179,20.782-112.489,38.91-167.914,56.439C20.873,849.3,10.43,852.6,0,855.921v1.222c10.557-3.361,21.13-6.705,31.463-9.973C86.9,829.634,144.231,811.5,199.44,790.706l1.314-.495c41.646-15.685,84.712-31.9,114.344-64.411,17.458-19.153,27-37.6,29.174-56.406,2.422-20.969-3.369-42.1-9.988-61.8" transform="translate(-4.312 -4.512)" fill="#0b0b1e"/>
          <path id="Caminho_1593" data-name="Caminho 1593" d="M1072.762,0c-16.757,26.982-39.143,50.664-70.453,67.034C942.976,98.06,866.154,106.586,767.451,93.107c-71.909-9.822-142.119-30.53-202.283-49.168-8.775-2.719-17.775-5.609-26.478-8.4C494.605,21.374,449.02,6.734,402.62,4.2c-24.154-1.32-46.449,2.583-66.267,11.605-20.192,9.19-37.262,23.457-50.738,42.4-36.341,51.089-37.836,123.673-35.078,181.2,3.2,66.754,16.9,137.044,41.865,214.891,8.27,25.781,18.264,51.516,27.929,76.4,11.3,29.1,22.987,59.187,31.965,89.489,14.184,47.865,6.4,84.625-24.5,115.681-31.6,31.766-76.364,47.179-119.652,62.083l-5.323,1.835c-52.74,18.2-107.17,34.545-159.808,50.349C28.9,854.377,14.418,858.722,0,863.1v1.215c14.538-4.412,29.142-8.8,43.38-13.07,52.651-15.809,107.093-32.155,159.856-50.367l5.323-1.833c43.42-14.952,88.32-30.411,120.12-62.376,16.428-16.513,26.229-34.451,29.964-54.843,3.388-18.5,1.694-38.76-5.179-61.951-8.992-30.347-20.686-60.457-32-89.576-9.66-24.872-19.647-50.591-27.907-76.338-24.941-77.752-38.617-147.95-41.813-214.6-2.75-57.35-1.272-129.7,34.869-180.5,26.42-37.142,67.593-56.143,115.931-53.5C448.788,7.882,494.294,22.5,538.3,36.632c8.706,2.8,17.709,5.688,26.49,8.408,60.213,18.653,130.481,39.378,202.485,49.213,44.769,6.114,84.145,7.668,120.377,4.749,43.957-3.54,82.727-13.953,115.236-30.953,28.973-15.148,52.4-37.512,71.181-68.05Z" transform="translate(-4.312 -4.512)" fill="#0b0b1e"/>
          <path id="Caminho_1594" data-name="Caminho 1594" d="M1090.066,0c-17.669,31.38-41.384,57.608-76.2,76.305C954.6,108.129,877.694,117.7,778.745,105.569,712.76,97.478,649.2,80.623,574.065,57.8c-9.134-2.775-18.526-5.752-27.609-8.632-43.553-13.81-88.589-28.088-134.2-29.856C365.449,17.5,328.623,36.051,302.8,74.451c-15.687,23.328-25.555,51.836-30.169,87.148-4.374,33.475-3.167,67.063-1.627,92.586,3.918,64.941,17.7,134.153,42.139,211.589,7.195,22.8,15.741,45.689,24.008,67.828,11.735,31.431,23.87,63.933,32.345,96.724,12.957,50.13,1.321,90.111-34.582,118.837-35.733,28.586-79.215,43.973-124.361,58.477C159.266,824.115,106.5,839.086,55.465,853.565,37.259,858.729,18.579,864.031,0,869.389V870.6c18.693-5.395,37.492-10.728,55.81-15.925,51.042-14.482,103.822-29.456,155.13-45.939,45.26-14.541,88.86-29.97,124.754-58.686,18.839-15.074,31.191-33.486,36.711-54.726,5.038-19.382,4.456-41.347-1.73-65.279-8.49-32.848-20.635-65.377-32.381-96.836-8.26-22.125-16.8-45-23.988-67.772-24.41-77.35-38.178-146.474-42.09-211.321-3.4-56.416-2.886-127.747,31.606-179.042,25.573-38.027,62.035-56.4,108.385-54.6,45.439,1.762,90.393,16.016,133.867,29.8,9.086,2.881,18.481,5.859,27.623,8.636,75.2,22.838,138.817,39.709,204.892,47.809,44.849,5.5,84.346,6.5,120.747,3.063,44.015-4.157,82.748-15.08,115.123-32.466,32.035-17.2,57.251-42.55,76.88-77.316Z" transform="translate(-4.312 -4.512)" fill="#0b0b1e"/>
          <path id="Caminho_1595" data-name="Caminho 1595" d="M1107.057,0q-3.123,6.113-6.571,12.057c-21.338,36.593-55.265,60.3-79.971,73.737-59.084,32.149-136.066,42.394-235.342,31.326C711.614,108.92,640.338,89.1,579.3,71.174c-8.491-2.5-17.214-5.164-25.647-7.744-41.82-12.8-85.064-26.031-128.819-27.412-33.8-1.065-61.768,9.017-83.14,29.97-21.387,20.968-36.242,52.712-44.153,94.355-7.492,39.433-7.119,79.271-5.487,105.746,3.944,64,17.566,133.374,41.64,212.085,6.114,19.989,13.267,40.173,20.185,59.693,11.864,33.485,24.134,68.11,31.647,103.066,10.946,50.912-3.921,90.885-44.183,118.807-42.4,29.4-93.771,46.641-133.793,58.372-46.492,13.63-94.115,26.383-140.17,38.717-22.121,5.925-44.809,12-67.385,18.177v1.206c22.684-6.207,45.485-12.314,67.713-18.267,46.061-12.335,93.693-25.091,140.2-38.724,40.111-11.758,91.607-29.039,134.148-58.541,40.683-28.216,55.71-68.582,44.66-119.981-7.529-35.025-19.81-69.685-31.687-103.2-6.914-19.508-14.062-39.681-20.17-59.648-24.048-78.625-37.653-147.916-41.594-211.827-2.637-42.782-3.113-147.84,49.3-199.223,21.125-20.711,48.788-30.676,82.232-29.62,43.586,1.374,86.747,14.584,128.489,27.357,8.437,2.58,17.163,5.251,25.661,7.748,61.085,17.943,132.423,37.777,206.084,45.988,44.305,4.939,85.015,5.559,121,1.842,44.115-4.558,82.836-15.765,115.086-33.313,24.838-13.513,58.955-37.353,80.429-74.179q3.621-6.21,6.862-12.621Z" transform="translate(-4.312 -4.512)" fill="#0b0b1e"/>
          <path id="Caminho_1596" data-name="Caminho 1596" d="M1121.051,0a206.077,206.077,0,0,1-11.117,19.375c-19,29.183-46.9,54.381-80.66,72.87-60.754,33.267-140.881,45.4-238.162,36.043-65.733-6.316-128.709-21.4-203.04-42.114-8.579-2.39-17.419-4.974-25.966-7.475C520.8,66.624,478.081,54.134,435.23,54.069h-.206c-30.192,0-55.282,9.933-74.565,29.518-20.741,21.071-34.907,53.262-42.1,95.681-6.584,38.809-5.919,78.058-4.2,104.149,4.065,61.787,16.393,126.705,38.8,204.3,5.238,18.142,11.35,36.563,17.262,54.377,11.857,35.741,24.121,72.7,30.225,109.942,4.018,24.513,3.007,43.992-3.185,61.3-10.4,29.094-35.455,46.83-56.12,59.029-45.9,27.1-98.979,44.351-140.091,56.352-46.006,13.43-93.5,25.044-139.42,36.277C41.368,869.951,20.651,875.024,0,880.261v1.2C20.75,876.2,41.57,871.1,61.924,866.122c45.937-11.234,93.44-22.852,139.472-36.292,41.183-12.021,94.355-29.3,140.376-56.475,20.836-12.3,46.1-30.2,56.631-59.64,6.256-17.5,7.284-37.153,3.234-61.859-6.121-37.332-18.4-74.331-30.268-110.113-5.908-17.8-12.017-36.213-17.249-54.335-22.38-77.514-34.694-142.358-38.755-204.063-1.712-26.033-2.377-65.189,4.189-103.893,7.156-42.186,21.215-74.171,41.791-95.07,19.044-19.345,43.832-29.153,73.679-29.153h.205c42.67.064,85.3,12.528,126.522,24.578,8.552,2.5,17.4,5.088,25.981,7.478,74.4,20.73,137.433,35.831,203.259,42.159,44.64,4.29,85.926,4.126,122.71-.492,43.881-5.5,82.97-17.517,116.177-35.7,33.937-18.584,61.976-43.918,81.085-73.264A207.626,207.626,0,0,0,1122.4,0Z" transform="translate(-4.311 -4.512)" fill="#0b0b1e"/>
          <path id="Caminho_1597" data-name="Caminho 1597" d="M1133.092,0a211.077,211.077,0,0,1-15.031,25.745c-20.42,29.705-49.7,55.276-84.687,73.951C970.8,133.1,891.132,146.368,796.6,139.122c-68.8-5.272-136.7-21.115-199.824-37.447-8.437-2.184-17.143-4.563-25.561-6.862C531.134,83.866,489.7,72.538,448.428,73.529c-27.261.651-50,10.208-67.575,28.406-19.963,20.666-33.5,52.547-40.232,94.761-4.748,29.763-6.059,63.839-3.9,101.28,3.453,59.838,15.016,124.631,36.387,203.91,4.2,15.6,9.054,31.518,13.747,46.916,11.383,37.362,23.155,76,27.278,114.764,2.629,24.728-.1,45.347-8.33,63.035-12.481,26.806-41.359,44.4-67.962,58.078-47.916,24.633-102.017,40.949-148.966,54.308-46.584,13.256-94.691,24.385-141.212,35.149C31.979,877.765,16,881.466,0,885.265v1.193c16.1-3.82,32.17-7.544,47.951-11.2,46.537-10.768,94.659-21.9,141.272-35.165,47.008-13.375,101.179-29.712,149.2-54.4,26.784-13.768,55.867-31.5,68.495-58.628,8.323-17.876,11.08-38.687,8.429-63.622-4.134-38.873-15.921-77.559-27.32-114.97-4.689-15.389-9.537-31.3-13.737-46.882-21.349-79.2-32.9-143.924-36.349-203.683-2.158-37.363-.85-71.36,3.884-101.041,6.7-41.981,20.13-73.658,39.925-94.151,17.348-17.958,39.794-27.39,66.714-28.033C489.531,73.7,530.887,85,570.878,95.929c8.424,2.3,17.132,4.678,25.579,6.866C659.639,119.143,727.6,135,796.5,140.277c43.941,3.368,85,2.339,122.044-3.053,42.9-6.247,81.735-18.532,115.422-36.516,35.154-18.766,64.584-44.468,85.11-74.327A212.933,212.933,0,0,0,1134.434,0Z" transform="translate(-4.312 -4.512)" fill="#0b0b1e"/>
          <path id="Caminho_1598" data-name="Caminho 1598" d="M1143.8,0a223.133,223.133,0,0,1-18.813,31.386c-21.159,29.244-50.633,54.549-85.236,73.181-64.567,34.768-144.652,49.9-238.049,44.987-64.117-3.375-126.127-15.5-199.507-32.676-7.707-1.8-15.68-3.78-23.391-5.69-39.041-9.677-79.415-19.685-119.048-16.732-35.911,2.676-64.877,25-79.473,61.24-16.79,41.69-23.219,91.948-20.237,158.157,3.359,74.563,19.367,147.661,32.938,203.013,3.256,13.276,7,26.92,10.619,40.115,10.847,39.531,22.063,80.407,23.139,121.022.645,24.308-3.889,44.448-13.478,59.863-15.985,25.7-46.367,42.465-76.819,56.757-52.562,24.668-110.891,41.063-161.439,54.495-46.758,12.427-94.8,23.138-141.268,33.5-11.129,2.481-22.409,5-33.74,7.55v1.193c11.425-2.577,22.8-5.113,34.015-7.614,46.476-10.361,94.535-21.075,141.319-33.509,50.6-13.444,108.992-29.858,161.648-54.57,30.62-14.37,61.18-31.244,77.327-57.2,9.706-15.606,14.3-35.956,13.648-60.487-1.08-40.749-12.313-81.692-23.178-121.287-3.618-13.187-7.36-26.823-10.61-40.083-13.56-55.3-29.554-128.33-32.909-202.8-2.975-66.047,3.431-116.154,20.159-157.691,14.421-35.81,43.009-57.863,78.434-60.5,39.435-2.939,79.705,7.043,118.65,16.7,7.715,1.914,15.691,3.888,23.406,5.7,73.446,17.186,135.52,29.325,199.73,32.706,93.624,4.929,173.938-10.257,238.711-45.136,34.761-18.716,64.374-44.144,85.638-73.53A224.786,224.786,0,0,0,1145.145,0Z" transform="translate(-4.312 -4.512)" fill="#0b0b1e"/>
          <path id="Caminho_1599" data-name="Caminho 1599" d="M1153.45,0a242.808,242.808,0,0,1-24.979,39.455c-21.854,27.891-49.917,51.256-83.406,69.453-65.1,35.37-147.6,52.91-238.591,50.707-62.439-1.506-123.273-11.565-195.4-26.2-7.875-1.6-15.789-3.352-24.17-5.211-38.342-8.506-77.992-17.305-115.211-11.347-17.446,2.793-32.495,9.838-44.731,20.935-11.505,10.438-20.237,24.168-25.955,40.81-18.058,52.564-18.221,114.266-16.773,156.1,2.4,69.446,15.664,138.989,28.318,197.855,2.382,11.076,5.1,22.507,7.722,33.561,9.675,40.737,19.68,82.862,17.626,124.135-1.219,24.548-7.949,44.471-20,59.216-21.4,26.187-55.45,42.887-89.058,57.033-96.284,40.524-201.825,62.476-303.892,83.7-8.25,1.716-16.583,3.45-24.948,5.2V896.6q12.679-2.653,25.205-5.256c102.125-21.238,207.727-43.2,304.124-83.774,33.753-14.208,67.958-30.991,89.526-57.381,12.208-14.936,19.023-35.083,20.256-59.876,2.06-41.43-7.964-83.633-17.657-124.446-2.623-11.048-5.338-22.471-7.715-33.536-12.646-58.82-25.9-128.3-28.295-197.661C384,292.914,384.161,231.351,402.158,178.96c11.676-33.982,36.44-55.634,69.735-60.963,36.98-5.918,76.51,2.852,114.736,11.332,8.385,1.861,16.307,3.617,24.192,5.218,72.194,14.65,133.089,24.718,195.624,26.227,43.357,1.049,84.858-2.3,123.338-9.955,42.5-8.454,81.486-22.214,115.881-40.9,33.637-18.274,61.822-41.746,83.779-69.766A244.365,244.365,0,0,0,1154.8,0Z" transform="translate(-4.312 -4.512)" fill="#0b0b1e"/>
          <path id="Caminho_1600" data-name="Caminho 1600" d="M1161.081,0c-28.054,50.72-66.068,88.527-115.04,114.666-65.449,34.933-146.727,53.8-235.048,54.573-60.613.522-120.174-7.167-190.946-18.883-6.951-1.151-13.9-2.406-21.251-3.736-37.484-6.781-76.243-13.79-112.339-6.1-16.967,3.616-31.043,10.815-41.839,21.4-10.313,10.109-17.933,23.6-22.651,40.115-13.126,45.937-13.635,97.584-12.991,150.883.819,67.725,11.709,133.96,22.794,196,1.585,8.871,3.368,18.034,5.091,26.9,8.147,41.9,16.572,85.236,10.93,126.943-8.194,60.561-64.014,90.333-123.115,113.484-102.3,40.074-213.35,62.295-320.743,83.785L0,900.809v1.184l4.181-.837c107.445-21.5,218.55-43.733,320.955-83.846,26.1-10.225,55.981-23.189,79.7-41.817,25.855-20.311,40.3-44.055,44.161-72.593,5.667-41.887-2.774-85.309-10.941-127.3-1.722-8.859-3.5-18.02-5.086-26.879-11.077-61.993-21.96-128.175-22.777-195.816-.643-53.214-.136-104.771,12.949-150.564,9.518-33.308,30.911-53.726,63.584-60.688,35.853-7.637,74.487-.649,111.849,6.107,7.359,1.33,14.308,2.588,21.269,3.74,68.55,11.347,126.585,18.926,185.28,18.924,1.958,0,3.925-.007,5.885-.023,88.523-.769,170-19.691,235.628-54.72C1095.994,89.331,1134.264,51.192,1162.454,0Z" transform="translate(-4.312 -4.512)" fill="#0b0b1e"/>
          <path id="Caminho_1601" data-name="Caminho 1601" d="M1169.825,0c-29.281,50.963-70.108,91.307-120.3,118.4C967.535,162.66,876.9,175.479,815.31,178.443c-64.2,3.087-127.13-3.63-186.084-10.775-5.056-.612-10.257-1.277-15.285-1.921-37.83-4.845-76.949-9.855-113.922-.89-15.741,3.814-28.57,11.2-38.133,21.948-8.8,9.9-15.148,23.009-18.848,38.967-8.926,38.479-8.755,79.72-8.592,119.6.041,10.006.085,20.35-.026,30.343-.666,60.385,6.738,120.314,15.749,186.777.976,7.2,2.067,14.645,3.121,21.846,6.392,43.632,13,88.75,3.193,131.1-14.307,61.766-80.825,90.4-142.051,112.388C213.379,864.126,105.417,886.194,0,906.615V907.8c105.541-20.442,213.641-42.527,314.859-78.878,61.524-22.1,128.372-50.892,142.809-113.225,9.856-42.554,3.231-87.777-3.176-131.511-1.054-7.2-2.144-14.641-3.12-21.836-9-66.418-16.4-126.306-15.738-186.615.11-10,.067-20.352.026-30.359-.165-39.821-.334-81,8.561-119.35,7.681-33.114,26.031-52.756,56.1-60.045,36.746-8.908,75.746-3.913,113.461.918,5.033.643,10.235,1.309,15.3,1.924,59.009,7.149,122,13.872,186.3,10.781a635.194,635.194,0,0,0,121.05-17.312c41.813-10.3,80.07-24.724,113.706-42.88a301.349,301.349,0,0,0,91.426-75.778A323.512,323.512,0,0,0,1171.265,0Z" transform="translate(-4.312 -4.512)" fill="#0b0b1e"/>
          <path id="Caminho_1602" data-name="Caminho 1602" d="M1177.47,0c-31.986,53.561-75.934,95.95-129.269,124.22-78.091,41.4-166.29,56.968-226.528,62.741-61.023,5.85-122.268,2.492-184.87-1.784q-4.459-.305-8.963-.627c-37.83-2.668-76.947-5.427-113.3,4.558-27.949,7.676-44.455,27.476-50.461,60.533-6.2,34.1-5.3,69.808-4.44,104.338.351,14.008.713,28.492.583,42.537-.607,65.6,4.053,130.206,8.691,184.756q.6,7.066,1.262,14.264c4.065,45.136,8.27,91.807-6.734,134.049C440.778,793.394,358.7,820.811,304.389,838.953,205.933,871.84,101.971,893.141,0,912.53v1.181c102.088-19.411,206.182-40.727,304.789-73.665,31.64-10.567,64.939-22.278,93.725-38.915,34.543-19.961,56.156-43.242,66.077-71.174,15.085-42.472,10.869-89.267,6.793-134.519q-.648-7.191-1.261-14.26c-4.636-54.523-9.295-119.1-8.688-184.651.131-14.063-.233-28.556-.582-42.575-.863-34.474-1.755-70.124,4.42-104.114,5.92-32.574,22.144-52.075,49.6-59.618,36.144-9.925,75.151-7.175,112.876-4.514q4.5.317,8.966.625c62.657,4.283,123.961,7.641,185.078,1.782,60.352-5.784,148.723-21.388,227-62.878a325.048,325.048,0,0,0,94.5-75.52A349.715,349.715,0,0,0,1178.888,0Z" transform="translate(-4.312 -4.512)" fill="#0b0b1e"/>
          <path id="Caminho_1603" data-name="Caminho 1603" d="M1184.48,0c-34.5,55.3-80.468,99.132-134.968,128.278-58.162,31.106-130.645,52.853-221.593,66.485-60.955,9.135-123.017,8.773-183.041,8.423q-3.111-.018-6.259-.042c-35.1-.241-74.888-.517-109.006,10.041-13.766,4.259-24.516,12.061-31.947,23.188-6.423,9.616-10.56,21.744-12.649,37.075-4.456,32.716-2.821,66.623-1.241,99.415.707,14.666,1.438,29.83,1.6,44.576.242,21.906.311,44.154.378,65.67.116,37.356.237,75.988,1.262,114.054l.145,5.3c1.324,47.957,2.693,97.545-18.12,141.059C440,804.23,355.863,830.6,294.425,849.85l-.508.159C198.377,879.948,98.366,900.353,0,918.818V920c98.478-18.481,198.614-38.9,294.294-68.886l.508-.161C356.453,831.631,440.888,805.173,470.145,744c20.932-43.76,19.559-93.485,18.23-141.572l-.144-5.3c-1.025-38.052-1.145-76.676-1.262-114.027-.066-21.519-.136-43.769-.377-65.677-.162-14.769-.895-29.943-1.6-44.618-1.579-32.744-3.211-66.6,1.232-99.213,4.442-32.6,18.349-51.445,43.767-59.311,33.93-10.5,73.611-10.224,108.622-9.984q3.15.022,6.262.042c60.068.35,122.184.713,183.237-8.437,91.092-13.654,163.707-35.446,222-66.619a348.851,348.851,0,0,0,95.36-75.032A383.714,383.714,0,0,0,1185.941,0Z" transform="translate(-4.312 -4.512)" fill="#0b0b1e"/>
          <path id="Caminho_1604" data-name="Caminho 1604" d="M1191.327,0c-37.244,57.471-84.553,101.929-141.1,132.473-68.773,37.153-149.521,55.646-219.809,70.062C776.989,213.5,721.8,217.144,668.431,220.672q-6.137.405-12.274.814c-19.012,1.27-38.089,3.633-56.537,5.921l-6.775.838c-2.32.286-4.652.557-6.99.83-13.628,1.589-27.721,3.233-40.777,7.8-23.744,8.308-36.249,27.4-39.358,60.082-2.981,31.341-.761,63.571,1.387,94.737,1.053,15.29,2.143,31.1,2.591,46.521,1.353,46.5-.925,94.082-3.127,140.1-.6,12.493-1.217,25.411-1.751,38.076-1.808,42.917-4.06,96.329-30,138.543-12.288,20-32.371,37.821-61.4,54.482-41.363,23.745-86.967,38.842-130.088,51.622C190.9,888.43,94.753,907.928,0,925.547v1.18c94.86-17.637,191.125-37.152,283.7-64.586,43.192-12.8,88.879-27.927,130.352-51.733,29.2-16.765,49.426-34.719,61.819-54.889,26.091-42.464,28.35-96.037,30.163-139.084.534-12.662,1.152-25.578,1.749-38.068,2.2-46.036,4.481-93.641,3.128-140.182-.449-15.443-1.54-31.265-2.593-46.564-2.145-31.123-4.363-63.305-1.39-94.557,3.061-32.184,15.316-50.963,38.566-59.1,12.924-4.523,26.946-6.16,40.507-7.74,2.341-.273,4.675-.544,7-.83l6.775-.839c18.431-2.284,37.489-4.647,56.467-5.914q6.137-.413,12.273-.816c53.413-3.528,108.644-7.179,162.159-18.156,70.376-14.435,151.23-32.956,220.15-70.185a375.61,375.61,0,0,0,96.2-74.637A424.2,424.2,0,0,0,1192.721,0Z" transform="translate(-4.312 -4.512)" fill="#0b0b1e"/>
          <path id="Caminho_1605" data-name="Caminho 1605" d="M1197.964,0c-40.521,59.674-90.255,105.766-148.25,137.307-57.862,31.466-122.747,48.25-185.5,64.484-9.533,2.466-19.389,5.015-29.061,7.574-46.844,12.4-95.35,19.653-142.259,26.669-8.733,1.305-17.765,2.655-26.657,4.02-9.439,1.449-18.957,3.227-28.162,4.95-10.476,1.958-21.309,3.981-32.056,5.525q-2.558.366-5.139.723c-13.368,1.866-27.194,3.8-39.8,8.726a48.361,48.361,0,0,0-26.923,24.558c-4.548,9.215-7.181,20.85-8.049,35.575-1.764,29.95.889,60.559,3.454,90.161,1.4,16.137,2.846,32.823,3.548,49.142,2.485,57.7-3.736,115.444-10.9,174.452-5.417,44.646-13.667,95.472-43.192,133.6-45.851,59.2-133.817,84.125-204.5,104.152l-.388.108C184.464,897.129,91.622,915.836,0,932.76v1.18C91.725,917,184.683,898.277,274.484,872.835l.389-.111C345.727,852.65,433.909,827.667,480,768.151,509.7,729.8,517.99,678.793,523.424,634c7.164-59.056,13.39-116.851,10.9-174.635-.7-16.342-2.151-33.041-3.551-49.19-2.562-29.56-5.212-60.128-3.452-90,1.284-21.8,6.335-48.221,34.219-59.126,12.468-4.876,26.218-6.794,39.515-8.653q2.582-.358,5.144-.724c10.773-1.547,21.619-3.572,32.108-5.533,9.2-1.72,18.7-3.5,28.123-4.943,8.889-1.363,17.919-2.712,26.651-4.019,46.943-7.021,95.485-14.282,142.4-26.7,9.669-2.558,19.524-5.107,29.056-7.573,62.822-16.25,127.784-33.056,185.78-64.6C1108.684,106.57,1158.7,60.133,1199.4,0Z" transform="translate(-4.312 -4.512)" fill="#0b0b1e"/>
          <path id="Caminho_1606" data-name="Caminho 1606" d="M1204.713,0c-43.99,61.807-96.087,109.522-155.2,142.083-56.633,31.19-120.024,48.988-181.328,66.2-8.662,2.432-17.618,4.947-26.409,7.458-40.349,11.525-81.564,21.965-121.422,32.061-14.5,3.673-29.495,7.471-44.258,11.274l-2.4.616c-18.46,4.759-35.9,9.253-54.469,12.482q-2.374.413-4.77.816c-12.179,2.07-24.773,4.208-36.179,9.008-27.3,11.482-31.527,38.457-32.159,60.674-.817,28.794,2.151,58.088,5.02,86.416,1.779,17.557,3.618,35.711,4.529,53.516,2.6,50.768-2.386,102.425-16.161,167.491-8.786,41.5-23.294,93.847-57.776,130.51-53.325,56.7-140.917,80.963-211.3,100.463C181.871,905.6,90.365,923.933,0,940.532v1.18c90.467-16.615,182.086-34.964,270.768-59.533,33.47-9.274,75.127-20.814,113.473-36.932,42.646-17.926,74.829-38.817,98.391-63.869,34.677-36.872,49.246-89.406,58.062-131.055,13.795-65.164,18.785-116.909,16.183-167.778-.912-17.832-2.752-36-4.532-53.57-2.867-28.294-5.831-57.55-5.015-86.272.621-21.875,4.756-48.424,31.434-59.645,11.272-4.741,23.793-6.87,35.9-8.925q2.4-.405,4.775-.817c18.621-3.238,36.081-7.739,54.568-12.5l2.4-.619c14.761-3.8,29.755-7.6,44.254-11.271,39.867-10.1,81.091-20.541,121.458-32.074,8.788-2.509,17.743-5.024,26.405-7.454,61.371-17.231,124.832-35.048,181.591-66.31C1109.6,110.324,1161.984,62.265,1206.173,0Z" transform="translate(-4.312 -4.512)" fill="#0b0b1e"/>
          <path id="Caminho_1607" data-name="Caminho 1607" d="M1211.79,0c-48.559,65.262-102.467,113.832-164.235,148.062-52.979,29.358-111.812,47.483-168.707,65.008-11.032,3.4-22.439,6.913-33.63,10.455-53.928,17.069-106.661,35.336-156.731,54.294-13.452,5.094-28.2,8.094-42.465,11-17.83,3.625-36.268,7.373-52.408,15.253-24.542,11.977-27.915,37.325-27.977,60.542-.073,27.281,3.051,54.957,6.073,81.721,2,17.7,4.067,36.006,5.183,53.992,2.2,35.426,1.722,63.916-1.5,89.658-3.341,26.69-11.446,53.359-19.461,78.39-17.793,55.565-40.87,96.008-70.549,123.639-61.491,57.249-153.735,81.623-227.853,101.208C172.977,915.562,85.972,932.91,0,948.73v1.18c86.071-15.837,173.183-33.2,257.853-55.573,41.81-11.048,82.529-22.233,121.061-37.524,45.27-17.964,80.373-38.889,107.314-63.973,29.829-27.771,53.008-68.375,70.863-124.131,8.03-25.079,16.152-51.806,19.5-78.59,3.23-25.813,3.709-54.369,1.507-89.866-1.119-18.015-3.187-36.333-5.187-54.048-3.018-26.732-6.141-54.376-6.068-81.593.062-22.866,3.355-47.818,27.316-59.515,16-7.805,34.355-11.54,52.11-15.15,14.312-2.911,29.112-5.921,42.659-11.05,50.048-18.95,102.759-37.21,156.666-54.271,11.186-3.541,22.59-7.055,33.62-10.453,56.955-17.545,115.85-35.687,168.943-65.109A479.693,479.693,0,0,0,1147.92,74.78,604.815,604.815,0,0,0,1213.264,0Z" transform="translate(-4.312 -4.512)" fill="#0b0b1e"/>
          <path id="Caminho_1608" data-name="Caminho 1608" d="M1219.346,0c-53.3,68.195-110.1,118.709-173.267,154.139C996.927,181.71,942.742,200.006,890.34,217.7c-13.184,4.452-26.817,9.056-40.179,13.742-34.5,12.1-67.83,27.664-100.066,42.721-16.064,7.5-32.675,15.262-49.244,22.505-13.074,5.714-27.576,9.025-41.6,12.224-16.809,3.836-34.19,7.8-49.25,15.938-23.054,12.46-25.762,37.778-25.37,60.9.44,26.037,3.629,52.4,6.713,77.894,2.227,18.409,4.529,37.444,5.773,56.186,4.375,65.823-3.295,116.779-24.864,165.222-23.1,51.888-51.461,91.936-84.282,119.033-63.481,52.41-148.526,77.209-237.416,100C168.153,925.2,83.578,942.026,0,957.482v1.18c83.674-15.47,168.356-32.318,250.868-53.475,89.03-22.828,174.218-47.672,237.894-100.243,32.963-27.213,61.429-67.4,84.606-119.456,21.649-48.618,29.346-99.737,24.959-165.75-1.247-18.772-3.552-37.823-5.779-56.246-3.081-25.466-6.267-51.8-6.706-77.779C585.456,362.93,588.1,338,610.6,325.838c14.911-8.059,32.207-12,48.933-15.82,14.083-3.212,28.644-6.535,41.825-12.3,16.583-7.251,33.2-15.012,49.272-22.52,32.209-15.042,65.514-30.6,99.952-42.675,13.356-4.682,26.984-9.284,40.166-13.734,52.455-17.711,106.7-36.026,155.948-63.654,63.032-35.356,119.729-85.7,172.93-153.572V0Z" transform="translate(-4.312 -4.512)" fill="#0b0b1e"/>
          <path id="Caminho_1609" data-name="Caminho 1609" d="M1043.752,158.919c-44.816,25.409-93.832,43.507-141.232,61.009-15,5.541-30.521,11.268-45.706,17.155a567.852,567.852,0,0,0-80.86,38.444c-6.825,3.964-13.681,8.23-20.313,12.354-13.864,8.625-28.2,17.543-43.23,24.347-11.857,5.369-25.056,8.946-37.821,12.406-16.491,4.471-33.542,9.092-48.014,17.638-21.941,12.956-24.278,37.221-23.534,61.513.762,24.907,3.915,50.1,6.965,74.461,2.406,19.223,4.892,39.1,6.187,58.7,3.357,50.784,2.758,109.557-27.132,160.416C559,748.522,525.274,788.081,488.828,814.944c-68.737,50.661-157.657,75.939-242.842,97.487C165.028,932.91,82,949.426,0,964.665v1.181c82.1-15.255,165.228-31.787,246.3-52.294,85.306-21.58,174.359-46.9,243.273-97.691C526.145,788.9,559.976,749.225,590.12,697.93c30.044-51.122,30.652-110.1,27.285-161.056-1.3-19.632-3.787-39.526-6.194-58.764-3.046-24.338-6.194-49.5-6.955-74.358-.734-23.945,1.541-47.846,22.958-60.494,14.328-8.459,31.3-13.06,47.709-17.509,12.812-3.473,26.06-7.064,38.009-12.473,15.1-6.838,29.474-15.778,43.372-24.423,6.624-4.121,13.473-8.381,20.281-12.336a566.615,566.615,0,0,1,80.686-38.36c15.175-5.883,30.686-11.61,45.687-17.148,47.447-17.519,96.51-35.634,141.414-61.093,61.644-34.952,119.121-84.371,175.25-150.7V7.372c-56.337,66.782-114.006,116.472-175.87,151.547" transform="translate(-4.312 -2.262)" fill="#0b0b1e"/>
          <path id="Caminho_1610" data-name="Caminho 1610" d="M1041.37,164.232c-39.888,22.915-83.15,40.346-124.988,57.2-18.353,7.394-37.331,15.04-55.817,23.064-30.042,13.038-53.2,25.476-72.881,39.142-6.6,4.581-13.072,9.483-19.331,14.221-13.057,9.885-26.559,20.106-41.693,27.772-11.6,5.875-24.631,9.949-37.236,13.888-15.974,4.993-32.491,10.155-46.343,19.048-21.156,13.584-23.207,37.933-22.271,62.224.922,23.891,3.954,48.044,6.885,71.4,2.5,19.951,5.095,40.581,6.355,60.948,3.3,53.307,2.328,113.775-29.9,158.081-23.708,32.586-62.365,78.545-111.89,112.444-73.455,50.28-163.546,75.565-249.528,97.153C162.8,940.89,80.857,957.229,0,972.384v1.181c80.952-15.171,162.994-31.527,243.035-51.624,86.092-21.616,176.3-46.937,249.927-97.332,49.666-34,88.417-80.065,112.178-112.726,32.447-44.6,33.433-105.3,30.121-158.81-1.263-20.4-3.855-41.05-6.362-61.017-2.929-23.334-5.958-47.463-6.877-71.308-.922-23.955,1.072-47.953,21.736-61.219,13.712-8.8,30.148-13.94,46.043-18.908,12.653-3.955,25.736-8.044,37.427-13.965,15.232-7.715,28.778-17.971,41.878-27.888,6.251-4.732,12.713-9.624,19.292-14.192,19.612-13.619,42.7-26.019,72.669-39.025,18.473-8.016,37.442-15.659,55.787-23.05,41.878-16.873,85.181-34.319,125.143-57.277,61.171-35.143,118.024-82.615,177.627-148.454V15c-59.851,66.271-116.882,113.973-178.253,149.232" transform="translate(-4.312 0.067)" fill="#0b0b1e"/>
          <path id="Caminho_1611" data-name="Caminho 1611" d="M1042.125,168.326c-35.637,21.047-74.079,37.907-111.259,54.211-21.824,9.57-44.389,19.467-66.194,30.121-26.507,12.952-47.1,25.49-64.808,39.459-6.339,5-12.453,10.3-18.367,15.423-12.329,10.685-25.08,21.733-40.068,30.154-11.484,6.453-24.456,11.089-37,15.573-15.491,5.536-31.507,11.26-44.894,20.459-20.64,14.183-22.583,38.692-21.609,63.065.921,23.057,3.753,46.368,6.492,68.911,2.492,20.521,5.071,41.742,6.2,62.707,2.776,51.558,1.276,110.012-30.886,152.655-12.065,16-27.746,30.538-42.911,44.6-4.48,4.155-9.112,8.45-13.5,12.653-22.707,21.734-44.74,39.378-67.357,53.945-77.854,50.139-172.483,76.369-255.07,97.021C161.51,949.135,80.157,965.453,0,980.682v1.183c80.252-15.247,161.709-31.581,241.2-51.459,82.683-20.675,177.429-46.941,255.441-97.182,22.682-14.608,44.775-32.3,67.535-54.087,4.385-4.2,9.013-8.488,13.49-12.639,15.2-14.1,30.923-28.678,43.05-44.756,32.382-42.934,33.9-101.634,31.113-153.393-1.131-21-3.71-42.241-6.205-62.782-2.736-22.52-5.565-45.808-6.486-68.821-.961-24.049.932-48.216,21.107-62.079,13.256-9.108,29.195-14.806,44.609-20.315,12.595-4.5,25.618-9.154,37.193-15.658,15.1-8.482,27.893-19.571,40.268-30.3,5.9-5.115,12.007-10.406,18.324-15.389C818.276,279.1,838.8,266.6,865.225,253.69c21.782-10.643,44.337-20.534,66.148-30.1,37.211-16.32,75.689-33.193,111.391-54.279,58.574-34.595,115.207-80.942,176.859-144.86V22.737c-61.921,64.319-118.738,110.883-177.5,145.589" transform="translate(-4.312 2.428)" fill="#0b0b1e"/>
          <path id="Caminho_1612" data-name="Caminho 1612" d="M1039.172,175.243c-30.325,18.172-62.795,33.567-94.2,48.456-24.623,11.676-50.084,23.748-74.37,37.09-24.052,13.214-43.524,26.788-59.525,41.494-3.746,3.443-7.474,6.971-11.08,10.383-14.268,13.5-27.744,26.255-44.569,36.494-11.19,6.808-23.865,11.894-36.121,16.812-14.929,5.99-30.369,12.183-43.266,21.547-20.545,14.915-22.572,39.66-21.7,64.177.79,22.272,3.344,44.8,5.814,66.581,2.3,20.32,4.686,41.332,5.631,62.087,2.393,52.593.106,111.876-35.015,152.805-13.734,16.006-30.619,30.231-46.945,43.987-4.2,3.537-8.541,7.2-12.723,10.8-25.377,21.853-49.269,39.482-73.043,53.894C417.329,890.8,323.494,916.86,241.878,937.445,162.153,957.554,80.386,974.1,0,989.624v1.183c80.481-15.543,162.353-32.1,242.187-52.24,81.7-20.609,175.645-46.7,256.527-95.737,23.832-14.448,47.776-32.116,73.2-54.012,4.178-3.6,8.516-7.255,12.713-10.791,16.363-13.786,33.283-28.042,47.081-44.122C667.092,692.675,669.4,633.128,667,580.315c-.947-20.792-3.332-41.823-5.637-62.162-2.469-21.763-5.02-44.267-5.809-66.5-.86-24.206,1.116-48.618,21.222-63.215,12.777-9.275,28.142-15.44,43-21.4,12.3-4.935,25.026-10.04,36.3-16.9,16.935-10.305,31.087-23.7,44.772-36.648,3.6-3.409,7.328-6.935,11.067-10.372,15.929-14.641,35.323-28.158,59.288-41.325,24.254-13.324,49.7-25.389,74.3-37.056,31.428-14.9,63.927-30.311,94.3-48.514,71.631-42.925,132.4-97.28,179.806-143.785V30.776c-47.479,46.645-108.483,101.34-180.45,144.467" transform="translate(-4.312 4.882)" fill="#0b0b1e"/>
          <path id="Caminho_1613" data-name="Caminho 1613" d="M1039.482,180.9c-25.893,15.936-53.507,30.025-80.213,43.65-27.469,14.015-55.872,28.506-82.419,45.016-20.871,12.982-38.469,29.864-55.487,46.19-15.917,15.272-32.376,31.061-51.393,43.5-10.92,7.144-23.375,12.669-35.418,18.013-14.926,6.623-30.362,13.472-43.057,23.473-19.863,15.649-22.044,40.346-21.441,64.7.538,21.723,2.744,43.709,4.88,64.971,2.1,20.875,4.262,42.46,4.847,63.779,1.362,49.626-2.122,105.97-38.291,147.59-16.529,19.02-36.845,35-56.492,50.448q-3.218,2.532-6.43,5.064c-28.369,22.41-53.2,39.553-78.129,53.954-81.216,46.907-174.3,73.891-262.783,96.063C159.211,966.97,78.805,983.441,0,999.053v1.184c78.9-15.629,159.409-32.118,237.962-51.8,88.576-22.193,181.756-49.208,263.106-96.191,24.985-14.43,49.858-31.607,78.273-54.053q3.21-2.534,6.428-5.063c19.691-15.486,40.051-31.5,56.654-50.6,16.38-18.848,27.246-41.875,33.219-70.4,5.937-28.352,5.9-58.072,5.353-77.962-.588-21.359-2.755-42.965-4.854-63.86-2.132-21.242-4.338-43.205-4.875-64.887-.6-24.064,1.537-48.446,21-63.78,12.574-9.906,27.938-16.723,42.8-23.316,12.089-5.362,24.589-10.909,35.591-18.107,19.111-12.5,35.611-28.332,51.568-43.64,16.974-16.284,34.526-33.122,55.292-46.038,26.5-16.483,54.881-30.962,82.327-44.965,26.727-13.636,54.365-27.737,80.3-43.7,68.233-42,128.317-93.539,179.484-141.1v-1.62c-51.306,47.736-111.617,99.568-180.14,141.742" transform="translate(-4.312 7.441)" fill="#0b0b1e"/>
          <path id="Caminho_1614" data-name="Caminho 1614" d="M1036.3,189.422c-20.888,13.088-43.038,25.172-64.46,36.857-29.3,15.983-59.592,32.509-87.152,51.868-19.132,13.439-35.666,30.125-51.656,46.261-14.779,14.915-30.06,30.337-47.33,43.122-11.326,8.384-24.433,14.689-37.109,20.788-14.015,6.742-28.508,13.714-40.625,23.517-20.485,16.573-23.124,41.616-22.926,66.208.172,21.242,1.956,42.766,3.679,63.579,1.711,20.647,3.478,42,3.673,63.058.435,47.158-4.288,101.386-42.611,146.026-18.478,21.524-40.574,38.4-65.452,56.668-29.632,21.761-55.026,38.38-79.919,52.3-85.335,47.723-183.378,75.916-268.028,97.2C158.26,976.518,78.149,993.2,0,1009.157v1.185c78.244-15.976,158.458-32.676,236.7-52.347,56.057-14.1,98.526-26.426,137.7-39.983,49.594-17.161,92.324-35.917,130.63-57.339,24.935-13.945,50.37-30.59,80.044-52.381,24.939-18.315,47.092-35.234,65.651-56.852,16.9-19.683,28.419-42.365,35.221-69.339,5.514-21.866,7.95-46.471,7.664-77.432-.194-21.1-1.965-42.473-3.676-63.139-1.722-20.794-3.5-42.3-3.674-63.5-.2-24.31,2.392-49.049,22.5-65.314,12.007-9.714,26.434-16.655,40.387-23.367,12.727-6.123,25.886-12.455,37.3-20.906,17.346-12.84,32.66-28.294,47.471-43.241,15.953-16.1,32.448-32.748,51.493-46.125,27.5-19.319,57.767-35.829,87.035-51.8,21.436-11.694,43.6-23.787,64.523-36.893,66.2-41.479,126.717-91.436,182.653-140.828V47.984c-56.127,49.595-116.865,99.8-183.319,141.438" transform="translate(-4.312 10.135)" fill="#0b0b1e"/>
          <path id="Caminho_1615" data-name="Caminho 1615" d="M1037.208,196.132c-17.054,11-35.149,21.478-52.648,31.607-32.4,18.754-65.9,38.148-94.771,61.966-16.712,13.787-32.239,29.413-47.255,44.522C829.1,347.75,815.2,361.733,800.487,374.373c-11.557,9.925-25.37,17.155-38.728,24.146-13.293,6.958-27.037,14.153-38.56,24-20.406,17.447-23.515,43.6-23.865,66.882-.315,21,.965,42.3,2.2,62.9,1.259,20.972,2.563,42.656,2.183,64.022-.537,30.189-3.5,54.228-9.333,75.653-6.006,22.067-18.075,43.684-36.9,66.088-39.509,47.022-98.024,82.273-150.05,110.555-86.2,46.86-182.442,75.025-265.215,96.395C162.111,985.7,79.791,1003.177,0,1020.037v1.186c79.885-16.88,162.313-34.376,242.537-55.09,82.847-21.388,179.177-49.58,265.5-96.506,52.128-28.336,110.759-63.664,150.4-110.837,18.935-22.533,31.08-44.293,37.128-66.521,5.857-21.516,8.834-45.642,9.373-75.926.38-21.409-.923-43.115-2.185-64.108-1.236-20.58-2.514-41.861-2.2-62.814.345-23.03,3.4-48.886,23.461-66.034,11.418-9.762,25.1-16.925,38.334-23.851,13.418-7.022,27.293-14.285,38.955-24.3,14.75-12.67,28.663-26.67,42.117-40.208,15-15.09,30.5-30.693,47.168-44.444,28.8-23.754,62.251-43.122,94.605-61.851,17.513-10.138,35.621-20.62,52.7-31.638,64.724-41.76,123.37-89.024,181.736-138.22V57.326c-58.6,49.413-117.452,96.892-182.415,138.806" transform="translate(-4.312 12.987)" fill="#0b0b1e"/>
          <path id="Caminho_1616" data-name="Caminho 1616" d="M1037.157,204.229c-13.518,8.966-27.842,17.742-41.695,26.229-34.009,20.838-69.176,42.384-97.692,69.7C887.589,309.916,877.63,320.09,868,329.929c-16.406,16.758-33.369,34.086-51.818,49.724-11.727,9.937-25.183,17.864-38.2,25.53-13.074,7.7-26.592,15.664-38.308,25.65-21.726,18.515-25.716,45.2-26.753,68.867-.911,20.775-.227,41.892.435,62.316.673,20.743,1.368,42.193.389,63.283-1,21.675-3.268,49.85-11.945,75.561-6.77,20.062-19.414,41.456-37.578,63.59-38.935,47.44-95.388,81.54-150.594,111.322C425.142,923.5,328.42,952.314,245.476,974.2c-75.773,19.991-153.643,37.17-228.948,53.784L0,1031.631v1.189l16.8-3.708c75.317-16.616,153.2-33.8,229-53.8,83.016-21.9,179.825-50.738,268.426-98.535,55.315-29.842,111.888-64.019,150.954-111.617,18.253-22.242,30.964-43.756,37.778-63.95,8.721-25.841,11-54.119,12-75.866.98-21.133.284-42.606-.389-63.37-.661-20.4-1.345-41.5-.435-62.23,1.027-23.423,4.961-49.824,26.349-68.052,11.634-9.916,25.107-17.852,38.137-25.527,13.057-7.692,26.559-15.645,38.364-25.65,18.492-15.674,35.474-33.022,51.9-49.8,9.626-9.833,19.581-20,29.746-29.742,28.424-27.229,63.534-48.742,97.488-69.546,13.861-8.493,28.2-17.276,41.732-26.254,63.311-41.988,123.49-89.483,181.772-136.464V67.2c-58.505,47.169-118.915,94.882-182.464,137.029" transform="translate(-4.312 16.001)" fill="#0b0b1e"/>
          <path id="Caminho_1617" data-name="Caminho 1617" d="M1219.167,77.983c-59.315,45.869-120.648,93.3-183.9,136.4-9.761,6.653-19.969,13.307-29.839,19.742-35.375,23.061-71.956,46.91-99.974,78.03-27.927,31.022-50.889,53.611-74.451,73.241-10.927,9.1-25.636,20.853-42.536,30.976q-1.8,1.081-3.618,2.159c-10.272,6.119-20.892,12.447-29.958,20.384-22.411,19.623-27.3,47.669-29.053,69.91-1.628,20.637-1.631,41.668-1.634,62.008,0,20.263-.007,41.216-1.617,61.767-4.255,54.3-21.894,99.812-53.922,139.147-40.723,50.012-97.944,84.2-153.713,113.705-88.507,46.817-184.979,76.121-259.137,96.419-71.159,19.478-144.3,36.405-215.025,52.776Q20.534,1039.341,0,1044.116v1.193q20.655-4.813,41.081-9.531c70.741-16.372,143.89-33.3,215.073-52.787,74.22-20.315,170.775-49.646,259.39-96.52,55.882-29.56,113.225-63.831,154.082-114.008,32.18-39.521,49.9-85.241,54.175-139.772,1.614-20.594,1.617-41.57,1.62-61.854,0-20.318.006-41.327,1.631-61.92,1.737-22.027,6.566-49.794,28.663-69.142,8.982-7.866,19.556-14.165,29.781-20.255q1.812-1.081,3.619-2.16c16.971-10.168,31.728-21.954,42.688-31.086,23.609-19.668,46.608-42.292,74.573-73.357,27.913-31.005,64.427-54.809,99.737-77.83,9.876-6.438,20.088-13.094,29.861-19.755,63.169-43.051,124.414-90.4,183.647-136.209V77.632l-.454.351" transform="translate(-4.312 19.186)" fill="#0b0b1e"/>
          <path id="Caminho_1618" data-name="Caminho 1618" d="M1180.835,117.567c-46.8,34.969-95.2,71.129-143.862,105.4q-5.941,4.186-11.884,8.342c-38.571,27.021-78.456,54.963-110.027,91.208-24.488,28.114-46.547,49.916-69.421,68.611-12.424,10.158-25.273,20.66-38.989,29.453-2.454,1.572-4.969,3.151-7.4,4.677-9.545,5.983-19.415,12.173-28.061,19.647-18.888,16.325-29.091,38.521-33.082,71.971-2.459,20.613-3.255,41.678-4.024,62.051-.78,20.66-1.588,42.022-4.13,62.911a265.337,265.337,0,0,1-57.821,136.811C630.074,830.65,571.8,865.569,520.34,892.87,379.258,967.716,219.246,1005.787,64.5,1042.6c-21.31,5.071-42.877,10.206-64.5,15.458v1.2c21.723-5.28,43.387-10.437,64.8-15.53,154.821-36.834,314.912-74.924,456.134-149.845C572.5,866.525,630.9,831.526,673.091,779.35a266.442,266.442,0,0,0,58.066-137.385c2.549-20.934,3.357-42.32,4.138-63,.768-20.35,1.563-41.394,4.017-61.962,3.955-33.147,14.037-55.12,32.692-71.244,8.575-7.413,18.405-13.576,27.911-19.537,2.436-1.527,4.956-3.105,7.415-4.682,13.774-8.83,26.65-19.354,39.1-29.534,22.926-18.74,45.03-40.586,69.564-68.751,31.475-36.133,71.3-64.033,109.811-91.014q5.941-4.162,11.888-8.342c48.677-34.277,97.08-70.444,143.888-105.417,12.5-9.342,25.241-18.858,38.039-28.38V88.632c-13.051,9.709-26.039,19.41-38.787,28.935" transform="translate(-4.312 22.543)" fill="#0b0b1e"/>
          <path id="Caminho_1619" data-name="Caminho 1619" d="M1107.588,181.883c-22.578,16.6-45.925,33.755-68.958,50.533l-5.41,3.937c-21.67,15.765-44.077,32.065-64.577,49.813-15.964,13.819-28.968,29.033-42.735,45.14l-3.035,3.549c-21.787,25.447-41.568,45.03-62.252,61.628-10.682,8.573-22.31,16.492-33.553,24.151-13.73,9.351-27.929,19.022-40.528,29.962-19.045,16.539-30.513,38.6-36.089,69.438-3.966,21.934-5.75,44.5-7.474,66.32-1.525,19.3-3.1,39.25-6.183,58.687-16.238,102.421-85.359,187.212-205.443,252.017C394.629,970.843,240.8,1010.357,92.043,1048.57c-30.347,7.795-61.2,15.722-92.043,23.975v1.2c30.951-8.283,61.907-16.237,92.358-24.06,74.36-19.1,151.251-38.852,225.14-62.669,82.912-26.725,153.059-55.821,214.45-88.952,55.706-30.063,101.069-64.987,134.83-103.8,38.615-44.4,62.574-94.544,71.214-149.048,3.09-19.48,4.668-39.455,6.194-58.774,1.722-21.794,3.5-44.331,7.46-66.209,5.528-30.568,16.875-52.422,35.71-68.778,12.547-10.895,26.713-20.545,40.415-29.876,11.264-7.672,22.911-15.606,33.631-24.207,20.742-16.646,40.573-36.277,62.411-61.782l3.034-3.549c13.737-16.072,26.713-31.254,42.608-45.014,20.464-17.715,42.849-34,64.5-49.749l5.41-3.938c23.036-16.779,46.383-33.941,68.963-50.536,36.411-26.763,73.761-54.215,111.3-81.162v-1.449c-37.785,27.118-75.387,54.754-112.035,81.692" transform="translate(-4.312 26.072)" fill="#0b0b1e"/>
          <path id="Caminho_1620" data-name="Caminho 1620" d="M1038.1,244.411c-18.953,14.355-42.541,32.22-62.884,51.652-12.007,11.469-22.553,24.408-32.752,36.922-3.264,4-6.639,8.146-10.015,12.179C912.229,369.336,893.7,387.713,874.125,403c-10.182,7.953-21.122,15.4-31.7,22.6-13.195,8.979-26.837,18.263-39.167,28.633-41.969,35.3-47.993,90.513-53.822,143.906-2.128,19.493-4.137,37.9-7.833,55.151C719.49,756.438,649.9,841.159,534.754,905.092c-127.878,71-271.91,110.612-411.2,148.917C82.844,1065.2,41.26,1076.643,0,1088.887v1.214c41.367-12.281,83.069-23.752,123.888-34.978C263.25,1016.8,407.357,977.168,535.364,906.093c54.072-30.024,98.808-65.374,132.968-105.071,37.856-43.994,62.909-93.624,74.459-147.509,3.709-17.3,5.722-35.742,7.853-55.262,5.8-53.172,11.8-108.154,53.417-143.157,12.281-10.331,25.9-19.6,39.068-28.56,10.6-7.209,21.55-14.665,31.764-22.641,19.638-15.336,38.229-33.767,58.508-58,3.38-4.041,6.757-8.184,10.024-12.192,10.176-12.485,20.7-25.4,32.652-36.814,20.295-19.386,43.851-37.227,62.779-51.563,64.784-49.065,124.313-92.41,180.766-131.607V112.28c-56.677,39.335-116.45,82.85-181.519,132.131" transform="translate(-4.312 29.762)" fill="#0b0b1e"/>
          <path id="Caminho_1621" data-name="Caminho 1621" d="M1044.192,252.273c-23.492,18.413-46.159,36.687-65.261,57.771C970.475,319.377,962.61,329.453,955,339.2c-4.109,5.264-8.358,10.707-12.643,15.959-18.82,23.068-36.215,40.343-54.745,54.364-9.6,7.265-19.871,14.062-29.8,20.635-13.668,9.046-27.8,18.4-40.438,29.132-42.552,36.145-51.711,90.786-60.568,143.628-3.063,18.268-5.955,35.525-10.162,52.114-13.381,52.76-35.231,99.073-64.941,137.653-34.269,44.5-81.412,83.792-144.126,120.124-118.928,68.9-253.628,108.729-383.893,147.246C102.992,1075.042,50.956,1090.438,0,1107.5v1.228c51.065-17.109,103.229-32.544,154.042-47.569,130.336-38.539,265.109-78.388,384.165-147.362,62.851-36.413,110.109-75.805,144.473-120.428,29.807-38.7,51.724-85.158,65.142-138.068,4.219-16.633,7.115-33.912,10.181-52.2,8.824-52.641,17.948-107.074,60.177-142.945,12.581-10.686,26.684-20.02,40.323-29.045,9.947-6.584,20.234-13.391,29.866-20.678,18.608-14.081,36.067-31.419,54.947-54.561,4.294-5.263,8.546-10.711,12.658-15.979,7.594-9.727,15.446-19.786,23.873-29.088,19.04-21.015,41.664-39.253,65.113-57.634,54.379-42.627,111.867-84.368,174.66-126.793v-1.419c-63.089,42.6-120.826,84.514-175.429,127.316" transform="translate(-4.312 33.632)" fill="#0b0b1e"/>
          <path id="Caminho_1622" data-name="Caminho 1622" d="M31.2,1114.59c45.965-16.388,92.717-31.394,138.361-46.035,123.332-39.564,250.861-80.473,362.929-148.737,60.546-36.883,106.566-76.373,140.686-120.73,30.247-39.322,53.234-86.406,68.321-139.943,4.163-14.773,7.725-30.42,11.171-45.554,12.789-56.182,26.013-114.277,73.518-152.517,11.475-9.237,24.257-17.289,36.617-25.077,9.792-6.17,19.916-12.549,29.353-19.489,17.68-13.006,33.564-28.9,51.5-51.546,4.693-5.922,9.354-12.023,13.864-17.922,6.7-8.773,13.64-17.844,20.8-26.5,17.322-20.946,38.133-38.949,58.043-55.284,56.011-45.959,115.126-87.422,172.824-125.711V138.13c-57.945,38.433-117.34,80.068-173.614,126.242-19.956,16.373-40.818,34.424-58.2,55.446-7.175,8.676-14.116,17.757-20.829,26.54-4.506,5.895-9.166,11.991-13.851,17.906-17.869,22.559-33.682,38.388-51.273,51.327-9.4,6.915-19.506,13.282-29.28,19.441-12.39,7.805-25.2,15.877-36.731,25.158-47.82,38.495-61.089,96.785-73.922,153.156-3.442,15.12-7,30.753-11.155,45.5C725.281,712.243,702.359,759.2,672.2,798.4c-34.031,44.239-79.943,83.635-140.361,120.438-111.943,68.189-239.4,109.075-362.664,148.617-46.661,14.969-94.481,30.316-141.441,47.134Z" transform="translate(6.122 37.653)" fill="#0b0b1e"/>
          <path id="Caminho_1623" data-name="Caminho 1623" d="M80.3,1110.49c31.231-11.511,62.569-22.5,93.383-33.312,117.216-41.113,238.425-83.625,344.64-151.558,58.221-37.237,103.014-76.779,136.938-120.888,29.332-38.138,52.791-83.805,69.722-135.73,4.752-14.578,8.868-29.571,13.225-45.444,16.43-59.851,33.42-121.742,85.253-159.389,10.535-7.651,21.92-14.535,32.931-21.192,10.476-6.334,21.309-12.884,31.414-20.1,16.008-11.426,30.728-26.105,46.326-46.2q4.455-5.739,8.849-11.447c24.308-31.513,47.267-61.278,77.74-87.612,51.778-44.744,108.257-84.241,169.955-124.652v-1.407c-62,40.595-118.747,80.245-170.768,125.2-30.564,26.412-53.559,56.223-77.9,87.784q-4.4,5.7-8.846,11.445c-15.525,20-30.166,34.605-46.078,45.961C877.011,429.138,866.2,435.676,855.741,442c-11.032,6.671-22.44,13.568-33.016,21.25-52.165,37.889-69.209,99.975-85.69,160.018-4.354,15.86-8.466,30.839-13.212,45.392-16.891,51.8-40.288,97.354-69.541,135.391-33.841,44-78.534,83.449-136.636,120.61C411.552,992.512,290.413,1035,173.263,1076.091c-31.779,11.146-64.113,22.492-96.317,34.4Z" transform="translate(24.635 41.754)" fill="#0b0b1e"/>
          <path id="Caminho_1624" data-name="Caminho 1624" d="M126.393,1106.313q24.8-9.7,49.349-19.132c111.431-42.991,226.653-87.446,327.729-154.97,58.384-39,103.472-80.191,137.841-125.917,29.014-38.6,52.312-83.439,71.224-137.078,4.122-11.69,7.939-23.514,11.983-36.032,20.343-63.006,41.38-128.157,98.785-166,9.087-5.99,18.682-11.595,27.96-17.014,11.325-6.615,23.033-13.455,33.933-21.059,15.086-10.524,28.515-24.155,43.542-44.2q4.558-6.077,9.057-12.138c23.591-31.688,45.871-61.619,75.522-88,49.158-43.742,104.3-81.978,159.961-118.131v-1.4c-55.937,36.308-111.37,74.712-160.788,118.685-29.74,26.464-52.056,56.441-75.683,88.178q-4.506,6.056-9.054,12.135c-14.95,19.937-28.295,33.486-43.272,43.935-10.86,7.577-22.548,14.4-33.85,21.005-9.292,5.429-18.9,11.041-28.017,17.049-25.849,17.039-46.711,41.343-63.777,74.3-15.072,29.106-25.446,61.235-35.478,92.307-4.039,12.511-7.855,24.327-11.971,36-18.875,53.529-42.117,98.268-71.06,136.773-34.287,45.618-79.281,86.716-137.552,125.644-100.961,67.447-216.119,111.877-327.487,154.844-17.231,6.648-34.637,13.366-52.1,20.207Z" transform="translate(42.033 45.931)" fill="#0b0b1e"/>
          <path id="Caminho_1625" data-name="Caminho 1625" d="M168.469,1102.055l7.65-3.26C282.725,1053.356,392.962,1006.372,490,938.708c56.149-39.151,100.113-80.091,134.408-125.157,29.243-38.429,53.808-83.572,75.095-138.006,4.03-10.3,8-20.969,11.831-31.284C735.677,578.782,760.85,511.074,824.17,471c8.67-5.486,17.823-10.58,26.675-15.508,10.374-5.773,21.1-11.742,31.13-18.388,14.69-9.732,27.43-22.509,41.312-41.43,4.427-6.034,8.859-12.189,13.145-18.141,19.978-27.739,40.635-56.424,66.53-80.772,46.481-43.705,100.045-81.067,154.4-116.167v-1.4c-54.636,35.258-108.508,72.788-155.253,116.741-25.977,24.427-46.668,53.157-66.678,80.94-4.285,5.951-8.715,12.1-13.141,18.134-13.8,18.8-26.442,31.492-41.008,41.142-9.991,6.62-20.7,12.579-31.05,18.34-8.865,4.935-18.034,10.037-26.733,15.543-63.659,40.286-88.9,108.179-113.313,173.837-3.833,10.312-7.8,20.974-11.823,31.268-21.25,54.334-45.763,99.385-74.941,137.73-34.219,44.968-78.1,85.823-134.142,124.9-96.932,67.59-207.108,114.549-313.659,159.963l-10.132,4.319Z" transform="translate(57.946 50.189)" fill="#0b0b1e"/>
          <path id="Caminho_1626" data-name="Caminho 1626" d="M208.2,1097.7c27.316-12.733,54.843-25.808,81.728-39.378,70.86-35.765,135.115-74.727,190.978-115.8,52.311-38.463,93.987-78.261,127.411-121.665,29.393-38.175,55.229-83.6,78.984-138.877,3.862-8.983,7.7-18.187,11.4-27.088C726.5,588.175,755.238,519.186,822.149,477.66c9.037-5.609,18.636-10.7,27.919-15.628,10.551-5.6,21.462-11.39,31.618-17.972,17.644-11.435,29.793-26.788,39.35-40.3,3.736-5.28,7.493-10.667,11.127-15.876,18.894-27.084,38.432-55.091,62.565-79.215,43.426-43.406,94.919-79.844,147.611-113.823v-1.4c-52.984,34.139-104.8,70.749-148.488,114.422-24.207,24.2-43.774,52.246-62.7,79.373-3.633,5.207-7.389,10.592-11.122,15.869-9.492,13.418-21.551,28.663-39.026,39.988-10.112,6.554-21,12.331-31.526,17.917-9.3,4.936-18.917,10.039-27.99,15.671-30.163,18.72-55.216,44.6-76.588,79.123-19.029,30.735-33.411,65.26-47.321,98.652-3.707,8.9-7.54,18.1-11.4,27.076-23.717,55.186-49.506,100.532-78.841,138.629C573.988,863.485,532.388,903.207,480.17,941.6c-55.809,41.036-120.006,79.962-190.806,115.7-27.6,13.934-55.889,27.347-83.93,40.4Z" transform="translate(72.972 54.54)" fill="#0b0b1e"/>
          <path id="Caminho_1627" data-name="Caminho 1627" d="M242.221,1093.256c17.136-9.073,34.185-18.351,50.947-27.9,63.15-35.976,121.6-74.29,173.728-113.88,54.1-41.086,97.283-83.333,132.035-129.157,27.9-36.8,52.8-79.306,78.348-133.776,4.777-10.189,9.446-20.631,13.96-30.73,15.078-33.723,30.667-68.591,52.839-99.5,23.047-32.134,48.819-56.07,81.1-75.327,8.625-5.144,17.794-9.772,26.66-14.248,10.584-5.342,21.529-10.868,31.643-17.316,16.389-10.447,27.455-24.65,36.118-37.165,3.651-5.273,7.319-10.638,10.865-15.826,18.085-26.448,36.784-53.8,59.464-78.058,40.01-42.8,88.912-78.214,139.512-110.955v-1.4c-50.906,32.906-100.138,68.5-140.416,111.583-22.742,24.326-41.465,51.713-59.574,78.2-3.547,5.187-7.214,10.552-10.862,15.821-8.6,12.418-19.571,26.507-35.78,36.84-10.064,6.417-20.98,11.926-31.536,17.256C842.389,472.2,833.2,476.838,824.54,482c-32.43,19.344-58.315,43.383-81.463,75.654-22.239,31-37.851,65.927-52.952,99.7-4.514,10.094-9.179,20.532-13.953,30.711-25.513,54.4-50.37,96.838-78.224,133.568-34.683,45.739-77.8,87.912-131.805,128.931-52.086,39.557-110.492,77.843-173.6,113.791-17.374,9.9-35.06,19.5-52.832,28.894Z" transform="translate(85.868 58.987)" fill="#0b0b1e"/>
          <path id="Caminho_1628" data-name="Caminho 1628" d="M271.3,1088.587q12.728-7.877,25.235-16.021c66.85-43.647,118.952-80.677,163.964-116.536,51.455-40.99,93.156-82.744,127.485-127.65,28.158-36.833,53.8-79.077,83.132-136.97,4.588-9.056,9.145-18.415,13.551-27.465,16.384-33.647,33.325-68.439,56.8-98.186,25.655-32.51,54.938-57.866,89.522-77.517,8-4.548,16.494-8.638,24.7-12.593,10.089-4.858,20.52-9.883,30.168-15.812,16.228-9.975,26.829-23.73,35.057-35.87,3.738-5.513,7.485-11.119,11.109-16.54,17.292-25.866,35.171-52.614,56.877-76.56,37.121-40.955,82.283-74.957,129.495-106.145v-1.407c-47.527,31.356-93.023,65.544-130.411,106.794C966.223,354.119,948.318,380.9,931,406.8c-3.622,5.419-7.37,11.023-11.1,16.534-8.158,12.037-18.661,25.671-34.7,35.525-9.595,5.9-20,10.907-30.057,15.753-8.228,3.963-16.737,8.063-24.778,12.631-34.721,19.728-64.117,45.182-89.87,77.814-23.551,29.845-40.518,64.694-56.928,98.4-4.405,9.045-8.959,18.4-13.545,27.448-29.3,57.829-54.9,100.017-83.019,136.793-34.27,44.828-75.9,86.514-127.282,127.443-44.982,35.836-97.055,72.844-163.872,116.468q-13.249,8.65-26.779,16.979Z" transform="translate(96.913 63.657)" fill="#0b0b1e"/>
          <path id="Caminho_1629" data-name="Caminho 1629" d="M295.122,1083.76q2.8-2.126,5.578-4.276c19.3-14.957,39.256-29.785,58.553-44.124,32.261-23.971,65.618-48.759,96.937-74.9,49-40.9,89.259-82.11,123.086-125.99,34.712-45.03,63.2-94.539,86.49-137.029,3.874-7.068,7.782-14.338,11.563-21.368,19.77-36.773,40.214-74.8,67.745-106.881a328.06,328.06,0,0,1,89.994-73.063c8.232-4.579,16.973-8.637,25.427-12.562,9.939-4.615,20.216-9.387,29.755-15.042,16.6-9.839,27.133-23.8,36.047-37.419q3.513-5.367,6.994-10.724c18.994-29.178,36.936-56.737,60.064-82.449,33.555-37.3,73.7-68.694,115.982-97.384v-1.419c-42.6,28.862-83.081,60.448-116.9,98.047-23.189,25.78-41.154,53.376-60.173,82.593q-3.487,5.353-6.992,10.721c-8.837,13.5-19.272,27.335-35.659,37.048-9.485,5.623-19.733,10.382-29.646,14.984-8.472,3.935-17.233,8-25.505,12.6a329.242,329.242,0,0,0-90.323,73.332c-27.612,32.176-48.086,70.258-67.885,107.085-3.779,7.029-7.687,14.3-11.559,21.361-23.269,42.452-51.728,91.911-86.392,136.88-33.773,43.811-73.976,84.962-122.907,125.8-31.291,26.118-64.636,50.9-96.883,74.859-19.3,14.342-39.26,29.174-58.572,44.139q-3.365,2.608-6.767,5.175Z" transform="translate(105.978 68.484)" fill="#0b0b1e"/>
          <path id="Caminho_1630" data-name="Caminho 1630" d="M314.28,1078.782c20.815-17.652,42.413-34.819,63.386-51.486,25.308-20.111,51.477-40.908,76.2-62.506C501.5,923.173,541.114,881.57,574.98,837.6c33.453-43.434,61.605-90.015,87.573-134,46.95-79.531,96.015-154.654,179.606-199.756,8.014-4.323,16.536-8.141,24.78-11.833,10.516-4.712,21.39-9.583,31.357-15.568,15.653-9.4,25.617-22.811,34.05-35.9q3.939-6.114,7.835-12.217c19.031-29.749,37.009-57.85,60.4-84.04,29.6-33.138,64.506-61.495,101.493-87.409v-1.434c-37.316,26.092-72.549,54.655-102.415,88.092-23.457,26.259-41.459,54.4-60.517,84.188q-3.9,6.1-7.831,12.213c-8.359,12.976-18.221,26.259-33.663,35.53-9.9,5.947-20.743,10.8-31.227,15.5-8.263,3.7-16.807,7.529-24.86,11.874C757.7,548.082,708.533,623.349,661.5,703.029c-25.95,43.957-54.08,90.505-87.493,133.886-33.817,43.906-73.383,85.454-120.958,127.02-24.7,21.58-50.857,42.366-76.153,62.47-21.324,16.945-43.287,34.409-64.429,52.377Z" transform="translate(113.236 73.462)" fill="#0b0b1e"/>
          <path id="Caminho_1631" data-name="Caminho 1631" d="M331.877,1073.62c18.963-17.138,38.525-33.727,57.635-49.926,19.806-16.79,40.285-34.151,59.792-51.87,47.815-43.435,87.854-86.31,122.4-131.078,31.482-40.792,59.4-84.788,86.4-127.336l4.156-6.55c47.615-75,103.251-150.49,187.21-194.609,7.925-4.165,16.335-7.845,24.467-11.4,10.459-4.575,21.272-9.306,31.212-15.133,16.06-9.414,26.378-23.44,34.35-35.918,3.385-5.3,6.783-10.681,10.07-15.886,17.357-27.5,35.3-55.932,57.562-81.388,25.828-29.541,56.052-55.218,88.3-78.72v-1.457c-32.586,23.693-63.139,49.589-89.234,79.434-22.318,25.526-40.29,54-57.67,81.532-3.285,5.2-6.682,10.586-10.066,15.881-7.9,12.361-18.108,26.249-33.949,35.534-9.877,5.79-20.657,10.506-31.083,15.068-8.153,3.567-16.583,7.256-24.547,11.442-84.208,44.251-139.959,119.883-187.661,195.023l-4.157,6.55c-26.983,42.527-54.887,86.5-86.334,127.25-34.508,44.712-74.5,87.538-122.264,130.927-19.491,17.7-39.963,35.059-59.761,51.842-19.429,16.47-39.328,33.344-58.593,50.793Z" transform="translate(119.876 78.624)" fill="#0b0b1e"/>
          <path id="Caminho_1632" data-name="Caminho 1632" d="M348.529,1068.261c17-16.253,34.42-32.053,51.493-47.536,15.651-14.195,31.836-28.87,47.409-43.634,46.594-44.171,85.994-87.155,120.453-131.4,27.1-34.8,52.111-71.81,76.3-107.6,5.645-8.354,11.483-16.993,17.257-25.47,44.265-64.985,106.43-145.433,194.981-191.105,7.9-4.076,16.282-7.688,24.384-11.181,10.781-4.648,21.931-9.453,32.153-15.433,16.367-9.573,26.815-23.863,34.875-36.58,3.775-5.956,7.554-12.011,11.209-17.865,17.068-27.343,34.716-55.617,56.553-81.024,21.627-25.161,46.675-47.487,73.559-68.05V289.9c-27.227,20.765-52.6,43.324-74.5,68.8S975.089,412.48,958,439.86c-3.654,5.853-7.431,11.905-11.2,17.859-7.986,12.6-18.325,26.749-34.471,36.192-10.158,5.941-21.272,10.732-32.02,15.366-8.121,3.5-16.519,7.12-24.459,11.216C767.05,566.29,704.764,646.887,660.42,711.986c-5.775,8.479-11.614,17.12-17.26,25.473C618.986,773.232,593.989,810.222,566.909,845c-34.421,44.2-73.782,87.143-120.333,131.273-15.563,14.755-31.742,29.427-47.388,43.615-17.368,15.75-35.088,31.826-52.374,48.378Z" transform="translate(126.159 83.982)" fill="#0b0b1e"/>
          <path id="Caminho_1633" data-name="Caminho 1633" d="M364.507,1062.263c16.517-16.7,33.281-33.043,49.756-49.1,10.5-10.236,21.365-20.82,31.981-31.322,45.551-45.056,84.335-88.112,118.568-131.624,22.908-29.118,44.714-59.7,65.8-89.269,10.047-14.09,20.438-28.659,30.814-42.886C728.2,626.522,792.313,567.081,863.186,531c7.924-4.035,16.308-7.632,24.416-11.112,11.211-4.812,22.8-9.787,33.416-16.009,16.843-9.874,27.579-24.6,35.859-37.695,4.986-7.888,9.917-15.986,14.685-23.814,16.034-26.331,32.615-53.559,53.962-77.162a521.745,521.745,0,0,1,57.6-54.146V309.55a524.172,524.172,0,0,0-58.516,54.9c-21.422,23.685-38.031,50.96-54.093,77.337-4.766,7.826-9.694,15.919-14.676,23.8-8.2,12.979-18.833,27.562-35.455,37.306-10.547,6.183-22.1,11.143-33.278,15.94-8.128,3.488-16.529,7.094-24.491,11.146-38.459,19.579-76.289,47.267-112.437,82.3-29.987,29.059-59.342,63.445-89.743,105.124-10.381,14.231-20.772,28.8-30.821,42.895-21.081,29.563-42.88,60.131-65.771,89.226-34.2,43.474-72.954,86.493-118.47,131.517-10.613,10.5-21.473,21.081-31.976,31.315-16.741,16.313-33.78,32.924-50.557,49.908Z" transform="translate(132.187 89.981)" fill="#0b0b1e"/>
          <path id="Caminho_1634" data-name="Caminho 1634" d="M379.5,1055.937c20.639-22.172,42.453-44.8,66.415-69.532,44.821-46.256,83.009-89.349,116.748-131.74,18.792-23.611,37.119-48.151,54.842-71.882,14.578-19.52,29.651-39.7,44.9-59.261,66.322-85.049,136.125-146.453,207.473-182.5,7.956-4.02,16.356-7.641,24.478-11.143,11.78-5.079,23.961-10.33,35.09-16.919,17.527-10.377,28.691-25.669,37.3-39.26,5.263-8.305,10.434-16.835,15.437-25.083,16.243-26.788,33.041-54.489,55.217-78.223a545.52,545.52,0,0,1,40.067-38.544v-1.577a548.419,548.419,0,0,0-40.972,39.35c-22.259,23.822-39.088,51.575-55.363,78.413-5,8.244-10.167,16.767-15.423,25.064-8.535,13.473-19.594,28.627-36.9,38.875-11.062,6.548-23.207,11.784-34.95,16.847-8.14,3.51-16.557,7.138-24.547,11.176C830.648,559.53,792.187,586.616,755,620.5c-31.565,28.761-63.045,63.189-93.566,102.33-15.258,19.565-30.334,39.754-44.916,59.28-17.717,23.724-36.037,48.257-54.818,71.854-33.715,42.361-71.88,85.424-116.673,131.652-24.246,25.022-46.294,47.9-67.15,70.321Z" transform="translate(137.844 96.306)" fill="#0b0b1e"/>
          <path id="Caminho_1635" data-name="Caminho 1635" d="M393.619,1049.237c17.306-19.723,35.382-39.732,54.438-60.256,43.313-46.651,79.936-88.6,111.963-128.255,15.108-18.7,30.1-37.992,44.594-56.644,18.714-24.079,38.066-48.98,57.879-72.891C730.179,649.5,802.051,589.1,876.115,551.659c8.049-4.069,16.543-7.772,24.759-11.354,12.779-5.571,25.994-11.332,37.968-18.647,18.174-11.1,29.877-27.2,38.929-41.49,4.961-7.83,9.844-15.82,14.566-23.547,17.223-28.186,35.034-57.332,59.031-82.3q10.1-10.508,20.772-20.477v-1.625q-11.116,10.387-21.666,21.319c-24.086,25.054-41.93,54.256-59.186,82.494-4.719,7.723-9.6,15.709-14.555,23.531-8.978,14.173-20.58,30.14-38.545,41.113-11.9,7.272-25.077,13.015-37.818,18.571-8.231,3.588-16.743,7.3-24.824,11.383C836.323,570.462,797.112,597.2,759,630.115c-33.387,28.834-66.177,62.6-97.461,100.355-19.825,23.925-39.182,48.834-57.9,72.921-14.493,18.647-29.48,37.931-44.581,56.627-32.01,39.629-68.616,81.562-111.911,128.193-19.3,20.791-37.6,41.053-55.111,61.025Z" transform="translate(143.172 103.007)" fill="#0b0b1e"/>
          <path id="Caminho_1636" data-name="Caminho 1636" d="M407.1,1042.122c13.323-16.021,27.045-32.073,41.2-47.971,33.31-37.4,72.418-81.806,109.925-127.57,11.122-13.569,22.3-27.474,33.1-40.92,23.943-29.794,48.7-60.6,74.5-89.769C732.418,660.6,807.21,600.705,882.12,562.674c8.208-4.168,16.827-8.006,25.164-11.719,13.105-5.836,26.657-11.87,39.037-19.364,20.359-12.323,33.253-29.92,43.181-45.51,4.665-7.326,9.265-14.768,13.711-21.965,18.507-29.947,35.989-58.233,60.767-83.773,1.017-1.048,2.049-2.082,3.074-3.122v-1.69c-1.325,1.338-2.653,2.673-3.964,4.024-24.868,25.631-42.381,53.97-60.923,83.973-4.445,7.193-9.042,14.631-13.7,21.952-9.855,15.474-22.645,32.938-42.794,45.133-12.314,7.453-25.83,13.472-38.9,19.293-8.349,3.717-16.985,7.563-25.22,11.745-75.045,38.1-149.961,98.093-216.646,173.494-25.815,29.188-50.581,60.007-74.532,89.811-10.806,13.444-21.976,27.346-33.1,40.912-37.493,45.747-76.592,90.14-109.893,127.533-14.381,16.147-28.312,32.451-41.83,48.721Z" transform="translate(148.256 110.122)" fill="#0b0b1e"/>
          <path id="Caminho_1637" data-name="Caminho 1637" d="M420.023,1034.418q14.487-17.985,29.419-35.551c9.793-11.477,19.773-23.126,29.424-34.393,26.656-31.114,54.218-63.288,80.841-95.323,6.245-7.516,12.576-15.178,18.7-22.588,29.288-35.45,59.573-72.105,91.73-106.2,66.289-70.292,142.227-128.2,219.605-167.449,7.881-4,16.128-7.753,24.1-11.386,14.224-6.478,28.933-13.175,42.27-21.554,16.3-10.237,29.814-24.337,43.826-45.713,5.539-8.449,10.942-17.025,16.17-25.317,14.659-23.262,28.685-45.514,46.078-66.325v-1.847c-17.878,21.187-32.17,43.857-47.118,67.573-5.223,8.288-10.626,16.86-16.158,25.3C984.995,514.87,971.591,528.86,955.447,539c-13.268,8.334-27.938,15.014-42.125,21.475-7.988,3.638-16.246,7.4-24.15,11.409-77.5,39.316-153.556,97.3-219.938,167.7-32.184,34.127-62.481,70.8-91.781,106.262-6.12,7.41-12.45,15.071-18.7,22.585-26.616,32.027-54.175,64.2-80.828,95.31-9.651,11.267-19.633,22.918-29.427,34.395q-15.253,17.878-30.008,36.284Z" transform="translate(153.124 117.826)" fill="#0b0b1e"/>
          <path id="Caminho_1638" data-name="Caminho 1638" d="M432.99,1025.747q9-11.628,18.261-23.007c27.348-33.494,55.812-67.068,83.338-99.538,8.941-10.546,18.188-21.452,27.258-32.193l2.364-2.8c34.373-40.708,69.916-82.8,108.283-121.286A903.787,903.787,0,0,1,892.946,584.94c8.725-4.579,17.87-8.865,26.713-13.01,15.578-7.3,31.688-14.851,46.224-24.33,17.2-11.216,31.617-26.4,46.748-49.229,4.848-7.316,9.627-14.71,14.249-21.86,10.056-15.559,19.844-30.694,30.42-45.3v-2.038c-10.975,15.052-21.07,30.666-31.452,46.728-4.62,7.148-9.4,14.539-14.242,21.849-15.038,22.692-29.35,37.772-46.407,48.894-14.464,9.43-30.534,16.962-46.075,24.247-8.856,4.149-18.013,8.442-26.762,13.033a921.9,921.9,0,0,0-116.88,73.036,896.264,896.264,0,0,0-103.864,89.166c-38.4,38.517-73.962,80.63-108.351,121.356l-2.364,2.8c-9.071,10.74-18.316,21.645-27.257,32.192-27.529,32.472-56,66.05-83.352,99.553q-9.558,11.706-18.814,23.719Z" transform="translate(158.01 126.497)" fill="#0b0b1e"/>
          <path id="Caminho_1639" data-name="Caminho 1639" d="M445.876,1017.048q5.7-7.522,11.512-14.932C520.793,921.5,595.429,828.914,678.9,750.46c62.989-59.2,136.575-110.98,218.716-153.9,8.289-4.331,16.917-8.5,25.263-12.534,17.191-8.307,34.968-16.9,51.018-27.48,19.212-12.665,35.363-29.659,52.366-55.1,5.3-7.931,10.376-16.171,15.285-24.139,3.537-5.743,7.164-11.619,10.9-17.423v-2.211c-4.1,6.329-8.074,12.768-11.941,19.045-4.9,7.961-9.973,16.192-15.262,24.1-16.912,25.305-32.96,42.2-52.033,54.77-15.982,10.537-33.721,19.109-50.877,27.4-8.354,4.037-16.992,8.211-25.3,12.551C814.8,638.515,741.122,690.359,678.054,749.634c-83.535,78.51-158.2,171.133-221.637,251.786q-6.088,7.741-12.038,15.628Z" transform="translate(162.863 135.196)" fill="#0b0b1e"/>
          <path id="Caminho_1640" data-name="Caminho 1640" d="M458.832,1007.262c.263-.351.523-.7.786-1.056C538.752,900.757,612.834,818.031,686.1,753.3c62.181-54.937,136.238-104.759,220.116-148.08,6.679-3.45,13.567-6.864,20.226-10.165,18.586-9.215,37.8-18.744,55.194-30.341,20.554-13.707,38.446-32.188,56.3-58.16,3.3-4.793,6.5-9.7,9.631-14.6v-2.224c-3.458,5.426-7,10.883-10.645,16.192-17.771,25.844-35.56,44.226-55.982,57.845-17.326,11.553-36.508,21.064-55.059,30.261-6.665,3.3-13.557,6.721-20.245,10.176-83.965,43.367-158.106,93.246-220.362,148.249-73.327,64.784-147.464,147.567-226.645,253.082-.432.574-.859,1.155-1.289,1.731Z" transform="translate(167.74 144.981)" fill="#0b0b1e"/>
          <path id="Caminho_1641" data-name="Caminho 1641" d="M471.932,998.1C539.345,905.918,612.649,825.991,689.985,760.4,749.7,709.743,821.44,663,909.3,617.485c5.909-3.061,11.973-6.124,17.837-9.087C948.7,597.505,971,586.241,991.039,572.4c18.509-12.778,35.138-29.081,51.6-50.69v-1.98c-16.707,22.152-33.542,38.773-52.312,51.73-19.974,13.79-42.23,25.035-63.754,35.909-5.867,2.964-11.934,6.029-17.848,9.094-87.944,45.554-159.76,92.35-219.547,143.062C611.587,825.342,538.051,905.563,470.451,998.1Z" transform="translate(172.671 154.141)" fill="#0b0b1e"/>
          <path id="Caminho_1642" data-name="Caminho 1642" d="M485.3,990.064c62.189-84.788,135.1-161.814,212.01-223.808,72.345-58.311,153.834-103.4,216.746-136.169q6.812-3.548,13.674-7.065c24.316-12.516,49.461-25.458,71.95-41.424a238.955,238.955,0,0,0,37.932-33.766v-1.765a238.773,238.773,0,0,1-38.656,34.6c-22.42,15.915-47.524,28.837-71.8,41.332q-6.855,3.528-13.679,7.069c-62.961,32.793-144.519,77.921-216.946,136.3A1147.458,1147.458,0,0,0,574.317,880.028a1256.6,1256.6,0,0,0-90.5,110.036Z" transform="translate(177.698 162.18)" fill="#0b0b1e"/>
          <path id="Caminho_1643" data-name="Caminho 1643" d="M498.922,982.827A1061.045,1061.045,0,0,1,704.6,773.63C771.11,722.7,844.821,682.536,920.8,642.5q3.559-1.878,7.127-3.75c27.111-14.248,55.144-28.983,80.122-47.16a263.447,263.447,0,0,0,24.434-20.192v-1.619a263.108,263.108,0,0,1-25.171,20.889c-24.905,18.125-52.9,32.838-79.971,47.066q-3.567,1.876-7.129,3.75c-76.032,40.066-149.792,80.251-216.374,131.245a1062.164,1062.164,0,0,0-206.412,210.1Z" transform="translate(182.821 169.417)" fill="#0b0b1e"/>
          <path id="Caminho_1644" data-name="Caminho 1644" d="M513.141,976.123c55.023-72.445,122.841-138.771,198.636-193.937,59.825-43.541,126.162-78.954,190.316-113.2q12.716-6.79,25.435-13.6c27.568-14.8,58.816-31.574,86.652-52.038q6.589-4.846,12.964-10.079v-1.53q-6.736,5.564-13.7,10.69c-27.766,20.413-58.974,37.166-86.508,51.947q-12.71,6.823-25.431,13.6c-64.191,34.266-130.567,69.7-190.459,113.29-76.126,55.407-144.213,122.059-199.4,194.86Z" transform="translate(188.167 176.12)" fill="#0b0b1e"/>
          <path id="Caminho_1645" data-name="Caminho 1645" d="M528.046,969.77C579.8,904.156,643.613,844.2,715.557,793.974c52.157-36.414,109.192-66.815,164.348-96.216,16.708-8.906,33.987-18.116,50.895-27.366,30.166-16.505,62.02-34.756,90.762-56.376v-1.47l-.107.082c-28.846,21.784-60.908,40.152-91.257,56.757-16.9,9.248-34.177,18.456-50.882,27.359-55.19,29.418-112.258,59.837-164.474,96.293A905.786,905.786,0,0,0,587.759,900.2a836.616,836.616,0,0,0-61.278,69.573Z" transform="translate(193.749 182.473)" fill="#0b0b1e"/>
          <path id="Caminho_1646" data-name="Caminho 1646" d="M543.753,963.643c49.538-60.055,109.372-113.512,178.735-159.561,45.106-29.945,93.775-55.643,140.843-80.494,23.781-12.557,48.371-25.54,72.233-38.928a827.8,827.8,0,0,0,80.052-50.593v-1.449a824.474,824.474,0,0,1-80.666,51.042c-23.848,13.38-48.431,26.361-72.206,38.914-47.093,24.865-95.79,50.577-140.947,80.557a842.619,842.619,0,0,0-130.2,106.2q-26.113,26.161-49.312,54.315Z" transform="translate(199.695 188.6)" fill="#0b0b1e"/>
          <path id="Caminho_1647" data-name="Caminho 1647" d="M560.694,957.6c46.551-53.226,101.837-100.356,165.294-140.784,40.156-25.583,83.118-47.964,124.666-69.608C881,731.4,912.37,715.059,942.435,697.583a776.357,776.357,0,0,0,66.852-43.714v-1.455A776.11,776.11,0,0,1,941.8,696.592c-30.04,17.462-61.4,33.8-91.732,49.6-41.571,21.656-84.558,44.049-124.758,69.66-63.85,40.678-119.446,88.132-166.206,141.749Z" transform="translate(206.024 194.643)" fill="#0b0b1e"/>
          <path id="Caminho_1648" data-name="Caminho 1648" d="M577.028,951.416c9.075-9.853,18.39-19.232,28.025-28.233,36.538-34.134,78.449-65.38,128.128-95.527,35.254-21.391,72.644-40.555,108.8-59.088,35.079-17.98,71.353-36.572,105.644-57.181,18.507-11.122,36.882-23.449,55.523-37.252v-1.463c-18.864,14-37.449,26.484-56.168,37.734-34.256,20.588-70.511,39.171-105.572,57.142-36.179,18.543-73.588,37.717-108.879,59.131-49.752,30.189-91.728,61.484-128.326,95.675-9.9,9.253-19.472,18.908-28.787,29.062Z" transform="translate(212.159 200.827)" fill="#0b0b1e"/>
          <path id="Caminho_1649" data-name="Caminho 1649" d="M595.177,945.106q7.155-7.15,14.512-13.859c33.908-30.906,75.468-60.552,127.057-90.633,31.716-18.492,65.17-35.353,97.521-51.66,40.2-20.264,81.774-41.217,120.394-65.491q21.595-13.572,41.686-28.64v-1.476q-20.461,15.3-42.352,29.148c-38.572,24.244-80.117,45.184-120.293,65.435-32.368,16.314-65.84,33.184-97.588,51.695-51.664,30.124-93.292,59.82-127.262,90.785q-7.8,7.107-15.349,14.7Z" transform="translate(218.963 207.138)" fill="#0b0b1e"/>
          <path id="Caminho_1650" data-name="Caminho 1650" d="M614.938,938.714c34.015-29.586,75.454-57.568,130.3-87.98,27.13-15.044,55.514-29.112,82.965-42.717,43.452-21.535,88.385-43.8,129.544-70.535q15.957-10.365,31.218-21.735v-1.463q-15.6,11.612-31.9,22.239c-41.1,26.694-86,48.946-129.42,70.466-27.464,13.611-55.861,27.685-83.016,42.743-55.421,30.734-97.19,58.995-131.445,88.94-.015.014-.03.029-.047.042Z" transform="translate(226.348 213.529)" fill="#0b0b1e"/>
          <path id="Caminho_1651" data-name="Caminho 1651" d="M637.42,932.29c34.512-26.567,73.2-48.476,110.324-68.309,24.092-12.874,49.185-25.112,73.453-36.947,48.159-23.486,97.955-47.77,142.657-78.323q8.354-5.709,16.7-11.909V735.33q-8.713,6.5-17.4,12.438c-44.627,30.5-94.384,54.767-142.5,78.233-24.279,11.84-49.382,24.083-73.494,36.966-37.587,20.084-76.783,42.3-111.659,69.322Z" transform="translate(234.759 219.954)" fill="#0b0b1e"/>
          <path id="Caminho_1652" data-name="Caminho 1652" d="M663.375,925.8c30.523-20.268,63.155-36.947,91.037-51.192,19.619-10.023,39.912-19.772,59.537-29.2,52.7-25.315,107.192-51.491,155.075-86.032q.916-.662,1.834-1.334v-1.455q-1.282.938-2.567,1.864C920.5,792.93,866.055,819.082,813.4,844.373c-19.631,9.43-39.932,19.182-59.565,29.213-28.348,14.484-61.6,31.479-92.584,52.214Z" transform="translate(244.451 226.443)" fill="#0b0b1e"/>
          <path id="Caminho_1653" data-name="Caminho 1653" d="M693.992,919.3c19.874-11.182,40.328-21.3,60.471-31.266,16.579-8.2,33.656-16.282,50.171-24.1,52.6-24.89,106.873-50.576,154.81-84.616v-1.449C911.415,812.11,856.911,837.908,804.1,862.9c-16.52,7.817-33.6,15.9-50.19,24.106-20.763,10.268-41.854,20.7-62.307,32.3Z" transform="translate(255.866 232.941)" fill="#0b0b1e"/>
          <path id="Caminho_1654" data-name="Caminho 1654" d="M729.529,912.819c7.813-3.834,15.628-7.582,23.4-11.306,13.235-6.346,26.807-12.678,39.932-18.8,52.026-24.27,105.549-49.243,153.314-82.163v-1.433C898.306,832.22,844.56,857.3,792.324,881.67c-13.127,6.124-26.7,12.457-39.943,18.806-8.464,4.059-16.985,8.147-25.5,12.343Z" transform="translate(269.14 239.425)" fill="#0b0b1e"/>
          <path id="Caminho_1655" data-name="Caminho 1655" d="M768.887,906.359c3.4-1.566,6.792-3.125,10.134-4.661,51.651-23.739,104.667-48.109,152.4-80.012v-1.411c-47.838,32.079-101.072,56.546-152.926,80.379-4.086,1.877-8.237,3.785-12.4,5.705Z" transform="translate(283.89 245.884)" fill="#0b0b1e"/>
          <path id="Caminho_1656" data-name="Caminho 1656" d="M809.758,899.933c36.425-17.045,72.568-35.346,106.274-57.2v-1.4C881.5,863.786,844.379,882.5,807,899.933Z" transform="translate(299.279 252.31)" fill="#0b0b1e"/>
          <path id="Caminho_1657" data-name="Caminho 1657" d="M848.747,893.547c17.735-9.2,35.367-19.082,52.538-29.911v-1.389c-17.983,11.375-36.482,21.712-55.082,31.3Z" transform="translate(314.027 258.697)" fill="#0b0b1e"/>
        </g>
      </g>
    </g>
  </g>
</svg>
