<svg xmlns="http://www.w3.org/2000/svg" width="80" height="98" viewBox="0 0 80 98">
  <g id="Grupo_3436" data-name="Grupo 3436" transform="translate(-915 -1592)">
    <g id="Grupo_3434" data-name="Grupo 3434" transform="translate(50.031 82.556)">
      <path id="Polígono_1" data-name="Polígono 1" d="M38,0,76,66H0Z" transform="translate(943.968 1607.444) rotate(180)" fill="#1c1c3a"/>
      <circle id="Elipse_71" data-name="Elipse 71" cx="40" cy="40" r="40" transform="translate(864.968 1509.444)" fill="#e53537"/>
    </g>
    <path id="b18d753fe4bc1062564cfafb6057a5f3" d="M24.523,0A24.44,24.44,0,0,1,48.853,24.491h0v.267c-.182,9.612-5.96,17.588-10.775,22.586a59.078,59.078,0,0,1-4.333,4.08,2.143,2.143,0,1,1-2.783-3.259c1.393-1.187,2.748-2.462,4.022-3.79,4.285-4.446,9.422-11.475,9.579-19.7A20.2,20.2,0,0,0,24.5,4.282h-.078A20.149,20.149,0,0,0,4.29,24.315,26.207,26.207,0,0,0,9.634,39.33,64.3,64.3,0,0,0,24.919,53.538a2.143,2.143,0,0,1-2.342,3.589A68.85,68.85,0,0,1,6.208,41.91,30.481,30.481,0,0,1,0,24.463,24.474,24.474,0,0,1,24.427,0h.1Zm-.1,15.471a9.283,9.283,0,1,1-9.3,9.284,2.145,2.145,0,0,1,4.29,0,5.006,5.006,0,1,0,5.006-5,2.141,2.141,0,1,1,0-4.282Z" transform="translate(930.573 1604.319)" fill="#200e32"/>
  </g>
</svg>
