<svg xmlns="http://www.w3.org/2000/svg" xmlns:xlink="http://www.w3.org/1999/xlink" width="768" height="793" viewBox="0 0 768 793">
  <defs>
    <clipPath id="clip-path">
      <rect id="Retângulo_566" data-name="Retângulo 566" width="768" height="793" fill="#1c1c3a"/>
    </clipPath>
    <clipPath id="clip-path-2">
      <path id="Caminho_1658" data-name="Caminho 1658" d="M232.943,12.626c-12.448,0-64.625,15.852-101.485,34.477-.023.01-.054.02-.079.032a81.471,81.471,0,0,0-8.212,4.775.636.636,0,0,0,.024.064l.007.017A275.849,275.849,0,0,0,67.715,93.239C27.054,132.162,3.133,182.246,3.133,241.424c0,62.379,37.683,123.489,98.31,168.37,58.29,43.142,137.821,71.351,225.536,71.351a434.809,434.809,0,0,0,67.664-5.258,405.859,405.859,0,0,0,64.475-15.571c3.253-1.072,4.708-3.9,3.259-6.307a4.934,4.934,0,0,0-1.369-1.459q-17.033-12.43-33.1-25.858-14.919-12.465-29.065-25.894l-.025-.082c-4.456-3.622-7.679-3.458-9.218-3.513l-.241.047c-8.09,1.285-42.366,6.714-62.378,6.714-58.878,0-112.4-19.433-151.869-48.649C133.375,324.422,107.4,282.667,107.4,241.424c0-38.426,14.4-70.31,38.75-95.513,3.65-3.778,7.213-7.3,10.757-10.654,36.66,80.978,90.79,167.917,170.278,191.524,5.058-1.3,6.628-3.317,3.509-7.205C264.621,216.51,244,114.345,242.972,17.633c-.81-2.74-2.908-4.772-8.248-5.021Zm51.3-4.912c-8.8,2.7-8.19,6.143-9.109,10.806-.766,3.916-.061,8.273-.061,12.649,0,.94-.074,2.166-.143,3.384-.078,1.349-.158,2.7-.134,4.062l.147,6.778h-.024l.037.607c.312,11.541.566,21.554,1.245,33.086.321,5.471,4.457,5.58,11.725,4.9,144.806-10.9,256.745,44.915,256.745,156.972,0,79.164-55.121,115.635-92.534,132.866-7.39,3.4-13.493,5.8-17.735,7.347a27.537,27.537,0,0,0-4.24,1.891c-5.993,3.395-6.52,5.029-2.972,9.737q13.839,13.08,28.543,25.376,15.919,13.317,32.594,25.535a8.23,8.23,0,0,0,7.656.8c50.767-20.592,80.6-45.222,109.254-81.6,28-35.547,43.693-77.149,43.693-121.948,0-57.161-27.327-109.867-72.745-151.279C509.716,29.065,429.66,3.457,325.869,3.457c-5.776,0-35.054,2.245-41.622,4.257" transform="translate(-3.133 -3.457)" fill="none"/>
    </clipPath>
  </defs>
  <g id="Grupo_4483" data-name="Grupo 4483" transform="translate(0 -448)">
    <rect id="Retângulo_338" data-name="Retângulo 338" width="768" height="793" transform="translate(0 448)" fill="#00183b"/>
    <g id="Grupo_de_máscara_33" data-name="Grupo de máscara 33" transform="translate(0 448)" clip-path="url(#clip-path)">
      <g id="Grupo_1276" data-name="Grupo 1276" transform="translate(367.2 379.612)">
        <g id="Grupo_1275" data-name="Grupo 1275" transform="translate(0 0)" clip-path="url(#clip-path-2)">
          <path id="Caminho_1567" data-name="Caminho 1567" d="M0,15.568A86.746,86.746,0,0,1,12.013,0h-.8A87.057,87.057,0,0,0,0,14.409Z" transform="translate(-2.299 -1.878)" fill="#0b0b1e"/>
          <path id="Caminho_1568" data-name="Caminho 1568" d="M24.853,0c-.366.357-.733.714-1.091,1.075C11.746,13.226,4.7,27.434,0,41.692v2.067C4.676,28.9,11.781,14,24.283,1.362Q24.962.675,25.664,0Z" transform="translate(-2.299 -1.878)" fill="#0b0b1e"/>
          <path id="Caminho_1569" data-name="Caminho 1569" d="M37.324,0Q36.6.671,35.9,1.353C15.555,21.2,8.562,45.964,2.649,71.725c-.7,3.042-1.383,6.14-2.045,9.136Q.3,82.224,0,83.6v2.944q.631-2.812,1.243-5.6c.662-2.995,1.346-6.092,2.044-9.133,5.9-25.7,12.871-50.4,33.13-70.161Q37.27.814,38.155,0Z" transform="translate(-2.299 -1.878)" fill="#0b0b1e"/>
          <path id="Caminho_1570" data-name="Caminho 1570" d="M48.635,0Q46.79,1.653,45.076,3.371C25.772,22.787,18.351,46.92,11.865,72.015c-.794,3.071-1.576,6.2-2.333,9.227C6.792,92.2,3.963,103.51,0,114.466v1.815c4.3-11.5,7.282-23.418,10.167-34.951.757-3.025,1.539-6.154,2.333-9.224C18.971,47.068,26.372,22.993,45.6,3.658,46.837,2.411,48.137,1.194,49.483,0Z" transform="translate(-2.3 -1.878)" fill="#0b0b1e"/>
          <path id="Caminho_1571" data-name="Caminho 1571" d="M58.739,0q-1.592,1.4-3.091,2.852C46.412,11.81,38.973,22.594,32.9,35.822c-5.44,11.855-9.177,24.306-12.538,36.043-.88,3.073-1.752,6.2-2.594,9.229-3.353,12.04-6.821,24.489-11.665,36.452-1.773,4.381-3.914,8.733-6.105,13v1.342c2.4-4.647,4.783-9.4,6.725-14.2C11.577,105.7,15.048,93.241,18.4,81.192c.843-3.026,1.714-6.156,2.594-9.227C28.251,46.638,36.4,22.316,56.16,3.147Q57.817,1.539,59.592,0Z" transform="translate(-2.299 -1.878)" fill="#0b0b1e"/>
          <path id="Caminho_1572" data-name="Caminho 1572" d="M67.744,0Q65.4,2.035,63.239,4.186c-20.686,20.642-28.905,47.2-36.158,70.64-.914,2.954-1.814,5.974-2.686,8.9C21.008,95.08,17.5,106.826,12.278,117.9A268.349,268.349,0,0,0,0,147.755V149.8a260.412,260.412,0,0,1,12.888-31.738c5.239-11.1,8.747-22.864,12.139-34.237.871-2.92,1.772-5.94,2.685-8.891,7.238-23.39,15.443-49.9,36.046-70.46Q66.067,2.169,68.594,0Z" transform="translate(-2.299 -1.878)" fill="#0b0b1e"/>
          <path id="Caminho_1573" data-name="Caminho 1573" d="M75.672,0q-1.728,1.5-3.354,3.061C51.057,23.512,42.443,49.18,34.113,74c-2.95,8.787-6.374,17.669-9.685,26.257-6.937,17.991-14.109,36.594-17.365,55.474-2.431,14.091-2.077,27.52-1.7,41.737.084,3.189.171,6.487.222,9.757A34.87,34.87,0,0,1,0,226v1.147c3.862-6.031,6.34-12.7,6.228-19.92-.051-3.272-.137-6.571-.222-9.762-.373-14.2-.726-27.61,1.7-41.666,3.249-18.843,10.415-37.428,17.345-55.4,3.313-8.593,6.739-17.478,9.691-26.273C43.055,49.345,51.652,23.728,72.83,3.356Q74.617,1.637,76.528,0Z" transform="translate(-2.299 -1.878)" fill="#0b0b1e"/>
          <path id="Caminho_1574" data-name="Caminho 1574" d="M82.7,0q-2.2,1.913-4.251,3.926C57.974,24.156,48.972,49.3,40.267,73.612l-1.052,2.935c-1.507,4.2-3.076,8.444-4.593,12.549-8.008,21.661-16.288,44.059-18.123,67.291-1.5,18.942,1.08,37.315,4.085,54.348,2.748,15.573-8.909,28.7-20.584,38.285v.716c11.927-9.7,24.045-23.088,21.225-39.064-3-17.01-5.573-35.356-4.08-54.257,1.83-23.181,9.734-44.559,18.1-67.191,1.518-4.106,3.088-8.352,4.595-12.553l1.052-2.936C49.581,49.467,58.566,24.372,78.967,4.217Q81.168,2.043,83.545,0Z" transform="translate(-2.299 -1.878)" fill="#0b0b1e"/>
          <path id="Caminho_1575" data-name="Caminho 1575" d="M88.9,0c-.914.8-1.812,1.615-2.684,2.445C65.144,22.5,55.507,47.706,46.186,72.079q-.618,1.614-1.233,3.22c-11.687,30.476-19.358,56.536-18.8,84.662.368,18.712,4.685,37.105,9.3,54.195,5.1,18.9-9.816,32.943-23.379,43.067Q6.215,261.589,0,265.687v.647q6.443-4.248,12.523-8.77C22,250.49,28.254,244.237,32.21,237.882c4.833-7.763,6.1-15.555,3.869-23.822-4.6-17.067-8.916-35.434-9.283-54.107-.553-28.067,7.108-54.088,18.78-84.522q.616-1.607,1.233-3.221c9.3-24.327,18.923-49.484,39.913-69.468Q88.19,1.344,89.742,0Z" transform="translate(-2.299 -1.878)" fill="#0b0b1e"/>
          <path id="Caminho_1576" data-name="Caminho 1576" d="M52.178,70.716C61.707,47.256,71.561,23,91.622,3.415Q93.416,1.664,95.33,0h-.859q-1.728,1.525-3.363,3.121c-20.131,19.652-30,43.953-39.549,67.454q-.681,1.679-1.362,3.351c-11.847,29.08-16.574,58.189-14.048,86.516,1.791,20.073,8.041,39.493,14.29,57.664,2.493,7.249,3.509,13.469.368,20.268-4.122,8.922-12.927,16.371-20.137,21.863A249.1,249.1,0,0,1,0,279.777v.6a250.851,250.851,0,0,0,31.133-19.8c7.257-5.528,16.122-13.03,20.286-22.043,3.193-6.912,2.168-13.212-.354-20.544-6.242-18.149-12.485-37.546-14.271-57.577-2.521-28.269,2.2-57.319,14.02-86.344q.681-1.672,1.363-3.351" transform="translate(-2.299 -1.878)" fill="#0b0b1e"/>
          <path id="Caminho_1577" data-name="Caminho 1577" d="M97.2,2.981Q98.77,1.457,100.427,0h-.84q-1.483,1.318-2.9,2.686C74.73,23.959,62.671,52.02,54.619,74.09a171.806,171.806,0,0,0-9.684,43.584,183.319,183.319,0,0,0,1.478,44.179c3.215,20.866,10.953,40.872,18.6,59.574,2.632,6.436,5.356,13.093,2.571,20.432-3.333,8.782-11.875,16.194-18.946,21.671-14.5,11.233-31.864,20.579-48.642,29v.581c16.92-8.483,34.461-17.9,49.108-29.246,7.122-5.517,15.73-12.99,19.1-21.874,2.837-7.476.086-14.2-2.575-20.7C57.993,202.6,50.265,182.624,47.056,161.8a177.374,177.374,0,0,1,8.187-87.581C63.279,52.189,75.312,24.186,97.2,2.981" transform="translate(-2.299 -1.878)" fill="#0b0b1e"/>
          <path id="Caminho_1578" data-name="Caminho 1578" d="M79.616,223.93c-9-19.68-17.442-39.055-21.883-59.695-6.551-30.448-5.826-60.089,2.157-88.1C66.12,54.274,79.223,22.664,105.9,0h-.774A123.343,123.343,0,0,0,94.247,10.543C74.634,32.017,64.393,58.01,59.258,76.034a173.393,173.393,0,0,0-6.526,44.058,192.422,192.422,0,0,0,4.362,44.22C61.544,184.989,70,204.385,79,224.086q.4.873.809,1.753c2.976,6.413,6.052,13.044,3.963,19.841-2.652,8.631-10.972,15.994-17.923,21.445-14.817,11.618-33.082,21.26-50.612,29.948Q7.755,300.782,0,304.415v.569q7.946-3.718,15.6-7.51c17.562-8.7,35.863-18.365,50.722-30.017,7.009-5.495,15.4-12.924,18.085-21.67,2.131-6.931-.977-13.629-3.981-20.106q-.407-.878-.809-1.751" transform="translate(-2.299 -1.878)" fill="#0b0b1e"/>
          <path id="Caminho_1579" data-name="Caminho 1579" d="M93.841,227.859C83.936,207.5,73.693,186.446,68.078,164.5c-7.831-30.6-8.545-60.367-2.121-88.461C69.2,61.88,77.794,34.568,98.992,10.786A121.959,121.959,0,0,1,109.869,0h-.812a120.778,120.778,0,0,0-10.6,10.518C77.19,34.375,68.567,61.761,65.32,75.962c-6.436,28.15-5.722,57.971,2.123,88.632,5.624,21.979,15.876,43.051,25.79,63.429.378.776.774,1.568,1.177,2.373,2.794,5.582,5.96,11.909,5.208,17.784-1.147,8.958-9.927,16.921-17.448,22.858-15.337,12.106-34.149,21.74-50.579,29.82C21.649,305.749,11.263,310.491,0,315.266v.555C11.4,311,21.9,306.2,31.947,301.262c16.46-8.094,35.308-17.747,50.693-29.891,7.591-5.993,16.455-14.04,17.621-23.144.766-5.986-2.428-12.368-5.245-18-.4-.8-.8-1.6-1.175-2.37" transform="translate(-2.299 -1.878)" fill="#0b0b1e"/>
          <path id="Caminho_1580" data-name="Caminho 1580" d="M108.35,233.079q-.415-.817-.822-1.619-1.473-2.919-2.951-5.831C95.055,206.84,85.208,187.412,79.15,167.3,69.926,136.686,67.589,106.86,72.2,78.652c4.015-24.553,15.316-49.033,31-67.163A111.367,111.367,0,0,1,114.694,0h-.876a113.294,113.294,0,0,0-11.156,11.227c-15.74,18.189-27.077,42.742-31.1,67.366-4.622,28.263-2.28,58.144,6.96,88.813,6.069,20.143,15.923,39.588,25.454,58.393q1.475,2.912,2.95,5.83.405.8.823,1.62c3.025,5.942,6.455,12.677,6.375,19.135-.1,8.576-8.68,16.525-16.138,22.491-15.058,12.045-33.975,21.683-50.524,29.771C32.338,312.038,16.588,318.5,0,324.673v.539C16.714,319,32.581,312.5,47.813,305.051c16.581-8.1,35.535-17.761,50.642-29.845,7.539-6.031,16.205-14.073,16.312-22.816.079-6.549-3.372-13.329-6.418-19.311" transform="translate(-2.299 -1.878)" fill="#0b0b1e"/>
          <path id="Caminho_1581" data-name="Caminho 1581" d="M120.388,234.341l-.448-.859q-1.738-3.337-3.483-6.666c-9.922-18.958-20.181-38.562-26.836-58.828-10.081-30.7-13.485-60.526-10.119-88.645C83.247,48.073,95.441,23.2,116.78,3.318Q118.622,1.6,120.521,0h-.863q-1.714,1.463-3.383,3.015C94.853,22.979,82.615,47.932,78.859,79.3c-3.372,28.172.037,58.05,10.135,88.8,6.664,20.3,16.932,39.916,26.861,58.889q1.743,3.33,3.482,6.666l.448.859c3.789,7.267,7.708,14.78,7.8,22.523.1,8.016-6.6,14.858-12.449,19.924-14.639,12.68-34.222,22.651-53.024,31.777C42.747,318.14,21.4,325.642,0,332.56v.526c21.512-6.949,42.982-14.484,62.468-23.942,18.842-9.145,38.467-19.138,53.161-31.867,5.922-5.129,12.706-12.066,12.606-20.242-.1-7.832-4.036-15.388-7.847-22.694" transform="translate(-2.299 -1.878)" fill="#0b0b1e"/>
          <path id="Caminho_1582" data-name="Caminho 1582" d="M582.518,0c-23.434,6.5-51.894,8.4-86.184,5.8C480.342,4.584,464.561,2.518,449,0h-3.022c16.517,2.735,33.284,4.986,50.294,6.278,21.719,1.648,40.531,1.534,57.513-.349A181.577,181.577,0,0,0,584.35,0Z" transform="translate(-120.975 -1.878)" fill="#0b0b1e"/>
          <path id="Caminho_1583" data-name="Caminho 1583" d="M132.96,237.666c-2.453-4.752-5-9.557-7.459-14.2-8.752-16.524-17.8-33.611-24.2-51.169-11.628-31.9-16.326-62.787-13.965-91.8,2.63-32.315,13.834-57.171,34.252-75.986Q124.145,2.152,126.8,0h-.871q-2.463,2.016-4.846,4.206a100.372,100.372,0,0,0-25.226,36c-4.93,11.864-7.929,25.034-9.169,40.261-2.366,29.061,2.34,60,13.987,91.951C107.084,190,116.14,207.1,124.9,223.639c2.461,4.645,5.005,9.449,7.457,14.2,3.97,7.691,8.076,15.644,7.929,23.885-.15,8.468-6.335,14.959-11.706,19.667-13.1,11.486-32.207,22.709-53.792,31.6C50.824,322.861,25.257,331.035,0,338.742v.522c25.355-7.734,51.029-15.936,75.1-25.851,21.652-8.918,40.82-20.18,53.972-31.709,5.442-4.77,11.707-11.352,11.861-19.974.148-8.334-4.166-16.691-7.972-24.064" transform="translate(-2.299 -1.878)" fill="#0b0b1e"/>
          <path id="Caminho_1584" data-name="Caminho 1584" d="M604.881,0C578.568,11.9,543.15,15.773,496.824,11.815,471.02,9.61,446.1,5.308,420.02,0h-2.45c26.937,5.527,52.584,10.022,79.181,12.294,22.107,1.889,41.168,2.025,58.273.417,19.693-1.852,36.861-6.125,51.1-12.71Z" transform="translate(-113.416 -1.878)" fill="#0b0b1e"/>
          <path id="Caminho_1585" data-name="Caminho 1585" d="M144.944,240.934c-3.093-6.068-6.345-12.188-9.489-18.107-8.458-15.92-17.2-32.383-23.609-49.252C99.73,141.657,94.291,110.9,95.681,82.151c1.64-33.933,11.477-58,30.959-75.747q3.84-3.5,7.608-6.4h-.9q-3.58,2.789-7.213,6.1a88.875,88.875,0,0,0-23.786,35.968c-4.181,11.57-6.575,24.676-7.319,40.066-1.392,28.8,4.055,59.606,16.19,91.573,6.413,16.893,15.165,33.367,23.63,49.3,3.143,5.917,6.394,12.036,9.486,18.1,8.8,17.253,11.543,31.5-3.627,44.945-13.361,11.842-31.686,22.04-56.02,31.177C57.331,327.5,28.308,336.005,0,344.148v.517c28.4-8.167,57.52-16.694,84.983-27.005,24.415-9.167,42.806-19.4,56.225-31.3,7.456-6.609,11.052-13.816,10.992-22.035-.059-8.187-3.7-16.419-7.255-23.392" transform="translate(-2.299 -1.878)" fill="#0b0b1e"/>
          <path id="Caminho_1586" data-name="Caminho 1586" d="M621.153,0q-4.136,2.538-8.741,4.845C585.887,18.086,548.618,22.3,498.479,17.718,464.438,14.609,432.109,7.928,397.038,0H394.81C430.7,8.136,463.65,15.023,498.4,18.2c50.3,4.593,87.712.357,114.373-12.95Q617.667,2.8,622.156,0Z" transform="translate(-107.36 -1.878)" fill="#0b0b1e"/>
          <path id="Caminho_1587" data-name="Caminho 1587" d="M633.833,0a93.99,93.99,0,0,1-18.3,11.14c-28.81,13.384-68.009,17.273-119.841,11.892C458.854,19.209,422.83,11.091,386.1,2.4c-3.319-.786-6.7-1.6-10.007-2.4h-2.1l.574.139c3.722.9,7.572,1.829,11.337,2.721,36.762,8.7,72.816,16.822,109.706,20.652,51.985,5.4,91.327,1.484,120.271-11.962A95.464,95.464,0,0,0,634.8,0Z" transform="translate(-101.819 -1.878)" fill="#0b0b1e"/>
          <path id="Caminho_1588" data-name="Caminho 1588" d="M156.432,244.371c-3.771-7.648-7.83-15.339-11.755-22.775-7.925-15.015-16.119-30.542-22.3-46.394-11.86-30.439-17.878-59.764-17.889-87.161-.01-23.2,2.843-56.615,27.614-78.9A86.025,86.025,0,0,1,144.233,0h-.961a86.156,86.156,0,0,0-11.663,8.831c-10.614,9.55-18.256,22.221-22.711,37.661-3.405,11.8-5.058,25.392-5.051,41.548.011,27.442,6.038,56.813,17.914,87.295,6.185,15.874,14.384,31.411,22.315,46.437,3.923,7.434,7.98,15.122,11.75,22.765,7.53,15.271,12.2,31.466-4.484,46.442-16.325,14.654-38.866,23.615-58.762,30.448-29.5,10.13-60.563,18.618-90.6,26.826L0,348.794v.514l2.2-.6c30.055-8.212,61.132-16.7,90.653-26.841,19.963-6.855,42.582-15.849,58.989-30.577,16.892-15.164,12.19-31.511,4.593-46.917" transform="translate(-2.299 -1.878)" fill="#0b0b1e"/>
          <path id="Caminho_1589" data-name="Caminho 1589" d="M643.1,0a89.851,89.851,0,0,1-25.168,16.819C588.5,30.123,548.975,34,497.118,28.659c-38.082-3.918-75-12.387-109.56-20.724-4.508-1.088-9.125-2.235-13.59-3.346-6.215-1.545-12.484-3.1-18.8-4.589h-2.162c6.979,1.621,13.9,3.342,20.758,5.046,4.466,1.11,9.085,2.259,13.6,3.348,34.583,8.344,71.537,16.82,109.671,20.743A410.95,410.95,0,0,0,539,31.456c32.071,0,58.227-4.715,79.268-14.224A89.976,89.976,0,0,0,643.9,0Z" transform="translate(-96.235 -1.878)" fill="#0b0b1e"/>
          <path id="Caminho_1590" data-name="Caminho 1590" d="M167.9,249.072c-4.466-9.691-9.53-19.382-14.427-28.753-6.748-12.914-13.726-26.268-19.232-39.8-12.849-31.581-19.685-61.789-20.319-89.781-.512-22.584,1.456-55.22,24.342-77.8A68.143,68.143,0,0,1,156.908,0h-1.174a68.479,68.479,0,0,0-17.989,12.638c-23.007,22.7-24.985,55.447-24.473,78.1.635,28.038,7.48,58.289,20.347,89.914,5.514,13.552,12.5,26.915,19.249,39.838,4.9,9.367,9.956,19.053,14.418,28.735,6.554,14.22,10.837,30.927-7.083,47.036-15.64,14.06-38.132,21.9-61.749,29.333-29.159,9.18-59.589,17.089-89.017,24.737-3.107.807-6.265,1.628-9.436,2.454v.511l9.649-2.509c29.438-7.651,59.878-15.562,89.056-24.748,23.692-7.459,46.262-15.326,61.994-29.469,7.821-7.031,12-14.5,12.778-22.826.666-7.13-1.107-14.97-5.581-24.676" transform="translate(-2.299 -1.878)" fill="#0b0b1e"/>
          <path id="Caminho_1591" data-name="Caminho 1591" d="M648.175,0a88.972,88.972,0,0,1-31.9,22.658c-30.825,13.137-71.5,16.735-124.345,11-37.909-4.115-74.475-12.585-108.677-20.908-4.415-1.074-8.939-2.209-13.314-3.306C356.383,6.043,342.569,2.58,328.558,0H325.8c14.882,2.615,29.555,6.294,43.932,9.9,4.376,1.1,8.9,2.233,13.319,3.308,34.23,8.329,70.825,16.806,108.786,20.927,52.993,5.753,93.8,2.136,124.759-11.057A89.2,89.2,0,0,0,648.924,0Z" transform="translate(-88.995 -1.878)" fill="#0b0b1e"/>
          <path id="Caminho_1592" data-name="Caminho 1592" d="M178.266,252.88c-4.7-10.92-10.266-21.809-15.65-32.339-5.986-11.707-12.175-23.813-17.2-36.009-13.11-31.839-20.151-60.864-21.527-88.729-1.093-22.133-.14-54.187,20.649-76.921C152.577,10.1,163.68,3.676,176.743,0h-1.784C162.447,3.773,151.8,10.089,144.008,18.611c-9.122,9.975-15.119,22.161-18.333,37.252-2.437,11.446-3.209,24.143-2.428,39.958,1.378,27.908,8.428,56.972,21.555,88.853,5.029,12.212,11.221,24.325,17.211,36.04,5.38,10.523,10.944,21.406,15.639,32.314,3.508,8.151,6.578,16.885,5.3,25.523-1.143,7.724-6.182,15.316-15.4,23.211-15.7,13.441-38.589,20.17-60.727,26.677l-.7.206c-29.426,8.65-59.988,16.194-89.545,23.49-5.444,1.343-11.013,2.718-16.575,4.1v.508c5.63-1.4,11.268-2.791,16.778-4.151,29.565-7.3,60.137-14.845,89.579-23.5l.7-.206c22.209-6.528,45.175-13.278,60.977-26.808,9.31-7.972,14.4-15.651,15.558-23.476,1.292-8.727-1.8-17.52-5.327-25.723" transform="translate(-2.299 -1.878)" fill="#0b0b1e"/>
          <path id="Caminho_1593" data-name="Caminho 1593" d="M572.081,0A90.565,90.565,0,0,1,534.51,27.9C502.868,40.813,461.9,44.361,409.265,38.751c-38.348-4.088-75.789-12.707-107.873-20.464-4.679-1.132-9.479-2.334-14.12-3.5C263.762,8.9,239.453,2.8,214.709,1.747a93.375,93.375,0,0,0-35.339,4.83,65.922,65.922,0,0,0-27.057,17.647c-19.38,21.263-20.177,51.473-18.706,75.417,1.707,27.783,9.01,57.038,22.326,89.438,4.41,10.73,9.74,21.441,14.894,31.8,6.027,12.111,12.258,24.634,17.046,37.245,7.564,19.922,3.413,35.221-13.063,48.147-16.852,13.221-40.723,19.636-63.808,25.839l-2.839.764c-28.125,7.576-57.151,14.378-85.222,20.955C15.41,355.593,7.689,357.4,0,359.222v.506c7.753-1.836,15.541-3.661,23.134-5.44,28.077-6.58,57.11-13.383,85.248-20.963l2.839-.763c23.155-6.223,47.1-12.657,64.057-25.961,8.76-6.873,13.987-14.339,15.979-22.826,1.807-7.7.9-16.132-2.762-25.784-4.8-12.631-11.031-25.162-17.062-37.282-5.151-10.352-10.477-21.056-14.882-31.772-13.3-32.36-20.594-61.577-22.3-89.319-1.466-23.869-.678-53.98,18.595-75.124C166.937,9.037,188.894,1.129,214.671,2.229c24.657,1.052,48.925,7.135,72.394,13.017,4.643,1.164,9.444,2.367,14.127,3.5,32.11,7.764,69.583,16.389,107.981,20.483,23.874,2.545,44.873,3.192,64.195,1.976,23.441-1.473,44.117-5.807,61.453-12.883A90.753,90.753,0,0,0,572.78,0Z" transform="translate(-2.299 -1.878)" fill="#0b0b1e"/>
          <path id="Caminho_1594" data-name="Caminho 1594" d="M581.309,0c-9.422,13.06-22.069,23.976-40.636,31.758C509.07,45,468.055,48.987,415.287,43.938,380.1,40.571,346.2,33.556,306.137,24.058c-4.871-1.155-9.88-2.394-14.723-3.593-23.226-5.748-47.242-11.69-71.565-12.426-24.962-.756-44.6,6.965-58.37,22.947-8.366,9.709-13.628,21.574-16.088,36.271-2.332,13.932-1.689,27.912-.867,38.534,2.089,27.028,9.44,55.835,22.472,88.064,3.837,9.488,8.394,19.016,12.8,28.23,6.258,13.082,12.729,26.609,17.249,40.256,6.91,20.864.7,37.5-18.442,49.46-19.056,11.9-42.244,18.3-66.319,24.338C84.933,343,56.793,349.229,29.578,355.255,19.869,357.4,9.908,359.611,0,361.841v.5c9.969-2.245,19.994-4.465,29.762-6.628,27.219-6.027,55.366-12.26,82.728-19.12,24.136-6.052,47.387-12.474,66.528-24.425,10.046-6.274,16.634-13.937,19.577-22.777,2.687-8.067,2.376-17.209-.923-27.169-4.527-13.671-11-27.21-17.268-40.3-4.4-9.209-8.961-18.73-12.793-28.207-13.017-32.193-20.36-60.963-22.445-87.952-1.815-23.48-1.539-53.168,16.855-74.518C175.659,15.42,195.1,7.773,219.822,8.521c24.232.733,48.2,6.666,71.388,12.4,4.845,1.2,9.855,2.439,14.731,3.594,40.1,9.505,74.028,16.527,109.265,19.9,23.917,2.289,44.98,2.706,64.392,1.275,23.472-1.73,44.128-6.276,61.393-13.512,17.084-7.16,30.531-17.709,41-32.179Z" transform="translate(-2.299 -1.878)" fill="#0b0b1e"/>
          <path id="Caminho_1595" data-name="Caminho 1595" d="M590.369,0q-1.666,2.544-3.5,5.018c-11.379,15.23-29.472,25.1-42.647,30.689-31.508,13.38-72.561,17.644-125.5,13.038-39.228-3.413-77.237-11.66-109.785-19.122-4.528-1.039-9.18-2.149-13.677-3.223-22.3-5.327-45.363-10.834-68.7-11.409-18.022-.443-32.939,3.753-44.337,12.474S162.893,49.4,158.675,66.735c-4,16.412-3.8,32.993-2.926,44.011,2.1,26.637,9.367,55.51,22.206,88.27,3.261,8.319,7.075,16.72,10.764,24.844,6.327,13.937,12.87,28.347,16.877,42.9,5.837,21.189-2.091,37.827-23.562,49.448-22.609,12.238-50.006,19.412-71.349,24.295-24.793,5.673-50.19,10.981-74.75,16.114-11.8,2.466-23.9,4.995-35.935,7.565v.5c12.1-2.583,24.256-5.125,36.11-7.6,24.563-5.134,49.964-10.443,74.765-16.117,21.39-4.894,48.852-12.086,71.538-24.365,21.7-11.743,29.709-28.544,23.816-49.936-4.015-14.578-10.564-29-16.9-42.954-3.687-8.119-7.5-16.515-10.756-24.825-12.824-32.724-20.079-61.563-22.181-88.163-1.406-17.806-1.66-61.531,26.29-82.917,11.265-8.62,26.017-12.767,43.852-12.328,23.243.572,46.26,6.07,68.52,11.386,4.5,1.074,9.152,2.185,13.684,3.225,32.575,7.468,70.618,15.723,109.9,19.14,23.627,2.056,45.336,2.314,64.526.767,23.526-1.9,44.175-6.561,61.373-13.865C557.784,30.5,575.978,20.58,587.43,5.253Q589.361,2.668,591.089,0Z" transform="translate(-2.299 -1.878)" fill="#0b0b1e"/>
          <path id="Caminho_1596" data-name="Caminho 1596" d="M597.833,0A83.526,83.526,0,0,1,591.9,8.064C581.77,20.21,566.9,30.7,548.89,38.393c-32.4,13.846-75.129,18.894-127.006,15-35.054-2.629-68.638-8.908-108.277-17.528-4.575-.995-9.289-2.07-13.847-3.111C277.73,27.729,254.951,22.531,232.1,22.5h-.11c-16.1,0-29.481,4.134-39.764,12.286-11.061,8.77-18.615,22.168-22.452,39.822-3.511,16.152-3.156,32.488-2.241,43.347,2.168,25.716,8.742,52.735,20.689,85.03,2.793,7.551,6.052,15.218,9.205,22.632,6.323,14.875,12.863,30.257,16.119,45.758,2.143,10.2,1.6,18.31-1.7,25.515C206.3,309,192.94,316.384,181.92,321.462c-24.478,11.28-52.783,18.459-74.708,23.454-24.534,5.59-49.859,10.423-74.35,15.1-10.8,2.061-21.85,4.172-32.862,6.352v.5c11.065-2.191,22.168-4.313,33.022-6.384,24.5-4.676,49.829-9.511,74.377-15.1,21.962-5,50.317-12.2,74.86-23.5,11.111-5.12,24.586-12.568,30.2-24.822,3.336-7.282,3.884-15.463,1.725-25.746-3.264-15.538-9.811-30.936-16.141-45.829-3.151-7.409-6.408-15.072-9.2-22.614-11.935-32.262-18.5-59.25-20.667-84.931-.913-10.835-1.267-27.132,2.234-43.241,3.816-17.558,11.314-30.87,22.286-39.568,10.156-8.052,23.375-12.134,39.291-12.134h.109c22.755.027,45.487,5.214,67.471,10.229,4.56,1.041,9.276,2.118,13.855,3.112,39.674,8.628,73.29,14.913,108.393,17.546,23.805,1.786,45.822,1.717,65.439-.2,23.4-2.291,44.246-7.29,61.955-14.858,18.1-7.735,33.05-18.279,43.241-30.493A84.067,84.067,0,0,0,598.55,0Z" transform="translate(-2.3 -1.878)" fill="#0b0b1e"/>
          <path id="Caminho_1597" data-name="Caminho 1597" d="M604.253,0a86.019,86.019,0,0,1-8.016,10.715c-10.89,12.363-26.506,23.006-45.162,30.778C517.7,55.4,475.221,60.919,424.808,57.9c-36.69-2.194-72.9-8.788-106.562-15.585-4.5-.909-9.142-1.9-13.631-2.856-21.373-4.557-43.471-9.271-65.478-8.859-14.538.271-26.662,4.249-36.036,11.823-10.646,8.6-17.865,21.87-21.455,39.439-2.532,12.387-3.231,26.57-2.078,42.153,1.841,24.9,8.008,51.872,19.4,84.868,2.241,6.491,4.828,13.118,7.331,19.527,6.07,15.55,12.348,31.63,14.547,47.765,1.4,10.292-.051,18.874-4.442,26.235-6.656,11.157-22.056,18.48-36.243,24.172-25.553,10.252-54.4,17.043-79.441,22.6-24.842,5.517-50.5,10.149-75.305,14.629-8.366,1.51-16.886,3.051-25.419,4.632v.5c8.584-1.59,17.156-3.14,25.571-4.659,24.817-4.482,50.48-9.116,75.337-14.636,25.068-5.567,53.957-12.366,79.563-22.641,14.283-5.73,29.793-13.111,36.527-24.4,4.439-7.44,5.909-16.1,4.5-26.48-2.2-16.179-8.49-32.28-14.569-47.851-2.5-6.4-5.086-13.028-7.326-19.512-11.385-32.964-17.545-59.9-19.384-84.773-1.151-15.551-.454-29.7,2.071-42.054,3.571-17.473,10.735-30.657,21.291-39.186,9.251-7.474,21.221-11.4,35.577-11.667,21.9-.41,43.957,4.293,65.284,8.84,4.492.958,9.136,1.947,13.641,2.857,33.693,6.8,69.937,13.4,106.678,15.6a380.065,380.065,0,0,0,65.083-1.271c22.878-2.6,43.588-7.713,61.552-15.2,18.747-7.81,34.441-18.507,45.387-30.935A86.7,86.7,0,0,0,604.969,0Z" transform="translate(-2.299 -1.878)" fill="#0b0b1e"/>
          <path id="Caminho_1598" data-name="Caminho 1598" d="M609.965,0a91.7,91.7,0,0,1-10.032,13.063c-11.284,12.172-27,22.7-45.455,30.458-34.432,14.471-77.14,20.77-126.946,18.724-34.192-1.4-67.261-6.452-106.393-13.6-4.11-.75-8.362-1.573-12.474-2.368-20.82-4.028-42.35-8.193-63.486-6.964-19.15,1.114-34.6,10.4-42.381,25.488-8.953,17.351-12.382,38.269-10.792,65.825,1.791,31.033,10.328,61.457,17.565,84.494,1.736,5.525,3.733,11.2,5.663,16.7,5.785,16.453,11.766,33.465,12.34,50.37.344,10.117-2.074,18.5-7.188,24.915-8.524,10.7-24.726,17.674-40.966,23.622-28.03,10.267-59.136,17.091-86.092,22.681-24.935,5.172-50.557,9.63-75.335,13.941-5.935,1.033-11.95,2.08-17.993,3.142v.5c6.093-1.072,12.157-2.128,18.14-3.169,24.784-4.312,50.414-8.771,75.362-13.946,26.983-5.6,58.123-12.427,86.2-22.712,16.329-5.981,32.626-13,41.237-23.808,5.176-6.5,7.625-14.965,7.278-25.175-.576-16.96-6.566-34-12.36-50.48-1.929-5.488-3.925-11.164-5.658-16.683-7.231-23.017-15.76-53.411-17.55-84.4-1.587-27.489,1.83-48.343,10.75-65.631,7.69-14.9,22.936-24.083,41.827-25.181,21.03-1.223,42.505,2.931,63.274,6.949,4.114.8,8.368,1.618,12.482,2.371,39.167,7.153,72.27,12.205,106.512,13.612,49.928,2.051,92.757-4.269,127.3-18.786,18.537-7.79,34.329-18.373,45.669-30.6A92.3,92.3,0,0,0,610.681,0Z" transform="translate(-2.299 -1.878)" fill="#0b0b1e"/>
          <path id="Caminho_1599" data-name="Caminho 1599" d="M615.11,0a101.557,101.557,0,0,1-13.321,16.421c-11.654,11.608-26.62,21.333-44.478,28.906-34.716,14.721-78.711,22.021-127.236,21.1-33.3-.627-65.739-4.813-104.2-10.906-4.2-.665-8.42-1.4-12.889-2.169-20.447-3.54-41.591-7.2-61.44-4.722-9.3,1.163-17.329,4.094-23.854,8.713a40.528,40.528,0,0,0-13.841,16.985c-9.63,21.877-9.717,47.558-8.945,64.971,1.281,28.9,8.353,57.848,15.1,82.348,1.27,4.61,2.718,9.367,4.118,13.968,5.159,16.955,10.495,34.487,9.4,51.665-.65,10.217-4.239,18.509-10.666,24.646-11.414,10.9-29.57,17.85-47.493,23.737-51.346,16.866-107.629,26-162.059,34.838-4.4.714-8.843,1.436-13.3,2.165v.494c4.508-.736,9-1.466,13.441-2.188C67.9,362.137,124.218,353,175.624,336.11c18-5.913,36.24-12.9,47.742-23.882,6.51-6.216,10.145-14.6,10.8-24.921,1.1-17.243-4.247-34.808-9.416-51.795-1.4-4.6-2.847-9.353-4.114-13.958-6.744-24.481-13.81-53.4-15.089-82.267-.771-17.377-.685-43,8.912-64.8,6.226-14.144,19.433-23.155,37.188-25.373,19.721-2.463,40.8,1.187,61.186,4.717,4.472.775,8.7,1.505,12.9,2.172,38.5,6.1,70.974,10.288,104.322,10.916a383.674,383.674,0,0,0,65.773-4.143c22.663-3.519,43.455-9.246,61.8-17.024,17.938-7.606,32.968-17.375,44.677-29.037A102.13,102.13,0,0,0,615.83,0Z" transform="translate(-2.299 -1.878)" fill="#0b0b1e"/>
          <path id="Caminho_1600" data-name="Caminho 1600" d="M619.179,0c-14.96,21.11-35.233,36.845-61.349,47.724-34.9,14.539-78.247,22.393-125.346,22.713-32.324.217-64.086-2.983-101.827-7.859-3.707-.479-7.411-1-11.333-1.555-19.989-2.822-40.659-5.739-59.908-2.539-9.048,1.5-16.554,4.5-22.312,8.907a36.311,36.311,0,0,0-12.079,16.7c-7,19.119-7.271,40.615-6.928,62.8.437,28.187,6.244,55.754,12.156,81.574.845,3.692,1.8,7.506,2.715,11.195,4.345,17.44,8.838,35.475,5.829,52.834-4.37,25.206-34.137,37.6-65.654,47.232C118.587,356.4,59.367,365.646,2.1,374.59l-2.1.328v.493l2.23-.348c57.3-8.948,116.548-18.2,171.158-34.9,13.919-4.256,29.853-9.651,42.5-17.4,13.788-8.454,21.491-18.336,23.55-30.213,3.022-17.433-1.48-35.506-5.834-52.983-.918-3.687-1.868-7.5-2.712-11.187-5.907-25.8-11.711-53.347-12.147-81.5-.343-22.148-.073-43.606,6.905-62.665,5.076-13.863,16.484-22.361,33.908-25.258,19.119-3.179,39.722-.27,59.647,2.542,3.924.554,7.63,1.077,11.342,1.556,36.556,4.722,67.505,7.877,98.806,7.876,1.044,0,2.093,0,3.138-.01,47.207-.32,90.658-8.2,125.656-22.775C584.47,37.18,604.878,21.306,619.912,0Z" transform="translate(-2.299 -1.878)" fill="#0b0b1e"/>
          <path id="Caminho_1601" data-name="Caminho 1601" d="M623.842,0c-15.615,21.211-37.387,38-64.151,49.277-43.726,18.422-92.058,23.757-124.9,24.991-34.237,1.285-67.8-1.511-99.235-4.485-2.7-.255-5.47-.531-8.151-.8-20.174-2.017-41.035-4.1-60.752-.37-8.394,1.587-15.236,4.662-20.336,9.135a33.975,33.975,0,0,0-10.051,16.218c-4.76,16.015-4.669,33.18-4.582,49.78.022,4.165.045,8.47-.014,12.629-.355,25.132,3.593,50.075,8.4,77.737.52,3,1.1,6.1,1.665,9.092,3.409,18.16,6.934,36.938,1.7,54.565-7.63,25.707-43.1,37.624-75.753,46.776C113.791,359.65,56.216,368.835,0,377.334v.492c56.282-8.508,113.93-17.7,167.907-32.829,32.81-9.2,68.458-21.181,76.157-47.124,5.256-17.711,1.723-36.533-1.694-54.735-.562-3-1.143-6.094-1.664-9.088-4.8-27.643-8.748-52.569-8.393-77.67.059-4.162.036-8.47.014-12.635-.088-16.574-.178-33.711,4.566-49.674,4.1-13.782,13.882-21.957,29.915-24.991,19.6-3.708,40.394-1.629,60.506.382,2.684.268,5.458.545,8.157.8,31.468,2.975,65.059,5.774,99.348,4.487a428.515,428.515,0,0,0,64.553-7.205A305.221,305.221,0,0,0,560.01,49.7c18.874-7.952,35.278-18.563,48.756-31.539A138.749,138.749,0,0,0,624.61,0Z" transform="translate(-2.299 -1.878)" fill="#0b0b1e"/>
          <path id="Caminho_1602" data-name="Caminho 1602" d="M627.919,0c-17.057,22.292-40.494,39.934-68.936,51.7-41.644,17.229-88.679,23.71-120.8,26.113-32.542,2.435-65.2,1.037-98.587-.743q-2.378-.127-4.78-.261c-20.174-1.11-41.034-2.259-60.421,1.9-14.9,3.195-23.707,11.435-26.91,25.194-3.3,14.192-2.828,29.054-2.368,43.426.187,5.83.38,11.859.311,17.7-.324,27.3,2.161,54.192,4.635,76.9.214,1.961.443,3.941.673,5.937,2.168,18.786,4.41,38.21-3.591,55.791-12.086,26.557-55.856,37.968-84.819,45.519C109.819,362.861,54.379,371.726,0,379.8v.492c54.441-8.079,109.952-16.951,162.537-30.659,16.873-4.4,34.63-9.272,49.981-16.2,18.421-8.308,29.947-18,35.237-29.623,8.044-17.677,5.8-37.153,3.623-55.987-.23-2-.459-3.975-.672-5.935-2.472-22.693-4.957-49.569-4.633-76.852.07-5.853-.124-11.885-.31-17.72-.46-14.348-.936-29.186,2.357-43.332,3.157-13.557,11.809-21.674,26.452-24.813,19.275-4.131,40.077-2.986,60.194-1.879q2.4.132,4.781.26c33.414,1.782,66.106,3.18,98.7.742,32.184-2.407,79.311-8.9,121.052-26.17A173.033,173.033,0,0,0,609.69,20.692,152.643,152.643,0,0,0,628.675,0Z" transform="translate(-2.299 -1.878)" fill="#0b0b1e"/>
          <path id="Caminho_1603" data-name="Caminho 1603" d="M631.658,0c-18.4,23.015-42.912,41.259-71.975,53.39-31.017,12.946-69.67,22-118.17,27.671-32.506,3.8-65.6,3.651-97.612,3.506l-3.338-.017c-18.719-.1-39.936-.215-58.13,4.179-7.341,1.773-13.074,5.02-17.037,9.651-3.425,4-5.631,9.05-6.745,15.43-2.376,13.617-1.5,27.729-.662,41.377.377,6.1.767,12.415.854,18.553.129,9.117.166,18.377.2,27.332.062,15.548.126,31.626.673,47.469l.077,2.206c.706,19.96,1.436,40.6-9.663,58.709-15.485,25.267-60.356,36.241-93.12,44.254l-.271.066C105.79,366.236,52.457,374.728,0,382.413v.491c52.516-7.692,105.917-16.192,156.941-28.671l.271-.067c32.877-8.041,77.9-19.053,93.506-44.511,11.163-18.213,10.43-38.909,9.722-58.923l-.077-2.206c-.547-15.837-.611-31.913-.673-47.458-.035-8.956-.073-18.217-.2-27.335-.087-6.147-.477-12.462-.854-18.57-.842-13.628-1.712-27.718.657-41.292s9.785-21.412,23.34-24.685c18.094-4.369,39.255-4.255,57.926-4.155l3.339.017c32.033.146,65.158.3,97.716-3.512C490.19,75.854,528.914,66.785,560,53.81a186.705,186.705,0,0,0,50.853-31.228A169.958,169.958,0,0,0,632.436,0Z" transform="translate(-2.299 -1.878)" fill="#0b0b1e"/>
          <path id="Caminho_1604" data-name="Caminho 1604" d="M635.309,0c-19.861,23.919-45.09,42.423-75.245,55.136C523.389,70.6,480.328,78.3,442.845,84.3c-28.493,4.562-57.923,6.08-86.385,7.548q-3.273.169-6.546.339c-10.139.529-20.312,1.512-30.15,2.464L316.151,95q-1.856.178-3.727.345c-7.268.661-14.783,1.346-21.745,3.247-12.662,3.458-19.331,11.4-20.989,25.006-1.59,13.044-.406,26.458.74,39.43.561,6.364,1.143,12.945,1.382,19.362.721,19.353-.493,39.157-1.667,58.309-.319,5.2-.649,10.576-.934,15.847-.964,17.862-2.165,40.092-16,57.662-6.553,8.324-17.263,15.741-32.742,22.675-22.058,9.883-46.378,16.166-69.373,21.485-49.3,11.4-100.569,19.516-151.1,26.85v.491c50.587-7.34,101.923-15.463,151.291-26.881,23.033-5.328,47.4-11.623,69.514-21.531,15.574-6.977,26.358-14.45,32.967-22.845,13.914-17.674,15.118-39.971,16.086-57.887.285-5.27.614-10.646.933-15.844,1.175-19.16,2.39-38.973,1.668-58.344-.239-6.427-.821-13.012-1.383-19.38-1.144-12.953-2.326-26.348-.741-39.355,1.632-13.395,8.168-21.211,20.567-24.6,6.892-1.882,14.37-2.564,21.6-3.221q1.873-.17,3.732-.346l3.613-.349c9.829-.951,19.992-1.934,30.112-2.461q3.273-.172,6.545-.34c28.484-1.468,57.937-2.988,86.476-7.557,37.53-6.008,80.648-13.717,117.4-29.211a201.994,201.994,0,0,0,51.3-31.064A190.636,190.636,0,0,0,636.052,0Z" transform="translate(-2.299 -1.878)" fill="#0b0b1e"/>
          <path id="Caminho_1605" data-name="Caminho 1605" d="M638.848,0A214.993,214.993,0,0,1,559.79,57.147c-30.857,13.1-65.458,20.082-98.922,26.838-5.084,1.026-10.34,2.087-15.5,3.152-24.981,5.16-50.848,8.18-75.864,11.1-4.657.543-9.474,1.1-14.216,1.673-5.034.6-10.109,1.343-15.018,2.06-5.586.815-11.364,1.657-17.095,2.3q-1.364.152-2.74.3c-7.129.777-14.5,1.58-21.224,3.632-6.581,2.008-11.277,5.352-14.357,10.221-2.425,3.835-3.829,8.678-4.293,14.806-.941,12.465.474,25.2,1.842,37.525.746,6.716,1.518,13.661,1.892,20.453,1.325,24.014-1.993,48.048-5.81,72.607-2.889,18.582-7.288,39.736-23.033,55.6C231,344.059,184.093,354.432,146.4,362.767l-.207.045C98.371,373.387,48.86,381.172,0,388.216v.491c48.915-7.051,98.487-14.843,146.376-25.432l.208-.046c37.785-8.355,84.81-18.753,109.391-43.523,15.839-15.963,20.258-37.191,23.156-55.834,3.821-24.579,7.141-48.633,5.814-72.683-.376-6.8-1.147-13.752-1.893-20.473-1.366-12.3-2.779-25.025-1.841-37.458.685-9.073,3.378-20.07,18.248-24.608,6.649-2.03,13.981-2.828,21.072-3.6q1.377-.149,2.743-.3c5.745-.644,11.529-1.487,17.123-2.3,4.9-.716,9.974-1.456,15-2.057,4.74-.567,9.556-1.129,14.213-1.673,25.034-2.922,50.92-5.944,75.936-11.111,5.156-1.065,10.412-2.126,15.495-3.152,33.5-6.763,68.144-13.758,99.072-26.885A215.581,215.581,0,0,0,639.616,0Z" transform="translate(-2.299 -1.878)" fill="#0b0b1e"/>
          <path id="Caminho_1606" data-name="Caminho 1606" d="M642.447,0A239.078,239.078,0,0,1,559.68,59.135c-30.2,12.982-64.006,20.389-96.7,27.553-4.619,1.012-9.4,2.059-14.083,3.1-21.517,4.8-43.5,9.142-64.752,13.344-7.733,1.529-15.729,3.11-23.6,4.692l-1.279.256c-9.844,1.981-19.143,3.851-29.047,5.2q-1.266.172-2.544.34c-6.495.862-13.211,1.751-19.293,3.749-14.559,4.779-16.813,16.006-17.15,25.252-.436,11.984,1.147,24.176,2.677,35.966.949,7.307,1.929,14.863,2.415,22.273,1.385,21.13-1.273,42.629-8.618,69.71-4.685,17.274-12.422,39.059-30.81,54.319-28.437,23.6-75.148,33.7-112.681,41.813C96.988,376.912,48.19,384.542,0,391.451v.491c48.244-6.915,97.1-14.552,144.395-24.778,17.849-3.86,40.063-8.663,60.513-15.371,22.742-7.461,39.9-16.156,52.47-26.582C275.87,309.864,283.639,288,288.34,270.665c7.357-27.121,10.018-48.658,8.63-69.829-.487-7.422-1.468-14.983-2.417-22.3-1.529-11.776-3.11-23.952-2.674-35.907.331-9.1,2.536-20.154,16.763-24.824,6.011-1.973,12.688-2.859,19.146-3.715q1.278-.169,2.547-.34c9.93-1.348,19.241-3.221,29.1-5.2l1.278-.257c7.872-1.582,15.868-3.163,23.6-4.691,21.26-4.2,43.244-8.549,64.771-13.349,4.687-1.044,9.462-2.091,14.081-3.1,32.728-7.171,66.57-14.587,96.838-27.6A239.71,239.71,0,0,0,643.226,0Z" transform="translate(-2.299 -1.878)" fill="#0b0b1e"/>
          <path id="Caminho_1607" data-name="Caminho 1607" d="M646.221,0c-25.9,27.162-54.644,47.377-87.583,61.624C530.385,73.842,499.011,81.386,468.67,88.68c-5.883,1.415-11.966,2.877-17.934,4.351-28.758,7.1-56.88,14.707-83.581,22.6-7.174,2.12-15.039,3.369-22.646,4.576-9.508,1.509-19.341,3.069-27.948,6.348-13.088,4.985-14.886,15.535-14.919,25.2-.039,11.354,1.627,22.873,3.239,34.012,1.066,7.368,2.169,14.986,2.764,22.472,1.172,14.744.918,26.6-.8,37.316-1.782,11.108-6.1,22.208-10.378,32.626-9.489,23.126-21.8,39.959-37.622,51.459-32.792,23.827-81.984,33.972-121.509,42.123-45.09,9.3-91.487,16.52-137.335,23.1v.491c45.9-6.591,92.355-13.818,137.507-23.129,22.3-4.6,44.011-9.253,64.559-15.617,24.141-7.477,42.861-16.186,57.228-26.626,15.907-11.558,28.268-28.458,37.79-51.664,4.282-10.438,8.614-21.562,10.4-32.709,1.722-10.743,1.978-22.629.8-37.4-.6-7.5-1.7-15.122-2.766-22.495-1.609-11.126-3.275-22.631-3.236-33.959.033-9.517,1.789-19.9,14.567-24.77,8.532-3.249,18.321-4.8,27.789-6.306,7.633-1.211,15.525-2.464,22.749-4.6,26.69-7.887,54.8-15.487,83.547-22.588,5.965-1.474,12.047-2.936,17.929-4.35,30.373-7.3,61.78-14.853,90.094-27.1a261.527,261.527,0,0,0,53.2-30.917A283.89,283.89,0,0,0,647.007,0Z" transform="translate(-2.299 -1.878)" fill="#0b0b1e"/>
          <path id="Caminho_1608" data-name="Caminho 1608" d="M650.251,0c-28.425,28.383-58.715,49.407-92.4,64.153-26.212,11.475-55.107,19.09-83.052,26.454-7.031,1.853-14.3,3.769-21.427,5.719-18.4,5.034-36.172,11.514-53.363,17.781-8.567,3.123-17.425,6.352-26.261,9.367-6.972,2.378-14.706,3.756-22.185,5.088-8.964,1.6-18.233,3.246-26.264,6.634-12.294,5.186-13.739,15.723-13.529,25.348.235,10.837,1.935,21.809,3.58,32.42,1.188,7.662,2.415,15.584,3.079,23.385,2.333,27.4-1.757,48.6-13.259,68.766-12.321,21.6-27.443,38.264-44.946,49.542-33.853,21.813-79.206,32.134-126.609,41.621C89.673,385.068,44.57,392.073,0,398.505V399c44.622-6.439,89.78-13.451,133.783-22.256,47.478-9.5,92.907-19.841,126.863-41.721,17.578-11.326,32.759-28.054,45.118-49.718,11.545-20.235,15.65-41.511,13.31-68.985-.665-7.813-1.894-15.742-3.082-23.41-1.643-10.6-3.342-21.56-3.576-32.372-.206-9.482,1.2-19.859,13.2-24.92,7.952-3.354,17.175-5,26.1-6.584,7.51-1.337,15.275-2.72,22.3-5.118,8.843-3.018,17.706-6.248,26.276-9.373,17.176-6.26,34.937-12.735,53.3-17.762,7.122-1.949,14.39-3.864,21.419-5.716,27.973-7.371,56.9-14.994,83.164-26.493C591.792,49.854,622.027,28.9,650.4.652V0Z" transform="translate(-2.299 -1.878)" fill="#0b0b1e"/>
          <path id="Caminho_1609" data-name="Caminho 1609" d="M556.61,70.446c-23.9,10.575-50.039,18.108-75.316,25.392-8,2.306-16.276,4.69-24.374,7.14a346.534,346.534,0,0,0-43.121,16c-3.639,1.65-7.3,3.425-10.832,5.142a224.117,224.117,0,0,1-23.054,10.133,162.6,162.6,0,0,1-20.169,5.164c-8.794,1.861-17.887,3.784-25.6,7.341-11.7,5.392-12.947,15.491-12.55,25.6.407,10.366,2.088,20.851,3.714,30.991,1.283,8,2.609,16.273,3.3,24.431,1.79,21.136,1.471,45.6-14.469,66.766C298.1,315.84,280.117,332.3,260.681,343.485c-36.656,21.085-84.075,31.606-129.5,40.574C88.006,392.582,43.731,399.456,0,405.8v.492c43.782-6.349,88.112-13.23,131.344-21.765,45.492-8.982,92.982-19.519,129.732-40.659,19.505-11.22,37.547-27.734,53.622-49.083,16.022-21.277,16.346-45.825,14.55-67.032-.692-8.171-2.02-16.451-3.3-24.458-1.624-10.13-3.3-20.6-3.709-30.948-.391-9.966.822-19.913,12.243-25.177,7.641-3.521,16.69-5.436,25.442-7.287a163.284,163.284,0,0,0,20.269-5.191,224.84,224.84,0,0,0,23.129-10.165c3.532-1.715,7.185-3.488,10.815-5.134a345.782,345.782,0,0,1,43.028-15.966c8.093-2.448,16.364-4.832,24.364-7.137C506.83,89,532.994,81.457,556.94,70.861,589.814,56.314,620.465,35.746,650.4,8.14V7.372c-30.044,27.795-60.8,48.476-93.788,63.074" transform="translate(-2.299 -5.245)" fill="#0b0b1e"/>
          <path id="Caminho_1610" data-name="Caminho 1610" d="M555.34,77.11C534.068,86.648,511,93.9,488.687,100.918c-9.787,3.078-19.908,6.26-29.766,9.6-16.021,5.427-28.371,10.6-38.866,16.291-3.52,1.907-6.971,3.947-10.309,5.919-6.963,4.114-14.163,8.368-22.234,11.559a154.549,154.549,0,0,1-19.857,5.78c-8.518,2.078-17.327,4.227-24.714,7.928-11.282,5.654-12.376,15.788-11.877,25.9.492,9.944,2.108,20,3.672,29.717,1.336,8.3,2.717,16.89,3.389,25.367,1.76,22.186,1.242,47.354-15.948,65.794-12.643,13.562-33.258,32.691-59.669,46.8-39.172,20.927-87.215,31.45-133.068,40.435C86.815,400.357,43.119,407.157,0,413.465v.492c43.17-6.314,86.921-13.122,129.605-21.486,45.911-9,94.019-19.535,133.281-40.51,26.486-14.149,47.151-33.323,59.822-46.917,17.3-18.561,17.829-43.828,16.063-66.1-.674-8.492-2.056-17.085-3.393-25.4-1.562-9.712-3.177-19.754-3.667-29.678-.492-9.97.572-19.958,11.591-25.48,7.313-3.664,16.077-5.8,24.554-7.87a155.231,155.231,0,0,0,19.959-5.812c8.123-3.211,15.346-7.479,22.332-11.607,3.333-1.969,6.78-4.005,10.288-5.907,10.459-5.668,22.773-10.829,38.753-16.242,9.851-3.336,19.967-6.517,29.75-9.593,22.332-7.023,45.425-14.284,66.736-23.839C588.295,62.9,618.613,43.139,650.4,15.737V15c-31.917,27.582-62.331,47.436-95.059,62.11" transform="translate(-2.299 -8.729)" fill="#0b0b1e"/>
          <path id="Caminho_1611" data-name="Caminho 1611" d="M555.743,83.331c-19,8.76-39.5,15.777-59.332,22.563-11.638,3.983-23.672,8.1-35.3,12.537-14.136,5.391-25.118,10.609-34.561,16.423-3.38,2.081-6.641,4.286-9.795,6.419-6.575,4.447-13.375,9.045-21.367,12.55-6.124,2.686-13.042,4.615-19.732,6.482-8.261,2.3-16.8,4.687-23.941,8.515-11.007,5.9-12.043,16.1-11.524,26.248a281.688,281.688,0,0,0,3.462,28.681c1.329,8.541,2.7,17.373,3.306,26.1,1.48,21.458.68,45.787-16.471,63.535-6.434,6.658-14.8,12.71-22.884,18.563-2.389,1.729-4.859,3.517-7.2,5.266a239.15,239.15,0,0,1-35.92,22.452c-41.518,20.868-91.981,31.785-136.023,40.38C86.13,408.305,42.746,415.1,0,421.435v.492c42.8-6.346,86.236-13.144,128.626-21.417,44.093-8.605,94.619-19.537,136.221-40.447a239.7,239.7,0,0,0,36.015-22.511c2.338-1.747,4.806-3.533,7.194-5.26,8.107-5.868,16.491-11.936,22.958-18.628,17.269-17.869,18.078-42.3,16.592-63.842-.6-8.741-1.979-17.581-3.309-26.13a281.692,281.692,0,0,1-3.459-28.643c-.512-10.009.5-20.068,11.256-25.838,7.069-3.791,15.569-6.162,23.789-8.455,6.717-1.873,13.661-3.81,19.834-6.517,8.051-3.53,14.875-8.145,21.474-12.609,3.148-2.129,6.4-4.331,9.772-6.4,9.406-5.791,20.351-10.991,34.443-16.365,11.616-4.43,23.644-8.546,35.275-12.527,19.844-6.792,40.364-13.815,59.4-22.591,31.236-14.4,61.437-33.688,94.315-60.291v-.713c-33.021,26.77-63.321,46.15-94.656,60.594" transform="translate(-2.299 -12.263)" fill="#0b0b1e"/>
          <path id="Caminho_1612" data-name="Caminho 1612" d="M554.168,90.9c-16.171,7.563-33.487,13.971-50.233,20.168-13.131,4.859-26.709,9.884-39.66,15.437-12.826,5.5-23.21,11.149-31.743,17.27-2,1.433-3.986,2.9-5.909,4.322-7.609,5.619-14.8,10.927-23.768,15.189a150.124,150.124,0,0,1-19.263,7c-7.961,2.493-16.195,5.071-23.073,8.968-10.956,6.208-12.037,16.507-11.573,26.711.421,9.27,1.783,18.644,3.1,27.711,1.229,8.457,2.5,17.2,3,25.841,1.276,21.889.056,46.563-18.672,63.6-7.324,6.662-16.328,12.582-25.035,18.308-2.239,1.472-4.555,2.995-6.785,4.494a298.421,298.421,0,0,1-38.952,22.431c-43.054,20.372-93.094,31.219-136.618,39.787C86.473,416.5,42.868,423.388,0,429.85v.492c42.919-6.469,86.579-13.362,129.153-21.742,43.571-8.577,93.668-19.437,136.8-39.846a299.111,299.111,0,0,0,39.038-22.48c2.228-1.5,4.541-3.019,6.78-4.491,8.726-5.738,17.749-11.671,25.107-18.364,18.867-17.16,20.1-41.944,18.819-63.925-.5-8.653-1.777-17.407-3.006-25.872-1.317-9.058-2.677-18.424-3.1-27.675-.459-10.075.6-20.235,11.317-26.31,6.814-3.86,15.008-6.426,22.932-8.908A150.478,150.478,0,0,0,403.2,163.7c9.031-4.289,16.578-9.863,23.876-15.253,1.921-1.419,3.908-2.886,5.9-4.317,8.495-6.094,18.837-11.72,31.617-17.2,12.934-5.546,26.5-10.567,39.625-15.423,16.76-6.2,34.091-12.615,50.289-20.192,38.2-17.865,70.608-40.488,95.886-59.843v-.693c-25.32,19.414-57.852,42.178-96.23,60.128" transform="translate(-2.299 -15.935)" fill="#0b0b1e"/>
          <path id="Caminho_1613" data-name="Caminho 1613" d="M554.333,98.152c-13.808,6.633-28.534,12.5-42.776,18.167-14.649,5.833-29.8,11.864-43.952,18.736-11.13,5.4-20.515,12.43-29.59,19.225-8.488,6.356-17.266,12.928-27.407,18.105a150.225,150.225,0,0,1-18.888,7.5c-7.96,2.756-16.191,5.607-22.961,9.769-10.592,6.513-11.755,16.792-11.434,26.929.287,9.041,1.463,18.192,2.6,27.041,1.118,8.688,2.273,17.672,2.585,26.545.727,20.654-1.132,44.1-20.42,61.427-8.815,7.916-19.649,14.566-30.126,21q-1.716,1.054-3.429,2.108a361.025,361.025,0,0,1-41.665,22.456c-43.311,19.523-92.949,30.754-140.137,39.982C84.9,425.315,42.025,432.171,0,438.668v.493c42.076-6.5,85.009-13.368,126.9-21.56,47.236-9.237,96.926-20.481,140.308-40.035a361.623,361.623,0,0,0,41.741-22.5q1.712-1.054,3.428-2.107c10.5-6.445,21.359-13.109,30.212-21.061A58.464,58.464,0,0,0,360.3,302.6c3.166-11.8,3.145-24.17,2.855-32.448-.313-8.89-1.469-17.882-2.588-26.579-1.137-8.841-2.313-17.982-2.6-27.006-.318-10.015.82-20.163,11.2-26.545,6.706-4.123,14.9-6.96,22.822-9.7a150.677,150.677,0,0,0,18.98-7.536c10.192-5.2,18.99-11.792,27.5-18.163,9.052-6.778,18.412-13.786,29.486-19.161,14.133-6.86,29.267-12.886,43.9-18.714,14.253-5.675,28.992-11.544,42.821-18.187C591.07,81.079,623.111,59.627,650.4,39.833v-.674c-27.36,19.868-59.523,41.44-96.065,58.993" transform="translate(-2.299 -19.764)" fill="#0b0b1e"/>
          <path id="Caminho_1614" data-name="Caminho 1614" d="M552.638,106.851c-11.139,5.447-22.951,10.477-34.375,15.34-15.624,6.652-31.779,13.53-46.476,21.588-10.2,5.593-19.02,12.538-27.547,19.254-7.881,6.208-16.031,12.626-25.24,17.947-6.04,3.489-13.03,6.114-19.79,8.652-7.474,2.806-15.2,5.708-21.665,9.788-10.924,6.9-12.332,17.32-12.226,27.556.092,8.841,1.043,17.8,1.962,26.462.912,8.593,1.855,17.479,1.959,26.245.232,19.627-2.287,42.2-22.724,60.776-9.854,8.958-21.637,15.981-34.9,23.585a433.322,433.322,0,0,1-42.619,21.767c-45.507,19.862-97.792,31.6-142.934,40.455C84.4,434.441,41.675,441.384,0,448.026v.493c41.726-6.649,84.5-13.6,126.225-21.787,29.894-5.867,52.542-11,73.434-16.641,26.447-7.143,49.234-14.949,69.662-23.864a434.27,434.27,0,0,0,42.686-21.8c13.3-7.623,25.113-14.665,35.011-23.662A65.236,65.236,0,0,0,365.8,311.9c2.941-9.1,4.24-19.341,4.087-32.227-.1-8.783-1.048-17.677-1.96-26.279-.918-8.655-1.868-17.6-1.96-26.428-.1-10.118,1.276-20.414,12-27.184,6.4-4.043,14.1-6.932,21.538-9.725,6.787-2.548,13.8-5.184,19.894-8.7,9.25-5.344,17.417-11.776,25.315-18,8.507-6.7,17.3-13.63,27.46-19.2,14.667-8.041,30.806-14.912,46.414-21.557,11.431-4.867,23.253-9.9,34.409-15.355,35.3-17.263,67.576-38.056,97.4-58.613v-.657c-29.931,20.641-62.322,41.537-97.76,58.867" transform="translate(-2.299 -23.795)" fill="#0b0b1e"/>
          <path id="Caminho_1615" data-name="Caminho 1615" d="M553.12,115.1c-9.094,4.579-18.744,8.939-28.076,13.155-17.277,7.805-35.143,15.877-50.539,25.79-8.912,5.738-17.192,12.242-25.2,18.53-7.166,5.628-14.577,11.448-22.423,16.709-6.163,4.131-13.529,7.14-20.653,10.05-7.089,2.9-14.418,5.89-20.563,9.99-10.882,7.262-12.54,18.146-12.726,27.836-.168,8.738.514,17.6,1.174,26.178.672,8.728,1.367,17.753,1.164,26.646-.286,12.565-1.868,22.57-4.977,31.487-3.2,9.184-9.639,18.182-19.679,27.506-21.069,19.571-52.274,34.242-80.018,46.013-45.97,19.5-97.293,31.226-141.433,40.12C86.45,443.716,42.551,450.99,0,458.008v.494c42.6-7.025,86.558-14.308,129.34-22.928,44.181-8.9,95.551-20.635,141.584-40.166,27.8-11.793,59.065-26.5,80.2-46.131,10.1-9.378,16.574-18.435,19.8-27.686,3.123-8.955,4.711-19,5-31.6.2-8.91-.492-17.945-1.165-26.682-.659-8.565-1.341-17.423-1.173-26.143.184-9.585,1.816-20.346,12.511-27.484,6.089-4.063,13.386-7.044,20.443-9.927,7.155-2.923,14.555-5.945,20.774-10.114,7.866-5.273,15.286-11.1,22.46-16.735,8-6.281,16.265-12.775,25.154-18.5,15.356-9.887,33.2-17.947,50.451-25.742,9.339-4.219,19-8.582,28.1-13.168C588,98.117,619.273,78.445,650.4,57.97v-.644c-31.25,20.566-62.634,40.327-97.278,57.771" transform="translate(-2.299 -28.062)" fill="#0b0b1e"/>
          <path id="Caminho_1616" data-name="Caminho 1616" d="M553.093,124.232c-7.209,3.732-14.847,7.384-22.235,10.917-18.136,8.673-36.89,17.64-52.1,29.011-5.429,4.06-10.741,8.294-15.877,12.389-8.749,6.975-17.795,14.186-27.633,20.7-6.254,4.136-13.43,7.435-20.369,10.625-6.972,3.205-14.181,6.52-20.429,10.675-11.586,7.706-13.714,18.813-14.267,28.662-.486,8.646-.121,17.436.232,25.936a262.414,262.414,0,0,1,.208,26.338c-.535,9.021-1.743,20.748-6.37,31.449-3.61,8.35-10.353,17.254-20.04,26.466-20.763,19.745-50.869,33.937-80.309,46.332-47.188,19.867-98.768,31.858-143,40.966-40.408,8.32-81.934,15.47-122.093,22.385L0,468.6v.495l8.96-1.543c40.165-6.916,81.7-14.066,122.119-22.39,44.271-9.116,95.9-21.117,143.146-41.011,29.5-12.42,59.667-26.645,80.5-46.455,9.734-9.257,16.513-18.211,20.146-26.616,4.651-10.755,5.864-22.524,6.4-31.575a262.909,262.909,0,0,0-.208-26.375c-.352-8.492-.717-17.272-.232-25.9.547-9.749,2.646-20.737,14.051-28.323,6.2-4.127,13.389-7.43,20.338-10.624s14.164-6.511,20.459-10.675c9.861-6.523,18.918-13.744,27.676-20.726,5.134-4.092,10.442-8.324,15.863-12.379,15.158-11.333,33.881-20.287,51.988-28.945,7.392-3.535,15.036-7.191,22.255-10.927,33.762-17.475,65.855-37.243,96.935-56.8V67.2c-31.2,19.632-63.415,39.49-97.3,57.032" transform="translate(-2.299 -32.572)" fill="#0b0b1e"/>
          <path id="Caminho_1617" data-name="Caminho 1617" d="M650.155,77.778c-31.632,19.091-64.339,38.832-98.068,56.772-5.206,2.769-10.649,5.538-15.912,8.217-18.865,9.6-38.372,19.524-53.314,32.476-14.893,12.911-27.138,22.313-39.7,30.483a187.159,187.159,0,0,1-22.683,12.892q-.962.45-1.929.9c-5.478,2.547-11.141,5.18-15.976,8.484-11.951,8.167-14.558,19.84-15.493,29.1A257.979,257.979,0,0,0,386.2,282.9c0,8.433,0,17.154-.862,25.708-2.269,22.6-11.676,41.542-28.756,57.913-21.717,20.815-52.231,35.046-81.972,47.324-47.2,19.485-98.645,31.682-138.192,40.13-37.948,8.107-76.95,15.152-114.668,21.965Q10.95,477.9,0,479.884v.5q11.015-2,21.908-3.967c37.724-6.814,76.733-13.86,114.694-21.97,39.58-8.455,91.071-20.663,138.327-40.172,29.8-12.3,60.381-26.567,82.168-47.45,17.161-16.449,26.611-35.478,28.891-58.173.861-8.571.862-17.3.864-25.744a257.6,257.6,0,0,1,.87-25.771c.926-9.168,3.5-20.725,15.286-28.777,4.79-3.274,10.429-5.9,15.881-8.43q.967-.45,1.93-.9a187.877,187.877,0,0,0,22.765-12.938c12.59-8.186,24.855-17.6,39.768-30.531,14.886-12.9,34.357-22.812,53.188-32.393,5.266-2.679,10.713-5.45,15.924-8.222,33.687-17.918,66.347-37.626,97.935-56.69v-.62l-.242.146" transform="translate(-2.299 -37.336)" fill="#0b0b1e"/>
          <path id="Caminho_1618" data-name="Caminho 1618" d="M629.714,100.675c-24.958,14.554-50.766,29.6-76.719,43.866q-3.168,1.742-6.337,3.472c-20.569,11.246-41.839,22.876-58.675,37.961a282.424,282.424,0,0,1-37.021,28.556,231.585,231.585,0,0,1-20.792,12.258c-1.309.654-2.65,1.311-3.948,1.946a125.288,125.288,0,0,0-14.964,8.177c-10.073,6.794-15.514,16.032-17.642,29.954a251.717,251.717,0,0,0-2.146,25.826,248.176,248.176,0,0,1-2.2,26.184c-3.312,21.233-13.686,40.391-30.835,56.941-22.429,21.645-53.505,36.179-80.947,47.542-75.236,31.151-160.567,47-243.088,62.319-11.364,2.11-22.865,4.248-34.4,6.434v.5c11.585-2.2,23.138-4.344,34.554-6.464,82.563-15.331,167.936-31.184,243.246-62.366,27.5-11.387,58.645-25.953,81.145-47.669,17.221-16.62,27.64-35.858,30.965-57.18a248.308,248.308,0,0,0,2.207-26.222,251.41,251.41,0,0,1,2.142-25.789c2.109-13.8,7.486-22.941,17.434-29.652a125,125,0,0,1,14.884-8.131c1.3-.636,2.643-1.292,3.954-1.949A232.085,232.085,0,0,0,451.383,214.9a283.092,283.092,0,0,0,37.1-28.614c16.785-15.039,38.022-26.651,58.56-37.88q3.168-1.732,6.339-3.472c25.958-14.266,51.77-29.319,76.732-43.875,6.668-3.888,13.46-7.849,20.286-11.812v-.611c-6.96,4.041-13.886,8.079-20.684,12.043" transform="translate(-2.299 -42.361)" fill="#0b0b1e"/>
          <path id="Caminho_1619" data-name="Caminho 1619" d="M590.653,134.191c-12.04,6.907-24.491,14.049-36.774,21.032l-2.885,1.638c-11.556,6.561-23.505,13.345-34.437,20.732-8.513,5.751-15.448,12.084-22.79,18.787l-1.618,1.477a229.529,229.529,0,0,1-33.2,25.65c-5.7,3.568-11.9,6.864-17.893,10.052a237.445,237.445,0,0,0-21.613,12.47c-10.156,6.884-16.272,16.067-19.246,28.9-2.115,9.129-3.066,18.521-3.986,27.6-.813,8.031-1.654,16.336-3.3,24.426-8.659,42.628-45.52,77.918-109.558,104.89C210.447,462.558,128.415,479,49.084,494.908,32.9,498.152,16.45,501.451,0,504.886v.5c16.505-3.447,33.014-6.758,49.252-10.014,39.655-7.95,80.659-16.17,120.062-26.083,44.215-11.123,81.623-23.233,114.362-37.022,29.707-12.512,53.9-27.048,71.9-43.2,20.592-18.478,33.37-39.349,37.977-62.034,1.648-8.107,2.489-16.421,3.3-24.462.918-9.071,1.868-18.45,3.978-27.556,2.948-12.722,9-21.818,19.043-28.626a236.983,236.983,0,0,1,21.552-12.434c6.007-3.193,12.218-6.5,17.935-10.075a230.218,230.218,0,0,0,33.282-25.714l1.618-1.477c7.326-6.689,14.246-13.008,22.722-18.735,10.913-7.373,22.851-14.151,34.4-20.705l2.885-1.639c12.285-6.984,24.735-14.126,36.776-21.033,19.417-11.139,39.335-22.564,59.352-33.78v-.6c-20.15,11.287-40.2,22.789-59.746,34" transform="translate(-2.299 -47.64)" fill="#0b0b1e"/>
          <path id="Caminho_1620" data-name="Caminho 1620" d="M553.6,167.273c-10.107,5.975-22.686,13.41-33.535,21.5A187.417,187.417,0,0,0,502.6,204.138c-1.741,1.667-3.54,3.39-5.341,5.069a190.092,190.092,0,0,1-31.1,24.069c-5.43,3.31-11.264,6.408-16.9,9.4-7.037,3.737-14.312,7.6-20.887,11.917-22.381,14.693-25.594,37.672-28.7,59.894-1.135,8.113-2.206,15.775-4.177,22.954-11.793,42.934-48.906,78.195-110.308,104.8-68.194,29.551-145,46.037-219.284,61.98C44.179,508.888,22,513.649,0,518.745v.505c22.06-5.111,44.3-9.886,66.067-14.558,74.319-15.95,151.168-32.444,219.431-62.026,28.836-12.5,52.692-27.209,70.909-43.731,20.188-18.31,33.548-38.966,39.707-61.393,1.978-7.2,3.052-14.876,4.188-23,3.095-22.13,6.295-45.014,28.486-59.582,6.549-4.3,13.811-8.157,20.834-11.887,5.65-3,11.492-6.1,16.939-9.423a190.7,190.7,0,0,0,31.2-24.142c1.8-1.682,3.6-3.406,5.346-5.075a187.022,187.022,0,0,1,17.412-15.322c10.823-8.068,23.385-15.494,33.479-21.461,34.548-20.421,66.294-38.461,96.4-54.775v-.6c-30.225,16.371-62.1,34.482-96.8,54.993" transform="translate(-2.299 -53.162)" fill="#0b0b1e"/>
          <path id="Caminho_1621" data-name="Caminho 1621" d="M556.845,177.946c-12.528,7.664-24.616,15.269-34.8,24.044-4.51,3.884-8.7,8.078-12.76,12.134-2.191,2.191-4.457,4.456-6.742,6.642a157.97,157.97,0,0,1-29.194,22.626c-5.12,3.024-10.6,5.852-15.893,8.588a231.338,231.338,0,0,0-21.565,12.125c-22.692,15.044-27.576,37.785-32.3,59.778a218.955,218.955,0,0,1-5.419,21.69,144.162,144.162,0,0,1-34.632,57.291c-18.275,18.521-43.415,34.875-76.859,50-63.422,28.676-135.254,45.253-204.722,61.284C54.923,520.384,27.174,526.792,0,533.893v.511c27.232-7.121,55.05-13.545,82.147-19.8,69.505-16.04,141.377-32.625,204.867-61.332,33.517-15.155,58.719-31.55,77.044-50.123A144.594,144.594,0,0,0,398.8,345.687a218.9,218.9,0,0,0,5.429-21.727c4.706-21.909,9.571-44.565,32.091-59.494a230.9,230.9,0,0,1,21.5-12.088c5.3-2.74,10.79-5.573,15.927-8.606a158.573,158.573,0,0,0,29.3-22.708c2.29-2.19,4.557-4.458,6.75-6.65,4.05-4.048,8.237-8.235,12.731-12.106,10.153-8.746,22.219-16.337,34.724-23.987,29-17.742,59.656-35.114,93.142-52.771v-.591c-33.644,17.732-64.434,35.175-93.553,52.989" transform="translate(-2.299 -58.952)" fill="#0b0b1e"/>
          <path id="Caminho_1622" data-name="Caminho 1622" d="M29.584,544.534c24.512-6.821,49.444-13.066,73.785-19.16,65.77-16.467,133.779-33.493,193.542-61.9,32.288-15.351,56.829-31.787,75.025-50.248a159.324,159.324,0,0,0,36.434-58.245c2.22-6.148,4.119-12.661,5.957-18.959,6.82-23.383,13.872-47.562,39.205-63.478A216.651,216.651,0,0,1,473.059,262.1c5.222-2.568,10.621-5.223,15.653-8.111,9.428-5.413,17.9-12.029,27.464-21.454,2.5-2.465,4.988-5,7.393-7.459,3.576-3.651,7.274-7.427,11.093-11.031,9.238-8.718,20.336-16.211,30.953-23.009,29.87-19.128,61.394-36.385,92.163-52.321v-.587c-30.9,16-62.575,33.325-92.585,52.542-10.642,6.815-21.767,14.327-31.039,23.077-3.826,3.611-7.528,7.39-11.107,11.046-2.4,2.453-4.888,4.991-7.387,7.452-9.529,9.389-17.962,15.977-27.343,21.362-5.013,2.878-10.4,5.528-15.614,8.091a217.185,217.185,0,0,0-19.588,10.471c-25.5,16.022-32.578,40.282-39.421,63.744-1.836,6.293-3.733,12.8-5.949,18.937a158.874,158.874,0,0,1-36.331,58.084c-18.148,18.412-42.632,34.809-74.852,50.126-59.7,28.38-127.667,45.4-193.4,61.855-24.883,6.23-50.385,12.617-75.428,19.617Z" transform="translate(-9.68 -64.969)" fill="#0b0b1e"/>
          <path id="Caminho_1623" data-name="Caminho 1623" d="M78.734,550.67c16.655-4.791,33.367-9.366,49.8-13.864,62.509-17.111,127.147-34.8,183.789-63.078,31.048-15.5,54.935-31.956,73.026-50.314a177.271,177.271,0,0,0,37.181-56.491c2.534-6.068,4.729-12.307,7.053-18.914,8.762-24.91,17.822-50.669,45.463-66.338,5.618-3.184,11.69-6.05,17.561-8.82,5.586-2.636,11.364-5.362,16.753-8.364a109.87,109.87,0,0,0,24.7-19.228q2.376-2.388,4.719-4.764c12.963-13.116,25.206-25.5,41.457-36.464,27.612-18.623,57.731-35.061,90.633-51.88v-.586c-33.066,16.9-63.325,33.4-91.067,52.108-16.3,10.993-28.562,23.4-41.544,36.536q-2.346,2.374-4.718,4.763A109.279,109.279,0,0,1,508.972,264.1c-5.369,2.991-11.135,5.712-16.711,8.343-5.883,2.777-11.967,5.647-17.607,8.844-27.818,15.77-36.908,41.61-45.7,66.6-2.322,6.6-4.515,12.835-7.045,18.892a176.827,176.827,0,0,1-37.084,56.35c-18.047,18.312-41.881,34.732-72.865,50.2-56.578,28.242-121.179,45.925-183.652,63.027-16.947,4.639-34.19,9.361-51.364,14.317Z" transform="translate(-22.775 -71.105)" fill="#0b0b1e"/>
          <path id="Caminho_1624" data-name="Caminho 1624" d="M124.9,556.919c8.818-2.692,17.61-5.341,26.317-7.963,59.424-17.893,120.869-36.4,174.771-64.5,31.135-16.233,55.179-33.376,73.508-52.407,15.473-16.065,27.9-34.727,37.982-57.052,2.2-4.865,4.234-9.787,6.39-15,10.848-26.223,22.067-53.339,52.68-69.088,4.846-2.493,9.963-4.826,14.911-7.081,6.039-2.753,12.283-5.6,18.1-8.765,8.045-4.38,15.206-10.053,23.22-18.394q2.431-2.529,4.83-5.052c12.58-13.189,24.462-25.646,40.274-36.627,26.215-18.205,55.618-34.119,85.3-49.166v-.583c-29.83,15.112-59.391,31.1-85.745,49.4-15.859,11.014-27.76,23.491-40.36,36.7q-2.4,2.52-4.828,5.051c-7.972,8.3-15.089,13.937-23.076,18.286-5.791,3.154-12.024,5.995-18.052,8.742-4.955,2.259-10.08,4.6-14.941,7.1-13.785,7.092-24.91,17.207-34.011,30.925-8.038,12.114-13.57,25.486-18.92,38.418-2.154,5.207-4.189,10.125-6.384,14.984-10.065,22.279-22.46,40.9-37.895,56.925-18.284,18.986-42.279,36.091-73.354,52.293-53.84,28.072-115.252,46.563-174.642,64.447-9.189,2.767-18.471,5.563-27.782,8.41Z" transform="translate(-35.081 -77.354)" fill="#0b0b1e"/>
          <path id="Caminho_1625" data-name="Caminho 1625" d="M167.079,563.291l4.08-1.357c56.85-18.912,115.638-38.466,167.385-66.628,29.943-16.295,53.388-33.334,71.677-52.091,15.595-15.994,28.695-34.783,40.047-57.438,2.149-4.287,4.264-8.727,6.309-13.021,12.983-27.252,26.407-55.432,60.174-72.111,4.624-2.283,9.5-4.4,14.225-6.454,5.532-2.4,11.251-4.887,16.6-7.653,7.834-4.051,14.628-9.368,22.031-17.243,2.361-2.511,4.724-5.073,7.01-7.55,10.654-11.545,21.67-23.484,35.479-33.617,24.787-18.19,53.352-33.74,82.339-48.349V179.2c-29.136,14.674-57.865,30.294-82.793,48.588-13.853,10.166-24.887,22.124-35.558,33.688-2.285,2.477-4.648,5.037-7.008,7.547-7.357,7.826-14.1,13.107-21.869,17.123-5.328,2.755-11.037,5.235-16.558,7.633-4.728,2.054-9.617,4.178-14.256,6.469-33.948,16.767-47.409,45.024-60.428,72.351-2.044,4.292-4.158,8.73-6.3,13.014-11.332,22.614-24.4,41.364-39.964,57.323-18.248,18.716-41.648,35.72-71.535,51.985-51.692,28.131-110.446,47.676-167.267,66.577l-5.4,1.8Z" transform="translate(-46.337 -83.725)" fill="#0b0b1e"/>
          <path id="Caminho_1626" data-name="Caminho 1626" d="M206.911,569.8c14.567-5.3,29.246-10.741,43.584-16.389,37.788-14.886,72.054-31.1,101.844-48.2,27.9-16.008,50.121-32.572,67.946-50.637,15.675-15.888,29.453-34.8,42.121-57.8,2.059-3.739,4.1-7.57,6.081-11.274,14.822-27.768,30.147-56.481,65.829-73.764,4.819-2.334,9.938-4.454,14.889-6.5,5.627-2.331,11.445-4.74,16.861-7.48,9.409-4.759,15.888-11.149,20.984-16.772,1.992-2.2,4-4.439,5.934-6.608,10.076-11.272,20.495-22.929,33.364-32.969,23.158-18.066,50.618-33.231,78.718-47.373v-.582c-28.255,14.209-55.885,29.446-79.185,47.622-12.909,10.07-23.344,21.745-33.435,33.035-1.938,2.167-3.94,4.408-5.931,6.6-5.062,5.585-11.493,11.93-20.812,16.643-5.393,2.728-11.2,5.132-16.812,7.457-4.96,2.055-10.088,4.178-14.927,6.522a115.305,115.305,0,0,0-40.843,32.931c-10.148,12.792-17.818,27.161-25.235,41.059-1.977,3.7-4.021,7.533-6.078,11.269-12.648,22.969-26.4,41.842-42.044,57.7-17.787,18.028-39.971,34.56-67.818,50.541-29.762,17.079-64,33.28-101.752,48.153-14.72,5.8-29.8,11.382-44.758,16.816Z" transform="translate(-56.966 -90.236)" fill="#0b0b1e"/>
          <path id="Caminho_1627" data-name="Caminho 1627" d="M241.051,576.456c9.138-3.776,18.23-7.638,27.169-11.611a898.609,898.609,0,0,0,92.646-47.4c28.848-17.1,51.879-34.683,70.411-53.755,14.88-15.315,28.157-33.007,41.781-55.678,2.547-4.241,5.038-8.587,7.445-12.79,8.041-14.035,16.354-28.548,28.178-41.413a132.892,132.892,0,0,1,43.25-31.351c4.6-2.141,9.489-4.067,14.217-5.93,5.644-2.224,11.481-4.523,16.874-7.207,8.74-4.348,14.641-10.259,19.261-15.468,1.947-2.195,3.9-4.428,5.794-6.587,9.644-11.008,19.616-22.391,31.711-32.488,21.337-17.813,47.415-32.553,74.4-46.18v-.583c-27.147,13.7-53.4,28.509-74.881,46.441-12.128,10.125-22.112,21.523-31.77,32.546-1.891,2.159-3.847,4.392-5.793,6.585-4.585,5.168-10.437,11.032-19.081,15.333-5.367,2.671-11.188,4.964-16.817,7.182-4.739,1.867-9.639,3.8-14.257,5.948a133.487,133.487,0,0,0-43.442,31.487c-11.86,12.9-20.185,27.439-28.238,41.5-2.407,4.2-4.9,8.545-7.441,12.782-13.606,22.639-26.861,40.3-41.715,55.591-18.5,19.037-41.488,36.589-70.289,53.661a897.943,897.943,0,0,1-92.575,47.36c-9.265,4.119-18.7,8.118-28.174,12.026Z" transform="translate(-66.088 -96.891)" fill="#0b0b1e"/>
          <path id="Caminho_1628" data-name="Caminho 1628" d="M270.261,583.442q6.788-3.278,13.458-6.668c35.65-18.166,63.434-33.578,87.439-48.5,27.44-17.06,49.678-34.438,67.985-53.128,15.016-15.33,28.689-32.912,44.332-57.007,2.447-3.769,4.877-7.664,7.227-11.431,8.737-14,17.771-28.484,30.289-40.865a157.162,157.162,0,0,1,47.74-32.263c4.268-1.893,8.8-3.6,13.174-5.241,5.38-2.022,10.943-4.113,16.088-6.581,8.654-4.152,14.307-9.876,18.7-14.929,1.993-2.295,3.992-4.628,5.924-6.884,9.221-10.766,18.756-21.9,30.331-31.864,19.8-17.046,43.88-31.2,69.057-44.178v-.586c-25.345,13.051-49.607,27.279-69.545,44.448-11.606,9.993-21.154,21.14-30.388,31.92-1.932,2.256-3.93,4.588-5.922,6.881-4.351,5.01-9.952,10.684-18.5,14.786-5.117,2.454-10.664,4.539-16.029,6.556-4.388,1.649-8.926,3.356-13.214,5.257a157.768,157.768,0,0,0-47.926,32.386c-12.559,12.421-21.607,26.926-30.358,40.952-2.349,3.765-4.778,7.658-7.223,11.424C467.267,442,453.613,459.554,438.62,474.86c-18.275,18.657-40.478,36.007-67.877,53.042-23.988,14.915-51.757,30.318-87.389,48.474q-7.065,3.6-14.281,7.067Z" transform="translate(-73.901 -103.877)" fill="#0b0b1e"/>
          <path id="Caminho_1629" data-name="Caminho 1629" d="M294.21,590.665q1.493-.885,2.974-1.78c10.294-6.225,20.934-12.4,31.225-18.365,17.2-9.977,34.993-20.294,51.694-31.174,26.13-17.022,47.6-34.174,65.639-52.437,18.511-18.742,33.7-39.347,46.123-57.031,2.066-2.942,4.15-5.968,6.166-8.894,10.543-15.305,21.445-31.132,36.127-44.484,13.373-12.162,29.52-22.393,47.992-30.409,4.39-1.906,9.051-3.595,13.56-5.228,5.3-1.921,10.781-3.907,15.868-6.26,8.851-4.1,14.469-9.905,19.223-15.574q1.874-2.234,3.73-4.463c10.129-12.144,19.7-23.614,32.031-34.316,17.894-15.526,39.3-28.591,61.851-40.531v-.591c-22.719,12.012-44.305,25.158-62.342,40.807-12.366,10.73-21.946,22.215-32.089,34.375q-1.859,2.228-3.729,4.462c-4.712,5.619-10.278,11.377-19.016,15.42-5.058,2.34-10.523,4.321-15.81,6.237-4.518,1.638-9.19,3.331-13.6,5.245-18.539,8.045-34.745,18.314-48.167,30.521-14.725,13.392-25.643,29.242-36.2,44.569-2.015,2.925-4.1,5.95-6.164,8.89-12.409,17.669-27.586,38.253-46.071,56.97-18.011,18.234-39.45,35.361-65.544,52.36-16.687,10.871-34.469,21.183-51.666,31.157-10.293,5.969-20.937,12.142-31.235,18.37q-1.794,1.086-3.609,2.154Z" transform="translate(-80.313 -111.1)" fill="#0b0b1e"/>
          <path id="Caminho_1630" data-name="Caminho 1630" d="M313.431,598.114c11.1-7.347,22.618-14.492,33.8-21.429,13.5-8.37,27.451-17.026,40.634-26.015,25.4-17.321,46.529-34.636,64.589-52.935,17.84-18.077,32.853-37.464,46.7-55.773,25.038-33.1,51.2-64.367,95.78-83.138,4.273-1.8,8.819-3.388,13.215-4.925a178.869,178.869,0,0,0,16.722-6.479c8.347-3.911,13.661-9.494,18.158-14.943q2.1-2.545,4.178-5.085c10.149-12.382,19.736-24.077,32.211-34.978,15.786-13.792,34.4-25.594,54.124-36.38v-.6c-19.9,10.86-38.689,22.748-54.616,36.664-12.509,10.929-22.109,22.641-32.272,35.039q-2.081,2.538-4.176,5.083c-4.458,5.4-9.717,10.929-17.952,14.788a178.114,178.114,0,0,1-16.653,6.451c-4.406,1.541-8.963,3.134-13.257,4.942-44.723,18.832-70.942,50.159-96.026,83.322-13.838,18.3-28.84,37.668-46.658,55.723-18.034,18.274-39.134,35.566-64.5,52.866-13.172,8.982-27.121,17.633-40.611,26-11.372,7.052-23.084,14.321-34.359,21.8Z" transform="translate(-85.447 -118.548)" fill="#0b0b1e"/>
          <path id="Caminho_1631" data-name="Caminho 1631" d="M331.054,605.837C341.166,598.7,351.6,591.8,361.79,585.057c10.562-6.988,21.483-14.214,31.886-21.588,25.5-18.078,46.85-35.923,65.276-54.555,16.789-16.978,31.676-35.289,46.073-53l2.216-2.726c25.392-31.216,55.061-62.634,99.835-81,4.227-1.733,8.711-3.265,13.048-4.746,5.578-1.9,11.344-3.873,16.645-6.3,8.565-3.918,14.067-9.756,18.318-14.949,1.805-2.205,3.617-4.445,5.37-6.612,9.256-11.445,18.827-23.279,30.7-33.874,13.774-12.295,29.891-22.982,47.09-32.763v-.606c-17.377,9.861-33.67,20.639-47.586,33.061-11.9,10.624-21.486,22.474-30.754,33.934-1.752,2.166-3.563,4.406-5.368,6.61-4.212,5.145-9.657,10.925-18.1,14.789-5.267,2.41-11.016,4.373-16.576,6.271-4.348,1.485-8.844,3.02-13.091,4.762-44.906,18.417-74.637,49.9-100.076,81.169l-2.217,2.726c-14.39,17.7-29.27,36-46.04,52.962-18.4,18.609-39.73,36.434-65.2,54.492-10.394,7.369-21.312,14.592-31.869,21.577-10.361,6.855-20.972,13.878-31.246,21.14Z" transform="translate(-90.144 -126.271)" fill="#0b0b1e"/>
          <path id="Caminho_1632" data-name="Caminho 1632" d="M347.728,613.855c9.068-6.765,18.356-13.341,27.46-19.785,8.347-5.908,16.977-12.016,25.282-18.16,24.847-18.384,45.859-36.274,64.235-54.691,14.453-14.486,27.79-29.887,40.687-44.783,3.01-3.477,6.124-7.073,9.2-10.6,23.606-27.047,56.757-60.529,103.979-79.538,4.215-1.7,8.683-3.2,13-4.654a179.234,179.234,0,0,0,17.147-6.423c8.728-3.984,14.3-9.932,18.6-15.225,2.013-2.479,4.028-5,5.978-7.435,9.1-11.38,18.513-23.148,30.159-33.722,11.533-10.472,24.891-19.764,39.227-28.322V289.9c-14.519,8.643-28.052,18.032-39.727,28.633s-21.1,22.386-30.215,33.781c-1.948,2.436-3.963,4.955-5.975,7.433-4.259,5.243-9.772,11.133-18.383,15.063a178.8,178.8,0,0,1-17.076,6.4c-4.331,1.457-8.809,2.963-13.044,4.668-47.352,19.061-80.567,52.606-104.215,79.7-3.079,3.529-6.193,7.125-9.2,10.6-12.892,14.889-26.222,30.284-40.663,44.757-18.356,18.4-39.346,36.269-64.171,54.636-8.3,6.141-16.927,12.247-25.271,18.153-9.262,6.555-18.711,13.246-27.93,20.135Z" transform="translate(-94.588 -134.289)" fill="#0b0b1e"/>
          <path id="Caminho_1633" data-name="Caminho 1633" d="M363.729,622.83c8.808-6.951,17.748-13.752,26.534-20.434,5.6-4.26,11.394-8.665,17.055-13.036a672.325,672.325,0,0,0,63.23-54.782c12.216-12.119,23.845-24.846,35.091-37.154,5.358-5.864,10.9-11.928,16.433-17.849,35.609-38.1,69.8-62.84,107.592-77.855,4.226-1.679,8.7-3.176,13.021-4.625a182.6,182.6,0,0,0,17.82-6.663c8.982-4.11,14.707-10.237,19.123-15.688,2.659-3.283,5.289-6.653,7.831-9.912,8.551-10.959,17.393-22.291,28.777-32.115a263.021,263.021,0,0,1,30.716-22.536v-.631A264.437,264.437,0,0,0,715.745,332.4c-11.424,9.858-20.281,21.21-28.846,32.188-2.541,3.257-5.17,6.625-7.826,9.9-4.375,5.4-10.043,11.471-18.907,15.527a182.09,182.09,0,0,1-17.746,6.634c-4.334,1.452-8.815,2.953-13.06,4.639a257.571,257.571,0,0,0-59.96,34.252c-15.992,12.094-31.646,26.406-47.858,43.753-5.536,5.923-11.078,11.988-16.436,17.853-11.242,12.3-22.867,25.026-35.074,37.136a671.825,671.825,0,0,1-63.177,54.737c-5.66,4.369-11.451,8.774-17.052,13.033-8.928,6.79-18.014,13.7-26.961,20.772Z" transform="translate(-98.852 -143.265)" fill="#0b0b1e"/>
          <path id="Caminho_1634" data-name="Caminho 1634" d="M378.741,632.295c11.006-9.228,22.639-18.647,35.418-28.94,23.9-19.252,44.267-37.187,62.259-54.83,10.021-9.827,19.795-20.041,29.246-29.917,7.774-8.124,15.812-16.525,23.945-24.665,35.368-35.4,72.593-60.954,110.641-75.957,4.243-1.673,8.722-3.18,13.054-4.638a187.7,187.7,0,0,0,18.713-7.042c9.347-4.319,15.3-10.684,19.891-16.34,2.806-3.457,5.564-7.007,8.232-10.44,8.662-11.149,17.62-22.679,29.446-32.556,6.739-5.63,13.9-10.956,21.367-16.042v-.656c-7.642,5.186-14.962,10.624-21.849,16.377-11.87,9.915-20.845,21.465-29.524,32.636-2.665,3.431-5.422,6.979-8.225,10.432-4.552,5.607-10.449,11.915-19.679,16.18a187.22,187.22,0,0,1-18.638,7.012c-4.341,1.461-8.83,2.971-13.091,4.651a288.273,288.273,0,0,0-60.96,33.506,393.742,393.742,0,0,0-49.9,42.59c-8.137,8.143-16.177,16.546-23.953,24.672-9.448,9.874-19.218,20.085-29.233,29.906-17.98,17.631-38.332,35.554-62.219,54.794-12.93,10.414-24.687,19.934-35.81,29.268Z" transform="translate(-102.853 -152.73)" fill="#0b0b1e"/>
          <path id="Caminho_1635" data-name="Caminho 1635" d="M392.881,642.321c9.229-8.208,18.869-16.537,29.031-25.079,23.1-19.416,42.628-36.877,59.708-53.38,8.057-7.785,16.05-15.812,23.781-23.575,9.979-10.022,20.3-20.386,30.865-30.337,36.1-34,74.423-59.139,113.92-74.721,4.292-1.693,8.822-3.235,13.2-4.726a188.659,188.659,0,0,0,20.247-7.761c9.692-4.621,15.933-11.322,20.76-17.268,2.646-3.259,5.25-6.584,7.767-9.8,9.185-11.731,18.683-23.862,31.48-34.251q5.386-4.373,11.078-8.522v-.676q-5.928,4.323-11.554,8.873c-12.844,10.428-22.36,22.581-31.563,34.334-2.517,3.214-5.119,6.538-7.762,9.794-4.788,5.9-10.975,12.544-20.555,17.111a188.271,188.271,0,0,1-20.168,7.729c-4.389,1.493-8.929,3.038-13.238,4.738a325.632,325.632,0,0,0-62.15,33.08,412.582,412.582,0,0,0-51.974,41.768c-10.572,9.958-20.895,20.325-30.878,30.35-7.729,7.761-15.721,15.787-23.774,23.568-17.07,16.494-36.591,33.946-59.68,53.354-10.294,8.653-20.051,17.086-29.39,25.4Z" transform="translate(-106.622 -162.756)" fill="#0b0b1e"/>
          <path id="Caminho_1636" data-name="Caminho 1636" d="M406.379,652.967c7.1-6.668,14.423-13.349,21.973-19.965,17.763-15.566,38.619-34.048,58.621-53.095,5.931-5.648,11.891-11.435,17.653-17.031,12.768-12.4,25.971-25.223,39.727-37.362,35.509-31.335,75.395-56.265,115.343-72.094,4.377-1.735,8.973-3.332,13.419-4.877a212.339,212.339,0,0,0,20.818-8.059c10.857-5.129,17.733-12.453,23.027-18.942,2.488-3.049,4.941-6.146,7.312-9.142,9.869-12.464,19.192-24.237,32.406-34.866.542-.436,1.093-.866,1.64-1.3v-.7c-.707.557-1.415,1.113-2.114,1.675-13.261,10.668-22.6,22.462-32.489,34.949-2.371,2.994-4.822,6.089-7.307,9.136-5.255,6.44-12.076,13.709-22.821,18.785a211.9,211.9,0,0,1-20.745,8.03c-4.453,1.547-9.058,3.148-13.449,4.888-40.02,15.857-79.971,40.826-115.533,72.208-13.766,12.148-26.974,24.975-39.746,37.38-5.763,5.6-11.719,11.382-17.649,17.028-19.994,19.04-40.845,37.516-58.6,53.079-7.669,6.721-15.1,13.506-22.307,20.278Z" transform="translate(-110.219 -173.402)" fill="#0b0b1e"/>
          <path id="Caminho_1637" data-name="Caminho 1637" d="M419.309,664.494q7.726-7.485,15.688-14.8c5.222-4.777,10.545-9.625,15.691-14.315,14.215-12.95,28.913-26.341,43.11-39.674,3.33-3.128,6.706-6.317,9.971-9.4,15.619-14.754,31.769-30.01,48.918-44.2A440.871,440.871,0,0,1,669.8,472.414c4.2-1.664,8.6-3.227,12.854-4.739a215.759,215.759,0,0,0,22.542-8.971c8.692-4.261,15.9-10.129,23.372-19.026,2.954-3.517,5.835-7.086,8.623-10.537,7.817-9.682,15.3-18.943,24.572-27.6v-.769c-9.534,8.818-17.156,18.253-25.127,28.124-2.785,3.45-5.666,7.017-8.617,10.53-7.421,8.835-14.569,14.657-23.178,18.878a215.338,215.338,0,0,1-22.465,8.938c-4.26,1.514-8.664,3.08-12.878,4.749a441.533,441.533,0,0,0-117.288,69.8c-17.163,14.2-33.32,29.466-48.945,44.227-3.264,3.084-6.64,6.272-9.97,9.4-14.194,13.33-28.891,26.719-43.1,39.668-5.147,4.689-10.47,9.538-15.693,14.315q-8.134,7.44-16,15.1Z" transform="translate(-113.662 -184.928)" fill="#0b0b1e"/>
          <path id="Caminho_1638" data-name="Caminho 1638" d="M432.285,677.468q4.8-4.839,9.738-9.575c14.584-13.94,29.763-27.914,44.443-41.428,4.768-4.389,9.7-8.928,14.536-13.4l1.261-1.165c18.331-16.943,37.285-34.463,57.745-50.479C594.26,534.61,633.814,511.927,677.57,494c4.653-1.906,9.53-3.69,14.246-5.415,8.308-3.039,16.9-6.181,24.65-10.126,9.172-4.668,16.86-10.987,24.93-20.489,2.586-3.045,5.134-6.122,7.6-9.1,5.363-6.476,10.582-12.775,16.222-18.854v-.848c-5.853,6.265-11.236,12.763-16.772,19.448-2.464,2.975-5.011,6.051-7.6,9.093-8.019,9.444-15.652,15.721-24.748,20.35-7.713,3.925-16.283,7.06-24.571,10.091-4.723,1.727-9.606,3.514-14.271,5.424a528.914,528.914,0,0,0-62.33,30.4,466.378,466.378,0,0,0-55.389,37.111C539.061,577.12,520.1,594.647,501.759,611.6l-1.261,1.166c-4.837,4.47-9.767,9.009-14.536,13.4-14.681,13.515-29.862,27.49-44.45,41.434q-5.1,4.872-10.033,9.872Z" transform="translate(-117.118 -197.902)" fill="#0b0b1e"/>
          <path id="Caminho_1639" data-name="Caminho 1639" d="M445.178,690.484q3.039-3.131,6.139-6.215c33.813-33.554,73.614-72.087,118.13-104.739,33.59-24.639,72.833-46.19,116.637-64.054,4.42-1.8,9.022-3.538,13.472-5.217,9.168-3.457,18.647-7.033,27.207-11.437,10.245-5.271,18.858-12.344,27.926-22.933,2.827-3.3,5.533-6.73,8.151-10.047,1.886-2.39,3.821-4.836,5.81-7.251v-.92c-2.188,2.634-4.306,5.314-6.368,7.927-2.614,3.313-5.319,6.739-8.139,10.032-9.019,10.532-17.577,17.562-27.748,22.8-8.523,4.386-17.983,7.953-27.131,11.4-4.455,1.68-9.061,3.418-13.49,5.224-43.856,17.885-83.147,39.463-116.78,64.134C524.446,611.862,484.626,650.412,450.8,683.98q-3.246,3.222-6.419,6.5Z" transform="translate(-120.551 -210.919)" fill="#0b0b1e"/>
          <path id="Caminho_1640" data-name="Caminho 1640" d="M458.137,705.126l.419-.439c42.2-43.888,81.707-78.319,120.779-105.26,33.16-22.865,72.653-43.6,117.383-61.631,3.562-1.436,7.235-2.857,10.786-4.231,9.911-3.835,20.16-7.8,29.434-12.628,10.961-5.7,20.5-13.4,30.025-24.206,1.758-1.995,3.464-4.039,5.136-6.078v-.926c-1.844,2.258-3.73,4.53-5.677,6.739-9.477,10.756-18.963,18.407-29.854,24.075-9.24,4.808-19.469,8.767-29.362,12.595-3.554,1.376-7.23,2.8-10.8,4.235-44.776,18.049-84.314,38.809-117.514,61.7-39.1,26.963-78.639,61.418-120.865,105.333-.23.239-.458.481-.688.72Z" transform="translate(-124 -225.56)" fill="#0b0b1e"/>
          <path id="Caminho_1641" data-name="Caminho 1641" d="M471.241,718.831c35.95-38.367,75.042-71.633,116.283-98.934,31.845-21.081,70.1-40.537,116.958-59.479,3.151-1.274,6.385-2.549,9.512-3.782,11.5-4.533,23.387-9.222,34.076-14.981a112.5,112.5,0,0,0,27.517-21.1v-.824a112.409,112.409,0,0,1-27.9,21.53c-10.652,5.739-22.52,10.419-34,14.945-3.129,1.234-6.364,2.509-9.518,3.785-46.9,18.959-85.2,38.436-117.08,59.542-41.378,27.392-80.593,60.78-116.643,99.295Z" transform="translate(-127.488 -239.266)" fill="#0b0b1e"/>
          <path id="Caminho_1642" data-name="Caminho 1642" d="M484.607,730.86a583.2,583.2,0,0,1,113.06-93.149c38.58-24.269,82.036-43.036,115.586-56.674q3.633-1.476,7.292-2.941c12.967-5.209,26.376-10.6,38.37-17.241A122.858,122.858,0,0,0,779.143,546.8v-.734a122.53,122.53,0,0,1-20.615,14.4c-11.956,6.624-25.344,12-38.29,17.2q-3.656,1.468-7.295,2.942c-33.576,13.649-77.069,32.431-115.693,56.728A579.628,579.628,0,0,0,483.814,730.86Z" transform="translate(-131.044 -251.294)" fill="#0b0b1e"/>
          <path id="Caminho_1643" data-name="Caminho 1643" d="M498.227,741.688c30.886-32.564,68.459-62.425,109.685-87.068,35.467-21.2,74.775-37.913,115.3-54.578q1.9-.781,3.8-1.561c14.458-5.93,29.407-12.063,42.727-19.628a138.949,138.949,0,0,0,13.03-8.4v-.674a138.534,138.534,0,0,1-13.423,8.694c-13.281,7.544-28.21,13.667-42.647,19.589l-3.8,1.561c-40.546,16.676-79.881,33.4-115.388,54.624-41.39,24.741-79.105,54.736-110.075,87.444Z" transform="translate(-134.668 -262.122)" fill="#0b0b1e"/>
          <path id="Caminho_1644" data-name="Caminho 1644" d="M512.443,751.718c29.343-30.151,65.508-57.757,105.928-80.717,31.9-18.122,67.279-32.861,101.491-47.115q6.781-2.826,13.564-5.662c14.7-6.159,31.365-13.141,46.21-21.658q3.514-2.017,6.913-4.195v-.637q-3.592,2.316-7.308,4.449c-14.807,8.5-31.45,15.468-46.133,21.62q-6.778,2.84-13.562,5.661c-34.232,14.261-69.628,29.009-101.567,47.152-40.6,23.06-76.906,50.8-106.335,81.1Z" transform="translate(-138.45 -272.152)" fill="#0b0b1e"/>
          <path id="Caminho_1645" data-name="Caminho 1645" d="M527.315,761.224c27.6-27.309,61.63-52.261,100-73.167,27.814-15.156,58.23-27.809,87.643-40.045,8.91-3.707,18.124-7.54,27.141-11.39,16.087-6.869,33.074-14.466,48.4-23.464v-.612l-.057.034c-15.383,9.066-32.481,16.712-48.665,23.622-9.014,3.849-18.226,7.682-27.134,11.387-29.431,12.244-59.865,24.9-87.71,40.077a474.166,474.166,0,0,0-67.77,44.6,393.636,393.636,0,0,0-32.678,28.956Z" transform="translate(-142.398 -281.658)" fill="#0b0b1e"/>
          <path id="Caminho_1646" data-name="Caminho 1646" d="M543.069,770.391c26.417-25,58.326-47.244,95.315-66.41,24.054-12.463,50.008-23.159,75.108-33.5,12.682-5.226,25.8-10.63,38.52-16.2a473.337,473.337,0,0,0,42.69-21.057v-.6a471.228,471.228,0,0,1-43.017,21.244c-12.718,5.569-25.827,10.971-38.506,16.2-25.114,10.349-51.083,21.05-75.164,33.528a445.98,445.98,0,0,0-69.431,44.2q-13.926,10.889-26.3,22.606Z" transform="translate(-146.604 -290.826)" fill="#0b0b1e"/>
          <path id="Caminho_1647" data-name="Caminho 1647" d="M559.954,779.433c24.825-22.153,54.308-41.768,88.148-58.594,21.414-10.648,44.325-19.963,66.481-28.971,16.181-6.579,32.912-13.381,48.945-20.654,12.02-5.453,23.785-11.457,35.651-18.194v-.606C787.2,659.231,775.325,665.3,763.192,670.8c-16.02,7.268-32.744,14.068-48.919,20.643-22.169,9.013-45.093,18.333-66.531,28.993-34.05,16.93-63.7,36.681-88.634,59Z" transform="translate(-151.08 -299.867)" fill="#0b0b1e"/>
          <path id="Caminho_1648" data-name="Caminho 1648" d="M576.277,788.686q7.259-6.151,14.945-11.75c19.485-14.207,41.835-27.211,68.328-39.758,18.8-8.9,38.739-16.879,58.023-24.592,18.707-7.483,38.051-15.221,56.337-23.8,9.869-4.629,19.668-9.759,29.609-15.5v-.609c-10.059,5.829-19.971,11.023-29.953,15.7-18.268,8.569-37.6,16.3-56.3,23.782-19.293,7.717-39.243,15.7-58.063,24.61-26.532,12.565-48.916,25.59-68.434,39.82q-7.923,5.777-15.352,12.1Z" transform="translate(-155.42 -309.121)" fill="#0b0b1e"/>
          <path id="Caminho_1649" data-name="Caminho 1649" d="M594.4,798.129q3.815-2.976,7.739-5.768c18.082-12.863,40.245-25.2,67.757-37.722,16.913-7.7,34.754-14.714,52.006-21.5,21.439-8.434,43.608-17.155,64.2-27.258,7.677-3.766,15.068-7.752,22.23-11.92v-.614c-7.274,4.245-14.782,8.3-22.586,12.131-20.57,10.09-42.724,18.806-64.15,27.234-17.261,6.79-35.111,13.811-52.041,21.515-27.551,12.538-49.751,24.9-67.866,37.785q-4.16,2.958-8.185,6.117Z" transform="translate(-160.233 -318.563)" fill="#0b0b1e"/>
          <path id="Caminho_1650" data-name="Caminho 1650" d="M614.1,807.692c18.14-12.314,40.238-23.96,69.485-36.617,14.468-6.262,29.6-12.117,44.244-17.779,23.172-8.963,47.134-18.231,69.083-29.357q8.51-4.314,16.648-9.046v-.609q-8.321,4.833-17.012,9.256c-21.918,11.11-45.862,20.371-69.017,29.328-14.646,5.665-29.789,11.522-44.271,17.79-29.555,12.791-51.829,24.554-70.1,37.017l-.025.017Z" transform="translate(-165.457 -328.127)" fill="#0b0b1e"/>
          <path id="Caminho_1651" data-name="Caminho 1651" d="M636.52,817.3c18.4-11.057,39.038-20.176,58.833-28.43,12.848-5.358,26.229-10.452,39.171-15.377,25.682-9.775,52.237-19.882,76.076-32.6q4.455-2.376,8.9-4.957v-.612q-4.647,2.7-9.281,5.177c-23.8,12.7-50.333,22.794-75.993,32.561C721.284,778,707.9,783.091,695.038,788.453c-20.044,8.359-40.947,17.6-59.545,28.852Z" transform="translate(-171.406 -337.739)" fill="#0b0b1e"/>
          <path id="Caminho_1652" data-name="Caminho 1652" d="M662.386,827.014c16.277-8.435,33.679-15.377,48.548-21.306,10.462-4.172,21.284-8.229,31.75-12.153,28.1-10.536,57.163-21.431,82.7-35.807q.489-.275.978-.555v-.606q-.684.39-1.369.776c-25.488,14.35-54.521,25.234-82.6,35.76-10.469,3.925-21.295,7.984-31.765,12.159-15.117,6.029-32.849,13.1-49.373,21.732Z" transform="translate(-178.262 -347.449)" fill="#0b0b1e"/>
          <path id="Caminho_1653" data-name="Caminho 1653" d="M692.875,836.737c10.6-4.654,21.506-8.866,32.248-13.013,8.841-3.413,17.948-6.777,26.755-10.029,28.049-10.359,56.993-21.05,82.557-35.217v-.6c-25.613,14.249-54.679,24.986-82.844,35.388-8.81,3.254-17.919,6.618-26.765,10.033-11.073,4.274-22.32,8.616-33.227,13.442Z" transform="translate(-186.337 -357.171)" fill="#0b0b1e"/>
          <path id="Caminho_1654" data-name="Caminho 1654" d="M728.294,846.439q6.249-2.393,12.476-4.706c7.058-2.641,14.3-5.277,21.295-7.825,27.744-10.1,56.287-20.5,81.759-34.2v-.6c-25.525,13.778-54.186,24.218-82.043,34.359-7,2.549-14.24,5.185-21.3,7.827-4.514,1.69-9.058,3.391-13.6,5.137Z" transform="translate(-195.726 -366.873)" fill="#0b0b1e"/>
          <path id="Caminho_1655" data-name="Caminho 1655" d="M767.583,856.1l5.4-1.94c27.545-9.88,55.817-20.023,81.272-33.3v-.587c-25.511,13.351-53.9,23.535-81.552,33.454-2.179.781-4.392,1.575-6.614,2.375Z" transform="translate(-206.16 -376.538)" fill="#0b0b1e"/>
          <path id="Caminho_1656" data-name="Caminho 1656" d="M808.471,865.719c19.425-7.094,38.7-14.711,56.674-23.808v-.584c-18.413,9.348-38.211,17.135-58.144,24.392Z" transform="translate(-217.045 -386.153)" fill="#0b0b1e"/>
          <path id="Caminho_1657" data-name="Caminho 1657" d="M847.559,875.274c9.458-3.828,18.86-7.942,28.017-12.449v-.578c-9.59,4.734-19.455,9.036-29.374,13.027Z" transform="translate(-227.477 -395.708)" fill="#0b0b1e"/>
        </g>
      </g>
    </g>
  </g>
</svg>
