<svg xmlns="http://www.w3.org/2000/svg" width="39.246" height="39.246" viewBox="0 0 39.246 39.246">
  <path id="Caminho_595" data-name="Caminho 595" d="M8.293,0A8.274,8.274,0,0,0,0,8.293v22.66a8.274,8.274,0,0,0,8.293,8.293h22.66a8.274,8.274,0,0,0,8.293-8.293V8.293A8.274,8.274,0,0,0,30.953,0Zm4.74,15.226a.614.614,0,0,1,.062,0H27.48a.613.613,0,1,1,0,1.226H13.1a.614.614,0,0,1-.062-1.226Zm0,3.679a.613.613,0,0,1,.062,0H27.48a.613.613,0,1,1,0,1.226H13.1a.614.614,0,1,1-.062-1.226Zm0,3.679a.614.614,0,0,1,.062,0H27.48a.613.613,0,1,1,0,1.226H13.1a.614.614,0,0,1-.062-1.226Z" fill="#fff"/>
</svg>
