<svg xmlns="http://www.w3.org/2000/svg" width="113.069" height="18.943" viewBox="0 0 113.069 18.943">
  <g id="Grupo_77" data-name="Grupo 77" transform="translate(-1412.923 -6657.615)">
    <g id="youtube_youtuber_video_play" data-name="youtube youtuber video play" transform="translate(1502.931 6658.915)">
      <path id="Caminho_127" data-name="Caminho 127" d="M24.594,10.864A4.616,4.616,0,0,0,20.3,6.256,140.121,140.121,0,0,0,6.267,6.24a4.63,4.63,0,0,0-4.309,4.624,35.318,35.318,0,0,0,0,7.049,4.3,4.3,0,0,0,4.268,4.309h0q3.517.194,7.049.194t7.009-.186a4.317,4.317,0,0,0,4.309-4.252,25.6,25.6,0,0,0,0-7.114Zm-1.617,6.977a.4.4,0,0,0,0,.1,2.716,2.716,0,0,1-2.741,2.7,134.2,134.2,0,0,1-13.969,0,2.716,2.716,0,0,1-2.692-2.781,33.952,33.952,0,0,1,0-6.847.364.364,0,0,0,0-.089A3.056,3.056,0,0,1,6.308,7.857c2.312-.105,4.64-.154,6.969-.154s4.657.049,6.969.154h.04a3.052,3.052,0,0,1,2.692,3.064.614.614,0,0,0,0,.121,24.341,24.341,0,0,1,0,6.782Z" transform="translate(-1.782 -6.072)" fill="#e53537"/>
      <path id="Caminho_128" data-name="Caminho 128" d="M19.137,14.783l-5.772-2.975a.81.81,0,1,0-.744,1.439l4.39,2.255-3.234,1.673V15.5a.808.808,0,0,0-1.617,0V18.51a.811.811,0,0,0,1.18.719l5.772-3.007a.822.822,0,0,0,.024-1.439Z" transform="translate(-3.77 -7.154)" fill="#e53537"/>
    </g>
    <g id="wa_whatsapp_message_communication_chat" data-name="wa whatsapp message communication chat" transform="translate(1412.923 6657.615)">
      <path id="Caminho_129" data-name="Caminho 129" d="M12.457,3A9.468,9.468,0,0,0,4.1,16.932L2.989,21.018a.713.713,0,0,0,.728.918.612.612,0,0,0,.2,0l4.3-1.2a.729.729,0,1,0-.386-1.406l-3.081.83.838-3.132a.728.728,0,0,0-.073-.553,8.011,8.011,0,1,1,6.941,4.006,8.179,8.179,0,0,1-1.34-.109.727.727,0,1,0-.24,1.435A9.468,9.468,0,1,0,12.457,3Z" transform="translate(-2.961 -3)" fill="#e53537"/>
      <path id="Caminho_130" data-name="Caminho 130" d="M13.293,10.545,12.448,9.38a1.5,1.5,0,0,0-2.272-.175l-.874.874a2.046,2.046,0,0,0-.583,1.515c0,1.289.99,2.913,2.913,4.807,2.25,2.185,3.809,2.913,4.872,2.913a1.966,1.966,0,0,0,1.457-.59l.874-.874a1.457,1.457,0,0,0-.175-2.265l-1.143-.823a1.522,1.522,0,0,0-1.333-.218l-1.085.342a.386.386,0,0,1-.189-.066A8.317,8.317,0,0,1,13.2,13.175a.226.226,0,0,1,0-.08c.095-.32.255-.838.364-1.194A1.457,1.457,0,0,0,13.293,10.545Zm.94,5.557a1.7,1.7,0,0,0,1.275.146l1.122-.335,1.173.91-.867.852c-.35.342-1.639.24-4.268-2.338-2.185-2.119-2.483-3.277-2.483-3.772a.648.648,0,0,1,.2-.444l.932-.867.859,1.2c-.117.357-.284.889-.371,1.2a1.544,1.544,0,0,0,.036,1.02A8.186,8.186,0,0,0,14.262,16.1Z" transform="translate(-4.525 -4.566)" fill="#e53537"/>
    </g>
    <g id="ig_instagram_insta_photo" data-name="ig instagram insta photo" transform="translate(1457.974 6657.615)">
      <path id="Caminho_131" data-name="Caminho 131" d="M18.063,12.564a.768.768,0,0,0-.438,1A3.072,3.072,0,1,1,15.851,11.8.768.768,0,1,0,16.4,10.36,4.6,4.6,0,1,0,19.062,13a.768.768,0,0,0-1-.438Z" transform="translate(-5.22 -5.158)" fill="#e53537"/>
      <ellipse id="Elipse_35" data-name="Elipse 35" cx="0.768" cy="0.768" rx="0.768" ry="0.768" transform="translate(14.033 3.32)" fill="#e53537"/>
      <path id="Caminho_132" data-name="Caminho 132" d="M22.372,7.766a3.841,3.841,0,0,0-3.765-3.841h0a59.231,59.231,0,0,0-10.83,0A3.841,3.841,0,0,0,3.937,7.7a70.6,70.6,0,0,0,0,10.814A3.841,3.841,0,0,0,7.7,22.359h0c1.813.169,3.633.261,5.454.261s3.618-.084,5.415-.261a3.841,3.841,0,0,0,3.8-3.779,66.891,66.891,0,0,0,0-10.815ZM20.836,18.519a2.3,2.3,0,0,1-2.3,2.3h-.077a55.1,55.1,0,0,1-10.677,0,2.3,2.3,0,0,1-2.3-2.366,70.97,70.97,0,0,1,0-10.692,2.3,2.3,0,0,1,2.373-2.3q2.642-.238,5.3-.246t5.384.246a2.3,2.3,0,0,1,2.3,2.366A65.387,65.387,0,0,1,20.836,18.519Z" transform="translate(-3.73 -3.677)" fill="#e53537"/>
    </g>
  </g>
</svg>
