<svg xmlns="http://www.w3.org/2000/svg" width="18.918" height="15.172" viewBox="0 0 18.918 15.172">
  <g id="Grupo_72" data-name="Grupo 72" transform="translate(-0.1 -4.5)">
    <path id="Caminho_133" data-name="Caminho 133" d="M16.505,19.672H2.613A2.53,2.53,0,0,1,.1,17.16V7.013A2.53,2.53,0,0,1,2.613,4.5H16.505a2.53,2.53,0,0,1,2.513,2.513v10.1A2.54,2.54,0,0,1,16.505,19.672ZM2.613,5.448A1.589,1.589,0,0,0,1,7.013v10.1a1.579,1.579,0,0,0,1.565,1.565H16.458a1.579,1.579,0,0,0,1.565-1.565V7.013a1.579,1.579,0,0,0-1.565-1.565Z" transform="translate(0 0)" fill="#fefefe"/>
    <path id="Caminho_134" data-name="Caminho 134" d="M12.5,15.931a2.928,2.928,0,0,1-2.134-1L5.866,9.53a.471.471,0,1,1,.711-.616l4.552,5.453a1.756,1.756,0,0,0,2.75,0l4.5-5.405a.471.471,0,0,1,.711.616l-4.5,5.405a2.57,2.57,0,0,1-2.086.948Z" transform="translate(-2.969 -2.232)" fill="#fefefe"/>
    <path id="Caminho_135" data-name="Caminho 135" d="M31.317,26.407a.431.431,0,0,1-.379-.19L27.666,22.33a.471.471,0,1,1,.711-.616L31.649,25.6a.458.458,0,0,1-.047.664A.338.338,0,0,1,31.317,26.407Z" transform="translate(-14.432 -8.963)" fill="#fefefe"/>
    <path id="Caminho_136" data-name="Caminho 136" d="M4,26.413a.508.508,0,0,1-.284-.095.461.461,0,0,1-.047-.664L6.89,21.814a.471.471,0,1,1,.711.616L4.377,26.27A.538.538,0,0,1,4,26.413Z" transform="translate(-1.812 -9.016)" fill="#fefefe"/>
  </g>
</svg>
