<svg id="wa_whatsapp_message_communication_chat" data-name="wa whatsapp message communication chat" xmlns="http://www.w3.org/2000/svg" width="18.954" height="18.943" viewBox="0 0 18.954 18.943">
  <path id="Caminho_129" data-name="Caminho 129" d="M12.457,3A9.468,9.468,0,0,0,4.1,16.932L2.989,21.018a.713.713,0,0,0,.728.918.612.612,0,0,0,.2,0l4.3-1.2a.729.729,0,1,0-.386-1.406l-3.081.83.838-3.132a.728.728,0,0,0-.073-.553,8.011,8.011,0,1,1,6.941,4.006,8.179,8.179,0,0,1-1.34-.109.727.727,0,1,0-.24,1.435A9.468,9.468,0,1,0,12.457,3Z" transform="translate(-2.961 -3)" fill="#e53537"/>
  <path id="Caminho_130" data-name="Caminho 130" d="M13.293,10.545,12.448,9.38a1.5,1.5,0,0,0-2.272-.175l-.874.874a2.046,2.046,0,0,0-.583,1.515c0,1.289.99,2.913,2.913,4.807,2.25,2.185,3.809,2.913,4.872,2.913a1.966,1.966,0,0,0,1.457-.59l.874-.874a1.457,1.457,0,0,0-.175-2.265l-1.143-.823a1.522,1.522,0,0,0-1.333-.218l-1.085.342a.386.386,0,0,1-.189-.066A8.317,8.317,0,0,1,13.2,13.175a.226.226,0,0,1,0-.08c.095-.32.255-.838.364-1.194A1.457,1.457,0,0,0,13.293,10.545Zm.94,5.557a1.7,1.7,0,0,0,1.275.146l1.122-.335,1.173.91-.867.852c-.35.342-1.639.24-4.268-2.338-2.185-2.119-2.483-3.277-2.483-3.772a.648.648,0,0,1,.2-.444l.932-.867.859,1.2c-.117.357-.284.889-.371,1.2a1.544,1.544,0,0,0,.036,1.02A8.186,8.186,0,0,0,14.262,16.1Z" transform="translate(-4.525 -4.566)" fill="#e53537"/>
</svg>
