<svg id="youtube_youtuber_video_play" data-name="youtube youtuber video play" xmlns="http://www.w3.org/2000/svg" width="23.06" height="16.344" viewBox="0 0 23.06 16.344">
  <path id="Caminho_127" data-name="Caminho 127" d="M24.594,10.864A4.616,4.616,0,0,0,20.3,6.256,140.121,140.121,0,0,0,6.267,6.24a4.63,4.63,0,0,0-4.309,4.624,35.318,35.318,0,0,0,0,7.049,4.3,4.3,0,0,0,4.268,4.309h0q3.517.194,7.049.194t7.009-.186a4.317,4.317,0,0,0,4.309-4.252,25.6,25.6,0,0,0,0-7.114Zm-1.617,6.977a.4.4,0,0,0,0,.1,2.716,2.716,0,0,1-2.741,2.7,134.2,134.2,0,0,1-13.969,0,2.716,2.716,0,0,1-2.692-2.781,33.952,33.952,0,0,1,0-6.847.364.364,0,0,0,0-.089A3.056,3.056,0,0,1,6.308,7.857c2.312-.105,4.64-.154,6.969-.154s4.657.049,6.969.154h.04a3.052,3.052,0,0,1,2.692,3.064.614.614,0,0,0,0,.121,24.341,24.341,0,0,1,0,6.782Z" transform="translate(-1.782 -6.072)" fill="#e53537"/>
  <path id="Caminho_128" data-name="Caminho 128" d="M19.137,14.783l-5.772-2.975a.81.81,0,1,0-.744,1.439l4.39,2.255-3.234,1.673V15.5a.808.808,0,0,0-1.617,0V18.51a.811.811,0,0,0,1.18.719l5.772-3.007a.822.822,0,0,0,.024-1.439Z" transform="translate(-3.77 -7.154)" fill="#e53537"/>
</svg>
