<svg xmlns="http://www.w3.org/2000/svg" width="46" height="46.113" viewBox="0 0 46 46.113">
  <g id="Grupo_2951" data-name="Grupo 2951" transform="translate(-932.623 -2299.11)">
    <path id="Caminho_762" data-name="Caminho 762" d="M38.2,16.3c-.9-.538-2.059-1.133-3.113-.7-.808.329-1.325,1.6-1.85,2.242a.775.775,0,0,1-1,.217,14.1,14.1,0,0,1-7.038-6.03.865.865,0,0,1,.108-1.179A4.74,4.74,0,0,0,26.586,8.77a4.565,4.565,0,0,0-.571-2.459c-.425-.913-.9-2.217-1.817-2.734a2.485,2.485,0,0,0-2.7.4A5.47,5.47,0,0,0,19.6,8.32,6.127,6.127,0,0,0,19.773,9.7a11.293,11.293,0,0,0,1.321,3.046,23.972,23.972,0,0,0,1.379,2.1A21.364,21.364,0,0,0,28.457,20.4a18.036,18.036,0,0,0,3.734,1.775,8.282,8.282,0,0,0,4.342.688,5.274,5.274,0,0,0,3.942-2.929,2.577,2.577,0,0,0,.183-1.5c-.225-1.029-1.621-1.646-2.454-2.142" transform="translate(925.471 2309.023)" fill="#fff"/>
    <path id="Caminho_764" data-name="Caminho 764" d="M40.03.5A22.741,22.741,0,0,0,20.111,34.28L16.8,46.613l12.4-3.321A22.767,22.767,0,1,0,40.03.5m0,41.247a18.456,18.456,0,0,1-9.431-2.61l-.777-.467L22.9,40.525l1.846-6.887-.48-.786A18.453,18.453,0,1,1,40.03,41.747" transform="translate(915.82 2298.61)" fill="#fff"/>
  </g>
</svg>
