<svg xmlns="http://www.w3.org/2000/svg" xmlns:xlink="http://www.w3.org/1999/xlink" width="45.37" height="50.028" viewBox="0 0 45.37 50.028">
  <defs>
    <clipPath id="clip-path">
      <rect id="Retângulo_806" data-name="Retângulo 806" width="45.37" height="50.028" fill="#1c1c3a"/>
    </clipPath>
  </defs>
  <g id="Grupo_4265" data-name="Grupo 4265" transform="translate(0 0)">
    <g id="Grupo_4264" data-name="Grupo 4264" transform="translate(0 -0.001)" clip-path="url(#clip-path)">
      <path id="Caminho_4142" data-name="Caminho 4142" d="M22.718,45.351A22.781,22.781,0,0,1,2.16,32.309a22.677,22.677,0,1,1,34.977,7.845.617.617,0,0,1-.784-.952,21.442,21.442,0,1,0-10.23,4.643.615.615,0,1,1,.2,1.214,22.426,22.426,0,0,1-3.6.291" transform="translate(0 0.001)" fill="#1c1c3a"/>
      <path id="Caminho_4143" data-name="Caminho 4143" d="M9.706,28.945a.616.616,0,0,1-.367-1.11l5.959-4.4L9.3,19.1a.616.616,0,1,1,.721-1L16.7,22.932a.617.617,0,0,1,0,.995l-6.635,4.9a.621.621,0,0,1-.365.119" transform="translate(10.602 21.081)" fill="#1c1c3a"/>
    </g>
  </g>
</svg>
