<svg xmlns="http://www.w3.org/2000/svg" xmlns:xlink="http://www.w3.org/1999/xlink" width="56.8" height="52.11" viewBox="0 0 56.8 52.11">
  <defs>
    <clipPath id="clip-path">
      <rect id="Retângulo_536" data-name="Retângulo 536" width="56.8" height="52.11" fill="#fff"/>
    </clipPath>
  </defs>
  <g id="Grupo_1067" data-name="Grupo 1067" transform="translate(0 0)">
    <g id="Grupo_1066" data-name="Grupo 1066" transform="translate(0 0)" clip-path="url(#clip-path)">
      <path id="Caminho_1292" data-name="Caminho 1292" d="M28.4,26.5a.816.816,0,0,1-.347-.076L.426,13.449a.7.7,0,0,1,.022-1.3L28.074.069a.815.815,0,0,1,.655,0l27.626,12.08a.7.7,0,0,1,.019,1.3L28.748,26.423a.816.816,0,0,1-.347.076M2.545,12.827,28.4,24.97,54.257,12.827,28.4,1.522Z" transform="translate(0 0.001)" fill="#fff"/>
      <path id="Caminho_1293" data-name="Caminho 1293" d="M28.4,24.007a.816.816,0,0,1-.347-.076L.426,10.956a.7.7,0,0,1,.022-1.3l5.921-2.59a.8.8,0,0,1,1.03.349.7.7,0,0,1-.374.958l-4.479,1.96L28.4,22.475,54.257,10.334l-4.564-2a.7.7,0,0,1-.374-.961.8.8,0,0,1,1.03-.347l6.006,2.625a.7.7,0,0,1,.019,1.3L28.748,23.93a.816.816,0,0,1-.347.076" transform="translate(0 10.783)" fill="#fff"/>
      <path id="Caminho_1294" data-name="Caminho 1294" d="M28.4,27.227a.816.816,0,0,1-.347-.076L.426,14.176a.7.7,0,0,1,.022-1.3l5.921-2.59a.8.8,0,0,1,1.03.347.7.7,0,0,1-.374.961L2.545,13.551,28.4,25.7,54.257,13.551l-4.564-2a.7.7,0,0,1-.374-.958.8.8,0,0,1,1.03-.349l6.006,2.628a.7.7,0,0,1,.019,1.3L28.748,27.15a.816.816,0,0,1-.347.076" transform="translate(0 15.768)" fill="#fff"/>
      <path id="Caminho_1295" data-name="Caminho 1295" d="M28.4,30.8a.816.816,0,0,1-.347-.076L.426,17.751a.7.7,0,0,1,.022-1.3l5.921-2.59a.8.8,0,0,1,1.03.347.7.7,0,0,1-.374.961l-4.479,1.96L28.4,29.27,54.257,17.129l-4.564-2a.7.7,0,0,1-.374-.961.8.8,0,0,1,1.03-.347l6.006,2.625a.7.7,0,0,1,.019,1.3L28.748,30.725a.816.816,0,0,1-.347.076" transform="translate(0 21.309)" fill="#fff"/>
    </g>
  </g>
</svg>
