<svg xmlns="http://www.w3.org/2000/svg" xmlns:xlink="http://www.w3.org/1999/xlink" width="56.797" height="56.106" viewBox="0 0 56.797 56.106">
  <defs>
    <clipPath id="clip-path">
      <rect id="Retângulo_533" data-name="Retângulo 533" width="56.797" height="56.106" fill="#fff"/>
    </clipPath>
  </defs>
  <g id="Grupo_1065" data-name="Grupo 1065" transform="translate(0 0)">
    <g id="Grupo_1064" data-name="Grupo 1064" transform="translate(0 0)" clip-path="url(#clip-path)">
      <path id="Caminho_1286" data-name="Caminho 1286" d="M56.024,0H.773A.774.774,0,0,0,0,.773v54.56a.774.774,0,0,0,.773.773H56.024a.774.774,0,0,0,.773-.773V.773A.774.774,0,0,0,56.024,0m-.776,54.558H1.546V12.828h53.7Zm0-43.276H1.546V1.548h53.7Z" transform="translate(0 -0.001)" fill="#fff"/>
      <path id="Caminho_1287" data-name="Caminho 1287" d="M3.876,6.535A2.545,2.545,0,1,0,1.331,3.989,2.548,2.548,0,0,0,3.876,6.535m0-3.542a1,1,0,1,1-1,1,1,1,0,0,1,1-1" transform="translate(2.304 2.499)" fill="#fff"/>
      <path id="Caminho_1288" data-name="Caminho 1288" d="M6.232,6.535A2.545,2.545,0,1,0,3.687,3.989,2.548,2.548,0,0,0,6.232,6.535m0-3.542a1,1,0,1,1-1,1,1,1,0,0,1,1-1" transform="translate(6.382 2.499)" fill="#fff"/>
      <path id="Caminho_1289" data-name="Caminho 1289" d="M8.588,6.535A2.545,2.545,0,1,0,6.043,3.989,2.548,2.548,0,0,0,8.588,6.535m0-3.542a1,1,0,1,1-1,1,1,1,0,0,1,1-1" transform="translate(10.461 2.499)" fill="#fff"/>
      <path id="Caminho_1290" data-name="Caminho 1290" d="M13.057,30.07l-1.122.224a.774.774,0,0,0,.153,1.532.7.7,0,0,0,.15-.014l3.919-.784a.768.768,0,0,0,.549-.431.776.776,0,0,0-.025-.7L14.748,26.4a.774.774,0,1,0-1.355.748l.989,1.789A9.905,9.905,0,0,1,16,9.874a.774.774,0,1,0-.273-1.524,11.45,11.45,0,0,0-2.674,21.72" transform="translate(10.91 14.431)" fill="#fff"/>
      <path id="Caminho_1291" data-name="Caminho 1291" d="M11.541,29.952a.773.773,0,0,0,.137,1.535.789.789,0,0,0,.137-.011,11.452,11.452,0,0,0,2.726-21.7l1.207-.24a.774.774,0,0,0-.3-1.518L11.525,8.8a.778.778,0,0,0-.549.434.682.682,0,0,0-.057.3l0,.008a.5.5,0,0,0,0,.09.761.761,0,0,0,.259.62l1.756,3.173a.774.774,0,0,0,1.355-.751L13.33,10.95a9.906,9.906,0,0,1-1.789,19" transform="translate(18.874 13.855)" fill="#fff"/>
    </g>
  </g>
</svg>
