<svg id="Grupo_4260" data-name="Grupo 4260" xmlns="http://www.w3.org/2000/svg" xmlns:xlink="http://www.w3.org/1999/xlink" width="41.491" height="50.626" viewBox="0 0 41.491 50.626">
  <defs>
    <clipPath id="clip-path">
      <rect id="Retângulo_802" data-name="Retângulo 802" width="41.491" height="50.626" fill="#1c1c3a"/>
    </clipPath>
  </defs>
  <g id="Grupo_4259" data-name="Grupo 4259" clip-path="url(#clip-path)">
    <path id="Caminho_4136" data-name="Caminho 4136" d="M13.725,24.845A12.422,12.422,0,1,1,26.146,12.421,12.437,12.437,0,0,1,13.725,24.845m0-23.441a11.018,11.018,0,1,0,11.02,11.017A11.032,11.032,0,0,0,13.725,1.4" transform="translate(1.925)" fill="#1c1c3a"/>
    <path id="Caminho_4137" data-name="Caminho 4137" d="M31.2,36.651H.7a.7.7,0,0,1-.7-.7V25.414a15.949,15.949,0,0,1,31.9,0V35.948a.7.7,0,0,1-.7.7M1.4,35.247H30.5V25.414a14.546,14.546,0,1,0-29.092,0Z" transform="translate(0 13.975)" fill="#1c1c3a"/>
    <path id="Caminho_4138" data-name="Caminho 4138" d="M15.688,24.48a11.145,11.145,0,0,1-7.937-3.289.7.7,0,0,1,.993-.991A9.821,9.821,0,1,0,15.688,3.436a9.864,9.864,0,0,0-1.439.1.7.7,0,0,1-.206-1.389,11.656,11.656,0,0,1,1.644-.119,11.224,11.224,0,0,1,0,22.448" transform="translate(11.143 3)" fill="#1c1c3a"/>
    <path id="Caminho_4139" data-name="Caminho 4139" d="M26.255,35.079h-9.6a.7.7,0,0,1,0-1.4h8.892V24.918A12.88,12.88,0,0,0,12.811,11.933a12.619,12.619,0,0,0-2.144.183.7.7,0,1,1-.238-1.384,14.146,14.146,0,0,1,2.382-.2A14.281,14.281,0,0,1,26.954,24.918v9.46a.7.7,0,0,1-.7.7" transform="translate(14.535 15.547)" fill="#1c1c3a"/>
  </g>
</svg>
