<svg id="Grupo_1071" data-name="Grupo 1071" xmlns="http://www.w3.org/2000/svg" xmlns:xlink="http://www.w3.org/1999/xlink" width="42.728" height="56.8" viewBox="0 0 42.728 56.8">
  <defs>
    <clipPath id="clip-path">
      <rect id="Retângulo_538" data-name="Retângulo 538" width="42.728" height="56.8" fill="#fff"/>
    </clipPath>
  </defs>
  <g id="Grupo_1070" data-name="Grupo 1070" clip-path="url(#clip-path)">
    <path id="Caminho_1298" data-name="Caminho 1298" d="M15.239,27.875A13.937,13.937,0,1,1,29.175,13.936,13.954,13.954,0,0,1,15.239,27.875m0-26.3A12.362,12.362,0,1,0,27.6,13.936,12.375,12.375,0,0,0,15.239,1.575" transform="translate(2.317)" fill="#fff"/>
    <path id="Caminho_1299" data-name="Caminho 1299" d="M24.816,39.966H.786A.787.787,0,0,1,0,39.18V27.358a17.9,17.9,0,0,1,33.882-8.046.787.787,0,1,1-1.406.708,16.323,16.323,0,0,0-30.9,7.338V38.391H24.816a.788.788,0,0,1,0,1.575" transform="translate(0 16.834)" fill="#fff"/>
    <path id="Caminho_1300" data-name="Caminho 1300" d="M24.486,18.954H10.605a.788.788,0,1,1,0-1.575h13.88a.788.788,0,0,1,0,1.575" transform="translate(17.456 30.905)" fill="#fff"/>
    <path id="Caminho_1301" data-name="Caminho 1301" d="M13.1,30.337a.786.786,0,0,1-.786-.786V15.667a.786.786,0,1,1,1.573,0V29.551a.786.786,0,0,1-.786.786" transform="translate(21.9 26.463)" fill="#fff"/>
  </g>
</svg>
