<svg xmlns="http://www.w3.org/2000/svg" xmlns:xlink="http://www.w3.org/1999/xlink" width="41.604" height="50.626" viewBox="0 0 41.604 50.626">
  <defs>
    <clipPath id="clip-path">
      <rect id="Retângulo_801" data-name="Retângulo 801" width="41.604" height="50.626" fill="#1c1c3a"/>
    </clipPath>
  </defs>
  <g id="Grupo_4258" data-name="Grupo 4258" transform="translate(0 0)">
    <g id="Grupo_4257" data-name="Grupo 4257" transform="translate(0 0.001)" clip-path="url(#clip-path)">
      <path id="Caminho_4131" data-name="Caminho 4131" d="M9.929,9.775,8.615,7.4a.853.853,0,0,1,.58-1.251l2.66-.532a.728.728,0,0,1,.285,1.428l-1.852.37L11.2,9.069a.728.728,0,1,1-1.274.706" transform="translate(13.339 8.79)" fill="#1c1c3a"/>
      <path id="Caminho_4132" data-name="Caminho 4132" d="M6.114,16.3h0a.726.726,0,0,1,.57-.855l.876-.177a.728.728,0,0,0,.5-1.066l-.434-.781a.728.728,0,0,1,1.274-.7l1.181,2.131A1.055,1.055,0,0,1,9.36,16.39l-2.391.478a.727.727,0,0,1-.855-.57" transform="translate(9.564 19.346)" fill="#1c1c3a"/>
      <path id="Caminho_4133" data-name="Caminho 4133" d="M12.608,26.234A10.409,10.409,0,0,1,4.332,13.558a9.3,9.3,0,0,1,1.032-2.627A10.457,10.457,0,0,1,11.83,5.957a.733.733,0,0,1,.912.575.716.716,0,0,1-.514.824A8.932,8.932,0,0,0,12.865,24.8Z" transform="translate(6.359 9.301)" fill="#1c1c3a"/>
      <path id="Caminho_4134" data-name="Caminho 4134" d="M8.838,25.577h0a.72.72,0,0,1,.514-.827A8.931,8.931,0,0,0,8.715,7.308l.257-1.433a10.409,10.409,0,0,1,8.277,12.676,9.3,9.3,0,0,1-1.032,2.627A10.466,10.466,0,0,1,9.75,26.152a.733.733,0,0,1-.912-.575" transform="translate(13.665 9.211)" fill="#1c1c3a"/>
      <path id="Caminho_4135" data-name="Caminho 4135" d="M19.509,50.237,1.107,38.013A2.478,2.478,0,0,1,0,35.949V6.193A2.758,2.758,0,0,1,1.751,3.628l.185-.072a51.825,51.825,0,0,1,37.734,0l.794.308a.728.728,0,1,1-.532,1.356l-.526-.205a51.1,51.1,0,0,0-37.208,0,1.168,1.168,0,0,0-.742,1.089V35.872a1.164,1.164,0,0,0,.521.973L20.156,48.92a1.169,1.169,0,0,0,1.292,0L39.627,36.845a1.164,1.164,0,0,0,.521-.973V20.019a.728.728,0,0,1,.727-.727h0a.728.728,0,0,1,.727.727v15.86a2.619,2.619,0,0,1-1.166,2.175L22.1,50.237a2.334,2.334,0,0,1-2.586,0" transform="translate(0 0)" fill="#1c1c3a"/>
    </g>
  </g>
</svg>
