<svg id="Grupo_4267" data-name="Grupo 4267" xmlns="http://www.w3.org/2000/svg" xmlns:xlink="http://www.w3.org/1999/xlink" width="51.247" height="48.807" viewBox="0 0 51.247 48.807">
  <defs>
    <clipPath id="clip-path">
      <rect id="Retângulo_807" data-name="Retângulo 807" width="51.246" height="48.807" fill="#1c1c3a"/>
    </clipPath>
  </defs>
  <g id="Grupo_4266" data-name="Grupo 4266" transform="translate(0 0)" clip-path="url(#clip-path)">
    <path id="Caminho_4144" data-name="Caminho 4144" d="M10.219,48.807a.7.7,0,0,1-.663-.914l5.727-17.626L.288,19.373A.7.7,0,0,1,.7,18.109H19.232L24.959.483a.7.7,0,0,1,1.331,0l5.727,17.626H50.549a.7.7,0,0,1,.412,1.264L35.966,30.267l5.727,17.626a.7.7,0,0,1-1.074.781L25.624,37.78,10.63,48.674a.7.7,0,0,1-.412.133m-7.37-29.3,13.666,9.928a.7.7,0,0,1,.254.781L11.549,46.281l13.664-9.928a.7.7,0,0,1,.823,0L39.7,46.281,34.48,30.215a.7.7,0,0,1,.254-.781L48.4,19.506H31.509a.7.7,0,0,1-.665-.483L25.624,2.959,20.405,19.023a.7.7,0,0,1-.665.483Z" transform="translate(0 0)" fill="#1c1c3a"/>
  </g>
</svg>
