<svg xmlns="http://www.w3.org/2000/svg" xmlns:xlink="http://www.w3.org/1999/xlink" width="52.657" height="52.544" viewBox="0 0 52.657 52.544">
  <defs>
    <clipPath id="clip-path">
      <rect id="Retângulo_611" data-name="Retângulo 611" width="52.657" height="52.544" fill="#1c1c3a"/>
    </clipPath>
  </defs>
  <g id="Grupo_2963" data-name="Grupo 2963" transform="translate(0 0)">
    <g id="Grupo_2962" data-name="Grupo 2962" transform="translate(0 0)" clip-path="url(#clip-path)">
      <path id="Caminho_3549" data-name="Caminho 3549" d="M51.537,25.147H40.2v-10.4c0-.615.1-1.584-1.115-1.584h-12.4V11.6h-.005V1.293A1.3,1.3,0,0,0,25.388,0H1.135A1.135,1.135,0,0,0,0,1.135V25.466a1.217,1.217,0,0,0,1.218,1.218H12.808V38.915a1.173,1.173,0,0,0,1.175,1.175H25.26V51.424a1.119,1.119,0,0,0,1.12,1.12H51.537a1.121,1.121,0,0,0,1.12-1.12V26.267a1.119,1.119,0,0,0-1.12-1.12M1.421,1.424H25.26L25.2,25.263l-12.389,0H1.421ZM25.971,38.669H14.23V26.737H25.318a1.367,1.367,0,0,0,1.366-1.366v-10.6h.005v-.181H38.782v24.08ZM51.233,51.12H26.684V40.09h12.4A1.117,1.117,0,0,0,40.2,38.972V26.689H51.233Z" transform="translate(0 0)" fill="#1c1c3a"/>
    </g>
  </g>
</svg>
