<svg xmlns="http://www.w3.org/2000/svg" xmlns:xlink="http://www.w3.org/1999/xlink" width="61.76" height="53.544" viewBox="0 0 61.76 53.544">
  <defs>
    <clipPath id="clip-path">
      <rect id="Retângulo_612" data-name="Retângulo 612" width="61.76" height="53.544" fill="#1c1c3a"/>
    </clipPath>
  </defs>
  <g id="Grupo_2965" data-name="Grupo 2965" transform="translate(0 0)">
    <g id="Grupo_2964" data-name="Grupo 2964" transform="translate(0 0)" clip-path="url(#clip-path)">
      <path id="Caminho_3550" data-name="Caminho 3550" d="M52,53.128H.956A.957.957,0,0,1,0,52.172V1.131a.957.957,0,0,1,1.915,0V51.213H52a.957.957,0,0,1,0,1.915" transform="translate(0 0.416)" fill="#1c1c3a"/>
      <path id="Caminho_3551" data-name="Caminho 3551" d="M2.85,37.146h0a.959.959,0,0,1,.007-1.354l25.8-25.485a.962.962,0,0,1,1.4.054l7.615,8.787L53.493,3.026A.958.958,0,0,1,54.86,4.366L38.3,21.227a.956.956,0,0,1-1.4-.044l-7.625-8.8L4.2,37.156a.962.962,0,0,1-1.354-.01" transform="translate(6.116 6.508)" fill="#1c1c3a"/>
      <path id="Caminho_3552" data-name="Caminho 3552" d="M32.871,24.6,17.537,17.522,9.165,24.5A.958.958,0,0,1,7.94,23.026l8.422-7.017a1.808,1.808,0,0,1,1.915-.253L33.587,22.82,41.918,8.455a.958.958,0,0,1,1.658.959L35.191,23.867a1.8,1.8,0,0,1-2.32.733" transform="translate(18.056 18.959)" fill="#1c1c3a"/>
      <path id="Caminho_3553" data-name="Caminho 3553" d="M3,26.107H3a.956.956,0,0,1-.371-1.3L11.376,9.063a2.215,2.215,0,0,1,1.935-1.141h15.76L36.419.294A.956.956,0,1,1,37.8,1.621L30.824,8.864a3.183,3.183,0,0,1-2.29.973h-15.4L4.3,25.735a.955.955,0,0,1-1.3.371" transform="translate(5.964 0.001)" fill="#1c1c3a"/>
    </g>
  </g>
</svg>
