<svg xmlns="http://www.w3.org/2000/svg" width="232" height="202" viewBox="0 0 232 202">
  <g id="Caminho_881" data-name="Caminho 881" fill="#fff">
    <path d="M 225 201.5 L 7 201.5 C 3.415882349014282 201.5 0.5 198.5841217041016 0.5 195 L 0.5 7 C 0.5 3.415882349014282 3.415882349014282 0.5 7 0.5 L 225 0.5 C 228.5841217041016 0.5 231.5 3.415882349014282 231.5 7 L 231.5 195 C 231.5 198.5841217041016 228.5841217041016 201.5 225 201.5 Z" stroke="none"/>
    <path d="M 7 1 C 3.69158935546875 1 1 3.69158935546875 1 7 L 1 195 C 1 198.3084106445312 3.69158935546875 201 7 201 L 225 201 C 228.3084106445312 201 231 198.3084106445312 231 195 L 231 7 C 231 3.69158935546875 228.3084106445312 1 225 1 L 7 1 M 7 0 L 225 0 C 228.8659973144531 0 232 3.134002685546875 232 7 L 232 195 C 232 198.8659973144531 228.8659973144531 202 225 202 L 7 202 C 3.134002685546875 202 0 198.8659973144531 0 195 L 0 7 C 0 3.134002685546875 3.134002685546875 0 7 0 Z" stroke="none" fill="#eee"/>
  </g>
</svg>
