<svg xmlns="http://www.w3.org/2000/svg" fill="none" viewBox="0 0 24 24" id="linkedin"><path fill="#e53537" fill-rule="evenodd" d="M4 2.75C3.30964 2.75 2.75 3.30964 2.75 4 2.75 4.69036 3.30964 5.25 4 5.25 4.69036 5.25 5.25 4.69036 5.25 4 5.25 3.30964 4.69036 2.75 4 2.75zM1.25 4C1.25 2.48122 2.48122 1.25 4 1.25 5.51878 1.25 6.75 2.48122 6.75 4 6.75 5.51878 5.51878 6.75 4 6.75 2.48122 6.75 1.25 5.51878 1.25 4zM1.25 9C1.25 8.58579 1.58579 8.25 2 8.25H6C6.41421 8.25 6.75 8.58579 6.75 9V22C6.75 22.4142 6.41421 22.75 6 22.75H2C1.58579 22.75 1.25 22.4142 1.25 22V15C1.25 14.5858 1.58579 14.25 2 14.25 2.41421 14.25 2.75 14.5858 2.75 15V21.25H5.25V9.75H2.75V11C2.75 11.4142 2.41421 11.75 2 11.75 1.58579 11.75 1.25 11.4142 1.25 11V9zM8.25 9C8.25 8.58579 8.58579 8.25 9 8.25H13C13.4124 8.25 13.7474 8.58293 13.75 8.9953L13.7556 9.89802 14.5447 9.2387C15.3091 8.59994 16.2736 8.25 17.2698 8.25H17.5C20.3995 8.25 22.75 10.6005 22.75 13.5V22C22.75 22.4142 22.4142 22.75 22 22.75H18C17.5858 22.75 17.25 22.4142 17.25 22V16C17.25 15.0335 16.4665 14.25 15.5 14.25 14.5335 14.25 13.75 15.0335 13.75 16V22C13.75 22.4142 13.4142 22.75 13 22.75H9C8.58579 22.75 8.25 22.4142 8.25 22V9zM9.75 9.75V21.25H12.25V16C12.25 14.2051 13.7051 12.75 15.5 12.75 17.2949 12.75 18.75 14.2051 18.75 16V21.25H21.25V13.5C21.25 11.4289 19.5711 9.75 17.5 9.75H17.2698C16.6252 9.75 16.0011 9.97643 15.5065 10.3897L13.4965 12.0693C13.2737 12.2554 12.9635 12.2963 12.7001 12.1741 12.4367 12.052 12.2675 11.7888 12.2656 11.4984L12.2547 9.75H9.75z" clip-rule="evenodd" class="color000000 svgShape"></path></svg>