<svg xmlns="http://www.w3.org/2000/svg" width="27.91" height="27.91" viewBox="0 0 27.91 27.91">
  <g id="_63fc6b935133ab10bbe9261811321bad" data-name="63fc6b935133ab10bbe9261811321bad" transform="translate(-16.4 -16.4)">
    <path id="Caminho_598" data-name="Caminho 598" d="M30.355,16.4A13.955,13.955,0,1,0,44.31,30.355,13.972,13.972,0,0,0,30.355,16.4Zm0,25.946A11.991,11.991,0,1,1,42.346,30.355,12.007,12.007,0,0,1,30.355,42.346Z" fill="#e53537"/>
    <path id="Caminho_599" data-name="Caminho 599" d="M43.593,32.7A.984.984,0,0,0,42.2,34.093l5.647,5.647-5.607,5.647a1.014,1.014,0,0,0,0,1.391.988.988,0,0,0,1.391,0l6.3-6.343a.958.958,0,0,0,.286-.7,1.161,1.161,0,0,0-.286-.7Z" transform="translate(-15.079 -9.467)" fill="#e53537"/>
  </g>
</svg>
