<svg id="Arte_5" data-name="Arte 5" xmlns="http://www.w3.org/2000/svg" width="123.564" height="39.246" viewBox="0 0 123.564 39.246">
  <g id="Arte_5-2" data-name="Arte 5" transform="translate(61.782 25.569)">
    <g id="Grupo_1290" data-name="Grupo 1290" transform="translate(-61.782 -25.569)">
      <rect id="Ret창ngulo_580" data-name="Ret창ngulo 580" width="6.098" height="27.974" transform="translate(61.221 11.19)" fill="#fff"/>
      <path id="Caminho_1784" data-name="Caminho 1784" d="M92.46,36.057c-2.069,2.042-5.073,3.15-8.819,3.15A12.046,12.046,0,0,1,74.918,36a11.82,11.82,0,0,1-3.236-8.648V11.516a.21.21,0,0,1,.21-.21h5.476a.21.21,0,0,1,.21.21V27.3A6.673,6.673,0,0,0,79.205,32a6.692,6.692,0,0,0,8.9.027A6.689,6.689,0,0,0,89.7,27.3V11.516a.21.21,0,0,1,.21-.21H95.44a.21.21,0,0,1,.21.21V27.348c0,3.711-1.127,6.672-3.19,8.709" fill="#fff" fill-rule="evenodd"/>
      <path id="Caminho_1785" data-name="Caminho 1785" d="M39.423,39.164h-6.1l-.181-28.68c.54.026,1.047.075,1.53.078,9.335.046,8.832,0,12.415.012,3.728.018,6.276,1.054,7.637,3.162s2.042,5.585,2.042,10.434V39.164H50.724v-14.1c0-3.021-.078-5.018-.706-6.3a4.292,4.292,0,0,0-4.273-2.539c-2.721.078-.38.03-4.925.116l-1.5.029Z" fill="#fff"/>
      <path id="Caminho_1786" data-name="Caminho 1786" d="M106.22,39.164h-6.1l-.182-28.68c.541.026,1.047.075,1.53.078,9.335.046,8.832,0,12.415.012,3.728.018,6.276,1.054,7.637,3.162s2.042,5.585,2.042,10.434V39.164h-6.043v-14.1c0-3.021-.078-5.018-.706-6.3a4.292,4.292,0,0,0-4.273-2.539c-2.721.078-.38.03-4.925.116l-1.5.029Z" fill="#fff"/>
      <rect id="Ret창ngulo_581" data-name="Ret창ngulo 581" width="6.098" height="6.434" transform="translate(61.221)" fill="#fff"/>
      <path id="Caminho_1788" data-name="Caminho 1788" d="M13.152,14.469c6.687-.68,11.856,2.8,11.856,9.793,0,4.938-2.545,7.214-4.273,8.289-.341.212-.623.362-.819.458a1.132,1.132,0,0,0-.2.118c-.276.212-.3.314-.137.607q.639.816,1.318,1.583.735.831,1.505,1.594a.3.3,0,0,0,.354.049,12.331,12.331,0,0,0,5.045-5.091,15.113,15.113,0,0,0-1.341-17.045A13.818,13.818,0,0,0,14.9,9.445a10.57,10.57,0,0,0-1.922.265c-.407.169-.378.384-.421.675a5.912,5.912,0,0,0,0,.789c0,.058,0,.135-.006.211s-.008.168-.006.253l.006.423h0l0,.038c.014.72.026,1.345.058,2.064.014.341.2.348.541.306" fill="#fff"/>
      <path id="Caminho_1789" data-name="Caminho 1789" d="M14.955,34.431A9.973,9.973,0,0,1,7.942,31.4a10.3,10.3,0,0,1-3.127-7.1A10.036,10.036,0,0,1,6.6,18.332a8.024,8.024,0,0,1,4.328-3.44.3.3,0,0,0,.2-.281h0a.273.273,0,0,0,0-.041c-.034-.519-.062-1.033-.121-1.56-.093-.834.072-1.7.058-2.649a.3.3,0,0,0-.3-.3.384.384,0,0,0-.068.009,13.241,13.241,0,0,0-7.715,4.971A14.841,14.841,0,0,0,0,24.291a15.1,15.1,0,0,0,4.54,10.5,14.777,14.777,0,0,0,10.415,4.451,14.993,14.993,0,0,0,3.125-.328,14.837,14.837,0,0,0,2.977-.971.3.3,0,0,0,.088-.485q-.787-.776-1.529-1.613-.688-.777-1.342-1.615v-.006a.531.531,0,0,0-.426-.219l-.011,0a17.54,17.54,0,0,1-2.881.419" fill="#fff"/>
      <path id="Caminho_1790" data-name="Caminho 1790" d="M10.695,10.016h-.082a14.52,14.52,0,0,0-4.687,2.151l0,0a3.544,3.544,0,0,0-.38.3v0c1.567,5.735,4.4,15.131,9.421,17.144.233-.081.306-.207.162-.45a43.834,43.834,0,0,1-4.051-18.837.367.367,0,0,0-.381-.313" fill="#fb1a2a"/>
    </g>
  </g>
</svg>
