<svg xmlns="http://www.w3.org/2000/svg" width="120.817" height="38.374" viewBox="0 0 120.817 38.374">
  <g id="Arte_5" data-name="Arte 5" transform="translate(60.408 25)">
    <g id="Grupo_1290" data-name="Grupo 1290" transform="translate(-60.408 -25)">
      <rect id="Ret창ngulo_580" data-name="Ret창ngulo 580" width="5.963" height="27.352" transform="translate(59.86 10.941)" fill="#fff"/>
      <path id="Caminho_1784" data-name="Caminho 1784" d="M92,35.507c-2.023,2-4.96,3.08-8.623,3.08a11.778,11.778,0,0,1-8.529-3.14,11.557,11.557,0,0,1-3.164-8.456V11.511a.205.205,0,0,1,.205-.205h5.354a.205.205,0,0,1,.205.205V26.942a6.525,6.525,0,0,0,1.591,4.6,6.543,6.543,0,0,0,8.7.026A6.541,6.541,0,0,0,89.3,26.942V11.511a.205.205,0,0,1,.205-.205h5.4a.205.205,0,0,1,.205.205v15.48A11.568,11.568,0,0,1,92,35.507" transform="translate(-1.594 -0.251)" fill="#fff" fill-rule="evenodd"/>
      <path id="Caminho_1785" data-name="Caminho 1785" d="M39.283,38.526H33.32l-.177-28.042c.528.025,1.024.073,1.5.076,9.127.045,8.636,0,12.139.012,3.645.018,6.136,1.031,7.467,3.092s2,5.461,2,10.2V38.526H50.333V24.742c0-2.954-.076-4.906-.69-6.157A4.2,4.2,0,0,0,45.465,16.1c-2.661.076-.372.029-4.816.113l-1.467.028Z" transform="translate(-0.737 -0.233)" fill="#fff"/>
      <path id="Caminho_1786" data-name="Caminho 1786" d="M106.08,38.526h-5.962L99.94,10.484c.529.025,1.024.073,1.5.076,9.127.045,8.636,0,12.139.012,3.645.018,6.136,1.031,7.467,3.092s2,5.461,2,10.2V38.526H117.13V24.742c0-2.954-.076-4.906-.69-6.157a4.2,4.2,0,0,0-4.178-2.483c-2.661.076-.372.029-4.816.113l-1.467.028Z" transform="translate(-2.222 -0.233)" fill="#fff"/>
      <rect id="Ret창ngulo_581" data-name="Ret창ngulo 581" width="5.963" height="6.291" transform="translate(59.86)" fill="#fff"/>
      <path id="Caminho_1788" data-name="Caminho 1788" d="M13.138,14.357c6.538-.665,11.592,2.74,11.592,9.575,0,4.828-2.488,7.054-4.178,8.1-.333.207-.609.354-.8.448a1.107,1.107,0,0,0-.192.115c-.27.207-.294.307-.134.594q.625.8,1.289,1.548.719.813,1.472,1.559a.291.291,0,0,0,.346.048,12.057,12.057,0,0,0,4.933-4.978A14.777,14.777,0,0,0,26.155,14.7a13.511,13.511,0,0,0-11.3-5.259,10.335,10.335,0,0,0-1.879.259c-.4.165-.37.375-.412.66a5.781,5.781,0,0,0,0,.771c0,.057,0,.132-.006.206s-.008.164-.006.247l.006.414h0l0,.037c.014.7.025,1.315.057,2.018.014.333.2.34.529.3" transform="translate(-0.279 -0.21)" fill="#fff"/>
      <path id="Caminho_1789" data-name="Caminho 1789" d="M14.623,33.889a9.751,9.751,0,0,1-6.857-2.968,10.072,10.072,0,0,1-3.057-6.947,9.813,9.813,0,0,1,1.749-5.827,7.846,7.846,0,0,1,4.232-3.364.291.291,0,0,0,.2-.275h0a.267.267,0,0,0,0-.04c-.033-.507-.061-1.01-.118-1.525-.091-.815.07-1.666.057-2.59a.292.292,0,0,0-.3-.288.375.375,0,0,0-.066.009,12.946,12.946,0,0,0-7.543,4.86A14.511,14.511,0,0,0,0,23.975a14.761,14.761,0,0,0,4.439,10.27A14.448,14.448,0,0,0,14.623,38.6a14.66,14.66,0,0,0,3.056-.321,14.507,14.507,0,0,0,2.911-.949.292.292,0,0,0,.086-.474q-.77-.758-1.5-1.577-.673-.76-1.312-1.579v-.006a.519.519,0,0,0-.417-.214l-.011,0a17.15,17.15,0,0,1-2.817.41" transform="translate(0 -0.224)" fill="#fff"/>
      <path id="Caminho_1790" data-name="Caminho 1790" d="M10.58,10.016H10.5a14.2,14.2,0,0,0-4.583,2.1l0,0a3.466,3.466,0,0,0-.372.291v0C7.076,18.025,9.85,27.212,14.756,29.18c.228-.079.3-.2.158-.44a42.86,42.86,0,0,1-3.961-18.418.359.359,0,0,0-.373-.306" transform="translate(-0.123 -0.223)" fill="#fb1a2a"/>
    </g>
  </g>
</svg>
