<svg xmlns="http://www.w3.org/2000/svg" width="18.918" height="19.309" viewBox="0 0 18.918 19.309">
  <g id="Grupo_73" data-name="Grupo 73" transform="translate(-5.717 -5)">
    <path id="Caminho_138" data-name="Caminho 138" d="M6.351,14.629a18.885,18.885,0,0,0,3.763,5.3A18.049,18.049,0,0,0,15.37,23.7a6.3,6.3,0,0,0,2.447.6,2.252,2.252,0,0,0,1.654-.6l1.6-1.6a1.324,1.324,0,0,0-.1-1.863l-2.359-2.359a1.325,1.325,0,0,0-1.863-.1l-.735.735c-.2.152-1.462-.235-2.877-1.651S11.336,14.2,11.489,14l.735-.735a1.324,1.324,0,0,0-.1-1.863L9.768,9.04a1.324,1.324,0,0,0-1.863-.1l-1.6,1.6C5.505,11.342,5.522,12.793,6.351,14.629Zm.734-3.305,1.6-1.6a.089.089,0,0,1,.062-.018.362.362,0,0,1,.241.115l2.359,2.359c.122.122.132.267.1.3l-.735.735c-.914.915.139,2.924,1.652,4.437a8.332,8.332,0,0,0,2.333,1.694c1.236.558,1.849.213,2.1-.043l.735-.735c.035-.035.18-.025.3.1l2.359,2.359c.122.122.132.267.1.3l-1.6,1.6c-.444.444-1.52.356-2.879-.237a16.939,16.939,0,0,1-4.917-3.541,17.746,17.746,0,0,1-3.538-4.977C6.748,12.827,6.646,11.762,7.085,11.323Zm17.55,4.528A10.864,10.864,0,0,0,13.783,5V6.1a9.759,9.759,0,0,1,9.748,9.748Z" fill="#fefefe"/>
    <path id="Caminho_139" data-name="Caminho 139" d="M35.7,15.926v1.1a6.947,6.947,0,0,1,6.939,6.939h1.1A8.052,8.052,0,0,0,35.7,15.926Z" transform="translate(-21.712 -7.912)" fill="#fefefe"/>
    <path id="Caminho_140" data-name="Caminho 140" d="M39.831,31.342h1.1A5.24,5.24,0,0,0,35.7,26.108v1.1A4.135,4.135,0,0,1,39.831,31.342Z" transform="translate(-21.712 -15.285)" fill="#fefefe"/>
  </g>
</svg>
